<?xml version="1.0" encoding="UTF-8"?>
<svg xmlns="http://www.w3.org/2000/svg" xmlns:xlink="http://www.w3.org/1999/xlink" width="30pt" height="30pt" viewBox="0 0 30 30" version="1.1">
<g id="surface6">
<path style=" stroke:none;fill-rule:nonzero;fill:rgb(0%,0%,0%);fill-opacity:1;" d="M 8.75 15.539063 C 7.628906 13.140625 7.800781 10.878906 9.269531 8.75 C 10.300781 7.269531 11.871094 6.359375 14 6.03125 C 14.160156 5.988281 14.339844 5.960938 14.539063 5.949219 L 15.171875 5.949219 C 18.078125 6.039063 20.21875 7.328125 21.570313 9.828125 C 22.210938 11.011719 22.371094 12.308594 22.050781 13.738281 C 21.789063 14.871094 21.371094 15.929688 20.769531 16.910156 C 19.480469 18.921875 18.140625 20.550781 16.769531 21.789063 C 16.699219 21.859375 16.601563 21.949219 16.46875 22.050781 C 16.011719 22.398438 15.578125 22.578125 15.191406 22.589844 C 14.800781 22.601563 14.359375 22.449219 13.878906 22.140625 C 13.589844 21.96875 13.351563 21.769531 13.140625 21.550781 C 11.179688 19.550781 9.710938 17.550781 8.75 15.539063 Z M 8.859375 13.328125 C 8.878906 13.441406 8.910156 13.578125 8.949219 13.769531 C 8.988281 13.960938 9.019531 14.089844 9.039063 14.171875 C 9.320313 15.429688 9.898438 16.398438 10.769531 17.101563 C 11.648438 17.800781 12.730469 18.210938 14.03125 18.328125 C 14.320313 18.359375 14.488281 18.351563 14.539063 18.300781 C 14.589844 18.25 14.621094 18.070313 14.628906 17.78125 C 14.621094 17.699219 14.601563 17.570313 14.578125 17.390625 C 14.558594 17.210938 14.539063 17.078125 14.519531 17 C 14.269531 15.660156 13.640625 14.679688 12.621094 14.070313 C 12.441406 13.960938 12.230469 13.851563 12 13.730469 C 11.769531 13.609375 11.558594 13.53125 11.390625 13.460938 C 11.21875 13.390625 10.988281 13.300781 10.699219 13.191406 C 10.410156 13.078125 10.199219 13 10.070313 12.941406 C 9.910156 12.878906 9.648438 12.839844 9.269531 12.828125 C 8.949219 12.828125 8.808594 13 8.859375 13.328125 Z M 15.660156 17.730469 C 15.640625 18.039063 15.660156 18.21875 15.71875 18.289063 C 15.789063 18.359375 15.96875 18.371094 16.269531 18.328125 C 16.648438 18.289063 17.050781 18.210938 17.46875 18.109375 C 18.539063 17.839844 19.410156 17.269531 20.089844 16.398438 C 20.429688 15.988281 20.691406 15.539063 20.859375 15.058594 C 21.03125 14.578125 21.199219 14.011719 21.328125 13.339844 C 21.378906 13.109375 21.371094 12.960938 21.300781 12.878906 C 21.230469 12.800781 21.078125 12.769531 20.859375 12.800781 C 20.269531 12.898438 19.738281 13.03125 19.269531 13.199219 C 18.121094 13.628906 17.25 14.210938 16.648438 14.941406 C 16.050781 15.679688 15.71875 16.601563 15.660156 17.730469 Z M 15.660156 17.730469 "/>
</g>
</svg>
