<?xml version="1.0" encoding="UTF-8"?>
<svg xmlns="http://www.w3.org/2000/svg" xmlns:xlink="http://www.w3.org/1999/xlink" width="30pt" height="30pt" viewBox="0 0 30 30" version="1.1">
<g id="surface21">
<path style=" stroke:none;fill-rule:nonzero;fill:rgb(0%,0%,0%);fill-opacity:1;" d="M 4.609375 16.878906 C 4.609375 18.21875 5.078125 19.359375 6.011719 20.320313 C 6.941406 21.28125 8.078125 21.789063 9.410156 21.851563 C 9.519531 21.851563 9.578125 21.789063 9.578125 21.679688 L 9.578125 20.339844 C 9.578125 20.21875 9.519531 20.160156 9.410156 20.160156 C 8.550781 20.121094 7.820313 19.78125 7.21875 19.140625 C 6.621094 18.5 6.320313 17.75 6.320313 16.878906 C 6.320313 16.050781 6.601563 15.328125 7.171875 14.710938 C 7.738281 14.089844 8.441406 13.738281 9.269531 13.640625 L 9.800781 13.601563 C 9.929688 13.601563 10 13.539063 10 13.429688 L 10.078125 12.878906 C 10.179688 11.800781 10.628906 10.890625 11.441406 10.171875 C 12.25 9.441406 13.199219 9.078125 14.300781 9.078125 C 15.390625 9.078125 16.339844 9.441406 17.160156 10.171875 C 17.980469 10.898438 18.441406 11.800781 18.558594 12.878906 L 18.628906 13.460938 C 18.628906 13.570313 18.691406 13.628906 18.800781 13.628906 L 20.421875 13.628906 C 21.308594 13.628906 22.078125 13.949219 22.730469 14.601563 C 23.378906 15.238281 23.710938 16 23.710938 16.878906 C 23.710938 17.75 23.410156 18.5 22.800781 19.140625 C 22.191406 19.78125 21.460938 20.121094 20.609375 20.160156 C 20.480469 20.160156 20.421875 20.21875 20.421875 20.339844 L 20.421875 21.679688 C 20.421875 21.789063 20.480469 21.851563 20.609375 21.851563 C 21.488281 21.828125 22.289063 21.589844 23.019531 21.128906 C 23.75 20.679688 24.328125 20.078125 24.75 19.328125 C 25.171875 18.578125 25.378906 17.761719 25.378906 16.878906 C 25.378906 15.980469 25.160156 15.148438 24.710938 14.398438 C 24.269531 13.640625 23.660156 13.050781 22.898438 12.609375 C 22.140625 12.171875 21.308594 11.960938 20.410156 11.960938 L 20.078125 11.960938 C 19.75 10.621094 19.050781 9.53125 17.980469 8.671875 C 16.910156 7.808594 15.671875 7.390625 14.289063 7.390625 C 12.878906 7.390625 11.621094 7.828125 10.53125 8.699219 C 9.441406 9.570313 8.730469 10.699219 8.421875 12.070313 C 7.320313 12.328125 6.410156 12.910156 5.691406 13.808594 C 4.96875 14.710938 4.609375 15.730469 4.609375 16.878906 Z M 11.578125 18.398438 C 11.578125 18.640625 11.660156 18.839844 11.820313 19 L 14.410156 21.609375 C 14.53125 21.769531 14.730469 21.839844 14.980469 21.839844 C 15.261719 21.839844 15.460938 21.761719 15.589844 21.609375 L 18.191406 19 C 18.351563 18.828125 18.429688 18.621094 18.429688 18.398438 C 18.429688 18.171875 18.351563 17.96875 18.191406 17.820313 C 18.03125 17.671875 17.828125 17.589844 17.589844 17.589844 C 17.351563 17.589844 17.148438 17.671875 16.96875 17.820313 L 15.851563 18.929688 L 15.851563 14.949219 C 15.851563 14.710938 15.769531 14.519531 15.601563 14.359375 C 15.429688 14.199219 15.230469 14.128906 14.988281 14.128906 C 14.75 14.128906 14.558594 14.210938 14.398438 14.359375 C 14.238281 14.519531 14.171875 14.710938 14.171875 14.949219 L 14.171875 18.929688 L 13.070313 17.820313 C 12.890625 17.660156 12.691406 17.589844 12.441406 17.589844 C 12.191406 17.589844 11.988281 17.671875 11.828125 17.820313 C 11.660156 17.96875 11.578125 18.171875 11.578125 18.398438 Z M 11.578125 18.398438 "/>
</g>
</svg>
