<?xml version="1.0" encoding="UTF-8"?>
<svg xmlns="http://www.w3.org/2000/svg" xmlns:xlink="http://www.w3.org/1999/xlink" width="30pt" height="30pt" viewBox="0 0 30 30" version="1.1">
<g id="surface51">
<path style=" stroke:none;fill-rule:nonzero;fill:rgb(0%,0%,0%);fill-opacity:1;" d="M 3.890625 17.601563 C 3.890625 16.609375 4.199219 15.71875 4.820313 14.949219 C 5.441406 14.179688 6.230469 13.679688 7.199219 13.460938 C 7.460938 12.289063 8.050781 11.320313 8.980469 10.578125 C 9.910156 9.828125 10.980469 9.460938 12.199219 9.460938 C 13.378906 9.460938 14.441406 9.820313 15.359375 10.550781 C 16.289063 11.28125 16.890625 12.210938 17.160156 13.351563 L 17.429688 13.351563 C 18.609375 13.351563 19.609375 13.761719 20.441406 14.589844 C 21.269531 15.421875 21.691406 16.421875 21.691406 17.589844 C 21.691406 18.769531 21.269531 19.769531 20.441406 20.601563 C 19.609375 21.429688 18.609375 21.851563 17.429688 21.851563 L 8.160156 21.851563 C 7.578125 21.851563 7.03125 21.738281 6.511719 21.511719 C 5.988281 21.28125 5.519531 21 5.140625 20.621094 C 4.761719 20.238281 4.460938 19.78125 4.230469 19.261719 C 4 18.738281 3.890625 18.171875 3.890625 17.601563 Z M 5.339844 17.601563 C 5.339844 18.359375 5.621094 19.019531 6.160156 19.558594 C 6.699219 20.101563 7.371094 20.378906 8.148438 20.378906 L 17.429688 20.378906 C 18.199219 20.378906 18.871094 20.109375 19.421875 19.558594 C 19.96875 19.011719 20.25 18.359375 20.25 17.601563 C 20.25 16.839844 19.980469 16.179688 19.421875 15.640625 C 18.871094 15.101563 18.210938 14.820313 17.429688 14.820313 L 16.039063 14.820313 C 15.941406 14.820313 15.890625 14.769531 15.890625 14.671875 L 15.820313 14.179688 C 15.71875 13.238281 15.320313 12.449219 14.628906 11.828125 C 13.941406 11.210938 13.121094 10.898438 12.179688 10.898438 C 11.238281 10.898438 10.421875 11.210938 9.71875 11.839844 C 9.019531 12.460938 8.628906 13.25 8.539063 14.179688 L 8.46875 14.601563 C 8.46875 14.699219 8.421875 14.75 8.308594 14.75 L 7.859375 14.820313 C 7.140625 14.878906 6.539063 15.179688 6.050781 15.710938 C 5.589844 16.238281 5.339844 16.871094 5.339844 17.601563 Z M 14.191406 8.878906 C 14.089844 8.96875 14.109375 9.039063 14.261719 9.089844 C 14.691406 9.28125 15.050781 9.460938 15.339844 9.640625 C 15.449219 9.671875 15.53125 9.660156 15.558594 9.609375 C 16.171875 9.039063 16.871094 8.75 17.679688 8.75 C 18.488281 8.75 19.179688 9.019531 19.78125 9.558594 C 20.371094 10.101563 20.699219 10.769531 20.769531 11.558594 L 20.859375 12.199219 L 22.28125 12.199219 C 22.929688 12.199219 23.488281 12.429688 23.960938 12.898438 C 24.429688 13.371094 24.660156 13.921875 24.660156 14.558594 C 24.660156 15.160156 24.449219 15.679688 24.039063 16.128906 C 23.628906 16.578125 23.121094 16.828125 22.511719 16.898438 C 22.410156 16.898438 22.359375 16.949219 22.359375 17.058594 L 22.359375 18.191406 C 22.359375 18.300781 22.410156 18.351563 22.511719 18.351563 C 23.519531 18.289063 24.371094 17.890625 25.058594 17.160156 C 25.75 16.429688 26.101563 15.558594 26.101563 14.558594 C 26.101563 13.5 25.730469 12.601563 24.980469 11.859375 C 24.230469 11.109375 23.328125 10.738281 22.28125 10.738281 L 22.128906 10.738281 C 21.871094 9.738281 21.320313 8.921875 20.480469 8.269531 C 19.648438 7.621094 18.710938 7.300781 17.679688 7.300781 C 16.28125 7.289063 15.109375 7.820313 14.191406 8.878906 Z M 14.191406 8.878906 "/>
</g>
</svg>
