<?xml version="1.0" encoding="UTF-8"?>
<svg xmlns="http://www.w3.org/2000/svg" xmlns:xlink="http://www.w3.org/1999/xlink" width="30pt" height="30pt" viewBox="0 0 30 30" version="1.1">
<g id="surface16">
<path style=" stroke:none;fill-rule:nonzero;fill:rgb(0%,0%,0%);fill-opacity:1;" d="M 9.75 10.980469 C 9.75 10.480469 9.929688 10.050781 10.28125 9.699219 C 10.640625 9.339844 11.058594 9.171875 11.558594 9.171875 C 12.050781 9.171875 12.480469 9.351563 12.828125 9.699219 C 13.179688 10.058594 13.359375 10.480469 13.359375 10.980469 C 13.359375 11.480469 13.179688 11.910156 12.828125 12.261719 C 12.480469 12.621094 12.050781 12.789063 11.558594 12.789063 C 11.058594 12.789063 10.628906 12.609375 10.28125 12.261719 C 9.929688 11.910156 9.75 11.480469 9.75 10.980469 Z M 10.628906 10.980469 C 10.628906 11.238281 10.71875 11.460938 10.898438 11.648438 C 11.089844 11.839844 11.308594 11.929688 11.570313 11.929688 C 11.828125 11.929688 12.050781 11.839844 12.238281 11.648438 C 12.429688 11.460938 12.519531 11.238281 12.519531 10.980469 C 12.519531 10.71875 12.429688 10.5 12.238281 10.308594 C 12.050781 10.121094 11.828125 10.03125 11.570313 10.03125 C 11.308594 10.03125 11.089844 10.121094 10.898438 10.308594 C 10.71875 10.488281 10.628906 10.71875 10.628906 10.980469 Z M 14.519531 15.398438 C 14.519531 16.171875 14.730469 16.851563 15.160156 17.449219 C 15.378906 17.761719 15.691406 18.011719 16.089844 18.199219 C 16.480469 18.378906 16.929688 18.480469 17.429688 18.480469 C 18.890625 18.480469 19.808594 17.921875 20.179688 16.808594 C 20.21875 16.671875 20.199219 16.53125 20.121094 16.398438 C 20.039063 16.269531 19.929688 16.199219 19.789063 16.171875 C 19.648438 16.128906 19.511719 16.148438 19.390625 16.238281 C 19.269531 16.320313 19.191406 16.429688 19.160156 16.578125 C 19.160156 16.589844 19.160156 16.601563 19.148438 16.628906 L 19.128906 16.699219 C 19.019531 16.890625 18.871094 17.039063 18.679688 17.148438 C 18.371094 17.339844 17.960938 17.429688 17.449219 17.429688 C 17.140625 17.429688 16.859375 17.378906 16.621094 17.269531 C 16.21875 17.101563 15.941406 16.800781 15.769531 16.378906 C 15.660156 16.109375 15.601563 15.78125 15.601563 15.410156 L 15.601563 12.191406 C 15.601563 12.039063 15.609375 11.890625 15.628906 11.738281 C 15.671875 11.359375 15.820313 11.011719 16.078125 10.699219 C 16.371094 10.351563 16.828125 10.179688 17.460938 10.179688 C 17.980469 10.179688 18.390625 10.269531 18.691406 10.449219 C 18.890625 10.570313 19.039063 10.71875 19.140625 10.898438 C 19.148438 10.921875 19.148438 10.949219 19.160156 10.980469 C 19.171875 11.011719 19.171875 11.03125 19.171875 11.039063 C 19.210938 11.179688 19.289063 11.28125 19.398438 11.339844 C 19.519531 11.410156 19.648438 11.421875 19.800781 11.390625 C 19.941406 11.359375 20.050781 11.28125 20.128906 11.160156 C 20.210938 11.039063 20.230469 10.910156 20.191406 10.761719 L 20.191406 10.75 L 20.109375 10.519531 C 20.058594 10.410156 19.96875 10.261719 19.828125 10.089844 C 19.699219 9.910156 19.539063 9.769531 19.378906 9.648438 C 19.171875 9.5 18.898438 9.378906 18.558594 9.269531 C 18.21875 9.171875 17.851563 9.121094 17.449219 9.121094 C 16.941406 9.121094 16.5 9.210938 16.101563 9.390625 C 15.710938 9.570313 15.398438 9.808594 15.191406 10.121094 C 14.761719 10.710938 14.539063 11.398438 14.539063 12.191406 L 14.539063 15.398438 Z M 14.519531 15.398438 "/>
</g>
</svg>
