<?xml version="1.0" encoding="UTF-8"?>
<svg xmlns="http://www.w3.org/2000/svg" xmlns:xlink="http://www.w3.org/1999/xlink" width="30pt" height="30pt" viewBox="0 0 30 30" version="1.1">
<g id="surface46">
<path style=" stroke:none;fill-rule:nonzero;fill:rgb(0%,0%,0%);fill-opacity:1;" d="M 3.101563 21.039063 C 3.101563 20.800781 3.179688 20.589844 3.351563 20.429688 C 3.519531 20.269531 3.730469 20.191406 3.980469 20.191406 L 12.949219 20.191406 C 13.191406 20.191406 13.378906 20.269531 13.539063 20.429688 C 13.699219 20.589844 13.769531 20.789063 13.769531 21.039063 C 13.769531 21.28125 13.691406 21.480469 13.53125 21.640625 C 13.371094 21.800781 13.179688 21.878906 12.941406 21.878906 L 3.980469 21.878906 C 3.730469 21.878906 3.519531 21.800781 3.351563 21.640625 C 3.179688 21.480469 3.101563 21.269531 3.101563 21.039063 Z M 5.730469 17.980469 C 5.730469 17.738281 5.820313 17.539063 6 17.378906 C 6.140625 17.230469 6.339844 17.148438 6.589844 17.148438 L 15.589844 17.148438 C 15.820313 17.148438 16.011719 17.230469 16.171875 17.378906 C 16.328125 17.53125 16.398438 17.730469 16.398438 17.96875 C 16.398438 18.210938 16.320313 18.410156 16.171875 18.578125 C 16.019531 18.75 15.820313 18.828125 15.589844 18.828125 L 6.589844 18.828125 C 6.359375 18.828125 6.160156 18.738281 5.988281 18.570313 C 5.820313 18.398438 5.730469 18.210938 5.730469 17.980469 Z M 6.351563 15.648438 C 6.351563 15.738281 6.410156 15.789063 6.519531 15.789063 L 7.949219 15.789063 C 8.039063 15.789063 8.121094 15.738281 8.179688 15.648438 C 8.410156 15.109375 8.75 14.660156 9.21875 14.300781 C 9.691406 13.941406 10.210938 13.738281 10.800781 13.699219 L 11.339844 13.628906 C 11.449219 13.628906 11.511719 13.570313 11.511719 13.449219 L 11.578125 12.929688 C 11.691406 11.839844 12.160156 10.941406 12.96875 10.210938 C 13.789063 9.480469 14.738281 9.121094 15.839844 9.121094 C 16.929688 9.121094 17.871094 9.480469 18.671875 10.191406 C 19.46875 10.910156 19.941406 11.808594 20.078125 12.890625 L 20.148438 13.480469 C 20.148438 13.589844 20.210938 13.640625 20.328125 13.640625 L 21.929688 13.640625 C 22.839844 13.640625 23.609375 13.960938 24.25 14.601563 C 24.890625 15.238281 25.210938 16.011719 25.210938 16.921875 C 25.210938 17.800781 24.878906 18.558594 24.238281 19.199219 C 23.589844 19.851563 22.820313 20.171875 21.929688 20.171875 L 15.039063 20.171875 C 14.921875 20.171875 14.859375 20.230469 14.859375 20.339844 L 14.859375 21.679688 C 14.859375 21.800781 14.921875 21.859375 15.039063 21.859375 L 21.929688 21.859375 C 22.609375 21.859375 23.25 21.730469 23.871094 21.46875 C 24.488281 21.210938 25.011719 20.859375 25.449219 20.421875 C 25.890625 19.980469 26.238281 19.449219 26.5 18.839844 C 26.761719 18.230469 26.890625 17.589844 26.890625 16.921875 C 26.890625 16.019531 26.671875 15.191406 26.230469 14.429688 C 25.789063 13.671875 25.191406 13.070313 24.429688 12.628906 C 23.671875 12.191406 22.828125 11.96875 21.929688 11.96875 L 21.621094 11.96875 C 21.289063 10.628906 20.589844 9.53125 19.519531 8.671875 C 18.441406 7.820313 17.21875 7.390625 15.839844 7.390625 C 14.421875 7.390625 13.171875 7.828125 12.078125 8.71875 C 10.988281 9.601563 10.300781 10.730469 10 12.109375 C 9.140625 12.300781 8.378906 12.710938 7.730469 13.320313 C 7.078125 13.929688 6.628906 14.671875 6.371094 15.539063 L 6.371094 15.558594 C 6.359375 15.601563 6.351563 15.621094 6.351563 15.648438 Z M 7.5 24.128906 C 7.5 23.890625 7.589844 23.691406 7.761719 23.53125 C 7.910156 23.371094 8.109375 23.300781 8.351563 23.300781 L 17.339844 23.300781 C 17.578125 23.300781 17.789063 23.378906 17.949219 23.539063 C 18.121094 23.699219 18.199219 23.898438 18.199219 24.140625 C 18.199219 24.378906 18.121094 24.578125 17.949219 24.75 C 17.78125 24.921875 17.578125 25 17.339844 25 L 8.351563 25 C 8.121094 25 7.921875 24.921875 7.75 24.75 C 7.578125 24.570313 7.5 24.371094 7.5 24.128906 Z M 7.5 24.128906 "/>
</g>
</svg>
