<?xml version="1.0" encoding="UTF-8"?>
<svg xmlns="http://www.w3.org/2000/svg" xmlns:xlink="http://www.w3.org/1999/xlink" width="30pt" height="30pt" viewBox="0 0 30 30" version="1.1">
<g id="surface36">
<path style=" stroke:none;fill-rule:nonzero;fill:rgb(0%,0%,0%);fill-opacity:1;" d="M 4.609375 16.878906 C 4.609375 15.730469 4.96875 14.710938 5.691406 13.808594 C 6.410156 12.910156 7.320313 12.328125 8.429688 12.078125 C 8.738281 10.710938 9.449219 9.589844 10.539063 8.710938 C 11.628906 7.828125 12.890625 7.390625 14.300781 7.390625 C 15.679688 7.390625 16.910156 7.820313 17.988281 8.671875 C 19.070313 9.519531 19.769531 10.621094 20.089844 11.960938 L 20.421875 11.960938 C 21.320313 11.960938 22.148438 12.179688 22.910156 12.609375 C 23.671875 13.039063 24.28125 13.640625 24.71875 14.398438 C 25.160156 15.160156 25.390625 15.980469 25.390625 16.878906 C 25.390625 17.761719 25.179688 18.578125 24.761719 19.328125 C 24.339844 20.078125 23.761719 20.679688 23.03125 21.128906 C 22.300781 21.578125 21.488281 21.820313 20.621094 21.851563 L 9.410156 21.851563 C 8.070313 21.789063 6.941406 21.28125 6.011719 20.320313 C 5.078125 19.371094 4.609375 18.21875 4.609375 16.878906 Z M 6.320313 16.878906 C 6.320313 17.75 6.621094 18.5 7.21875 19.140625 C 7.820313 19.78125 8.550781 20.121094 9.410156 20.171875 L 20.601563 20.171875 C 21.460938 20.128906 22.191406 19.78125 22.789063 19.140625 C 23.398438 18.5 23.699219 17.738281 23.699219 16.878906 C 23.699219 16 23.371094 15.25 22.71875 14.609375 C 22.070313 13.96875 21.300781 13.648438 20.398438 13.648438 L 18.800781 13.648438 C 18.691406 13.648438 18.628906 13.589844 18.628906 13.46875 L 18.558594 12.898438 C 18.449219 11.820313 17.980469 10.910156 17.160156 10.179688 C 16.339844 9.449219 15.390625 9.078125 14.300781 9.078125 C 13.210938 9.078125 12.25 9.449219 11.449219 10.179688 C 10.640625 10.910156 10.179688 11.820313 10.078125 12.898438 L 10 13.46875 C 10 13.589844 9.929688 13.648438 9.800781 13.648438 L 9.269531 13.648438 C 8.429688 13.75 7.730469 14.109375 7.171875 14.71875 C 6.609375 15.328125 6.320313 16.050781 6.320313 16.878906 Z M 6.320313 16.878906 "/>
</g>
</svg>
