<?xml version="1.0" encoding="UTF-8"?>
<svg xmlns="http://www.w3.org/2000/svg" xmlns:xlink="http://www.w3.org/1999/xlink" width="30pt" height="30pt" viewBox="0 0 30 30" version="1.1">
<g id="surface96">
<path style=" stroke:none;fill-rule:nonzero;fill:rgb(0%,0%,0%);fill-opacity:1;" d="M 1.558594 16.898438 C 1.558594 18.230469 2.019531 19.371094 2.949219 20.328125 C 3.878906 21.289063 5.011719 21.800781 6.351563 21.859375 C 6.460938 21.859375 6.519531 21.800781 6.519531 21.691406 L 6.519531 20.320313 C 6.519531 20.199219 6.460938 20.140625 6.351563 20.140625 C 5.480469 20.070313 4.75 19.730469 4.160156 19.101563 C 3.570313 18.480469 3.269531 17.738281 3.269531 16.890625 C 3.269531 16.050781 3.550781 15.320313 4.121094 14.699219 C 4.691406 14.078125 5.378906 13.730469 6.21875 13.660156 L 6.738281 13.578125 C 6.871094 13.578125 6.941406 13.519531 6.941406 13.410156 L 7 12.898438 C 7.109375 11.820313 7.558594 10.910156 8.371094 10.191406 C 9.179688 9.460938 10.128906 9.101563 11.230469 9.101563 C 12.320313 9.101563 13.269531 9.460938 14.078125 10.191406 C 14.890625 10.910156 15.351563 11.820313 15.46875 12.910156 L 15.539063 13.488281 C 15.539063 13.601563 15.601563 13.660156 15.730469 13.660156 L 17.328125 13.660156 C 18.238281 13.660156 19.011719 13.980469 19.648438 14.609375 C 20.289063 15.238281 20.609375 16 20.609375 16.890625 C 20.609375 17.738281 20.308594 18.480469 19.71875 19.101563 C 19.128906 19.71875 18.398438 20.070313 17.53125 20.140625 C 17.398438 20.140625 17.328125 20.199219 17.328125 20.320313 L 17.328125 21.691406 C 17.328125 21.800781 17.398438 21.859375 17.53125 21.859375 C 18.859375 21.820313 19.988281 21.308594 20.910156 20.351563 C 21.828125 19.390625 22.289063 18.238281 22.289063 16.898438 C 22.289063 16.21875 22.128906 15.53125 21.820313 14.828125 C 22.601563 13.890625 23 12.800781 23 11.558594 C 23 10.851563 22.859375 10.171875 22.578125 9.519531 C 22.300781 8.871094 21.929688 8.320313 21.460938 7.851563 C 20.988281 7.378906 20.429688 7.011719 19.789063 6.730469 C 19.140625 6.460938 18.46875 6.320313 17.761719 6.320313 C 16.21875 6.320313 14.921875 6.898438 13.878906 8.050781 C 13.019531 7.640625 12.140625 7.429688 11.230469 7.429688 C 9.808594 7.429688 8.558594 7.859375 7.46875 8.730469 C 6.378906 9.601563 5.679688 10.71875 5.371094 12.101563 C 4.269531 12.359375 3.359375 12.929688 2.640625 13.828125 C 1.921875 14.730469 1.558594 15.75 1.558594 16.898438 Z M 9.058594 28.171875 L 9.359375 28.171875 L 14.679688 20.320313 C 14.71875 20.28125 14.730469 20.230469 14.699219 20.179688 C 14.671875 20.128906 14.628906 20.109375 14.558594 20.109375 L 12.378906 20.109375 L 14.679688 15.898438 C 14.75 15.761719 14.710938 15.679688 14.539063 15.679688 L 11.601563 15.679688 C 11.519531 15.679688 11.449219 15.730469 11.378906 15.820313 L 9.21875 21.539063 C 9.199219 21.679688 9.238281 21.75 9.359375 21.75 L 11.53125 21.75 Z M 9.941406 4.589844 C 9.941406 4.839844 10.019531 5.050781 10.179688 5.210938 L 10.839844 5.859375 C 11.261719 6.179688 11.660156 6.179688 12.050781 5.859375 C 12.210938 5.679688 12.289063 5.46875 12.289063 5.21875 C 12.289063 4.988281 12.210938 4.789063 12.050781 4.628906 L 11.410156 3.980469 C 11.21875 3.808594 11.019531 3.730469 10.789063 3.730469 C 10.558594 3.730469 10.359375 3.808594 10.191406 3.980469 C 10.019531 4.148438 9.941406 4.359375 9.941406 4.589844 Z M 15.28125 9.019531 C 15.960938 8.339844 16.789063 8 17.761719 8 C 18.738281 8 19.570313 8.351563 20.25 9.039063 C 20.941406 9.730469 21.28125 10.570313 21.28125 11.558594 C 21.28125 12.171875 21.109375 12.769531 20.769531 13.371094 C 19.789063 12.429688 18.640625 11.960938 17.308594 11.960938 L 17 11.960938 C 16.738281 10.820313 16.160156 9.839844 15.28125 9.019531 Z M 16.898438 3.730469 C 16.898438 3.980469 16.980469 4.191406 17.140625 4.351563 C 17.300781 4.511719 17.5 4.589844 17.75 4.589844 C 17.988281 4.589844 18.179688 4.511719 18.339844 4.351563 C 18.5 4.191406 18.570313 3.980469 18.570313 3.730469 L 18.570313 1.691406 C 18.570313 1.449219 18.488281 1.261719 18.339844 1.101563 C 18.179688 0.941406 17.988281 0.871094 17.75 0.871094 C 17.511719 0.871094 17.308594 0.949219 17.148438 1.101563 C 16.988281 1.25 16.898438 1.449219 16.898438 1.691406 Z M 22.421875 6.050781 C 22.421875 6.28125 22.511719 6.480469 22.691406 6.648438 C 22.871094 6.820313 23.058594 6.898438 23.238281 6.898438 C 23.398438 6.898438 23.609375 6.820313 23.859375 6.648438 L 25.300781 5.21875 C 25.46875 5.039063 25.550781 4.828125 25.550781 4.589844 C 25.550781 4.351563 25.46875 4.140625 25.300781 3.980469 C 25.128906 3.820313 24.929688 3.738281 24.699219 3.738281 C 24.480469 3.738281 24.289063 3.820313 24.121094 3.988281 L 22.691406 5.421875 C 22.511719 5.609375 22.421875 5.820313 22.421875 6.050781 Z M 23.230469 17.871094 C 23.230469 18.101563 23.308594 18.300781 23.46875 18.480469 L 24.121094 19.140625 C 24.28125 19.300781 24.480469 19.378906 24.699219 19.378906 C 24.941406 19.378906 25.140625 19.300781 25.300781 19.128906 C 25.46875 18.960938 25.550781 18.75 25.550781 18.5 C 25.550781 18.269531 25.46875 18.078125 25.300781 17.929688 L 24.679688 17.269531 C 24.488281 17.109375 24.289063 17.039063 24.058594 17.039063 C 23.828125 17.039063 23.628906 17.121094 23.46875 17.28125 C 23.308594 17.441406 23.230469 17.640625 23.230469 17.871094 Z M 24.679688 11.558594 C 24.679688 11.78125 24.769531 11.96875 24.941406 12.128906 C 25.109375 12.300781 25.308594 12.378906 25.539063 12.378906 L 27.578125 12.378906 C 27.820313 12.378906 28.019531 12.300781 28.191406 12.140625 C 28.359375 11.980469 28.441406 11.789063 28.441406 11.550781 C 28.441406 11.308594 28.351563 11.109375 28.179688 10.941406 C 28.011719 10.769531 27.808594 10.691406 27.578125 10.691406 L 25.539063 10.691406 C 25.308594 10.691406 25.109375 10.769531 24.941406 10.941406 C 24.769531 11.121094 24.679688 11.320313 24.679688 11.558594 Z M 24.679688 11.558594 "/>
</g>
</svg>
