<?xml version="1.0" encoding="UTF-8"?>
<svg xmlns="http://www.w3.org/2000/svg" xmlns:xlink="http://www.w3.org/1999/xlink" width="30pt" height="30pt" viewBox="0 0 30 30" version="1.1">
<g id="surface86">
<path style=" stroke:none;fill-rule:nonzero;fill:rgb(0%,0%,0%);fill-opacity:1;" d="M 4.371094 15.621094 C 4.371094 15.378906 4.449219 15.179688 4.621094 15.011719 C 4.800781 14.839844 5 14.761719 5.21875 14.761719 L 7.261719 14.761719 C 7.488281 14.761719 7.679688 14.839844 7.839844 15.011719 C 7.988281 15.179688 8.070313 15.378906 8.070313 15.621094 C 8.070313 15.859375 7.988281 16.058594 7.839844 16.21875 C 7.691406 16.390625 7.488281 16.46875 7.261719 16.46875 L 5.230469 16.46875 C 5 16.46875 4.800781 16.390625 4.628906 16.21875 C 4.460938 16.050781 4.371094 15.851563 4.371094 15.621094 Z M 7.230469 8.710938 C 7.230469 8.480469 7.308594 8.28125 7.460938 8.101563 C 7.660156 7.929688 7.871094 7.851563 8.101563 7.851563 C 8.308594 7.851563 8.511719 7.929688 8.691406 8.101563 L 10.121094 9.558594 C 10.28125 9.710938 10.359375 9.910156 10.359375 10.148438 C 10.359375 10.390625 10.28125 10.589844 10.121094 10.75 C 9.960938 10.910156 9.761719 10.988281 9.519531 10.988281 C 9.28125 10.988281 9.078125 10.910156 8.929688 10.75 L 7.46875 9.320313 C 7.308594 9.148438 7.230469 8.949219 7.230469 8.710938 Z M 7.390625 18.019531 C 7.390625 17.800781 7.46875 17.609375 7.621094 17.46875 C 7.78125 17.328125 7.988281 17.25 8.261719 17.25 L 13.96875 17.25 C 14.238281 17.25 14.449219 17.320313 14.609375 17.46875 C 14.769531 17.609375 14.851563 17.800781 14.851563 18.019531 C 14.851563 18.289063 14.769531 18.5 14.621094 18.660156 C 14.460938 18.820313 14.25 18.898438 13.96875 18.898438 L 8.261719 18.898438 C 7.988281 18.898438 7.78125 18.820313 7.621094 18.671875 C 7.460938 18.519531 7.390625 18.289063 7.390625 18.019531 Z M 8.378906 20.96875 C 8.378906 20.75 8.46875 20.550781 8.660156 20.371094 C 8.839844 20.191406 9.050781 20.101563 9.261719 20.101563 C 9.519531 20.101563 9.730469 20.191406 9.890625 20.359375 C 10.050781 20.539063 10.128906 20.738281 10.128906 20.96875 C 10.128906 21.25 10.050781 21.460938 9.898438 21.621094 C 9.75 21.78125 9.53125 21.851563 9.261719 21.851563 C 9.03125 21.851563 8.820313 21.769531 8.648438 21.609375 C 8.46875 21.449219 8.378906 21.230469 8.378906 20.96875 Z M 9.789063 15.910156 L 9.789063 15.839844 C 9.820313 14.578125 10.261719 13.488281 11.101563 12.558594 C 11.941406 11.628906 12.96875 11.070313 14.199219 10.871094 L 14.25 10.871094 C 14.441406 10.828125 14.699219 10.808594 15.011719 10.808594 C 15.320313 10.808594 15.578125 10.828125 15.769531 10.871094 L 15.808594 10.871094 C 17.03125 11.058594 18.070313 11.628906 18.910156 12.558594 C 19.75 13.488281 20.191406 14.578125 20.21875 15.839844 L 20.21875 15.910156 C 20.21875 16.070313 20.140625 16.148438 19.988281 16.148438 L 18.859375 16.148438 C 18.738281 16.148438 18.660156 16.121094 18.609375 16.058594 C 18.558594 16 18.539063 15.941406 18.539063 15.878906 C 18.5 14.949219 18.140625 14.160156 17.460938 13.511719 C 16.78125 12.859375 15.96875 12.539063 15.019531 12.539063 C 14.070313 12.539063 13.261719 12.859375 12.578125 13.511719 C 11.898438 14.160156 11.539063 14.949219 11.5 15.878906 C 11.5 15.941406 11.46875 16 11.421875 16.058594 C 11.371094 16.121094 11.28125 16.148438 11.160156 16.148438 L 10.03125 16.148438 C 9.871094 16.148438 9.789063 16.070313 9.789063 15.910156 Z M 10.800781 20.96875 C 10.800781 20.738281 10.878906 20.539063 11.039063 20.359375 C 11.199219 20.191406 11.410156 20.101563 11.671875 20.101563 L 15.5 20.101563 C 15.71875 20.101563 15.921875 20.191406 16.101563 20.371094 C 16.28125 20.550781 16.378906 20.75 16.378906 20.96875 C 16.378906 21.230469 16.289063 21.449219 16.109375 21.609375 C 15.929688 21.769531 15.730469 21.851563 15.5 21.851563 L 11.671875 21.851563 C 11.398438 21.851563 11.191406 21.769531 11.03125 21.621094 C 10.871094 21.460938 10.800781 21.25 10.800781 20.96875 Z M 14.140625 7.890625 L 14.140625 5.859375 C 14.140625 5.621094 14.21875 5.421875 14.390625 5.25 C 14.558594 5.078125 14.761719 5 15 5 C 15.238281 5 15.429688 5.078125 15.601563 5.25 C 15.769531 5.421875 15.851563 5.621094 15.851563 5.859375 L 15.851563 7.890625 C 15.851563 8.121094 15.769531 8.320313 15.601563 8.46875 C 15.429688 8.621094 15.230469 8.710938 15 8.710938 C 14.769531 8.710938 14.558594 8.628906 14.398438 8.480469 C 14.238281 8.328125 14.140625 8.121094 14.140625 7.890625 Z M 15.5 18.019531 C 15.5 17.808594 15.589844 17.628906 15.769531 17.480469 C 15.949219 17.328125 16.148438 17.25 16.378906 17.25 C 16.609375 17.25 16.808594 17.328125 16.988281 17.480469 C 17.171875 17.628906 17.261719 17.808594 17.261719 18.019531 C 17.261719 18.28125 17.171875 18.5 16.988281 18.660156 C 16.808594 18.820313 16.609375 18.898438 16.378906 18.898438 C 16.148438 18.898438 15.941406 18.820313 15.769531 18.660156 C 15.589844 18.488281 15.5 18.28125 15.5 18.019531 Z M 17.039063 20.96875 C 17.039063 20.738281 17.121094 20.539063 17.28125 20.359375 C 17.441406 20.191406 17.660156 20.101563 17.921875 20.101563 L 19.78125 20.101563 C 20.039063 20.101563 20.25 20.191406 20.410156 20.359375 C 20.570313 20.539063 20.648438 20.738281 20.648438 20.96875 C 20.648438 21.25 20.570313 21.460938 20.421875 21.621094 C 20.269531 21.78125 20.050781 21.851563 19.78125 21.851563 L 17.921875 21.851563 C 17.648438 21.851563 17.441406 21.769531 17.28125 21.621094 C 17.121094 21.460938 17.039063 21.25 17.039063 20.96875 Z M 17.921875 18.019531 C 17.921875 17.808594 18.011719 17.628906 18.191406 17.480469 C 18.371094 17.328125 18.570313 17.25 18.789063 17.25 L 21.859375 17.25 C 22.078125 17.25 22.261719 17.320313 22.398438 17.46875 C 22.539063 17.621094 22.621094 17.800781 22.621094 18.019531 C 22.621094 18.289063 22.550781 18.5 22.410156 18.660156 C 22.269531 18.820313 22.089844 18.898438 21.859375 18.898438 L 18.789063 18.898438 C 18.558594 18.898438 18.359375 18.820313 18.179688 18.660156 C 18.011719 18.488281 17.921875 18.28125 17.921875 18.019531 Z M 19.660156 10.148438 C 19.660156 9.898438 19.738281 9.699219 19.890625 9.558594 L 21.308594 8.101563 C 21.488281 7.929688 21.691406 7.851563 21.898438 7.851563 C 22.128906 7.851563 22.328125 7.929688 22.5 8.101563 C 22.671875 8.269531 22.75 8.46875 22.75 8.710938 C 22.75 8.949219 22.671875 9.160156 22.511719 9.320313 L 21.050781 10.738281 C 20.871094 10.898438 20.671875 10.980469 20.449219 10.980469 C 20.21875 10.980469 20.039063 10.898438 19.890625 10.738281 C 19.738281 10.589844 19.660156 10.390625 19.660156 10.148438 Z M 21.921875 15.621094 C 21.921875 15.390625 22 15.191406 22.160156 15.011719 C 22.328125 14.839844 22.519531 14.761719 22.730469 14.761719 L 24.75 14.761719 C 24.980469 14.761719 25.179688 14.851563 25.351563 15.019531 C 25.519531 15.191406 25.609375 15.390625 25.609375 15.621094 C 25.609375 15.851563 25.519531 16.050781 25.351563 16.21875 C 25.179688 16.390625 24.980469 16.46875 24.75 16.46875 L 22.730469 16.46875 C 22.5 16.46875 22.300781 16.390625 22.148438 16.21875 C 22 16.050781 21.921875 15.859375 21.921875 15.621094 Z M 21.921875 15.621094 "/>
</g>
</svg>
