<?xml version="1.0" encoding="UTF-8"?>
<svg xmlns="http://www.w3.org/2000/svg" xmlns:xlink="http://www.w3.org/1999/xlink" width="30pt" height="30pt" viewBox="0 0 30 30" version="1.1">
<g id="surface171">
<path style=" stroke:none;fill-rule:nonzero;fill:rgb(0%,0%,0%);fill-opacity:1;" d="M 1.480469 21.101563 C 1.480469 21.339844 1.570313 21.539063 1.75 21.699219 C 1.921875 21.871094 2.121094 21.949219 2.359375 21.949219 L 8.238281 21.949219 C 8.5 21.949219 8.71875 22.039063 8.921875 22.230469 C 9.121094 22.421875 9.21875 22.648438 9.21875 22.910156 C 9.21875 23.171875 9.121094 23.410156 8.921875 23.601563 C 8.71875 23.789063 8.5 23.890625 8.238281 23.890625 C 7.980469 23.890625 7.761719 23.789063 7.558594 23.589844 C 7.378906 23.429688 7.179688 23.351563 6.949219 23.351563 C 6.710938 23.351563 6.511719 23.429688 6.351563 23.589844 C 6.191406 23.75 6.109375 23.949219 6.109375 24.191406 C 6.109375 24.429688 6.191406 24.628906 6.351563 24.789063 C 6.878906 25.320313 7.511719 25.589844 8.238281 25.589844 C 8.980469 25.589844 9.609375 25.328125 10.121094 24.808594 C 10.628906 24.289063 10.898438 23.660156 10.898438 22.921875 C 10.898438 22.179688 10.640625 21.550781 10.121094 21.03125 C 9.601563 20.511719 8.96875 20.25 8.238281 20.25 L 2.359375 20.25 C 2.121094 20.25 1.921875 20.328125 1.738281 20.5 C 1.570313 20.671875 1.480469 20.871094 1.480469 21.101563 Z M 1.480469 18.089844 C 1.480469 18.320313 1.570313 18.511719 1.75 18.671875 C 1.910156 18.828125 2.121094 18.910156 2.359375 18.910156 L 13.328125 18.910156 C 14.070313 18.910156 14.699219 18.648438 15.21875 18.128906 C 15.738281 17.609375 16 16.980469 16 16.238281 C 16 15.5 15.738281 14.878906 15.21875 14.359375 C 14.699219 13.851563 14.070313 13.589844 13.328125 13.589844 C 12.570313 13.589844 11.949219 13.839844 11.449219 14.351563 C 11.289063 14.511719 11.21875 14.71875 11.21875 14.960938 C 11.21875 15.199219 11.300781 15.398438 11.449219 15.558594 C 11.601563 15.710938 11.800781 15.789063 12.050781 15.789063 C 12.289063 15.789063 12.488281 15.710938 12.671875 15.558594 C 12.859375 15.371094 13.078125 15.28125 13.351563 15.28125 C 13.621094 15.28125 13.839844 15.371094 14.03125 15.558594 C 14.21875 15.75 14.320313 15.980469 14.320313 16.238281 C 14.320313 16.511719 14.21875 16.738281 14.03125 16.929688 C 13.839844 17.121094 13.609375 17.21875 13.351563 17.21875 L 2.359375 17.21875 C 2.121094 17.21875 1.921875 17.308594 1.738281 17.480469 C 1.570313 17.660156 1.480469 17.859375 1.480469 18.089844 Z M 7.269531 11.550781 C 7.269531 11.308594 7.359375 11.109375 7.53125 10.929688 C 7.710938 10.769531 7.910156 10.691406 8.128906 10.691406 L 10.160156 10.691406 C 10.390625 10.691406 10.578125 10.769531 10.738281 10.941406 C 10.898438 11.109375 10.96875 11.308594 10.96875 11.550781 C 10.96875 11.789063 10.890625 11.988281 10.738281 12.148438 C 10.578125 12.320313 10.390625 12.398438 10.160156 12.398438 L 8.128906 12.398438 C 7.890625 12.398438 7.691406 12.320313 7.519531 12.148438 C 7.351563 11.980469 7.269531 11.78125 7.269531 11.550781 Z M 10.121094 4.628906 C 10.121094 4.398438 10.199219 4.199219 10.351563 4.019531 C 10.539063 3.859375 10.761719 3.78125 10.988281 3.78125 C 11.210938 3.78125 11.410156 3.859375 11.578125 4.019531 L 13.011719 5.488281 C 13.171875 5.640625 13.25 5.839844 13.25 6.078125 C 13.25 6.320313 13.171875 6.519531 13.011719 6.679688 C 12.851563 6.839844 12.648438 6.921875 12.421875 6.921875 C 12.179688 6.921875 11.980469 6.839844 11.828125 6.679688 L 10.359375 5.25 C 10.199219 5.078125 10.121094 4.878906 10.121094 4.628906 Z M 12.679688 11.429688 L 12.679688 11.359375 C 12.699219 10.449219 12.949219 9.609375 13.421875 8.828125 C 13.898438 8.058594 14.53125 7.449219 15.320313 7 C 16.109375 6.550781 16.96875 6.328125 17.890625 6.328125 C 18.589844 6.328125 19.261719 6.46875 19.910156 6.75 C 20.550781 7.03125 21.109375 7.398438 21.570313 7.871094 C 22.039063 8.339844 22.410156 8.890625 22.679688 9.53125 C 22.949219 10.171875 23.089844 10.851563 23.089844 11.550781 C 23.089844 12.488281 22.859375 13.351563 22.398438 14.148438 C 21.941406 14.949219 21.308594 15.578125 20.519531 16.039063 C 19.730469 16.511719 18.859375 16.738281 17.921875 16.75 L 17.710938 16.75 C 17.640625 16.75 17.578125 16.730469 17.539063 16.679688 C 17.488281 16.628906 17.46875 16.570313 17.46875 16.5 L 17.46875 15.28125 C 17.46875 15.148438 17.539063 15.078125 17.691406 15.078125 L 17.929688 15.078125 C 18.890625 15.070313 19.71875 14.730469 20.398438 14.03125 C 21.078125 13.339844 21.429688 12.511719 21.429688 11.539063 C 21.429688 10.578125 21.078125 9.761719 20.390625 9.070313 C 19.699219 8.390625 18.871094 8.050781 17.890625 8.050781 C 16.949219 8.050781 16.128906 8.371094 15.449219 9.03125 C 14.769531 9.679688 14.410156 10.46875 14.371094 11.398438 C 14.371094 11.460938 14.339844 11.511719 14.289063 11.570313 C 14.238281 11.628906 14.148438 11.660156 14.03125 11.660156 L 12.898438 11.660156 C 12.75 11.671875 12.679688 11.589844 12.679688 11.429688 Z M 17.03125 21.308594 L 17.03125 19.320313 C 17.03125 19.078125 17.109375 18.878906 17.28125 18.71875 C 17.449219 18.558594 17.648438 18.480469 17.878906 18.480469 C 18.128906 18.480469 18.328125 18.558594 18.488281 18.71875 C 18.648438 18.878906 18.730469 19.078125 18.730469 19.320313 L 18.730469 21.308594 C 18.730469 21.550781 18.648438 21.761719 18.480469 21.929688 C 18.308594 22.101563 18.109375 22.179688 17.878906 22.179688 C 17.640625 22.179688 17.441406 22.101563 17.28125 21.929688 C 17.121094 21.761719 17.03125 21.550781 17.03125 21.308594 Z M 17.03125 3.828125 L 17.03125 1.78125 C 17.03125 1.550781 17.109375 1.351563 17.28125 1.179688 C 17.449219 1.011719 17.648438 0.929688 17.878906 0.929688 C 18.121094 0.929688 18.320313 1.011719 18.480469 1.179688 C 18.640625 1.351563 18.730469 1.550781 18.730469 1.78125 L 18.730469 3.820313 C 18.730469 4.050781 18.648438 4.238281 18.480469 4.398438 C 18.308594 4.550781 18.109375 4.628906 17.878906 4.628906 C 17.640625 4.628906 17.441406 4.550781 17.28125 4.398438 C 17.121094 4.25 17.03125 4.058594 17.03125 3.828125 Z M 22.558594 17.011719 C 22.558594 16.78125 22.640625 16.589844 22.789063 16.449219 C 22.941406 16.289063 23.128906 16.21875 23.359375 16.21875 C 23.601563 16.21875 23.800781 16.300781 23.960938 16.449219 L 25.410156 17.871094 C 25.570313 18.039063 25.648438 18.25 25.648438 18.480469 C 25.648438 18.710938 25.570313 18.910156 25.410156 19.070313 C 25.011719 19.378906 24.609375 19.378906 24.210938 19.070313 L 22.789063 17.640625 C 22.628906 17.480469 22.558594 17.261719 22.558594 17.011719 Z M 22.558594 6.078125 C 22.558594 5.828125 22.640625 5.628906 22.789063 5.488281 L 24.210938 4.019531 C 24.390625 3.859375 24.578125 3.78125 24.800781 3.78125 C 25.03125 3.78125 25.230469 3.859375 25.398438 4.03125 C 25.570313 4.199219 25.648438 4.398438 25.648438 4.628906 C 25.648438 4.878906 25.570313 5.089844 25.410156 5.25 L 23.960938 6.679688 C 23.78125 6.839844 23.578125 6.921875 23.359375 6.921875 C 23.128906 6.921875 22.949219 6.839844 22.789063 6.679688 C 22.628906 6.519531 22.558594 6.320313 22.558594 6.078125 Z M 24.820313 11.550781 C 24.820313 11.308594 24.898438 11.109375 25.058594 10.929688 C 25.21875 10.769531 25.410156 10.691406 25.628906 10.691406 L 27.648438 10.691406 C 27.878906 10.691406 28.078125 10.78125 28.261719 10.949219 C 28.441406 11.121094 28.519531 11.320313 28.519531 11.550781 C 28.519531 11.78125 28.429688 11.980469 28.261719 12.148438 C 28.078125 12.320313 27.878906 12.398438 27.648438 12.398438 L 25.628906 12.398438 C 25.398438 12.398438 25.210938 12.320313 25.050781 12.148438 C 24.890625 11.988281 24.820313 11.789063 24.820313 11.550781 Z M 24.820313 11.550781 "/>
</g>
</svg>
