<?xml version="1.0" encoding="UTF-8"?>
<svg xmlns="http://www.w3.org/2000/svg" xmlns:xlink="http://www.w3.org/1999/xlink" width="30pt" height="30pt" viewBox="0 0 30 30" version="1.1">
<g id="surface216">
<path style=" stroke:none;fill-rule:nonzero;fill:rgb(0%,0%,0%);fill-opacity:1;" d="M 9.949219 10.871094 C 9.941406 11.21875 10.050781 11.519531 10.289063 11.769531 C 10.53125 12.019531 10.820313 12.140625 11.179688 12.128906 C 11.519531 12.148438 11.808594 12.03125 12.058594 11.761719 L 13.71875 10.121094 L 13.71875 20.421875 C 13.710938 20.769531 13.828125 21.058594 14.078125 21.300781 C 14.328125 21.539063 14.628906 21.648438 15 21.640625 C 15.339844 21.660156 15.640625 21.550781 15.890625 21.320313 C 16.140625 21.089844 16.28125 20.789063 16.289063 20.441406 L 16.289063 10.140625 L 17.929688 11.78125 C 18.160156 12.019531 18.460938 12.148438 18.808594 12.148438 C 19.171875 12.148438 19.46875 12.03125 19.710938 11.789063 C 19.949219 11.550781 20.070313 11.261719 20.070313 10.898438 C 20.050781 10.539063 19.921875 10.261719 19.671875 10.050781 L 15.929688 6.210938 C 15.691406 5.980469 15.378906 5.839844 15.011719 5.808594 C 14.640625 5.828125 14.328125 5.96875 14.089844 6.21875 L 10.339844 10.03125 C 10.078125 10.25 9.949219 10.53125 9.949219 10.871094 Z M 9.949219 10.871094 "/>
</g>
</svg>
