<?xml version="1.0" encoding="UTF-8"?>
<svg xmlns="http://www.w3.org/2000/svg" xmlns:xlink="http://www.w3.org/1999/xlink" width="30pt" height="30pt" viewBox="0 0 30 30" version="1.1">
<g id="surface61">
<path style=" stroke:none;fill-rule:nonzero;fill:rgb(0%,0%,0%);fill-opacity:1;" d="M 3.949219 13.050781 C 3.949219 12.121094 4.238281 11.300781 4.820313 10.570313 C 5.398438 9.839844 6.128906 9.371094 7.011719 9.171875 C 7.269531 8.070313 7.828125 7.171875 8.710938 6.460938 C 9.589844 5.75 10.589844 5.398438 11.71875 5.398438 C 12.820313 5.398438 13.800781 5.75 14.671875 6.441406 C 15.539063 7.128906 16.101563 8.011719 16.351563 9.089844 L 16.609375 9.089844 C 17.710938 9.089844 18.648438 9.480469 19.429688 10.25 C 20.210938 11.019531 20.601563 11.960938 20.601563 13.058594 C 20.601563 13.070313 20.601563 13.078125 20.601563 13.101563 C 20.601563 13.121094 20.601563 13.140625 20.601563 13.160156 C 21.351563 13.960938 21.71875 14.910156 21.71875 16.011719 C 21.71875 16.769531 21.53125 17.46875 21.148438 18.109375 C 20.769531 18.761719 20.261719 19.269531 19.621094 19.640625 C 18.980469 20.019531 18.28125 20.199219 17.53125 20.199219 C 16.570313 20.199219 15.710938 19.898438 14.96875 19.308594 C 14.230469 18.71875 13.730469 17.960938 13.488281 17.050781 L 7.789063 17.050781 C 6.71875 17 5.808594 16.589844 5.070313 15.820313 C 4.328125 15.050781 3.949219 14.121094 3.949219 13.050781 Z M 5.308594 13.050781 C 5.308594 13.75 5.550781 14.359375 6.039063 14.871094 C 6.53125 15.378906 7.109375 15.660156 7.789063 15.691406 L 16.78125 15.691406 C 17.460938 15.660156 18.050781 15.390625 18.53125 14.871094 C 19.019531 14.351563 19.261719 13.75 19.261719 13.050781 C 19.261719 12.339844 19 11.730469 18.46875 11.21875 C 17.941406 10.699219 17.328125 10.449219 16.609375 10.449219 L 15.320313 10.449219 C 15.230469 10.449219 15.179688 10.398438 15.179688 10.308594 L 15.109375 9.839844 C 15.019531 8.96875 14.648438 8.238281 13.988281 7.648438 C 13.328125 7.058594 12.570313 6.761719 11.710938 6.761719 C 10.820313 6.761719 10.050781 7.050781 9.398438 7.640625 C 8.75 8.230469 8.398438 8.960938 8.308594 9.828125 L 8.25 10.300781 C 8.25 10.390625 8.199219 10.441406 8.089844 10.441406 L 7.691406 10.441406 C 7.019531 10.519531 6.449219 10.800781 6 11.300781 C 5.539063 11.789063 5.308594 12.378906 5.308594 13.050781 Z M 11.511719 22.058594 C 11.261719 21.730469 11.261719 21.410156 11.511719 21.078125 L 12.640625 19.929688 C 12.78125 19.808594 12.949219 19.75 13.160156 19.75 C 13.351563 19.75 13.5 19.808594 13.621094 19.929688 C 13.738281 20.050781 13.800781 20.210938 13.800781 20.398438 C 13.800781 20.601563 13.738281 20.761719 13.621094 20.878906 L 12.480469 22.058594 C 12.359375 22.179688 12.191406 22.25 11.988281 22.25 C 11.789063 22.25 11.628906 22.179688 11.511719 22.058594 Z M 14.898438 17.039063 C 15.109375 17.578125 15.460938 18.011719 15.941406 18.339844 C 16.421875 18.671875 16.949219 18.839844 17.539063 18.839844 C 18.308594 18.839844 18.96875 18.558594 19.511719 18.011719 C 20.050781 17.449219 20.320313 16.78125 20.320313 15.988281 C 20.320313 15.601563 20.261719 15.25 20.128906 14.941406 C 19.800781 15.550781 19.328125 16.050781 18.738281 16.429688 C 18.140625 16.808594 17.488281 17.011719 16.78125 17.039063 Z M 16.851563 22.230469 C 16.851563 22.039063 16.921875 21.890625 17.050781 21.761719 C 17.179688 21.640625 17.351563 21.570313 17.53125 21.570313 C 17.710938 21.570313 17.878906 21.640625 18.03125 21.78125 C 18.148438 21.898438 18.21875 22.050781 18.21875 22.230469 L 18.21875 23.871094 C 18.21875 24.058594 18.148438 24.21875 18.019531 24.359375 C 17.890625 24.5 17.71875 24.570313 17.539063 24.570313 C 17.359375 24.570313 17.191406 24.5 17.058594 24.359375 C 16.929688 24.21875 16.859375 24.058594 16.859375 23.871094 L 16.859375 22.230469 Z M 21.261719 20.398438 C 21.261719 20.21875 21.320313 20.070313 21.449219 19.941406 C 21.578125 19.820313 21.738281 19.75 21.921875 19.75 C 22.109375 19.75 22.269531 19.808594 22.390625 19.929688 L 23.570313 21.078125 C 23.699219 21.21875 23.769531 21.378906 23.769531 21.558594 C 23.769531 21.75 23.699219 21.910156 23.570313 22.039063 C 23.441406 22.171875 23.269531 22.238281 23.078125 22.238281 C 22.871094 22.238281 22.710938 22.179688 22.578125 22.050781 L 21.449219 20.871094 C 21.320313 20.730469 21.261719 20.570313 21.261719 20.398438 Z M 21.261719 11.589844 C 21.261719 11.398438 21.320313 11.238281 21.449219 11.121094 L 22.578125 9.941406 C 22.71875 9.820313 22.878906 9.75 23.078125 9.75 C 23.269531 9.75 23.429688 9.808594 23.578125 9.941406 C 23.710938 10.089844 23.78125 10.261719 23.78125 10.449219 C 23.78125 10.628906 23.710938 10.78125 23.578125 10.929688 L 22.398438 12.078125 C 22.28125 12.199219 22.121094 12.269531 21.929688 12.269531 C 21.738281 12.269531 21.578125 12.210938 21.460938 12.078125 C 21.320313 11.941406 21.261719 11.78125 21.261719 11.589844 Z M 23.078125 15.988281 C 23.078125 15.800781 23.140625 15.640625 23.269531 15.511719 C 23.390625 15.378906 23.550781 15.308594 23.738281 15.308594 L 25.359375 15.308594 C 25.550781 15.308594 25.71875 15.378906 25.859375 15.511719 C 26 15.640625 26.070313 15.800781 26.070313 15.988281 C 26.070313 16.179688 26 16.351563 25.859375 16.480469 C 25.71875 16.609375 25.558594 16.679688 25.359375 16.679688 L 23.738281 16.679688 C 23.550781 16.679688 23.398438 16.609375 23.269531 16.480469 C 23.140625 16.351563 23.078125 16.191406 23.078125 15.988281 Z M 23.078125 15.988281 "/>
</g>
</svg>
