<?xml version="1.0" encoding="UTF-8"?>
<svg xmlns="http://www.w3.org/2000/svg" xmlns:xlink="http://www.w3.org/1999/xlink" width="30pt" height="30pt" viewBox="0 0 30 30" version="1.1">
<g id="surface176">
<path style=" stroke:none;fill-rule:nonzero;fill:rgb(0%,0%,0%);fill-opacity:1;" d="M 13.191406 9.210938 C 13.191406 8.710938 13.371094 8.28125 13.71875 7.929688 C 14.078125 7.570313 14.5 7.398438 15 7.398438 C 15.488281 7.398438 15.921875 7.578125 16.269531 7.929688 C 16.621094 8.289063 16.800781 8.710938 16.800781 9.210938 C 16.800781 9.710938 16.621094 10.140625 16.269531 10.5 C 15.921875 10.859375 15.488281 11.039063 15 11.039063 C 14.511719 11.039063 14.078125 10.859375 13.71875 10.5 C 13.359375 10.140625 13.191406 9.710938 13.191406 9.210938 Z M 14.070313 9.210938 C 14.070313 9.46875 14.160156 9.691406 14.339844 9.878906 C 14.53125 10.070313 14.75 10.160156 15.011719 10.160156 C 15.269531 10.160156 15.488281 10.070313 15.679688 9.878906 C 15.871094 9.691406 15.960938 9.46875 15.960938 9.210938 C 15.960938 8.949219 15.871094 8.730469 15.679688 8.550781 C 15.488281 8.371094 15.269531 8.269531 15.011719 8.269531 C 14.75 8.269531 14.53125 8.359375 14.339844 8.539063 C 14.160156 8.71875 14.070313 8.941406 14.070313 9.210938 Z M 14.070313 9.210938 "/>
</g>
</svg>
