<?xml version="1.0" encoding="UTF-8"?>
<svg xmlns="http://www.w3.org/2000/svg" xmlns:xlink="http://www.w3.org/1999/xlink" width="30pt" height="30pt" viewBox="0 0 30 30" version="1.1">
<g id="surface201">
<path style=" stroke:none;fill-rule:nonzero;fill:rgb(0%,0%,0%);fill-opacity:1;" d="M 9.941406 14.359375 C 9.941406 14.578125 10.019531 14.78125 10.171875 14.929688 C 10.320313 15.078125 10.511719 15.148438 10.730469 15.128906 L 17.308594 15.128906 L 16.28125 16.210938 C 16.121094 16.371094 16.039063 16.558594 16.039063 16.761719 C 16.039063 16.980469 16.121094 17.179688 16.28125 17.328125 C 16.441406 17.488281 16.628906 17.558594 16.859375 17.558594 C 17.070313 17.550781 17.25 17.460938 17.390625 17.289063 L 19.839844 14.878906 C 20 14.71875 20.070313 14.53125 20.070313 14.300781 C 20.058594 14.058594 19.980469 13.871094 19.828125 13.71875 L 17.359375 11.328125 C 17.210938 11.171875 17.03125 11.089844 16.820313 11.101563 C 16.589844 11.101563 16.398438 11.171875 16.25 11.320313 C 16.089844 11.46875 16.019531 11.660156 16.019531 11.878906 C 16.019531 12.109375 16.101563 12.300781 16.25 12.449219 L 17.308594 13.53125 L 10.71875 13.53125 C 10.488281 13.539063 10.308594 13.621094 10.160156 13.78125 C 10.011719 13.949219 9.941406 14.140625 9.941406 14.359375 Z M 9.941406 14.359375 "/>
</g>
</svg>
