<?xml version="1.0" encoding="UTF-8"?>
<svg xmlns="http://www.w3.org/2000/svg" xmlns:xlink="http://www.w3.org/1999/xlink" width="30pt" height="30pt" viewBox="0 0 30 30" version="1.1">
<g id="surface91">
<path style=" stroke:none;fill-rule:nonzero;fill:rgb(0%,0%,0%);fill-opacity:1;" d="M 2.320313 14.851563 C 2.320313 15.089844 2.410156 15.289063 2.578125 15.449219 C 2.738281 15.621094 2.941406 15.699219 3.179688 15.699219 L 12.601563 15.699219 C 12.828125 15.699219 13.03125 15.621094 13.191406 15.449219 C 13.351563 15.28125 13.429688 15.078125 13.429688 14.851563 C 13.429688 14.621094 13.351563 14.421875 13.199219 14.261719 C 13.039063 14.101563 12.851563 14.019531 12.609375 14.019531 L 3.179688 14.019531 C 2.941406 14.019531 2.738281 14.101563 2.570313 14.261719 C 2.398438 14.421875 2.320313 14.621094 2.320313 14.851563 Z M 2.648438 21 C 2.648438 21.238281 2.730469 21.441406 2.898438 21.601563 C 3.058594 21.769531 3.261719 21.851563 3.5 21.851563 L 12.929688 21.851563 C 13.171875 21.851563 13.371094 21.769531 13.539063 21.601563 C 13.710938 21.429688 13.789063 21.230469 13.789063 21 C 13.789063 20.769531 13.710938 20.570313 13.539063 20.410156 C 13.371094 20.25 13.171875 20.171875 12.929688 20.171875 L 3.511719 20.171875 C 3.269531 20.171875 3.070313 20.25 2.910156 20.410156 C 2.738281 20.570313 2.648438 20.769531 2.648438 21 Z M 4.019531 17.898438 C 4.019531 18.140625 4.101563 18.328125 4.269531 18.488281 C 4.441406 18.648438 4.648438 18.71875 4.898438 18.71875 L 14.300781 18.71875 C 14.539063 18.71875 14.730469 18.640625 14.890625 18.488281 C 15.050781 18.328125 15.121094 18.140625 15.121094 17.898438 C 15.121094 17.648438 15.039063 17.449219 14.890625 17.289063 C 14.730469 17.128906 14.539063 17.050781 14.300781 17.050781 L 4.898438 17.050781 C 4.648438 17.050781 4.441406 17.128906 4.269531 17.289063 C 4.109375 17.449219 4.019531 17.648438 4.019531 17.898438 Z M 6.449219 11.550781 C 6.449219 11.308594 6.539063 11.109375 6.710938 10.929688 C 6.878906 10.769531 7.089844 10.691406 7.308594 10.691406 L 9.339844 10.691406 C 9.570313 10.691406 9.761719 10.769531 9.921875 10.941406 C 10.078125 11.109375 10.148438 11.308594 10.148438 11.550781 C 10.148438 11.789063 10.070313 11.988281 9.921875 12.148438 C 9.761719 12.320313 9.570313 12.398438 9.339844 12.398438 L 7.308594 12.398438 C 7.070313 12.398438 6.871094 12.320313 6.699219 12.148438 C 6.53125 11.980469 6.449219 11.78125 6.449219 11.550781 Z M 9.308594 4.628906 C 9.308594 4.410156 9.390625 4.199219 9.550781 4.019531 C 9.738281 3.859375 9.949219 3.78125 10.179688 3.78125 C 10.398438 3.78125 10.601563 3.859375 10.769531 4.019531 L 12.191406 5.488281 C 12.351563 5.640625 12.429688 5.839844 12.429688 6.078125 C 12.429688 6.320313 12.351563 6.519531 12.191406 6.679688 C 12.03125 6.839844 11.828125 6.921875 11.589844 6.921875 C 11.351563 6.921875 11.148438 6.839844 11 6.679688 L 9.550781 5.25 C 9.390625 5.070313 9.308594 4.871094 9.308594 4.628906 Z M 11.859375 11.429688 L 11.859375 11.359375 C 11.878906 10.449219 12.128906 9.609375 12.601563 8.828125 C 13.070313 8.058594 13.710938 7.449219 14.5 7 C 15.289063 6.550781 16.148438 6.328125 17.070313 6.328125 C 17.769531 6.328125 18.441406 6.46875 19.089844 6.75 C 19.730469 7.03125 20.289063 7.398438 20.75 7.871094 C 21.21875 8.339844 21.589844 8.890625 21.859375 9.53125 C 22.128906 10.171875 22.269531 10.851563 22.269531 11.550781 C 22.269531 12.488281 22.039063 13.351563 21.578125 14.148438 C 21.121094 14.949219 20.488281 15.578125 19.699219 16.039063 C 18.910156 16.511719 18.039063 16.738281 17.101563 16.75 L 16.898438 16.75 C 16.828125 16.75 16.769531 16.730469 16.71875 16.679688 C 16.671875 16.628906 16.640625 16.570313 16.640625 16.5 L 16.640625 15.28125 C 16.640625 15.148438 16.710938 15.078125 16.859375 15.078125 L 17.101563 15.078125 C 18.058594 15.070313 18.890625 14.730469 19.570313 14.03125 C 20.25 13.339844 20.601563 12.511719 20.601563 11.539063 C 20.601563 10.578125 20.25 9.761719 19.558594 9.070313 C 18.871094 8.390625 18.039063 8.050781 17.058594 8.050781 C 16.121094 8.050781 15.300781 8.371094 14.621094 9.03125 C 13.941406 9.679688 13.578125 10.46875 13.539063 11.398438 C 13.539063 11.460938 13.519531 11.511719 13.46875 11.570313 C 13.421875 11.628906 13.339844 11.660156 13.21875 11.660156 L 12.078125 11.660156 C 11.929688 11.671875 11.859375 11.589844 11.859375 11.429688 Z M 16.230469 21.308594 L 16.230469 19.320313 C 16.230469 19.078125 16.308594 18.878906 16.46875 18.71875 C 16.628906 18.558594 16.828125 18.480469 17.070313 18.480469 C 17.308594 18.480469 17.519531 18.558594 17.679688 18.71875 C 17.839844 18.878906 17.921875 19.078125 17.921875 19.320313 L 17.921875 21.308594 C 17.921875 21.550781 17.839844 21.761719 17.671875 21.929688 C 17.5 22.101563 17.300781 22.179688 17.070313 22.179688 C 16.828125 22.179688 16.628906 22.101563 16.46875 21.929688 C 16.308594 21.761719 16.230469 21.558594 16.230469 21.308594 Z M 16.230469 3.828125 L 16.230469 1.78125 C 16.230469 1.539063 16.308594 1.339844 16.480469 1.179688 C 16.648438 1.019531 16.839844 0.929688 17.078125 0.929688 C 17.308594 0.929688 17.511719 1.011719 17.679688 1.179688 C 17.851563 1.351563 17.929688 1.550781 17.929688 1.78125 L 17.929688 3.820313 C 17.929688 4.050781 17.851563 4.238281 17.679688 4.398438 C 17.511719 4.550781 17.308594 4.628906 17.078125 4.628906 C 16.839844 4.628906 16.640625 4.550781 16.480469 4.398438 C 16.308594 4.25 16.230469 4.058594 16.230469 3.828125 Z M 21.738281 17.011719 C 21.738281 16.78125 21.808594 16.589844 21.96875 16.449219 C 22.121094 16.289063 22.308594 16.21875 22.539063 16.21875 C 22.78125 16.21875 22.980469 16.300781 23.140625 16.449219 L 24.589844 17.871094 C 24.75 18.039063 24.828125 18.25 24.828125 18.480469 C 24.828125 18.710938 24.75 18.910156 24.589844 19.070313 C 24.191406 19.378906 23.789063 19.378906 23.390625 19.070313 L 21.96875 17.640625 C 21.820313 17.480469 21.738281 17.261719 21.738281 17.011719 Z M 21.738281 6.078125 C 21.738281 5.828125 21.808594 5.628906 21.96875 5.488281 L 23.390625 4.019531 C 23.570313 3.859375 23.761719 3.78125 23.980469 3.78125 C 24.21875 3.78125 24.421875 3.859375 24.578125 4.03125 C 24.75 4.199219 24.828125 4.398438 24.828125 4.628906 C 24.828125 4.878906 24.75 5.089844 24.589844 5.25 L 23.140625 6.679688 C 22.960938 6.839844 22.761719 6.921875 22.539063 6.921875 C 22.308594 6.921875 22.128906 6.839844 21.96875 6.679688 C 21.808594 6.519531 21.738281 6.320313 21.738281 6.078125 Z M 24 11.550781 C 24 11.320313 24.078125 11.109375 24.25 10.929688 C 24.410156 10.769531 24.601563 10.691406 24.808594 10.691406 L 26.839844 10.691406 C 27.070313 10.691406 27.269531 10.78125 27.449219 10.949219 C 27.621094 11.121094 27.710938 11.320313 27.710938 11.550781 C 27.710938 11.78125 27.621094 11.980469 27.449219 12.148438 C 27.269531 12.320313 27.070313 12.398438 26.839844 12.398438 L 24.808594 12.398438 C 24.578125 12.398438 24.390625 12.320313 24.230469 12.148438 C 24.078125 11.988281 24 11.789063 24 11.550781 Z M 24 11.550781 "/>
</g>
</svg>
