<?xml version="1.0" encoding="UTF-8"?>
<svg xmlns="http://www.w3.org/2000/svg" xmlns:xlink="http://www.w3.org/1999/xlink" width="30pt" height="30pt" viewBox="0 0 30 30" version="1.1">
<g id="surface101">
<path style=" stroke:none;fill-rule:nonzero;fill:rgb(0%,0%,0%);fill-opacity:1;" d="M 1.480469 16.949219 C 1.480469 18.269531 1.941406 19.410156 2.851563 20.351563 C 3.761719 21.289063 4.890625 21.800781 6.230469 21.859375 C 6.351563 21.859375 6.410156 21.800781 6.410156 21.691406 L 6.410156 20.359375 C 6.410156 20.238281 6.351563 20.179688 6.230469 20.179688 C 5.371094 20.140625 4.648438 19.800781 4.058594 19.179688 C 3.46875 18.558594 3.179688 17.808594 3.179688 16.941406 C 3.179688 16.101563 3.460938 15.359375 4.019531 14.75 C 4.578125 14.128906 5.28125 13.789063 6.121094 13.71875 L 6.648438 13.640625 C 6.761719 13.640625 6.808594 13.589844 6.808594 13.5 L 6.890625 12.949219 C 7.011719 11.859375 7.480469 10.949219 8.269531 10.230469 C 9.058594 9.511719 10 9.160156 11.101563 9.160156 C 12.199219 9.160156 13.148438 9.519531 13.960938 10.238281 C 14.78125 10.960938 15.238281 11.859375 15.339844 12.929688 L 15.410156 13.511719 C 15.429688 13.621094 15.511719 13.679688 15.628906 13.679688 L 17.230469 13.679688 C 18.121094 13.679688 18.878906 14 19.519531 14.640625 C 20.160156 15.28125 20.480469 16.050781 20.480469 16.949219 C 20.480469 17.820313 20.191406 18.558594 19.601563 19.191406 C 19.011719 19.820313 18.289063 20.140625 17.429688 20.191406 C 17.300781 20.191406 17.230469 20.25 17.230469 20.371094 L 17.230469 21.699219 C 17.230469 21.808594 17.300781 21.871094 17.429688 21.871094 C 18.761719 21.828125 19.878906 21.328125 20.800781 20.378906 C 21.710938 19.429688 22.171875 18.289063 22.171875 16.960938 C 22.171875 16.28125 22.039063 15.621094 21.789063 14.949219 C 22.570313 13.988281 22.949219 12.871094 22.949219 11.601563 C 22.949219 10.890625 22.808594 10.21875 22.539063 9.570313 C 22.269531 8.921875 21.890625 8.371094 21.421875 7.898438 C 20.949219 7.429688 20.390625 7.058594 19.75 6.78125 C 19.109375 6.5 18.421875 6.359375 17.710938 6.359375 C 16.171875 6.359375 14.878906 6.941406 13.851563 8.101563 C 12.960938 7.660156 12.039063 7.441406 11.109375 7.441406 C 9.699219 7.441406 8.449219 7.878906 7.371094 8.75 C 6.289063 9.621094 5.601563 10.75 5.289063 12.128906 C 4.171875 12.390625 3.25 12.960938 2.539063 13.859375 C 1.828125 14.761719 1.480469 15.789063 1.480469 16.949219 Z M 6.828125 23.980469 C 6.828125 24.148438 6.878906 24.320313 6.988281 24.488281 C 7.101563 24.660156 7.261719 24.769531 7.460938 24.839844 C 7.691406 24.910156 7.910156 24.898438 8.101563 24.800781 C 8.300781 24.710938 8.429688 24.519531 8.5 24.238281 L 8.640625 23.628906 C 8.691406 23.398438 8.660156 23.191406 8.539063 23 C 8.421875 22.800781 8.25 22.671875 8.019531 22.601563 C 7.789063 22.53125 7.578125 22.558594 7.378906 22.679688 C 7.179688 22.800781 7.058594 22.96875 7 23.199219 L 6.859375 23.789063 C 6.839844 23.851563 6.828125 23.910156 6.828125 23.980469 Z M 7.601563 21.078125 C 7.601563 21.300781 7.679688 21.488281 7.839844 21.648438 C 8 21.828125 8.191406 21.910156 8.398438 21.910156 C 8.640625 21.910156 8.839844 21.828125 9 21.671875 C 9.171875 21.511719 9.25 21.320313 9.25 21.078125 C 9.25 20.851563 9.171875 20.648438 9 20.488281 C 8.828125 20.328125 8.628906 20.25 8.398438 20.25 C 8.171875 20.25 7.980469 20.328125 7.820313 20.480469 C 7.660156 20.628906 7.601563 20.851563 7.601563 21.078125 Z M 8.210938 18.808594 C 8.199219 18.96875 8.238281 19.121094 8.339844 19.261719 C 8.441406 19.410156 8.601563 19.511719 8.820313 19.578125 C 9.03125 19.640625 9.230469 19.621094 9.441406 19.511719 C 9.648438 19.398438 9.789063 19.230469 9.859375 19 L 10.128906 18.101563 C 10.199219 17.859375 10.179688 17.640625 10.058594 17.449219 C 9.941406 17.261719 9.761719 17.128906 9.519531 17.058594 C 9.300781 16.988281 9.089844 17.011719 8.890625 17.128906 C 8.691406 17.238281 8.550781 17.410156 8.480469 17.628906 L 8.238281 18.550781 C 8.21875 18.710938 8.210938 18.800781 8.210938 18.808594 Z M 9.359375 27.101563 C 9.359375 27.269531 9.410156 27.429688 9.519531 27.589844 C 9.628906 27.75 9.789063 27.859375 10.011719 27.921875 C 10.101563 27.941406 10.179688 27.949219 10.25 27.949219 C 10.679688 27.949219 10.949219 27.75 11.050781 27.339844 L 11.179688 26.75 C 11.238281 26.488281 11.210938 26.269531 11.101563 26.070313 C 10.988281 25.871094 10.808594 25.75 10.578125 25.699219 C 10.371094 25.628906 10.160156 25.648438 9.949219 25.769531 C 9.738281 25.890625 9.609375 26.058594 9.539063 26.28125 L 9.398438 26.878906 C 9.371094 26.988281 9.359375 27.070313 9.359375 27.101563 Z M 9.921875 4.660156 C 9.921875 4.898438 10 5.101563 10.160156 5.261719 L 10.820313 5.898438 C 10.960938 6.058594 11.140625 6.140625 11.359375 6.160156 C 11.578125 6.179688 11.789063 6.089844 11.980469 5.898438 C 12.140625 5.738281 12.21875 5.539063 12.21875 5.308594 C 12.21875 5.070313 12.140625 4.871094 11.980469 4.710938 L 11.351563 4.058594 C 11.199219 3.898438 11 3.820313 10.769531 3.800781 C 10.539063 3.800781 10.339844 3.878906 10.171875 4.050781 C 10.011719 4.21875 9.921875 4.421875 9.921875 4.660156 Z M 10.148438 24.199219 C 10.148438 24.429688 10.230469 24.621094 10.390625 24.78125 C 10.550781 24.941406 10.75 25.019531 10.96875 25.019531 C 11.210938 25.019531 11.398438 24.941406 11.558594 24.789063 C 11.71875 24.628906 11.789063 24.441406 11.789063 24.199219 C 11.789063 23.96875 11.710938 23.78125 11.558594 23.621094 C 11.398438 23.460938 11.210938 23.390625 10.96875 23.390625 C 10.730469 23.390625 10.539063 23.46875 10.378906 23.621094 C 10.21875 23.769531 10.148438 23.96875 10.148438 24.199219 Z M 10.769531 21.929688 C 10.761719 22.078125 10.800781 22.238281 10.910156 22.398438 C 11.011719 22.558594 11.160156 22.660156 11.359375 22.699219 C 11.589844 22.761719 11.800781 22.738281 12 22.640625 C 12.199219 22.539063 12.328125 22.351563 12.410156 22.078125 L 12.671875 21.179688 C 12.738281 20.960938 12.71875 20.75 12.601563 20.550781 C 12.480469 20.351563 12.308594 20.21875 12.070313 20.148438 C 11.851563 20.078125 11.640625 20.109375 11.429688 20.230469 C 11.21875 20.351563 11.089844 20.53125 11.019531 20.761719 L 10.800781 21.660156 C 10.78125 21.738281 10.769531 21.828125 10.769531 21.929688 Z M 13.53125 24.078125 C 13.53125 24.25 13.578125 24.410156 13.679688 24.558594 C 13.78125 24.710938 13.929688 24.820313 14.140625 24.878906 C 14.171875 24.878906 14.21875 24.890625 14.28125 24.898438 C 14.339844 24.910156 14.390625 24.921875 14.421875 24.921875 C 14.828125 24.921875 15.078125 24.699219 15.179688 24.261719 L 15.320313 23.660156 C 15.390625 23.449219 15.371094 23.238281 15.25 23.03125 C 15.128906 22.820313 14.960938 22.691406 14.738281 22.621094 C 14.488281 22.558594 14.261719 22.578125 14.058594 22.699219 C 13.859375 22.820313 13.71875 22.988281 13.648438 23.230469 L 13.558594 23.820313 C 13.558594 23.828125 13.558594 23.871094 13.550781 23.929688 C 13.539063 24 13.53125 24.039063 13.53125 24.078125 Z M 14.269531 21.121094 C 14.269531 21.351563 14.351563 21.539063 14.511719 21.691406 C 14.660156 21.851563 14.851563 21.929688 15.089844 21.929688 C 15.328125 21.929688 15.519531 21.851563 15.679688 21.699219 C 15.839844 21.539063 15.910156 21.351563 15.910156 21.121094 C 15.910156 20.878906 15.828125 20.691406 15.679688 20.53125 C 15.519531 20.371094 15.328125 20.300781 15.089844 20.300781 C 14.851563 20.300781 14.660156 20.378906 14.5 20.53125 C 14.339844 20.679688 14.269531 20.878906 14.269531 21.121094 Z M 14.878906 18.808594 C 14.878906 18.980469 14.929688 19.140625 15.039063 19.289063 C 15.148438 19.441406 15.308594 19.550781 15.53125 19.609375 C 15.550781 19.609375 15.589844 19.621094 15.648438 19.628906 C 15.710938 19.640625 15.761719 19.648438 15.789063 19.648438 C 15.898438 19.648438 16.019531 19.621094 16.160156 19.558594 C 16.371094 19.449219 16.5 19.28125 16.558594 19.039063 L 16.800781 18.140625 C 16.859375 17.910156 16.839844 17.699219 16.730469 17.511719 C 16.621094 17.320313 16.449219 17.179688 16.230469 17.109375 C 16 17.039063 15.78125 17.058594 15.589844 17.171875 C 15.390625 17.28125 15.261719 17.441406 15.191406 17.679688 L 14.910156 18.589844 C 14.910156 18.609375 14.910156 18.640625 14.898438 18.699219 C 14.890625 18.730469 14.878906 18.769531 14.878906 18.808594 Z M 15.230469 9.089844 C 15.890625 8.429688 16.710938 8.101563 17.699219 8.101563 C 18.691406 8.101563 19.53125 8.441406 20.21875 9.121094 C 20.910156 9.800781 21.261719 10.621094 21.261719 11.601563 C 21.261719 12.261719 21.078125 12.890625 20.730469 13.480469 C 19.75 12.5 18.578125 12.011719 17.230469 12.011719 L 16.921875 12.011719 C 16.640625 10.910156 16.070313 9.941406 15.230469 9.089844 Z M 16.878906 3.828125 C 16.878906 4.058594 16.960938 4.25 17.109375 4.410156 C 17.261719 4.558594 17.460938 4.640625 17.699219 4.640625 C 17.941406 4.640625 18.148438 4.558594 18.320313 4.410156 C 18.488281 4.261719 18.570313 4.058594 18.570313 3.828125 L 18.570313 1.761719 C 18.570313 1.53125 18.480469 1.328125 18.308594 1.160156 C 18.140625 0.988281 17.929688 0.910156 17.699219 0.910156 C 17.46875 0.910156 17.269531 0.988281 17.121094 1.160156 C 16.960938 1.328125 16.890625 1.53125 16.890625 1.761719 L 16.890625 3.828125 Z M 22.398438 6.089844 C 22.398438 6.339844 22.480469 6.539063 22.628906 6.691406 C 22.988281 7.050781 23.390625 7.050781 23.839844 6.691406 L 25.269531 5.261719 C 25.441406 5.089844 25.519531 4.878906 25.519531 4.628906 C 25.519531 4.390625 25.441406 4.191406 25.269531 4.03125 C 25.101563 3.859375 24.898438 3.78125 24.671875 3.78125 C 24.441406 3.78125 24.238281 3.859375 24.058594 4.019531 L 22.628906 5.5 C 22.480469 5.648438 22.398438 5.839844 22.398438 6.089844 Z M 23.179688 17.941406 C 23.179688 18.171875 23.269531 18.371094 23.449219 18.53125 L 24.058594 19.160156 C 24.261719 19.320313 24.460938 19.398438 24.671875 19.398438 C 24.871094 19.398438 25.070313 19.320313 25.269531 19.160156 C 25.441406 19 25.519531 18.808594 25.519531 18.570313 C 25.519531 18.339844 25.441406 18.140625 25.269531 17.949219 L 24.621094 17.339844 C 24.46875 17.171875 24.28125 17.089844 24.050781 17.089844 C 23.820313 17.089844 23.621094 17.171875 23.449219 17.339844 C 23.269531 17.511719 23.179688 17.710938 23.179688 17.941406 Z M 24.660156 11.601563 C 24.660156 11.839844 24.75 12.03125 24.921875 12.191406 C 25.101563 12.371094 25.308594 12.460938 25.539063 12.460938 L 27.570313 12.460938 C 27.800781 12.460938 28 12.378906 28.160156 12.210938 C 28.320313 12.039063 28.398438 11.839844 28.398438 11.601563 C 28.398438 11.359375 28.320313 11.160156 28.160156 11 C 28 10.828125 27.808594 10.75 27.570313 10.75 L 25.539063 10.75 C 25.300781 10.75 25.101563 10.828125 24.921875 11 C 24.738281 11.171875 24.660156 11.371094 24.660156 11.601563 Z M 24.660156 11.601563 "/>
</g>
</svg>
