<?xml version="1.0" encoding="UTF-8"?>
<svg xmlns="http://www.w3.org/2000/svg" xmlns:xlink="http://www.w3.org/1999/xlink" width="30pt" height="30pt" viewBox="0 0 30 30" version="1.1">
<g id="surface186">
<path style=" stroke:none;fill-rule:nonzero;fill:rgb(0%,0%,0%);fill-opacity:1;" d="M 10.039063 10.078125 C 10.039063 9.78125 10.128906 9.53125 10.300781 9.351563 C 10.5 9.160156 10.761719 9.070313 11.089844 9.070313 C 11.390625 9.070313 11.640625 9.160156 11.820313 9.351563 L 17.871094 15.398438 L 17.871094 13.449219 C 17.871094 13.148438 17.96875 12.898438 18.171875 12.699219 C 18.371094 12.5 18.621094 12.398438 18.921875 12.398438 C 19.210938 12.398438 19.460938 12.5 19.660156 12.710938 C 19.859375 12.921875 19.960938 13.160156 19.960938 13.460938 L 19.960938 17.941406 C 19.960938 18.238281 19.859375 18.488281 19.660156 18.691406 C 19.460938 18.890625 19.210938 18.988281 18.921875 18.988281 L 14.441406 18.988281 C 14.148438 18.988281 13.898438 18.890625 13.699219 18.691406 C 13.5 18.488281 13.398438 18.238281 13.398438 17.941406 C 13.398438 17.648438 13.5 17.398438 13.699219 17.210938 C 13.898438 17.019531 14.148438 16.921875 14.441406 16.921875 L 16.371094 16.921875 L 10.289063 10.859375 C 10.128906 10.628906 10.039063 10.378906 10.039063 10.078125 Z M 10.039063 10.078125 "/>
</g>
</svg>
