<?xml version="1.0" encoding="UTF-8"?>
<svg xmlns="http://www.w3.org/2000/svg" xmlns:xlink="http://www.w3.org/1999/xlink" width="30pt" height="30pt" viewBox="0 0 30 30" version="1.1">
<g id="surface126">
<path style=" stroke:none;fill-rule:nonzero;fill:rgb(0%,0%,0%);fill-opacity:1;" d="M 1.488281 16.921875 C 1.488281 15.75 1.851563 14.730469 2.570313 13.828125 C 3.289063 12.929688 4.210938 12.351563 5.308594 12.089844 C 5.621094 10.71875 6.320313 9.601563 7.410156 8.710938 C 8.511719 7.828125 9.761719 7.390625 11.179688 7.390625 C 12.171875 7.390625 13.078125 7.609375 13.898438 8.050781 C 14.398438 7.519531 14.988281 7.101563 15.660156 6.800781 C 16.328125 6.5 17.03125 6.351563 17.75 6.351563 C 18.699219 6.351563 19.578125 6.589844 20.390625 7.058594 C 21.199219 7.53125 21.839844 8.171875 22.308594 8.980469 C 22.78125 9.789063 23.019531 10.671875 23.019531 11.621094 C 23.019531 12.851563 22.640625 13.949219 21.878906 14.910156 C 22.171875 15.519531 22.308594 16.191406 22.308594 16.929688 C 22.308594 17.808594 22.101563 18.628906 21.671875 19.378906 C 21.25 20.128906 20.671875 20.738281 19.929688 21.191406 C 19.199219 21.648438 18.390625 21.890625 17.511719 21.910156 C 17.378906 21.910156 17.308594 21.851563 17.308594 21.730469 L 17.308594 20.390625 C 17.308594 20.269531 17.378906 20.210938 17.511719 20.210938 C 18.371094 20.171875 19.089844 19.820313 19.691406 19.179688 C 20.289063 18.539063 20.589844 17.78125 20.589844 16.921875 C 20.589844 16.03125 20.269531 15.269531 19.621094 14.628906 C 18.96875 13.988281 18.210938 13.671875 17.308594 13.671875 L 15.699219 13.671875 C 15.578125 13.671875 15.519531 13.609375 15.519531 13.5 L 15.441406 12.910156 C 15.328125 11.828125 14.859375 10.921875 14.039063 10.191406 C 13.21875 9.460938 12.261719 9.089844 11.179688 9.089844 C 10.078125 9.089844 9.128906 9.460938 8.320313 10.191406 C 7.511719 10.921875 7.050781 11.828125 6.949219 12.910156 L 6.878906 13.5 C 6.851563 13.589844 6.769531 13.628906 6.660156 13.628906 L 6.148438 13.671875 C 5.308594 13.769531 4.601563 14.121094 4.039063 14.730469 C 3.480469 15.339844 3.199219 16.070313 3.199219 16.910156 L 3.199219 16.960938 L 3.230469 16.960938 C 3.238281 17.941406 3.609375 18.738281 4.339844 19.390625 C 4.558594 19.578125 4.808594 19.75 5.078125 19.878906 L 5.078125 19.898438 C 5.488281 20.089844 5.898438 20.191406 6.289063 20.210938 C 6.398438 20.210938 6.460938 20.269531 6.460938 20.378906 L 6.460938 21.71875 C 6.460938 21.828125 6.398438 21.890625 6.289063 21.890625 C 5.769531 21.859375 5.28125 21.761719 4.808594 21.589844 L 4.808594 21.609375 C 3.980469 21.320313 3.269531 20.839844 2.699219 20.179688 C 2.128906 19.519531 1.75 18.738281 1.589844 17.871094 L 1.589844 17.828125 C 1.578125 17.820313 1.578125 17.808594 1.578125 17.800781 C 1.511719 17.539063 1.488281 17.25 1.488281 16.921875 Z M 6.988281 24.089844 C 6.988281 24.058594 7 24.019531 7.011719 23.960938 C 7.019531 23.910156 7.03125 23.871094 7.03125 23.839844 L 7.121094 23.25 C 7.191406 23.011719 7.320313 22.839844 7.53125 22.71875 C 7.730469 22.601563 7.960938 22.578125 8.210938 22.640625 C 8.441406 22.710938 8.601563 22.839844 8.71875 23.050781 C 8.828125 23.25 8.851563 23.460938 8.789063 23.671875 L 8.648438 24.269531 C 8.550781 24.710938 8.300781 24.929688 7.890625 24.929688 C 7.859375 24.929688 7.808594 24.929688 7.738281 24.921875 C 7.671875 24.910156 7.628906 24.910156 7.609375 24.910156 C 7.398438 24.851563 7.25 24.738281 7.148438 24.578125 C 7.039063 24.429688 6.988281 24.261719 6.988281 24.089844 Z M 7.730469 21.148438 C 7.730469 20.910156 7.808594 20.71875 7.960938 20.558594 C 8.121094 20.398438 8.308594 20.328125 8.550781 20.328125 C 8.789063 20.328125 8.980469 20.410156 9.140625 20.558594 C 9.300781 20.71875 9.371094 20.910156 9.371094 21.148438 C 9.371094 21.378906 9.289063 21.570313 9.140625 21.730469 C 8.988281 21.890625 8.789063 21.960938 8.550781 21.960938 C 8.320313 21.960938 8.128906 21.878906 7.980469 21.71875 C 7.808594 21.558594 7.730469 21.371094 7.730469 21.148438 Z M 9.371094 27.128906 C 9.371094 27.089844 9.378906 27.019531 9.410156 26.898438 L 9.539063 26.320313 C 9.609375 26.089844 9.75 25.921875 9.949219 25.808594 C 10.160156 25.691406 10.371094 25.671875 10.578125 25.738281 C 10.808594 25.78125 10.988281 25.910156 11.109375 26.109375 C 11.230469 26.308594 11.261719 26.539063 11.191406 26.789063 L 11.058594 27.378906 C 10.960938 27.789063 10.691406 27.988281 10.261719 27.988281 C 10.210938 27.988281 10.128906 27.980469 10.019531 27.949219 C 9.800781 27.890625 9.640625 27.78125 9.53125 27.621094 C 9.421875 27.460938 9.371094 27.300781 9.371094 27.128906 Z M 9.898438 4.621094 C 9.898438 4.378906 9.980469 4.179688 10.148438 4.019531 C 10.320313 3.859375 10.53125 3.78125 10.78125 3.78125 C 11.019531 3.78125 11.21875 3.859375 11.378906 4.019531 L 12.011719 4.679688 C 12.179688 4.851563 12.261719 5.050781 12.261719 5.28125 C 12.261719 5.519531 12.160156 5.738281 11.960938 5.921875 C 11.761719 6.101563 11.558594 6.179688 11.351563 6.148438 C 11.140625 6.128906 10.960938 6.039063 10.800781 5.878906 L 10.148438 5.21875 C 9.988281 5.050781 9.898438 4.851563 9.898438 4.621094 Z M 10.160156 24.230469 C 10.160156 24 10.238281 23.800781 10.390625 23.648438 C 10.550781 23.488281 10.738281 23.421875 10.980469 23.421875 C 11.21875 23.421875 11.410156 23.5 11.570313 23.648438 C 11.730469 23.808594 11.800781 24 11.800781 24.230469 C 11.800781 24.46875 11.71875 24.660156 11.570313 24.820313 C 11.410156 24.980469 11.21875 25.050781 10.980469 25.050781 C 10.761719 25.050781 10.570313 24.96875 10.398438 24.800781 C 10.238281 24.640625 10.160156 24.449219 10.160156 24.230469 Z M 10.78125 21.960938 C 10.78125 21.871094 10.789063 21.78125 10.808594 21.699219 L 11.039063 20.800781 C 11.109375 20.570313 11.25 20.390625 11.449219 20.269531 C 11.660156 20.148438 11.871094 20.121094 12.089844 20.191406 C 12.328125 20.261719 12.5 20.390625 12.621094 20.589844 C 12.738281 20.789063 12.761719 20.988281 12.691406 21.210938 L 12.429688 22.109375 C 12.351563 22.378906 12.210938 22.570313 12.019531 22.679688 C 11.828125 22.789063 11.609375 22.800781 11.378906 22.738281 C 11.179688 22.699219 11.03125 22.601563 10.929688 22.441406 C 10.808594 22.261719 10.761719 22.109375 10.78125 21.960938 Z M 13.539063 24.101563 C 13.539063 24.070313 13.539063 24.03125 13.550781 23.96875 C 13.558594 23.910156 13.558594 23.878906 13.558594 23.859375 L 13.648438 23.269531 C 13.71875 23.03125 13.851563 22.859375 14.058594 22.738281 C 14.261719 22.621094 14.488281 22.601563 14.738281 22.660156 C 14.96875 22.730469 15.140625 22.871094 15.25 23.070313 C 15.371094 23.28125 15.390625 23.488281 15.320313 23.699219 L 15.179688 24.300781 C 15.078125 24.730469 14.828125 24.949219 14.421875 24.949219 C 14.390625 24.949219 14.339844 24.949219 14.269531 24.941406 C 14.199219 24.929688 14.160156 24.929688 14.140625 24.929688 C 13.941406 24.871094 13.789063 24.761719 13.691406 24.601563 C 13.589844 24.429688 13.539063 24.269531 13.539063 24.101563 Z M 14.28125 21.160156 C 14.28125 20.921875 14.359375 20.730469 14.511719 20.570313 C 14.671875 20.410156 14.859375 20.339844 15.101563 20.339844 C 15.339844 20.339844 15.53125 20.421875 15.691406 20.570313 C 15.851563 20.730469 15.921875 20.921875 15.921875 21.160156 C 15.921875 21.390625 15.839844 21.589844 15.691406 21.738281 C 15.53125 21.898438 15.339844 21.96875 15.101563 21.96875 C 14.871094 21.96875 14.671875 21.890625 14.519531 21.71875 C 14.359375 21.570313 14.28125 21.378906 14.28125 21.160156 Z M 15.308594 9.050781 C 16.148438 9.808594 16.710938 10.789063 17.011719 11.980469 L 17.320313 11.980469 C 18.699219 11.980469 19.871094 12.460938 20.839844 13.429688 C 21.148438 12.878906 21.308594 12.269531 21.308594 11.609375 C 21.308594 10.628906 20.960938 9.800781 20.269531 9.109375 C 19.578125 8.429688 18.738281 8.078125 17.761719 8.078125 C 16.800781 8.078125 15.980469 8.398438 15.308594 9.050781 Z M 16.910156 3.78125 L 16.910156 1.730469 C 16.910156 1.488281 16.988281 1.289063 17.160156 1.121094 C 17.328125 0.949219 17.53125 0.859375 17.761719 0.859375 C 18 0.859375 18.199219 0.941406 18.359375 1.109375 C 18.519531 1.28125 18.601563 1.488281 18.601563 1.730469 L 18.601563 3.78125 C 18.601563 4.019531 18.519531 4.230469 18.359375 4.398438 C 18.199219 4.570313 18 4.648438 17.761719 4.648438 C 17.53125 4.648438 17.328125 4.558594 17.160156 4.390625 C 16.988281 4.21875 16.910156 4.019531 16.910156 3.78125 Z M 22.488281 6.070313 C 22.488281 5.828125 22.570313 5.628906 22.71875 5.46875 L 24.160156 4.019531 C 24.308594 3.851563 24.5 3.769531 24.738281 3.769531 C 24.980469 3.769531 25.179688 3.851563 25.339844 4.019531 C 25.519531 4.179688 25.601563 4.378906 25.601563 4.621094 C 25.601563 4.859375 25.511719 5.058594 25.339844 5.21875 L 23.898438 6.679688 C 23.710938 6.871094 23.5 6.949219 23.269531 6.941406 C 23.039063 6.921875 22.859375 6.839844 22.71875 6.679688 C 22.558594 6.519531 22.488281 6.320313 22.488281 6.070313 Z M 23.261719 17.980469 C 23.261719 17.738281 23.339844 17.539063 23.511719 17.371094 C 23.679688 17.199219 23.878906 17.121094 24.109375 17.121094 C 24.339844 17.121094 24.539063 17.210938 24.71875 17.378906 L 25.339844 18.011719 C 25.519531 18.179688 25.601563 18.390625 25.601563 18.621094 C 25.601563 18.859375 25.511719 19.058594 25.339844 19.21875 C 25.199219 19.390625 25.019531 19.480469 24.800781 19.480469 L 24.78125 19.460938 C 24.539063 19.460938 24.339844 19.378906 24.160156 19.21875 L 23.511719 18.578125 C 23.351563 18.410156 23.261719 18.210938 23.261719 17.980469 Z M 24.730469 11.609375 C 24.730469 11.371094 24.808594 11.171875 24.980469 11.011719 C 25.148438 10.851563 25.351563 10.769531 25.589844 10.769531 L 27.648438 10.769531 C 27.890625 10.769531 28.101563 10.851563 28.261719 11.011719 C 28.421875 11.171875 28.511719 11.371094 28.511719 11.609375 C 28.511719 11.851563 28.429688 12.050781 28.261719 12.21875 C 28.089844 12.390625 27.890625 12.46875 27.648438 12.46875 L 25.589844 12.46875 C 25.351563 12.46875 25.148438 12.378906 24.988281 12.199219 C 24.808594 12.050781 24.730469 11.851563 24.730469 11.609375 Z M 24.730469 11.609375 "/>
</g>
</svg>
