<?xml version="1.0" encoding="UTF-8"?>
<svg xmlns="http://www.w3.org/2000/svg" xmlns:xlink="http://www.w3.org/1999/xlink" width="30pt" height="30pt" viewBox="0 0 30 30" version="1.1">
<g id="surface76">
<path style=" stroke:none;fill-rule:nonzero;fill:rgb(0%,0%,0%);fill-opacity:1;" d="M 0.320313 21.058594 C 0.320313 21.289063 0.398438 21.488281 0.570313 21.648438 C 0.738281 21.808594 0.949219 21.890625 1.199219 21.890625 L 19.910156 21.890625 C 20.148438 21.890625 20.351563 21.808594 20.519531 21.648438 C 20.691406 21.488281 20.769531 21.300781 20.769531 21.058594 C 20.769531 20.820313 20.691406 20.621094 20.519531 20.460938 C 20.351563 20.289063 20.148438 20.210938 19.910156 20.210938 L 1.199219 20.210938 C 0.949219 20.210938 0.738281 20.289063 0.570313 20.460938 C 0.398438 20.628906 0.320313 20.820313 0.320313 21.058594 Z M 2.941406 17.921875 C 2.941406 18.148438 3.019531 18.351563 3.191406 18.5 C 3.359375 18.679688 3.558594 18.769531 3.789063 18.769531 L 22.511719 18.769531 C 22.738281 18.769531 22.941406 18.691406 23.101563 18.519531 C 23.261719 18.351563 23.339844 18.148438 23.339844 17.921875 C 23.339844 17.691406 23.261719 17.488281 23.109375 17.328125 C 22.949219 17.171875 22.761719 17.089844 22.519531 17.089844 L 3.800781 17.089844 C 3.558594 17.089844 3.359375 17.171875 3.199219 17.328125 C 3.03125 17.5 2.941406 17.691406 2.941406 17.921875 Z M 3.070313 15.519531 C 3.070313 15.609375 3.121094 15.648438 3.230469 15.648438 L 4.660156 15.648438 C 4.730469 15.648438 4.800781 15.601563 4.871094 15.488281 C 5.109375 14.96875 5.460938 14.550781 5.929688 14.21875 C 6.398438 13.890625 6.921875 13.699219 7.488281 13.660156 L 8.03125 13.589844 C 8.140625 13.589844 8.199219 13.53125 8.199219 13.410156 L 8.269531 12.898438 C 8.378906 11.820313 8.828125 10.921875 9.640625 10.191406 C 10.449219 9.46875 11.398438 9.101563 12.5 9.101563 C 13.578125 9.101563 14.53125 9.460938 15.339844 10.179688 C 16.148438 10.898438 16.609375 11.789063 16.71875 12.859375 L 16.789063 13.441406 C 16.789063 13.550781 16.851563 13.609375 16.980469 13.609375 L 18.589844 13.609375 C 19.230469 13.609375 19.820313 13.78125 20.351563 14.128906 C 20.878906 14.46875 21.269531 14.929688 21.53125 15.5 C 21.601563 15.609375 21.660156 15.660156 21.730469 15.660156 L 23.171875 15.660156 C 23.300781 15.660156 23.351563 15.589844 23.300781 15.429688 L 23.101563 14.878906 C 23.859375 13.941406 24.230469 12.839844 24.230469 11.570313 C 24.230469 10.859375 24.089844 10.191406 23.820313 9.539063 C 23.550781 8.890625 23.179688 8.339844 22.710938 7.871094 C 22.25 7.398438 21.691406 7.03125 21.039063 6.75 C 20.390625 6.46875 19.71875 6.351563 19 6.351563 C 17.460938 6.351563 16.179688 6.910156 15.179688 8.03125 C 14.328125 7.609375 13.441406 7.398438 12.5 7.398438 C 11.101563 7.398438 9.851563 7.839844 8.761719 8.71875 C 7.671875 9.601563 6.96875 10.71875 6.660156 12.089844 C 4.878906 12.558594 3.679688 13.671875 3.078125 15.441406 C 3.070313 15.449219 3.070313 15.480469 3.070313 15.519531 Z M 4.691406 24.128906 C 4.691406 24.371094 4.78125 24.570313 4.960938 24.730469 C 5.121094 24.898438 5.308594 24.988281 5.550781 24.988281 L 24.289063 24.988281 C 24.519531 24.988281 24.71875 24.910156 24.890625 24.738281 C 25.058594 24.570313 25.140625 24.371094 25.140625 24.128906 C 25.140625 23.898438 25.058594 23.710938 24.890625 23.550781 C 24.71875 23.398438 24.519531 23.320313 24.289063 23.320313 L 5.550781 23.320313 C 5.308594 23.320313 5.109375 23.398438 4.941406 23.550781 C 4.769531 23.710938 4.691406 23.898438 4.691406 24.128906 Z M 11.261719 4.660156 C 11.261719 4.898438 11.339844 5.089844 11.488281 5.25 L 12.140625 5.890625 C 12.308594 6.070313 12.5 6.160156 12.71875 6.160156 C 12.941406 6.160156 13.140625 6.078125 13.320313 5.910156 C 13.488281 5.738281 13.578125 5.539063 13.578125 5.300781 C 13.578125 5.058594 13.5 4.851563 13.328125 4.671875 L 12.691406 4.058594 C 12.53125 3.890625 12.328125 3.800781 12.089844 3.800781 C 11.851563 3.800781 11.648438 3.878906 11.488281 4.050781 C 11.339844 4.210938 11.261719 4.421875 11.261719 4.660156 Z M 16.578125 9.039063 C 17.25 8.359375 18.058594 8.03125 19.011719 8.03125 C 19.988281 8.03125 20.828125 8.378906 21.519531 9.070313 C 22.210938 9.761719 22.558594 10.601563 22.558594 11.570313 C 22.558594 12.21875 22.398438 12.820313 22.070313 13.371094 C 21.121094 12.421875 19.960938 11.949219 18.601563 11.949219 L 18.261719 11.949219 C 17.96875 10.769531 17.410156 9.800781 16.578125 9.039063 Z M 18.179688 3.808594 C 18.179688 4.039063 18.261719 4.238281 18.421875 4.398438 C 18.578125 4.558594 18.769531 4.640625 19.011719 4.640625 C 19.261719 4.640625 19.46875 4.558594 19.640625 4.398438 C 19.808594 4.238281 19.890625 4.050781 19.890625 3.808594 L 19.890625 1.761719 C 19.890625 1.53125 19.800781 1.328125 19.628906 1.160156 C 19.449219 0.988281 19.238281 0.910156 19 0.910156 C 18.769531 0.910156 18.570313 0.988281 18.410156 1.160156 C 18.25 1.328125 18.171875 1.53125 18.171875 1.761719 L 18.171875 3.808594 Z M 23.671875 6.078125 C 23.671875 6.300781 23.75 6.511719 23.910156 6.679688 C 24.28125 7.039063 24.691406 7.039063 25.140625 6.679688 L 26.570313 5.25 C 26.730469 5.070313 26.808594 4.859375 26.808594 4.609375 C 26.808594 4.378906 26.730469 4.179688 26.570313 4.019531 C 26.410156 3.859375 26.210938 3.78125 25.980469 3.78125 C 25.738281 3.78125 25.539063 3.859375 25.378906 4.019531 L 23.921875 5.488281 C 23.75 5.671875 23.671875 5.871094 23.671875 6.078125 Z M 24.480469 17.878906 C 24.480469 18.121094 24.570313 18.320313 24.738281 18.480469 L 25.378906 19.128906 C 25.539063 19.289063 25.738281 19.371094 25.960938 19.371094 C 26.171875 19.371094 26.371094 19.289063 26.570313 19.128906 C 26.730469 18.960938 26.808594 18.738281 26.808594 18.488281 C 26.808594 18.269531 26.730469 18.078125 26.570313 17.929688 L 25.921875 17.269531 C 25.738281 17.109375 25.539063 17.03125 25.320313 17.03125 C 25.078125 17.03125 24.878906 17.109375 24.71875 17.28125 C 24.558594 17.441406 24.480469 17.640625 24.480469 17.878906 Z M 25.960938 11.570313 C 25.960938 11.808594 26.050781 12.011719 26.21875 12.171875 C 26.371094 12.339844 26.570313 12.421875 26.808594 12.421875 L 28.859375 12.421875 C 29.089844 12.421875 29.289063 12.339844 29.449219 12.171875 C 29.609375 12 29.691406 11.800781 29.691406 11.570313 C 29.691406 11.328125 29.609375 11.128906 29.449219 10.96875 C 29.289063 10.808594 29.101563 10.730469 28.859375 10.730469 L 26.808594 10.730469 C 26.570313 10.730469 26.371094 10.808594 26.210938 10.980469 C 26.039063 11.140625 25.960938 11.339844 25.960938 11.570313 Z M 25.960938 11.570313 "/>
</g>
</svg>
