<?xml version="1.0" encoding="UTF-8"?>
<svg xmlns="http://www.w3.org/2000/svg" xmlns:xlink="http://www.w3.org/1999/xlink" width="30pt" height="30pt" viewBox="0 0 30 30" version="1.1">
<g id="surface146">
<path style=" stroke:none;fill-rule:nonzero;fill:rgb(0%,0%,0%);fill-opacity:1;" d="M 1.578125 16.890625 C 1.578125 17.761719 1.789063 18.570313 2.21875 19.308594 C 2.640625 20.058594 3.21875 20.660156 3.949219 21.109375 C 4.679688 21.558594 5.480469 21.800781 6.351563 21.839844 C 6.46875 21.839844 6.53125 21.78125 6.53125 21.671875 L 6.53125 20.339844 C 6.53125 20.21875 6.46875 20.148438 6.351563 20.148438 C 5.5 20.109375 4.769531 19.769531 4.171875 19.128906 C 3.570313 18.488281 3.269531 17.75 3.269531 16.878906 C 3.269531 16.058594 3.550781 15.339844 4.109375 14.730469 C 4.671875 14.121094 5.371094 13.769531 6.199219 13.671875 L 6.71875 13.640625 C 6.839844 13.640625 6.910156 13.578125 6.910156 13.460938 L 6.988281 12.921875 C 7.101563 11.839844 7.550781 10.941406 8.351563 10.210938 C 9.148438 9.480469 10.101563 9.121094 11.199219 9.121094 C 12.269531 9.121094 13.21875 9.480469 14.039063 10.210938 C 14.859375 10.941406 15.320313 11.839844 15.441406 12.910156 L 15.511719 13.488281 C 15.511719 13.601563 15.570313 13.660156 15.679688 13.660156 L 17.300781 13.660156 C 18.179688 13.660156 18.949219 13.980469 19.589844 14.621094 C 20.238281 15.261719 20.558594 16.011719 20.558594 16.878906 C 20.558594 17.738281 20.261719 18.488281 19.660156 19.128906 C 19.058594 19.761719 18.328125 20.101563 17.480469 20.148438 C 17.359375 20.148438 17.300781 20.210938 17.300781 20.339844 L 17.300781 21.671875 C 17.300781 21.78125 17.359375 21.839844 17.480469 21.839844 C 18.351563 21.820313 19.148438 21.578125 19.878906 21.121094 C 20.609375 20.660156 21.191406 20.070313 21.609375 19.320313 C 22.03125 18.570313 22.238281 17.761719 22.238281 16.890625 C 22.238281 16.148438 22.101563 15.488281 21.828125 14.890625 C 22.609375 13.941406 22.988281 12.839844 22.988281 11.589844 C 22.988281 10.648438 22.761719 9.769531 22.289063 8.96875 C 21.820313 8.171875 21.191406 7.53125 20.390625 7.070313 C 19.589844 6.601563 18.71875 6.371094 17.78125 6.371094 C 16.230469 6.371094 14.941406 6.949219 13.910156 8.101563 C 13.089844 7.660156 12.191406 7.441406 11.21875 7.441406 C 9.808594 7.441406 8.570313 7.878906 7.480469 8.75 C 6.390625 9.621094 5.699219 10.738281 5.390625 12.089844 C 4.289063 12.351563 3.378906 12.929688 2.671875 13.820313 C 1.929688 14.730469 1.578125 15.75 1.578125 16.890625 Z M 7.480469 17.769531 C 7.480469 18.148438 7.621094 18.480469 7.898438 18.75 C 8.179688 19.019531 8.519531 19.148438 8.910156 19.148438 C 9.308594 19.148438 9.640625 19.019531 9.910156 18.75 C 10.179688 18.480469 10.308594 18.160156 10.308594 17.769531 C 10.308594 17.53125 10.191406 17.191406 9.960938 16.769531 C 9.730469 16.339844 9.511719 16.011719 9.308594 15.78125 C 9.101563 15.558594 8.960938 15.410156 8.910156 15.359375 L 8.550781 15.761719 C 8.28125 16.050781 8.03125 16.390625 7.808594 16.789063 C 7.589844 17.191406 7.480469 17.519531 7.480469 17.769531 Z M 9.96875 4.660156 C 9.96875 4.921875 10.050781 5.121094 10.210938 5.269531 L 10.859375 5.929688 C 11.28125 6.238281 11.679688 6.238281 12.070313 5.929688 C 12.230469 5.738281 12.308594 5.519531 12.308594 5.289063 C 12.308594 5.058594 12.230469 4.859375 12.070313 4.699219 L 11.429688 4.050781 C 11.238281 3.878906 11.039063 3.800781 10.820313 3.800781 C 10.578125 3.800781 10.371094 3.878906 10.210938 4.050781 C 10.050781 4.21875 9.96875 4.421875 9.96875 4.660156 Z M 10.449219 21.730469 C 10.449219 22.390625 10.679688 22.941406 11.128906 23.378906 C 11.578125 23.820313 12.128906 24.050781 12.78125 24.050781 C 13.429688 24.050781 13.980469 23.820313 14.441406 23.371094 C 14.898438 22.910156 15.121094 22.371094 15.121094 21.730469 C 15.121094 21.191406 14.851563 20.539063 14.308594 19.761719 C 13.851563 19.148438 13.421875 18.660156 13.03125 18.269531 C 12.949219 18.210938 12.859375 18.140625 12.769531 18.039063 L 12.539063 18.269531 C 12.179688 18.589844 11.761719 19.089844 11.269531 19.738281 C 10.730469 20.5 10.449219 21.160156 10.449219 21.730469 Z M 11.929688 15.109375 C 11.929688 15.359375 12.03125 15.578125 12.21875 15.761719 C 12.410156 15.941406 12.640625 16.03125 12.910156 16.03125 C 13.171875 16.03125 13.390625 15.941406 13.570313 15.761719 C 13.75 15.578125 13.839844 15.359375 13.839844 15.109375 C 13.839844 14.699219 13.53125 14.160156 12.910156 13.511719 L 12.671875 13.761719 C 12.488281 13.960938 12.320313 14.191406 12.171875 14.460938 C 12 14.730469 11.929688 14.941406 11.929688 15.109375 Z M 15.300781 9.058594 C 15.960938 8.398438 16.78125 8.070313 17.769531 8.070313 C 18.75 8.070313 19.570313 8.410156 20.261719 9.101563 C 20.941406 9.789063 21.289063 10.621094 21.289063 11.601563 C 21.289063 12.191406 21.121094 12.800781 20.769531 13.441406 C 19.800781 12.480469 18.640625 12 17.300781 12 L 16.96875 12 C 16.679688 10.839844 16.121094 9.859375 15.300781 9.058594 Z M 16.898438 3.800781 C 16.898438 4.039063 16.988281 4.238281 17.160156 4.410156 C 17.328125 4.578125 17.53125 4.660156 17.761719 4.660156 C 17.988281 4.660156 18.191406 4.578125 18.339844 4.410156 C 18.5 4.238281 18.570313 4.039063 18.570313 3.800781 L 18.570313 1.761719 C 18.570313 1.519531 18.488281 1.328125 18.339844 1.171875 C 18.191406 1.011719 18 0.941406 17.769531 0.941406 C 17.539063 0.941406 17.328125 1.019531 17.160156 1.171875 C 16.988281 1.320313 16.898438 1.519531 16.898438 1.761719 Z M 22.421875 6.109375 C 22.421875 6.351563 22.5 6.550781 22.671875 6.699219 C 22.839844 6.859375 23.03125 6.941406 23.230469 6.941406 C 23.398438 6.941406 23.609375 6.859375 23.839844 6.699219 L 25.269531 5.269531 C 25.449219 5.089844 25.539063 4.878906 25.539063 4.648438 C 25.539063 4.410156 25.460938 4.199219 25.289063 4.039063 C 25.121094 3.878906 24.921875 3.800781 24.679688 3.800781 C 24.460938 3.800781 24.269531 3.878906 24.101563 4.050781 L 22.671875 5.480469 C 22.5 5.648438 22.421875 5.859375 22.421875 6.109375 Z M 23.21875 17.890625 C 23.21875 18.140625 23.300781 18.351563 23.449219 18.53125 L 24.101563 19.109375 C 24.238281 19.289063 24.441406 19.378906 24.691406 19.378906 C 24.929688 19.378906 25.128906 19.289063 25.269531 19.109375 C 25.449219 18.949219 25.539063 18.75 25.539063 18.53125 C 25.539063 18.308594 25.449219 18.121094 25.269531 17.949219 L 24.660156 17.300781 C 24.480469 17.140625 24.28125 17.058594 24.050781 17.058594 C 23.808594 17.058594 23.609375 17.140625 23.449219 17.300781 C 23.289063 17.460938 23.21875 17.660156 23.21875 17.890625 Z M 24.671875 11.601563 C 24.671875 11.820313 24.75 12.019531 24.921875 12.179688 C 25.089844 12.339844 25.300781 12.421875 25.550781 12.421875 L 27.570313 12.421875 C 27.808594 12.421875 28.011719 12.339844 28.171875 12.179688 C 28.339844 12.019531 28.421875 11.828125 28.421875 11.589844 C 28.421875 11.351563 28.339844 11.148438 28.171875 10.988281 C 28 10.828125 27.800781 10.738281 27.570313 10.738281 L 25.550781 10.738281 C 25.308594 10.738281 25.109375 10.820313 24.929688 10.988281 C 24.75 11.160156 24.671875 11.371094 24.671875 11.601563 Z M 24.671875 11.601563 "/>
</g>
</svg>
