<?xml version="1.0" encoding="UTF-8"?>
<svg xmlns="http://www.w3.org/2000/svg" xmlns:xlink="http://www.w3.org/1999/xlink" width="30pt" height="30pt" viewBox="0 0 30 30" version="1.1">
<g id="surface121">
<path style=" stroke:none;fill-rule:nonzero;fill:rgb(0%,0%,0%);fill-opacity:1;" d="M 1.488281 16.878906 C 1.488281 18 1.820313 19 2.488281 19.878906 C 3.160156 20.761719 4.019531 21.351563 5.070313 21.640625 L 4.410156 23.339844 C 4.359375 23.480469 4.410156 23.558594 4.550781 23.558594 L 6.679688 23.558594 L 5.25 27.769531 L 5.539063 27.769531 L 9.898438 22.109375 C 9.941406 22.070313 9.941406 22.019531 9.921875 21.96875 C 9.898438 21.921875 9.851563 21.898438 9.78125 21.898438 L 7.589844 21.898438 L 10.078125 17.25 C 10.148438 17.109375 10.109375 17.03125 9.941406 17.03125 L 6.980469 17.03125 C 6.890625 17.03125 6.808594 17.078125 6.75 17.179688 L 5.679688 20.058594 C 4.960938 19.878906 4.359375 19.5 3.898438 18.898438 C 3.429688 18.308594 3.199219 17.640625 3.199219 16.878906 C 3.199219 16.039063 3.480469 15.308594 4.039063 14.699219 C 4.601563 14.089844 5.308594 13.730469 6.148438 13.628906 L 6.660156 13.601563 C 6.78125 13.601563 6.851563 13.550781 6.878906 13.460938 L 6.949219 12.871094 C 7.058594 11.789063 7.511719 10.878906 8.320313 10.148438 C 9.128906 9.421875 10.078125 9.050781 11.179688 9.050781 C 12.269531 9.050781 13.21875 9.421875 14.039063 10.148438 C 14.859375 10.878906 15.328125 11.789063 15.441406 12.871094 L 15.519531 13.460938 C 15.519531 13.570313 15.578125 13.628906 15.699219 13.628906 L 17.308594 13.628906 C 18.199219 13.628906 18.96875 13.949219 19.621094 14.589844 C 20.269531 15.230469 20.589844 15.988281 20.589844 16.878906 C 20.589844 17.75 20.289063 18.5 19.691406 19.140625 C 19.089844 19.78125 18.371094 20.121094 17.511719 20.171875 C 17.378906 20.171875 17.308594 20.230469 17.308594 20.351563 L 17.308594 21.691406 C 17.308594 21.800781 17.378906 21.859375 17.511719 21.859375 C 18.390625 21.839844 19.199219 21.601563 19.929688 21.140625 C 20.660156 20.691406 21.238281 20.078125 21.671875 19.328125 C 22.101563 18.578125 22.308594 17.761719 22.308594 16.878906 C 22.308594 16.148438 22.171875 15.480469 21.878906 14.859375 C 22.640625 13.898438 23.019531 12.800781 23.019531 11.570313 C 23.019531 10.621094 22.78125 9.738281 22.308594 8.929688 C 21.839844 8.121094 21.199219 7.480469 20.390625 7.011719 C 19.578125 6.539063 18.699219 6.300781 17.75 6.300781 C 17.03125 6.300781 16.328125 6.449219 15.648438 6.75 C 14.96875 7.050781 14.390625 7.46875 13.890625 8 C 13.078125 7.570313 12.179688 7.351563 11.171875 7.351563 C 9.75 7.351563 8.488281 7.789063 7.398438 8.671875 C 6.308594 9.550781 5.601563 10.671875 5.300781 12.039063 C 4.191406 12.300781 3.28125 12.878906 2.558594 13.78125 C 1.851563 14.699219 1.488281 15.730469 1.488281 16.878906 Z M 9.371094 27.101563 C 9.371094 27.269531 9.421875 27.429688 9.53125 27.589844 C 9.640625 27.75 9.800781 27.859375 10.019531 27.921875 C 10.109375 27.941406 10.191406 27.949219 10.261719 27.949219 C 10.691406 27.949219 10.960938 27.75 11.058594 27.339844 L 11.191406 26.75 C 11.25 26.488281 11.21875 26.269531 11.109375 26.070313 C 10.988281 25.871094 10.820313 25.75 10.578125 25.699219 C 10.371094 25.628906 10.160156 25.648438 9.949219 25.769531 C 9.738281 25.890625 9.609375 26.058594 9.539063 26.28125 L 9.410156 26.871094 C 9.378906 26.988281 9.371094 27.070313 9.371094 27.101563 Z M 9.898438 4.589844 C 9.898438 4.820313 9.980469 5.019531 10.148438 5.191406 L 10.800781 5.851563 C 10.960938 6.011719 11.140625 6.089844 11.351563 6.109375 C 11.558594 6.140625 11.761719 6.070313 11.960938 5.878906 C 12.160156 5.699219 12.261719 5.488281 12.261719 5.238281 C 12.261719 5.011719 12.179688 4.808594 12.011719 4.640625 L 11.378906 3.980469 C 11.21875 3.820313 11.019531 3.738281 10.78125 3.738281 C 10.53125 3.738281 10.320313 3.820313 10.148438 3.980469 C 9.988281 4.160156 9.898438 4.359375 9.898438 4.589844 Z M 10.160156 24.199219 C 10.160156 24.429688 10.238281 24.621094 10.398438 24.78125 C 10.558594 24.941406 10.761719 25.019531 10.980469 25.019531 C 11.21875 25.019531 11.410156 24.941406 11.570313 24.789063 C 11.730469 24.628906 11.800781 24.441406 11.800781 24.199219 C 11.800781 23.96875 11.71875 23.78125 11.570313 23.621094 C 11.410156 23.460938 11.21875 23.390625 10.980469 23.390625 C 10.738281 23.390625 10.550781 23.46875 10.390625 23.621094 C 10.238281 23.769531 10.160156 23.96875 10.160156 24.199219 Z M 10.78125 21.929688 C 10.769531 22.078125 10.808594 22.238281 10.921875 22.398438 C 11.019531 22.558594 11.171875 22.660156 11.371094 22.699219 C 11.601563 22.761719 11.808594 22.738281 12.011719 22.640625 C 12.210938 22.539063 12.339844 22.351563 12.421875 22.078125 L 12.679688 21.179688 C 12.75 20.960938 12.730469 20.75 12.609375 20.550781 C 12.488281 20.351563 12.320313 20.21875 12.078125 20.148438 C 11.859375 20.078125 11.648438 20.109375 11.441406 20.230469 C 11.230469 20.351563 11.101563 20.53125 11.03125 20.761719 L 10.800781 21.660156 C 10.789063 21.738281 10.78125 21.828125 10.78125 21.929688 Z M 13.539063 24.078125 C 13.539063 24.25 13.589844 24.410156 13.691406 24.558594 C 13.789063 24.710938 13.941406 24.820313 14.148438 24.878906 C 14.179688 24.878906 14.230469 24.890625 14.289063 24.898438 C 14.351563 24.910156 14.398438 24.921875 14.429688 24.921875 C 14.839844 24.921875 15.089844 24.699219 15.191406 24.261719 L 15.328125 23.660156 C 15.398438 23.449219 15.378906 23.238281 15.261719 23.03125 C 15.140625 22.820313 14.96875 22.691406 14.75 22.621094 C 14.5 22.558594 14.269531 22.578125 14.070313 22.699219 C 13.871094 22.820313 13.730469 22.988281 13.660156 23.230469 L 13.570313 23.820313 C 13.570313 23.828125 13.570313 23.871094 13.558594 23.929688 C 13.550781 24 13.539063 24.039063 13.539063 24.078125 Z M 14.28125 21.121094 C 14.28125 21.351563 14.359375 21.539063 14.519531 21.691406 C 14.671875 21.851563 14.859375 21.929688 15.101563 21.929688 C 15.339844 21.929688 15.53125 21.851563 15.691406 21.699219 C 15.851563 21.539063 15.921875 21.351563 15.921875 21.121094 C 15.921875 20.878906 15.839844 20.691406 15.691406 20.53125 C 15.53125 20.371094 15.339844 20.300781 15.101563 20.300781 C 14.859375 20.300781 14.671875 20.378906 14.511719 20.53125 C 14.359375 20.691406 14.28125 20.878906 14.28125 21.121094 Z M 15.308594 9.019531 C 15.980469 8.378906 16.789063 8.050781 17.761719 8.050781 C 18.738281 8.050781 19.578125 8.390625 20.269531 9.078125 C 20.960938 9.761719 21.308594 10.601563 21.308594 11.578125 C 21.308594 12.238281 21.148438 12.839844 20.839844 13.390625 C 19.878906 12.429688 18.710938 11.949219 17.320313 11.949219 L 17.011719 11.949219 C 16.71875 10.761719 16.148438 9.78125 15.308594 9.019531 Z M 16.910156 3.75 C 16.910156 3.988281 16.988281 4.191406 17.160156 4.359375 C 17.328125 4.53125 17.53125 4.609375 17.761719 4.609375 C 18 4.609375 18.199219 4.53125 18.359375 4.359375 C 18.519531 4.191406 18.601563 3.988281 18.601563 3.75 L 18.601563 1.691406 C 18.601563 1.449219 18.519531 1.238281 18.359375 1.078125 C 18.199219 0.910156 18 0.820313 17.761719 0.820313 C 17.519531 0.820313 17.320313 0.898438 17.160156 1.070313 C 17 1.238281 16.910156 1.441406 16.910156 1.679688 Z M 22.488281 6.039063 C 22.488281 6.28125 22.570313 6.480469 22.71875 6.640625 C 22.859375 6.800781 23.039063 6.878906 23.269531 6.898438 C 23.5 6.921875 23.710938 6.828125 23.898438 6.640625 L 25.339844 5.199219 C 25.519531 5.039063 25.601563 4.839844 25.601563 4.601563 C 25.601563 4.359375 25.511719 4.160156 25.339844 4 C 25.179688 3.820313 24.980469 3.738281 24.738281 3.738281 C 24.511719 3.738281 24.320313 3.828125 24.160156 4 L 22.71875 5.441406 C 22.558594 5.589844 22.488281 5.789063 22.488281 6.039063 Z M 23.261719 17.949219 C 23.261719 18.179688 23.339844 18.378906 23.511719 18.550781 L 24.160156 19.179688 C 24.339844 19.351563 24.550781 19.429688 24.78125 19.429688 L 24.800781 19.449219 C 25.019531 19.449219 25.199219 19.359375 25.339844 19.179688 C 25.519531 19.019531 25.601563 18.820313 25.601563 18.578125 C 25.601563 18.351563 25.511719 18.148438 25.339844 17.96875 L 24.71875 17.351563 C 24.539063 17.171875 24.339844 17.078125 24.109375 17.078125 C 23.871094 17.078125 23.671875 17.171875 23.511719 17.339844 C 23.351563 17.511719 23.261719 17.71875 23.261719 17.949219 Z M 24.730469 11.578125 C 24.730469 11.820313 24.820313 12.019531 24.988281 12.171875 C 25.148438 12.351563 25.351563 12.429688 25.589844 12.429688 L 27.648438 12.429688 C 27.890625 12.429688 28.089844 12.351563 28.261719 12.179688 C 28.429688 12.011719 28.511719 11.808594 28.511719 11.578125 C 28.511719 11.351563 28.429688 11.140625 28.261719 10.980469 C 28.089844 10.820313 27.890625 10.738281 27.648438 10.738281 L 25.589844 10.738281 C 25.351563 10.738281 25.140625 10.820313 24.980469 10.980469 C 24.808594 11.140625 24.730469 11.339844 24.730469 11.578125 Z M 24.730469 11.578125 "/>
</g>
</svg>
