<?xml version="1.0" encoding="UTF-8"?>
<svg xmlns="http://www.w3.org/2000/svg" xmlns:xlink="http://www.w3.org/1999/xlink" width="30pt" height="30pt" viewBox="0 0 30 30" version="1.1">
<g id="surface166">
<path style=" stroke:none;fill-rule:nonzero;fill:rgb(0%,0%,0%);fill-opacity:1;" d="M 1.519531 16.898438 C 1.519531 18.011719 1.851563 18.988281 2.5 19.859375 C 3.148438 20.730469 4.011719 21.320313 5.070313 21.640625 L 4.429688 23.339844 C 4.390625 23.480469 4.429688 23.550781 4.570313 23.550781 L 6.699219 23.550781 L 5.449219 27.5 L 5.738281 27.5 L 9.910156 22.109375 C 9.949219 22.070313 9.949219 22.019531 9.921875 21.96875 C 9.898438 21.921875 9.851563 21.898438 9.78125 21.898438 L 7.609375 21.898438 L 10.078125 17.269531 C 10.148438 17.128906 10.101563 17.050781 9.941406 17.050781 L 7 17.050781 C 6.910156 17.050781 6.828125 17.101563 6.769531 17.191406 L 5.699219 20.070313 C 4.988281 19.890625 4.398438 19.5 3.929688 18.910156 C 3.460938 18.320313 3.230469 17.648438 3.230469 16.898438 C 3.230469 16.070313 3.511719 15.351563 4.078125 14.730469 C 4.648438 14.109375 5.351563 13.761719 6.179688 13.660156 L 6.699219 13.601563 C 6.828125 13.601563 6.898438 13.539063 6.898438 13.421875 L 6.960938 12.910156 C 7.070313 11.828125 7.53125 10.921875 8.339844 10.191406 C 9.148438 9.460938 10.109375 9.089844 11.199219 9.089844 C 12.289063 9.089844 13.238281 9.460938 14.050781 10.191406 C 14.859375 10.921875 15.328125 11.828125 15.449219 12.910156 L 15.511719 13.488281 C 15.511719 13.601563 15.570313 13.660156 15.691406 13.660156 L 17.300781 13.660156 C 18.210938 13.660156 18.980469 13.980469 19.621094 14.609375 C 20.261719 15.238281 20.578125 16 20.578125 16.898438 C 20.578125 17.75 20.28125 18.488281 19.691406 19.109375 C 19.101563 19.730469 18.371094 20.078125 17.5 20.148438 C 17.371094 20.148438 17.300781 20.210938 17.300781 20.328125 L 17.300781 21.699219 C 17.300781 21.808594 17.371094 21.871094 17.5 21.871094 C 18.828125 21.828125 19.960938 21.320313 20.890625 20.359375 C 21.820313 19.398438 22.28125 18.25 22.28125 16.910156 C 22.28125 16.171875 22.140625 15.5 21.851563 14.898438 C 22.640625 13.941406 23.03125 12.839844 23.03125 11.578125 C 23.03125 10.640625 22.789063 9.769531 22.320313 8.960938 C 21.851563 8.148438 21.210938 7.511719 20.398438 7.039063 C 19.589844 6.570313 18.71875 6.328125 17.78125 6.328125 C 16.238281 6.328125 14.941406 6.910156 13.898438 8.058594 C 13.089844 7.628906 12.191406 7.410156 11.199219 7.410156 C 9.789063 7.410156 8.53125 7.851563 7.441406 8.71875 C 6.351563 9.589844 5.648438 10.710938 5.339844 12.078125 C 4.230469 12.339844 3.320313 12.910156 2.609375 13.808594 C 1.898438 14.710938 1.519531 15.75 1.519531 16.898438 Z M 9.609375 26.480469 C 9.601563 26.628906 9.640625 26.78125 9.75 26.921875 C 9.859375 27.058594 10.011719 27.171875 10.210938 27.25 C 10.28125 27.269531 10.351563 27.28125 10.421875 27.28125 C 10.589844 27.28125 10.761719 27.230469 10.929688 27.128906 C 11.101563 27.03125 11.210938 26.871094 11.269531 26.660156 L 13.558594 18.089844 C 13.621094 17.859375 13.601563 17.640625 13.488281 17.449219 C 13.378906 17.25 13.21875 17.121094 13 17.050781 C 12.769531 16.980469 12.550781 17 12.351563 17.121094 C 12.148438 17.230469 12.011719 17.398438 11.949219 17.628906 L 9.640625 26.230469 C 9.621094 26.300781 9.609375 26.390625 9.609375 26.480469 Z M 9.941406 4.628906 C 9.941406 4.871094 10.019531 5.058594 10.191406 5.21875 L 10.828125 5.878906 C 11 6.050781 11.199219 6.128906 11.441406 6.140625 C 11.679688 6.140625 11.871094 6.058594 12.011719 5.878906 C 12.199219 5.730469 12.289063 5.53125 12.289063 5.28125 C 12.289063 5.039063 12.210938 4.851563 12.039063 4.691406 L 11.410156 4.03125 C 11.238281 3.871094 11.03125 3.789063 10.800781 3.789063 C 10.550781 3.789063 10.339844 3.871094 10.179688 4.03125 C 10.019531 4.191406 9.941406 4.390625 9.941406 4.628906 Z M 13.769531 23.429688 C 13.769531 23.550781 13.808594 23.671875 13.878906 23.808594 C 14.011719 24.011719 14.171875 24.148438 14.378906 24.238281 C 14.449219 24.269531 14.550781 24.289063 14.679688 24.289063 C 14.828125 24.289063 14.941406 24.269531 15.011719 24.230469 C 15.210938 24.148438 15.351563 23.949219 15.421875 23.648438 L 16.910156 18.101563 C 16.96875 17.859375 16.949219 17.648438 16.839844 17.449219 C 16.730469 17.261719 16.558594 17.128906 16.328125 17.058594 C 16.101563 16.988281 15.878906 17.011719 15.691406 17.128906 C 15.488281 17.238281 15.359375 17.410156 15.300781 17.640625 L 13.800781 23.199219 C 13.800781 23.21875 13.789063 23.261719 13.78125 23.308594 C 13.769531 23.371094 13.769531 23.398438 13.769531 23.429688 Z M 15.300781 9.039063 C 15.96875 8.398438 16.789063 8.070313 17.78125 8.070313 C 18.75 8.070313 19.589844 8.410156 20.28125 9.089844 C 20.96875 9.769531 21.320313 10.601563 21.320313 11.570313 C 21.320313 12.191406 21.148438 12.808594 20.800781 13.421875 C 19.808594 12.441406 18.640625 11.949219 17.300781 11.949219 L 16.988281 11.949219 C 16.679688 10.78125 16.109375 9.808594 15.300781 9.039063 Z M 16.910156 3.789063 C 16.910156 4.019531 17 4.21875 17.171875 4.390625 C 17.339844 4.558594 17.539063 4.648438 17.769531 4.648438 C 18.011719 4.648438 18.199219 4.570313 18.359375 4.398438 C 18.519531 4.230469 18.589844 4.03125 18.589844 3.789063 L 18.589844 1.730469 C 18.589844 1.488281 18.511719 1.289063 18.359375 1.121094 C 18.210938 0.949219 18.011719 0.871094 17.769531 0.871094 C 17.539063 0.871094 17.339844 0.949219 17.171875 1.121094 C 17 1.289063 16.910156 1.488281 16.910156 1.730469 Z M 22.441406 6.070313 C 22.441406 6.308594 22.53125 6.511719 22.699219 6.671875 C 22.839844 6.839844 23.03125 6.921875 23.269531 6.921875 C 23.511719 6.921875 23.710938 6.839844 23.871094 6.671875 L 25.308594 5.21875 C 25.480469 5.058594 25.570313 4.871094 25.570313 4.628906 C 25.570313 4.390625 25.488281 4.191406 25.320313 4.019531 C 25.148438 3.851563 24.949219 3.769531 24.710938 3.769531 C 24.488281 3.769531 24.300781 3.859375 24.140625 4.03125 L 22.699219 5.46875 C 22.53125 5.628906 22.441406 5.828125 22.441406 6.070313 Z M 23.25 17.929688 C 23.25 18.148438 23.328125 18.351563 23.488281 18.53125 L 24.148438 19.160156 C 24.269531 19.300781 24.460938 19.390625 24.691406 19.398438 L 24.699219 19.410156 C 24.710938 19.410156 24.730469 19.410156 24.75 19.410156 C 24.769531 19.410156 24.78125 19.410156 24.800781 19.410156 C 24.988281 19.410156 25.160156 19.320313 25.328125 19.148438 C 25.5 18.988281 25.589844 18.789063 25.589844 18.550781 C 25.589844 18.320313 25.5 18.121094 25.328125 17.941406 L 24.679688 17.328125 C 24.519531 17.148438 24.320313 17.058594 24.101563 17.058594 C 23.871094 17.058594 23.671875 17.140625 23.5 17.308594 C 23.328125 17.488281 23.25 17.699219 23.25 17.929688 Z M 24.699219 11.578125 C 24.699219 11.808594 24.789063 12.011719 24.96875 12.179688 C 25.148438 12.359375 25.351563 12.449219 25.578125 12.449219 L 27.609375 12.449219 C 27.839844 12.449219 28.039063 12.359375 28.210938 12.191406 C 28.378906 12.019531 28.46875 11.808594 28.46875 11.578125 C 28.46875 11.351563 28.390625 11.148438 28.21875 10.988281 C 28.050781 10.828125 27.851563 10.75 27.609375 10.75 L 25.578125 10.75 C 25.328125 10.75 25.121094 10.828125 24.949219 10.988281 C 24.78125 11.148438 24.699219 11.351563 24.699219 11.578125 Z M 24.699219 11.578125 "/>
</g>
</svg>
