<?xml version="1.0" encoding="UTF-8"?>
<svg xmlns="http://www.w3.org/2000/svg" xmlns:xlink="http://www.w3.org/1999/xlink" width="30pt" height="30pt" viewBox="0 0 30 30" version="1.1">
<g id="surface116">
<path style=" stroke:none;fill-rule:nonzero;fill:rgb(0%,0%,0%);fill-opacity:1;" d="M 1.558594 16.878906 C 1.558594 18.210938 2.019531 19.351563 2.949219 20.308594 C 3.878906 21.269531 5.011719 21.769531 6.351563 21.839844 C 6.460938 21.839844 6.519531 21.78125 6.519531 21.671875 L 6.519531 20.328125 C 6.519531 20.210938 6.460938 20.148438 6.351563 20.148438 C 5.5 20.109375 4.78125 19.769531 4.179688 19.128906 C 3.578125 18.488281 3.289063 17.738281 3.289063 16.878906 C 3.289063 16.039063 3.570313 15.320313 4.128906 14.710938 C 4.691406 14.101563 5.390625 13.75 6.230469 13.648438 L 6.730469 13.609375 C 6.859375 13.609375 6.929688 13.550781 6.929688 13.429688 L 6.988281 12.898438 C 7.101563 11.820313 7.550781 10.910156 8.359375 10.191406 C 9.171875 9.460938 10.121094 9.101563 11.21875 9.101563 C 12.308594 9.101563 13.269531 9.460938 14.078125 10.191406 C 14.890625 10.921875 15.351563 11.820313 15.449219 12.898438 L 15.519531 13.46875 C 15.519531 13.589844 15.578125 13.648438 15.699219 13.648438 L 17.371094 13.648438 C 18.25 13.648438 19 13.96875 19.640625 14.609375 C 20.28125 15.25 20.601563 16 20.601563 16.878906 C 20.601563 17.730469 20.300781 18.46875 19.699219 19.101563 C 19.101563 19.730469 18.378906 20.078125 17.539063 20.148438 C 17.429688 20.148438 17.371094 20.210938 17.371094 20.328125 L 17.371094 21.671875 C 17.371094 21.78125 17.429688 21.839844 17.539063 21.839844 C 18.421875 21.820313 19.210938 21.578125 19.941406 21.121094 C 20.671875 20.660156 21.238281 20.070313 21.648438 19.320313 C 22.070313 18.570313 22.269531 17.761719 22.269531 16.878906 C 22.269531 16.171875 22.128906 15.511719 21.859375 14.921875 C 22.621094 13.980469 22.988281 12.890625 22.988281 11.640625 C 22.988281 10.929688 22.851563 10.25 22.578125 9.601563 C 22.308594 8.949219 21.929688 8.398438 21.460938 7.929688 C 21 7.460938 20.441406 7.089844 19.800781 6.820313 C 19.148438 6.539063 18.46875 6.410156 17.761719 6.410156 C 16.25 6.410156 14.980469 6.960938 13.949219 8.070313 C 13.160156 7.640625 12.25 7.429688 11.21875 7.429688 C 9.808594 7.429688 8.558594 7.871094 7.46875 8.738281 C 6.378906 9.609375 5.699219 10.730469 5.398438 12.089844 C 4.28125 12.351563 3.351563 12.921875 2.628906 13.808594 C 1.921875 14.699219 1.558594 15.730469 1.558594 16.878906 Z M 6.96875 23.578125 C 6.96875 23.761719 7.019531 23.941406 7.128906 24.109375 C 7.238281 24.289063 7.390625 24.398438 7.578125 24.46875 C 7.769531 24.539063 7.980469 24.519531 8.191406 24.410156 C 8.410156 24.300781 8.550781 24.121094 8.628906 23.859375 L 8.878906 22.808594 C 8.949219 22.601563 8.929688 22.398438 8.808594 22.191406 C 8.691406 21.980469 8.519531 21.839844 8.300781 21.769531 C 8.050781 21.710938 7.828125 21.738281 7.628906 21.851563 C 7.429688 21.960938 7.308594 22.148438 7.261719 22.378906 L 6.980469 23.371094 C 6.980469 23.421875 6.96875 23.488281 6.96875 23.578125 Z M 8.28125 18.859375 C 8.28125 19.238281 8.488281 19.5 8.921875 19.648438 C 9.140625 19.730469 9.351563 19.710938 9.558594 19.601563 C 9.769531 19.488281 9.898438 19.308594 9.96875 19.070313 L 10.210938 18.039063 C 10.28125 17.828125 10.261719 17.628906 10.140625 17.421875 C 10.03125 17.210938 9.859375 17.070313 9.628906 17 C 9.390625 16.941406 9.160156 16.960938 8.960938 17.078125 C 8.761719 17.199219 8.640625 17.371094 8.589844 17.601563 L 8.289063 18.621094 C 8.289063 18.699219 8.28125 18.78125 8.28125 18.859375 Z M 9.5 26.75 C 9.5 26.910156 9.558594 27.078125 9.671875 27.25 C 9.78125 27.421875 9.949219 27.539063 10.160156 27.609375 C 10.171875 27.609375 10.199219 27.609375 10.261719 27.621094 C 10.320313 27.628906 10.371094 27.628906 10.410156 27.628906 C 10.550781 27.628906 10.671875 27.609375 10.78125 27.558594 C 10.96875 27.480469 11.109375 27.289063 11.191406 26.980469 L 11.460938 25.988281 C 11.53125 25.761719 11.511719 25.539063 11.390625 25.339844 C 11.269531 25.140625 11.101563 25 10.878906 24.941406 C 10.648438 24.871094 10.429688 24.890625 10.230469 25.011719 C 10.03125 25.128906 9.890625 25.300781 9.828125 25.519531 L 9.550781 26.539063 C 9.511719 26.628906 9.5 26.699219 9.5 26.75 Z M 9.960938 4.679688 C 9.960938 4.929688 10.039063 5.140625 10.210938 5.300781 L 10.871094 5.949219 C 11.210938 6.289063 11.601563 6.289063 12.039063 5.949219 C 12.199219 5.78125 12.28125 5.570313 12.28125 5.339844 C 12.28125 5.109375 12.199219 4.910156 12.039063 4.730469 L 11.410156 4.070313 C 11.25 3.910156 11.050781 3.828125 10.808594 3.828125 C 10.578125 3.828125 10.378906 3.910156 10.210938 4.078125 C 10.039063 4.238281 9.960938 4.441406 9.960938 4.679688 Z M 10.851563 21.960938 C 10.851563 22.128906 10.898438 22.300781 11.011719 22.46875 C 11.121094 22.640625 11.269531 22.75 11.480469 22.820313 C 11.710938 22.890625 11.921875 22.871094 12.121094 22.769531 C 12.308594 22.671875 12.449219 22.480469 12.519531 22.210938 L 12.761719 21.199219 C 12.828125 20.96875 12.808594 20.75 12.699219 20.550781 C 12.589844 20.351563 12.421875 20.210938 12.199219 20.140625 C 11.949219 20.070313 11.71875 20.101563 11.519531 20.21875 C 11.320313 20.339844 11.191406 20.519531 11.148438 20.75 L 10.871094 21.78125 C 10.851563 21.808594 10.851563 21.871094 10.851563 21.960938 Z M 13.628906 23.679688 C 13.648438 24.058594 13.859375 24.328125 14.261719 24.511719 L 14.511719 24.550781 C 14.671875 24.550781 14.828125 24.5 14.980469 24.390625 C 15.128906 24.28125 15.238281 24.121094 15.300781 23.890625 L 15.589844 22.878906 C 15.648438 22.640625 15.621094 22.421875 15.5 22.21875 C 15.378906 22.019531 15.199219 21.890625 14.96875 21.851563 C 14.761719 21.78125 14.558594 21.800781 14.351563 21.921875 C 14.140625 22.039063 14.011719 22.210938 13.941406 22.429688 L 13.671875 23.449219 C 13.660156 23.46875 13.660156 23.5 13.648438 23.53125 C 13.640625 23.558594 13.640625 23.589844 13.628906 23.609375 C 13.621094 23.628906 13.628906 23.660156 13.628906 23.679688 Z M 15.03125 18.921875 C 15.03125 19.078125 15.078125 19.238281 15.179688 19.398438 C 15.28125 19.558594 15.429688 19.671875 15.628906 19.71875 L 15.878906 19.75 C 16.070313 19.75 16.25 19.691406 16.398438 19.570313 C 16.550781 19.449219 16.640625 19.289063 16.679688 19.101563 L 16.949219 18.109375 C 17.019531 17.871094 17 17.660156 16.878906 17.460938 C 16.769531 17.261719 16.601563 17.128906 16.371094 17.070313 C 16.140625 17 15.921875 17.019531 15.730469 17.128906 C 15.53125 17.238281 15.398438 17.410156 15.339844 17.628906 L 15.039063 18.691406 C 15.039063 18.769531 15.03125 18.851563 15.03125 18.921875 Z M 15.359375 9.058594 C 16.019531 8.421875 16.820313 8.101563 17.761719 8.101563 C 18.738281 8.101563 19.578125 8.449219 20.269531 9.140625 C 20.960938 9.828125 21.308594 10.671875 21.308594 11.648438 C 21.308594 12.210938 21.148438 12.800781 20.839844 13.410156 C 19.878906 12.449219 18.730469 11.980469 17.371094 11.980469 L 17.03125 11.980469 C 16.769531 10.839844 16.210938 9.871094 15.359375 9.058594 Z M 16.898438 3.828125 C 16.898438 4.078125 16.980469 4.28125 17.140625 4.441406 C 17.300781 4.601563 17.5 4.679688 17.75 4.679688 C 18 4.679688 18.199219 4.601563 18.359375 4.441406 C 18.519531 4.28125 18.601563 4.078125 18.601563 3.828125 L 18.601563 1.808594 C 18.601563 1.558594 18.519531 1.351563 18.359375 1.191406 C 18.199219 1.03125 18 0.949219 17.75 0.949219 C 17.5 0.949219 17.300781 1.03125 17.140625 1.191406 C 16.980469 1.351563 16.898438 1.558594 16.898438 1.808594 Z M 22.449219 6.121094 C 22.449219 6.371094 22.53125 6.570313 22.679688 6.730469 C 22.890625 6.898438 23.089844 6.980469 23.300781 6.980469 C 23.488281 6.980469 23.679688 6.898438 23.890625 6.730469 L 25.320313 5.300781 C 25.480469 5.121094 25.558594 4.910156 25.558594 4.671875 C 25.558594 4.429688 25.480469 4.230469 25.320313 4.070313 C 25.160156 3.910156 24.960938 3.828125 24.730469 3.828125 C 24.5 3.828125 24.300781 3.910156 24.121094 4.070313 L 22.679688 5.5 C 22.53125 5.679688 22.449219 5.878906 22.449219 6.121094 Z M 23.238281 17.949219 C 23.238281 18.179688 23.328125 18.390625 23.5 18.578125 L 24.121094 19.21875 C 24.328125 19.429688 24.53125 19.53125 24.738281 19.53125 C 24.929688 19.53125 25.128906 19.429688 25.320313 19.21875 C 25.5 19.039063 25.589844 18.828125 25.578125 18.609375 C 25.570313 18.378906 25.488281 18.179688 25.320313 18.011719 L 24.671875 17.351563 C 24.511719 17.191406 24.320313 17.109375 24.101563 17.109375 C 23.859375 17.109375 23.660156 17.191406 23.488281 17.359375 C 23.328125 17.519531 23.238281 17.71875 23.238281 17.949219 Z M 24.710938 11.640625 C 24.710938 11.859375 24.789063 12.058594 24.949219 12.21875 C 25.109375 12.378906 25.308594 12.460938 25.53125 12.460938 L 27.570313 12.460938 C 27.828125 12.460938 28.039063 12.378906 28.199219 12.230469 C 28.359375 12.070313 28.441406 11.878906 28.441406 11.640625 C 28.441406 11.390625 28.359375 11.179688 28.191406 11.019531 C 28.019531 10.859375 27.820313 10.78125 27.570313 10.78125 L 25.53125 10.78125 C 25.300781 10.78125 25.101563 10.859375 24.941406 11.03125 C 24.789063 11.199219 24.710938 11.410156 24.710938 11.640625 Z M 24.710938 11.640625 "/>
</g>
</svg>
