<?xml version="1.0" encoding="UTF-8"?>
<svg xmlns="http://www.w3.org/2000/svg" xmlns:xlink="http://www.w3.org/1999/xlink" width="30pt" height="30pt" viewBox="0 0 30 30" version="1.1">
<g id="surface236">
<path style=" stroke:none;fill-rule:nonzero;fill:rgb(0%,0%,0%);fill-opacity:1;" d="M 7.378906 21.828125 C 7.378906 21.53125 7.480469 21.28125 7.671875 21.070313 C 7.859375 20.859375 8.101563 20.761719 8.371094 20.761719 L 8.371094 20.738281 L 21.53125 20.78125 C 21.589844 20.769531 21.628906 20.761719 21.628906 20.761719 C 21.898438 20.769531 22.140625 20.878906 22.328125 21.089844 C 22.519531 21.300781 22.621094 21.558594 22.609375 21.859375 C 22.609375 22.160156 22.511719 22.410156 22.320313 22.621094 C 22.128906 22.828125 21.890625 22.929688 21.621094 22.929688 L 21.621094 22.941406 L 8.589844 22.898438 C 8.488281 22.910156 8.421875 22.921875 8.371094 22.921875 C 8.089844 22.910156 7.859375 22.808594 7.671875 22.601563 C 7.46875 22.390625 7.371094 22.128906 7.378906 21.828125 Z M 8.199219 16.371094 C 8.191406 15.941406 8.238281 15.441406 8.359375 14.851563 C 8.421875 14.550781 8.558594 14.089844 8.800781 13.480469 C 8.820313 13.429688 8.871094 13.339844 8.929688 13.199219 C 8.941406 13.21875 8.960938 13.230469 8.96875 13.25 C 8.980469 13.269531 8.988281 13.269531 8.988281 13.28125 C 9.101563 13.71875 9.261719 14.121094 9.480469 14.480469 C 9.691406 14.800781 9.960938 15.039063 10.300781 15.171875 C 10.558594 15.28125 10.929688 15.339844 11.398438 15.351563 C 11.421875 15.351563 11.449219 15.351563 11.480469 15.351563 C 11.511719 15.351563 11.539063 15.351563 11.558594 15.351563 C 11.230469 15.019531 10.96875 14.679688 10.769531 14.351563 C 10.46875 13.828125 10.28125 13.230469 10.199219 12.539063 C 10.140625 12 10.171875 11.351563 10.289063 10.578125 C 10.308594 10.429688 10.410156 10.089844 10.578125 9.570313 C 10.730469 9.101563 10.941406 8.671875 11.21875 8.289063 C 11.539063 7.800781 12 7.300781 12.609375 6.78125 C 12.980469 6.46875 13.5 6.109375 14.171875 5.710938 C 14.238281 5.671875 14.351563 5.601563 14.519531 5.519531 C 14.519531 5.539063 14.519531 5.558594 14.519531 5.570313 C 14.519531 5.578125 14.519531 5.601563 14.519531 5.609375 L 14.519531 5.628906 C 14.28125 6.199219 14.109375 6.78125 14.03125 7.359375 C 13.96875 7.890625 14.050781 8.378906 14.269531 8.839844 C 14.441406 9.199219 14.75 9.589844 15.191406 9.988281 C 15.28125 10.078125 15.480469 10.28125 15.789063 10.570313 C 16.089844 10.859375 16.328125 11.089844 16.488281 11.25 L 16.738281 11.5 C 17 11.121094 17.148438 10.671875 17.179688 10.148438 C 17.21875 9.601563 17.179688 9 17.039063 8.351563 C 17.039063 8.339844 17.039063 8.308594 17.050781 8.238281 C 17.070313 8.261719 17.179688 8.339844 17.351563 8.480469 C 17.910156 8.980469 18.328125 9.429688 18.628906 9.820313 C 19.109375 10.441406 19.460938 11.03125 19.691406 11.558594 C 19.878906 12.019531 20 12.480469 20.070313 12.960938 C 20.128906 13.378906 20.148438 13.730469 20.140625 14.011719 C 20.128906 14.789063 20.039063 15.441406 19.890625 15.96875 C 19.820313 16.179688 19.761719 16.351563 19.699219 16.488281 C 19.949219 16.421875 20.171875 16.328125 20.351563 16.230469 C 20.601563 16.070313 20.800781 15.859375 20.949219 15.570313 C 21.109375 15.28125 21.238281 14.949219 21.328125 14.589844 C 21.328125 14.578125 21.339844 14.558594 21.359375 14.539063 C 21.371094 14.558594 21.378906 14.589844 21.410156 14.628906 C 21.429688 14.671875 21.449219 14.699219 21.460938 14.730469 C 21.589844 15.039063 21.679688 15.359375 21.730469 15.699219 C 21.808594 16.078125 21.828125 16.449219 21.808594 16.828125 C 21.789063 17.121094 21.738281 17.390625 21.648438 17.640625 C 21.570313 17.878906 21.488281 18.070313 21.429688 18.21875 C 21.238281 18.601563 21.039063 18.929688 20.808594 19.199219 C 20.75 19.269531 20.699219 19.328125 20.671875 19.359375 L 9.671875 19.359375 C 9.660156 19.351563 9.640625 19.328125 9.601563 19.300781 C 9.558594 19.269531 9.539063 19.25 9.519531 19.230469 C 9.261719 18.980469 8.980469 18.601563 8.699219 18.101563 C 8.621094 17.949219 8.519531 17.71875 8.410156 17.410156 C 8.289063 17.101563 8.21875 16.75 8.199219 16.371094 Z M 8.199219 16.371094 "/>
</g>
</svg>
