<?xml version="1.0" encoding="UTF-8"?>
<svg xmlns="http://www.w3.org/2000/svg" xmlns:xlink="http://www.w3.org/1999/xlink" width="30pt" height="30pt" viewBox="0 0 30 30" version="1.1">
<g id="surface246">
<path style=" stroke:none;fill-rule:nonzero;fill:rgb(0%,0%,0%);fill-opacity:1;" d="M 2.621094 21.050781 C 2.621094 20.808594 2.699219 20.601563 2.871094 20.441406 C 3.039063 20.28125 3.25 20.199219 3.5 20.199219 L 22.171875 20.199219 C 22.421875 20.199219 22.621094 20.28125 22.78125 20.441406 C 22.941406 20.601563 23.019531 20.800781 23.019531 21.050781 C 23.019531 21.28125 22.941406 21.480469 22.769531 21.628906 C 22.601563 21.789063 22.398438 21.859375 22.171875 21.859375 L 3.5 21.859375 C 3.25 21.859375 3.039063 21.78125 2.871094 21.628906 C 2.699219 21.46875 2.621094 21.28125 2.621094 21.050781 Z M 5.238281 17.910156 C 5.238281 17.671875 5.328125 17.46875 5.5 17.308594 C 5.648438 17.160156 5.851563 17.078125 6.089844 17.078125 L 24.761719 17.078125 C 24.988281 17.078125 25.179688 17.160156 25.339844 17.320313 C 25.5 17.480469 25.570313 17.671875 25.570313 17.910156 C 25.570313 18.148438 25.488281 18.351563 25.339844 18.511719 C 25.179688 18.679688 24.988281 18.761719 24.761719 18.761719 L 6.089844 18.761719 C 5.851563 18.761719 5.648438 18.679688 5.488281 18.511719 C 5.320313 18.339844 5.238281 18.140625 5.238281 17.910156 Z M 5.371094 15.519531 C 5.371094 15.609375 5.421875 15.648438 5.519531 15.648438 L 6.949219 15.648438 C 7.011719 15.648438 7.078125 15.601563 7.148438 15.488281 C 7.390625 14.96875 7.738281 14.550781 8.210938 14.21875 C 8.679688 13.890625 9.199219 13.699219 9.761719 13.660156 L 10.308594 13.589844 C 10.421875 13.589844 10.480469 13.53125 10.480469 13.410156 L 10.550781 12.910156 C 10.660156 11.828125 11.109375 10.929688 11.921875 10.210938 C 12.730469 9.488281 13.679688 9.128906 14.769531 9.128906 C 15.851563 9.128906 16.789063 9.488281 17.601563 10.199219 C 18.398438 10.910156 18.859375 11.808594 18.96875 12.878906 L 19.050781 13.449219 C 19.050781 13.558594 19.121094 13.621094 19.25 13.621094 L 20.839844 13.621094 C 21.480469 13.621094 22.070313 13.789063 22.601563 14.140625 C 23.128906 14.488281 23.519531 14.941406 23.78125 15.511719 C 23.851563 15.621094 23.921875 15.671875 23.988281 15.671875 L 25.421875 15.671875 C 25.539063 15.671875 25.589844 15.601563 25.558594 15.441406 C 25.269531 14.421875 24.679688 13.578125 23.820313 12.929688 C 22.949219 12.28125 21.960938 11.960938 20.851563 11.960938 L 20.53125 11.960938 C 20.199219 10.628906 19.5 9.539063 18.429688 8.691406 C 17.359375 7.839844 16.148438 7.421875 14.78125 7.421875 C 13.378906 7.421875 12.140625 7.859375 11.050781 8.738281 C 9.960938 9.621094 9.269531 10.738281 8.960938 12.101563 C 8.109375 12.300781 7.359375 12.699219 6.71875 13.308594 C 6.078125 13.921875 5.628906 14.640625 5.378906 15.488281 L 5.378906 15.449219 C 5.371094 15.449219 5.371094 15.480469 5.371094 15.519531 Z M 6.980469 24.109375 C 6.980469 23.871094 7.070313 23.679688 7.238281 23.519531 C 7.390625 23.371094 7.589844 23.289063 7.839844 23.289063 L 26.519531 23.289063 C 26.761719 23.289063 26.960938 23.371094 27.121094 23.519531 C 27.289063 23.679688 27.371094 23.871094 27.371094 24.101563 C 27.371094 24.339844 27.289063 24.539063 27.121094 24.710938 C 26.949219 24.878906 26.75 24.960938 26.519531 24.960938 L 7.839844 24.960938 C 7.609375 24.960938 7.410156 24.871094 7.238281 24.699219 C 7.070313 24.550781 6.980469 24.339844 6.980469 24.109375 Z M 6.980469 24.109375 "/>
</g>
</svg>
