<?xml version="1.0" encoding="UTF-8"?>
<svg xmlns="http://www.w3.org/2000/svg" xmlns:xlink="http://www.w3.org/1999/xlink" width="30pt" height="30pt" viewBox="0 0 30 30" version="1.1">
<g id="surface231">
<path style=" stroke:none;fill-rule:nonzero;fill:rgb(0%,0%,0%);fill-opacity:1;" d="M 9.671875 11.011719 C 9.671875 10.511719 9.851563 10.078125 10.199219 9.730469 C 10.550781 9.378906 10.980469 9.199219 11.480469 9.199219 C 11.96875 9.199219 12.398438 9.378906 12.75 9.730469 C 13.101563 10.089844 13.28125 10.511719 13.28125 11.011719 C 13.28125 11.511719 13.101563 11.941406 12.75 12.300781 C 12.398438 12.660156 11.96875 12.839844 11.480469 12.839844 C 10.988281 12.839844 10.558594 12.660156 10.199219 12.300781 C 9.851563 11.941406 9.671875 11.511719 9.671875 11.011719 Z M 10.550781 11.011719 C 10.550781 11.269531 10.640625 11.488281 10.820313 11.679688 C 11.011719 11.871094 11.230469 11.960938 11.488281 11.960938 C 11.75 11.960938 11.96875 11.871094 12.160156 11.679688 C 12.351563 11.488281 12.441406 11.269531 12.441406 11.011719 C 12.441406 10.75 12.351563 10.53125 12.160156 10.351563 C 11.96875 10.171875 11.75 10.070313 11.488281 10.070313 C 11.230469 10.070313 11.011719 10.160156 10.820313 10.339844 C 10.640625 10.519531 10.550781 10.738281 10.550781 11.011719 Z M 14.960938 17.898438 C 14.960938 18.039063 15.011719 18.171875 15.109375 18.269531 C 15.210938 18.371094 15.339844 18.421875 15.480469 18.421875 C 15.621094 18.421875 15.75 18.371094 15.851563 18.269531 C 15.949219 18.171875 16 18.039063 16 17.898438 L 16 14.109375 L 18.859375 14.109375 C 19 14.109375 19.128906 14.058594 19.230469 13.949219 C 19.328125 13.839844 19.378906 13.71875 19.378906 13.570313 C 19.378906 13.421875 19.328125 13.300781 19.230469 13.191406 C 19.128906 13.089844 19 13.039063 18.851563 13.039063 L 15.988281 13.039063 L 15.988281 10.308594 L 19.808594 10.308594 C 19.949219 10.308594 20.070313 10.261719 20.171875 10.160156 C 20.269531 10.058594 20.308594 9.929688 20.308594 9.78125 C 20.308594 9.628906 20.261719 9.511719 20.171875 9.398438 C 20.078125 9.289063 19.960938 9.25 19.808594 9.25 L 15.039063 9.25 C 14.96875 9.25 14.941406 9.289063 14.941406 9.359375 L 14.941406 17.898438 Z M 14.960938 17.898438 "/>
</g>
</svg>
