<?xml version="1.0" encoding="UTF-8"?>
<svg xmlns="http://www.w3.org/2000/svg" xmlns:xlink="http://www.w3.org/1999/xlink" width="30pt" height="30pt" viewBox="0 0 30 30" version="1.1">
<g id="surface276">
<path style=" stroke:none;fill-rule:nonzero;fill:rgb(0%,0%,0%);fill-opacity:1;" d="M 7.558594 17.191406 C 7.558594 16.308594 7.800781 15.300781 8.28125 14.160156 C 8.761719 13.019531 9.378906 11.910156 10.140625 10.851563 C 11.699219 8.789063 13.058594 7.230469 14.199219 6.179688 L 14.949219 5.460938 C 15.199219 5.71875 15.480469 5.960938 15.78125 6.179688 C 16.191406 6.601563 16.820313 7.289063 17.660156 8.269531 C 18.5 9.25 19.230469 10.121094 19.828125 10.921875 C 20.539063 11.929688 21.148438 13.019531 21.640625 14.171875 C 22.128906 15.320313 22.378906 16.328125 22.378906 17.199219 C 22.378906 18.199219 22.191406 19.148438 21.800781 20.058594 C 21.410156 20.96875 20.890625 21.761719 20.230469 22.421875 C 19.570313 23.078125 18.78125 23.609375 17.859375 24 C 16.941406 24.390625 15.96875 24.589844 14.949219 24.589844 C 13.949219 24.589844 13 24.398438 12.089844 24.019531 C 11.179688 23.640625 10.390625 23.128906 9.730469 22.46875 C 9.070313 21.820313 8.539063 21.03125 8.148438 20.121094 C 7.761719 19.210938 7.558594 18.230469 7.558594 17.191406 Z M 9.820313 14.261719 C 9.820313 15.089844 9.988281 15.75 10.339844 16.25 C 10.691406 16.738281 11.21875 16.988281 11.929688 16.988281 C 12.648438 16.988281 13.179688 16.738281 13.539063 16.25 C 13.890625 15.761719 14.070313 15.101563 14.078125 14.261719 C 14.070313 13.421875 13.890625 12.761719 13.539063 12.261719 C 13.191406 11.769531 12.648438 11.519531 11.929688 11.519531 C 11.21875 11.519531 10.691406 11.769531 10.339844 12.261719 C 9.988281 12.761719 9.820313 13.421875 9.820313 14.261719 Z M 11.390625 14.261719 C 11.390625 14.109375 11.390625 13.988281 11.390625 13.910156 C 11.390625 13.828125 11.398438 13.71875 11.410156 13.578125 C 11.421875 13.441406 11.429688 13.328125 11.460938 13.261719 C 11.488281 13.191406 11.511719 13.101563 11.550781 13.019531 C 11.589844 12.941406 11.640625 12.871094 11.699219 12.839844 C 11.769531 12.800781 11.839844 12.78125 11.929688 12.78125 C 12.070313 12.78125 12.179688 12.820313 12.261719 12.898438 C 12.339844 12.980469 12.398438 13.109375 12.429688 13.28125 C 12.460938 13.460938 12.480469 13.601563 12.488281 13.730469 C 12.5 13.859375 12.5 14.03125 12.5 14.25 C 12.5 14.480469 12.5 14.648438 12.488281 14.769531 C 12.480469 14.890625 12.460938 15.039063 12.429688 15.21875 C 12.398438 15.390625 12.339844 15.519531 12.261719 15.601563 C 12.179688 15.679688 12.070313 15.71875 11.929688 15.71875 C 11.839844 15.71875 11.769531 15.699219 11.699219 15.660156 C 11.628906 15.621094 11.578125 15.558594 11.550781 15.480469 C 11.511719 15.398438 11.480469 15.308594 11.460938 15.238281 C 11.441406 15.160156 11.421875 15.050781 11.410156 14.921875 C 11.398438 14.78125 11.390625 14.671875 11.390625 14.601563 C 11.390625 14.53125 11.390625 14.410156 11.390625 14.261719 Z M 11.980469 22.011719 L 13.300781 22.011719 L 18.289063 11.269531 L 16.941406 11.269531 Z M 16.28125 19.019531 C 16.289063 19.859375 16.480469 20.519531 16.828125 21.019531 C 17.179688 21.511719 17.71875 21.761719 18.429688 21.761719 C 19.148438 21.761719 19.679688 21.511719 20.03125 21.019531 C 20.378906 20.53125 20.550781 19.859375 20.558594 19.019531 C 20.550781 18.179688 20.378906 17.519531 20.03125 17.03125 C 19.679688 16.539063 19.148438 16.289063 18.429688 16.289063 C 17.71875 16.289063 17.179688 16.539063 16.828125 17.03125 C 16.46875 17.519531 16.289063 18.179688 16.28125 19.019531 Z M 17.851563 19.019531 C 17.851563 18.789063 17.851563 18.621094 17.859375 18.5 C 17.871094 18.378906 17.890625 18.230469 17.921875 18.050781 C 17.949219 17.871094 18.011719 17.75 18.089844 17.671875 C 18.171875 17.589844 18.28125 17.550781 18.421875 17.550781 C 18.511719 17.550781 18.589844 17.570313 18.660156 17.609375 C 18.730469 17.648438 18.78125 17.710938 18.820313 17.800781 C 18.859375 17.890625 18.890625 17.96875 18.921875 18.039063 C 18.949219 18.109375 18.960938 18.21875 18.96875 18.359375 L 18.980469 18.679688 L 18.980469 19.019531 C 18.980469 19.179688 18.980469 19.300781 18.980469 19.371094 L 18.96875 19.691406 L 18.921875 20.011719 L 18.820313 20.25 L 18.660156 20.441406 L 18.421875 20.5 C 18.28125 20.5 18.171875 20.460938 18.089844 20.378906 C 18.011719 20.300781 17.949219 20.171875 17.921875 20 C 17.890625 19.820313 17.871094 19.671875 17.859375 19.550781 C 17.851563 19.429688 17.851563 19.25 17.851563 19.019531 Z M 17.851563 19.019531 "/>
</g>
</svg>
