<?xml version="1.0" encoding="UTF-8"?>
<svg xmlns="http://www.w3.org/2000/svg" xmlns:xlink="http://www.w3.org/1999/xlink" width="30pt" height="30pt" viewBox="0 0 30 30" version="1.1">
<g id="surface261">
<path style=" stroke:none;fill-rule:nonzero;fill:rgb(0%,0%,0%);fill-opacity:1;" d="M 4.109375 15.898438 C 4.109375 15.640625 4.199219 15.429688 4.378906 15.28125 C 4.519531 15.128906 4.730469 15.050781 5 15.050781 L 7.078125 15.050781 C 7.320313 15.050781 7.53125 15.128906 7.679688 15.289063 C 7.839844 15.449219 7.921875 15.648438 7.921875 15.890625 C 7.921875 16.128906 7.839844 16.328125 7.679688 16.5 C 7.519531 16.671875 7.320313 16.75 7.078125 16.75 L 5 16.75 C 4.761719 16.75 4.550781 16.671875 4.371094 16.5 C 4.191406 16.339844 4.109375 16.140625 4.109375 15.898438 Z M 5.03125 20.980469 C 5.03125 20.75 5.121094 20.550781 5.289063 20.371094 C 5.449219 20.210938 5.660156 20.140625 5.898438 20.140625 L 24.109375 20.140625 C 24.351563 20.140625 24.558594 20.21875 24.730469 20.378906 C 24.898438 20.539063 24.980469 20.738281 24.980469 20.980469 C 24.980469 21.21875 24.890625 21.421875 24.71875 21.589844 C 24.550781 21.761719 24.339844 21.851563 24.109375 21.851563 L 5.910156 21.851563 C 5.671875 21.851563 5.46875 21.761719 5.300781 21.589844 C 5.128906 21.421875 5.03125 21.21875 5.03125 20.980469 Z M 7.078125 8.808594 C 7.078125 8.550781 7.160156 8.359375 7.308594 8.21875 C 7.480469 8.039063 7.691406 7.949219 7.929688 7.949219 C 8.171875 7.949219 8.371094 8.039063 8.539063 8.21875 L 9.980469 9.679688 C 10.160156 9.839844 10.238281 10.039063 10.238281 10.28125 C 10.238281 10.53125 10.160156 10.730469 10 10.890625 C 9.839844 11.050781 9.640625 11.128906 9.398438 11.128906 C 9.179688 11.128906 8.980469 11.050781 8.800781 10.890625 L 7.308594 9.421875 C 7.160156 9.28125 7.078125 9.078125 7.078125 8.808594 Z M 9.679688 15.898438 C 9.679688 16.769531 9.859375 17.550781 10.210938 18.230469 C 10.238281 18.320313 10.320313 18.371094 10.449219 18.371094 L 12.121094 18.371094 C 12.191406 18.371094 12.238281 18.351563 12.261719 18.308594 C 12.28125 18.269531 12.25 18.210938 12.191406 18.148438 C 11.660156 17.5 11.390625 16.75 11.390625 15.898438 C 11.390625 14.910156 11.75 14.058594 12.460938 13.359375 C 13.171875 12.660156 14.019531 12.308594 15.011719 12.308594 C 16 12.308594 16.851563 12.660156 17.558594 13.359375 C 18.269531 14.058594 18.609375 14.910156 18.609375 15.898438 C 18.609375 16.761719 18.339844 17.511719 17.808594 18.148438 C 17.769531 18.210938 17.75 18.25 17.75 18.269531 C 17.738281 18.300781 17.75 18.328125 17.78125 18.339844 C 17.800781 18.359375 17.839844 18.371094 17.878906 18.371094 L 19.578125 18.371094 C 19.671875 18.371094 19.738281 18.320313 19.789063 18.230469 C 20.171875 17.519531 20.351563 16.75 20.351563 15.898438 C 20.351563 14.941406 20.109375 14.050781 19.628906 13.230469 C 19.148438 12.410156 18.5 11.761719 17.679688 11.28125 C 16.859375 10.800781 15.96875 10.558594 15.011719 10.558594 C 14.050781 10.558594 13.160156 10.800781 12.339844 11.28125 C 11.519531 11.761719 10.871094 12.410156 10.390625 13.230469 C 9.910156 14.050781 9.679688 14.941406 9.679688 15.898438 Z M 14.148438 7.96875 L 14.148438 5.878906 C 14.148438 5.640625 14.230469 5.441406 14.398438 5.261719 C 14.570313 5.078125 14.769531 5 15.011719 5 C 15.25 5 15.449219 5.089844 15.628906 5.261719 C 15.800781 5.429688 15.890625 5.640625 15.890625 5.878906 L 15.890625 7.96875 C 15.890625 8.210938 15.800781 8.410156 15.628906 8.589844 C 15.449219 8.769531 15.25 8.851563 15.011719 8.851563 C 14.769531 8.851563 14.570313 8.761719 14.398438 8.589844 C 14.230469 8.410156 14.148438 8.210938 14.148438 7.96875 Z M 19.769531 10.28125 C 19.769531 10.039063 19.851563 9.839844 20.011719 9.679688 L 21.449219 8.21875 C 21.621094 8.039063 21.828125 7.949219 22.070313 7.949219 C 22.320313 7.949219 22.53125 8.03125 22.691406 8.199219 C 22.859375 8.371094 22.941406 8.570313 22.941406 8.808594 C 22.941406 9.070313 22.859375 9.269531 22.710938 9.421875 L 21.199219 10.890625 C 21.039063 11.039063 20.839844 11.109375 20.609375 11.109375 C 20.359375 11.121094 20.160156 11.039063 20 10.890625 C 19.851563 10.738281 19.769531 10.53125 19.769531 10.28125 Z M 22.101563 15.898438 C 22.101563 15.628906 22.179688 15.429688 22.339844 15.28125 C 22.480469 15.128906 22.679688 15.050781 22.929688 15.050781 L 25.019531 15.050781 C 25.261719 15.050781 25.46875 15.128906 25.640625 15.289063 C 25.808594 15.449219 25.898438 15.648438 25.898438 15.890625 C 25.898438 16.128906 25.808594 16.328125 25.640625 16.5 C 25.460938 16.671875 25.261719 16.75 25.019531 16.75 L 22.929688 16.75 C 22.699219 16.75 22.5 16.671875 22.339844 16.5 C 22.179688 16.339844 22.101563 16.140625 22.101563 15.898438 Z M 22.101563 15.898438 "/>
</g>
</svg>
