<?xml version="1.0" encoding="UTF-8"?>
<svg xmlns="http://www.w3.org/2000/svg" xmlns:xlink="http://www.w3.org/1999/xlink" width="30pt" height="30pt" viewBox="0 0 30 30" version="1.1">
<g id="surface531">
<path style=" stroke:none;fill-rule:nonzero;fill:rgb(0%,0%,0%);fill-opacity:1;" d="M 15.011719 25.710938 C 17.050781 25.710938 18.929688 25.210938 20.660156 24.199219 C 22.390625 23.191406 23.75 21.828125 24.75 20.101563 C 25.75 18.371094 26.261719 16.488281 26.261719 14.449219 C 26.261719 12.410156 25.761719 10.53125 24.75 8.800781 C 23.738281 7.070313 22.378906 5.710938 20.660156 4.710938 C 18.941406 3.710938 17.050781 3.199219 15.011719 3.199219 C 16.109375 3.789063 17.078125 4.519531 17.898438 5.390625 C 18.71875 6.261719 19.371094 7.210938 19.851563 8.21875 C 20.328125 9.230469 20.679688 10.25 20.898438 11.289063 C 21.121094 12.328125 21.238281 13.378906 21.238281 14.449219 C 21.238281 15.359375 21.199219 16.210938 21.109375 16.988281 C 21.019531 17.769531 20.839844 18.621094 20.578125 19.519531 C 20.320313 20.421875 19.960938 21.230469 19.519531 21.949219 C 19.078125 22.671875 18.480469 23.371094 17.699219 24.039063 C 16.921875 24.710938 16.03125 25.261719 15.011719 25.710938 Z M 15.011719 25.710938 "/>
</g>
</svg>
