<?xml version="1.0" encoding="UTF-8"?>
<svg xmlns="http://www.w3.org/2000/svg" xmlns:xlink="http://www.w3.org/1999/xlink" width="30pt" height="30pt" viewBox="0 0 30 30" version="1.1">
<g id="surface451">
<path style=" stroke:none;fill-rule:nonzero;fill:rgb(0%,0%,0%);fill-opacity:1;" d="M 3.738281 14.441406 C 3.738281 16.480469 4.238281 18.371094 5.25 20.089844 C 6.261719 21.808594 7.621094 23.191406 9.351563 24.191406 C 11.078125 25.191406 12.960938 25.699219 15 25.699219 C 17.039063 25.699219 18.921875 25.199219 20.648438 24.191406 C 22.378906 23.179688 23.738281 21.820313 24.738281 20.089844 C 25.738281 18.359375 26.25 16.480469 26.25 14.441406 C 26.25 12.398438 25.75 10.519531 24.738281 8.789063 C 23.730469 7.058594 22.371094 5.699219 20.648438 4.699219 C 18.929688 3.699219 17.039063 3.191406 15 3.191406 C 12.960938 3.191406 11.078125 3.699219 9.351563 4.699219 C 7.621094 5.699219 6.25 7.070313 5.25 8.789063 C 4.25 10.511719 3.738281 12.398438 3.738281 14.441406 Z M 3.738281 14.441406 "/>
</g>
</svg>
