<?xml version="1.0" encoding="UTF-8"?>
<svg xmlns="http://www.w3.org/2000/svg" xmlns:xlink="http://www.w3.org/1999/xlink" width="30pt" height="30pt" viewBox="0 0 30 30" version="1.1">
<g id="surface456">
<path style=" stroke:none;fill-rule:nonzero;fill:rgb(0%,0%,0%);fill-opacity:1;" d="M 3.738281 14.441406 C 3.738281 12.910156 4.039063 11.441406 4.628906 10.050781 C 5.21875 8.660156 6.03125 7.460938 7.03125 6.449219 C 8.03125 5.441406 9.230469 4.640625 10.628906 4.050781 C 12.03125 3.460938 13.480469 3.160156 15 3.160156 C 16.53125 3.160156 18 3.460938 19.390625 4.050781 C 20.78125 4.640625 21.980469 5.449219 22.988281 6.449219 C 24 7.449219 24.800781 8.648438 25.390625 10.050781 C 25.980469 11.449219 26.28125 12.898438 26.28125 14.441406 C 26.28125 15.960938 25.980469 17.421875 25.390625 18.808594 C 24.800781 20.199219 23.988281 21.398438 22.988281 22.410156 C 21.988281 23.421875 20.789063 24.21875 19.390625 24.808594 C 17.988281 25.398438 16.539063 25.699219 15 25.699219 C 13.480469 25.699219 12.019531 25.398438 10.628906 24.808594 C 9.238281 24.21875 8.039063 23.410156 7.03125 22.410156 C 6.019531 21.410156 5.21875 20.210938 4.628906 18.808594 C 4.039063 17.410156 3.738281 15.96875 3.738281 14.441406 Z M 4.941406 14.441406 C 4.941406 15.800781 5.210938 17.101563 5.738281 18.339844 C 6.269531 19.578125 6.988281 20.660156 7.890625 21.558594 C 8.789063 22.460938 9.859375 23.171875 11.109375 23.710938 C 12.359375 24.25 13.660156 24.511719 15.011719 24.511719 C 16.378906 24.511719 17.679688 24.238281 18.921875 23.710938 C 20.160156 23.179688 21.230469 22.460938 22.140625 21.558594 C 23.050781 20.660156 23.761719 19.589844 24.289063 18.339844 C 24.820313 17.089844 25.089844 15.789063 25.089844 14.441406 C 25.089844 12.621094 24.640625 10.941406 23.738281 9.390625 C 22.839844 7.839844 21.609375 6.621094 20.058594 5.710938 C 18.511719 4.800781 16.828125 4.359375 15.011719 4.359375 C 13.648438 4.359375 12.351563 4.628906 11.109375 5.160156 C 9.871094 5.691406 8.789063 6.410156 7.890625 7.320313 C 6.988281 8.230469 6.28125 9.300781 5.738281 10.539063 C 5.199219 11.78125 4.941406 13.078125 4.941406 14.441406 Z M 4.941406 14.441406 "/>
</g>
</svg>
