<?xml version="1.0" encoding="UTF-8"?>
<svg xmlns="http://www.w3.org/2000/svg" xmlns:xlink="http://www.w3.org/1999/xlink" width="30pt" height="30pt" viewBox="0 0 30 30" version="1.1">
<g id="surface586">
<path style=" stroke:none;fill-rule:nonzero;fill:rgb(0%,0%,0%);fill-opacity:1;" d="M 7.800781 14.859375 C 7.800781 13.878906 7.988281 12.941406 8.378906 12.039063 C 8.761719 11.140625 9.28125 10.371094 9.929688 9.71875 C 10.578125 9.070313 11.359375 8.550781 12.25 8.160156 C 13.140625 7.769531 14.089844 7.578125 15.078125 7.578125 L 16.25 7.578125 C 16.410156 7.621094 16.488281 7.71875 16.488281 7.859375 L 16.53125 8.761719 C 16.570313 10.058594 17.039063 11.171875 17.941406 12.089844 C 18.839844 13.011719 19.941406 13.5 21.21875 13.550781 L 22.070313 13.621094 C 22.230469 13.621094 22.300781 13.699219 22.300781 13.851563 L 22.300781 14.859375 C 22.308594 15.890625 22.109375 16.859375 21.71875 17.78125 L 19.671875 17.78125 C 20.179688 17.039063 20.5 16.191406 20.640625 15.25 C 18.96875 14.898438 17.621094 14.179688 16.609375 13.089844 C 15.601563 12 15.019531 10.71875 14.859375 9.261719 C 13.890625 9.308594 13.011719 9.609375 12.199219 10.160156 C 11.398438 10.710938 10.769531 11.398438 10.328125 12.238281 C 9.890625 13.078125 9.671875 13.960938 9.671875 14.871094 C 9.671875 15.941406 9.949219 16.910156 10.5 17.789063 L 8.398438 17.789063 C 8 16.851563 7.800781 15.878906 7.800781 14.859375 Z M 8.089844 20.871094 C 8.089844 20.578125 8.179688 20.351563 8.371094 20.191406 C 8.550781 20.011719 8.78125 19.929688 9.058594 19.929688 L 11.691406 19.929688 L 14.800781 17 C 14.898438 16.921875 15.019531 16.921875 15.148438 17 L 18.308594 19.921875 L 21.078125 19.921875 C 21.351563 19.921875 21.578125 20.011719 21.769531 20.199219 C 21.960938 20.378906 22.058594 20.609375 22.058594 20.871094 C 22.058594 21.140625 21.960938 21.371094 21.769531 21.558594 C 21.578125 21.75 21.351563 21.851563 21.078125 21.851563 L 17.699219 21.851563 C 17.601563 21.851563 17.5 21.828125 17.410156 21.78125 L 15 19.511719 L 12.609375 21.78125 C 12.53125 21.828125 12.441406 21.851563 12.328125 21.851563 L 9.058594 21.851563 C 8.789063 21.851563 8.558594 21.75 8.371094 21.558594 C 8.179688 21.371094 8.089844 21.140625 8.089844 20.871094 Z M 8.089844 20.871094 "/>
</g>
</svg>
