<?xml version="1.0" encoding="UTF-8"?>
<svg xmlns="http://www.w3.org/2000/svg" xmlns:xlink="http://www.w3.org/1999/xlink" width="30pt" height="30pt" viewBox="0 0 30 30" version="1.1">
<g id="surface566">
<path style=" stroke:none;fill-rule:nonzero;fill:rgb(0%,0%,0%);fill-opacity:1;" d="M 11.800781 14.429688 C 11.800781 16.820313 12.039063 18.949219 12.511719 20.820313 C 12.980469 22.691406 13.820313 24.320313 15.019531 25.710938 C 16.539063 25.710938 18 25.410156 19.390625 24.820313 C 20.78125 24.230469 21.980469 23.421875 22.988281 22.421875 C 24 21.421875 24.800781 20.21875 25.390625 18.820313 C 25.980469 17.421875 26.28125 15.96875 26.28125 14.429688 C 26.28125 12.890625 25.980469 11.441406 25.390625 10.050781 C 24.800781 8.660156 23.988281 7.46875 22.988281 6.460938 C 21.988281 5.449219 20.789063 4.648438 19.390625 4.058594 C 17.988281 3.46875 16.539063 3.171875 15.019531 3.171875 C 14 4.628906 13.210938 6.328125 12.648438 8.300781 C 12.089844 10.269531 11.800781 12.300781 11.800781 14.429688 Z M 11.800781 14.429688 "/>
</g>
</svg>
