<?xml version="1.0" encoding="UTF-8"?>
<svg xmlns="http://www.w3.org/2000/svg" xmlns:xlink="http://www.w3.org/1999/xlink" width="30pt" height="30pt" viewBox="0 0 30 30" version="1.1">
<g id="surface391">
<path style=" stroke:none;fill-rule:nonzero;fill:rgb(0%,0%,0%);fill-opacity:1;" d="M 3.738281 14.441406 C 3.738281 12.921875 4.039063 11.460938 4.628906 10.070313 C 5.21875 8.679688 6.03125 7.488281 7.03125 6.480469 C 8.03125 5.46875 9.230469 4.671875 10.621094 4.078125 C 12.011719 3.488281 13.460938 3.191406 14.988281 3.191406 C 16.519531 3.191406 17.96875 3.488281 19.359375 4.078125 C 20.75 4.671875 21.949219 5.480469 22.960938 6.480469 C 23.96875 7.480469 24.769531 8.679688 25.359375 10.070313 C 25.949219 11.460938 26.25 12.910156 26.25 14.441406 C 26.25 15.96875 25.949219 17.421875 25.359375 18.808594 C 24.769531 20.199219 23.960938 21.398438 22.960938 22.410156 C 21.960938 23.421875 20.761719 24.21875 19.359375 24.808594 C 17.960938 25.398438 16.511719 25.699219 14.988281 25.699219 C 13.46875 25.699219 12.011719 25.398438 10.621094 24.808594 C 9.230469 24.21875 8.039063 23.410156 7.03125 22.410156 C 6.019531 21.410156 5.21875 20.210938 4.628906 18.808594 C 4.039063 17.410156 3.738281 15.96875 3.738281 14.441406 Z M 15.898438 4.421875 C 17.378906 5.410156 18.601563 6.761719 19.550781 8.46875 C 20.5 10.179688 20.96875 12.171875 20.96875 14.441406 C 20.96875 19.238281 19.371094 22.570313 16.179688 24.429688 C 17.828125 24.230469 19.328125 23.671875 20.679688 22.75 C 22.03125 21.828125 23.101563 20.628906 23.878906 19.171875 C 24.660156 17.710938 25.050781 16.140625 25.050781 14.449219 C 25.050781 12.730469 24.640625 11.128906 23.828125 9.648438 C 23.019531 8.171875 21.921875 6.960938 20.519531 6.039063 C 19.121094 5.121094 17.589844 4.570313 15.898438 4.421875 Z M 15.898438 4.421875 "/>
</g>
</svg>
