<?xml version="1.0" encoding="UTF-8"?>
<svg xmlns="http://www.w3.org/2000/svg" xmlns:xlink="http://www.w3.org/1999/xlink" width="30pt" height="30pt" viewBox="0 0 30 30" version="1.1">
<g id="surface581">
<path style=" stroke:none;fill-rule:nonzero;fill:rgb(0%,0%,0%);fill-opacity:1;" d="M 8.578125 14.429688 C 8.578125 15.460938 8.640625 16.398438 8.761719 17.261719 C 8.878906 18.121094 9.078125 18.988281 9.378906 19.851563 C 9.679688 20.710938 10.070313 21.5 10.539063 22.191406 C 11.011719 22.878906 11.640625 23.539063 12.390625 24.148438 C 13.140625 24.761719 14.019531 25.269531 15.019531 25.699219 C 16.550781 25.699219 18.011719 25.398438 19.398438 24.808594 C 20.789063 24.21875 21.980469 23.410156 22.988281 22.410156 C 24 21.410156 24.800781 20.210938 25.390625 18.808594 C 25.980469 17.410156 26.28125 15.960938 26.28125 14.421875 C 26.28125 12.378906 25.78125 10.488281 24.769531 8.769531 C 23.761719 7.050781 22.398438 5.671875 20.671875 4.671875 C 18.941406 3.671875 17.058594 3.160156 15.019531 3.160156 C 13.03125 4.160156 11.460938 5.671875 10.300781 7.710938 C 9.140625 9.75 8.578125 11.988281 8.578125 14.429688 Z M 8.578125 14.429688 "/>
</g>
</svg>
