<?xml version="1.0" encoding="UTF-8"?>
<svg xmlns="http://www.w3.org/2000/svg" xmlns:xlink="http://www.w3.org/1999/xlink" width="30pt" height="30pt" viewBox="0 0 30 30" version="1.1">
<g id="surface546">
<path style=" stroke:none;fill-rule:nonzero;fill:rgb(0%,0%,0%);fill-opacity:1;" d="M 14.988281 25.710938 C 17.03125 25.710938 18.921875 25.210938 20.640625 24.199219 C 22.359375 23.191406 23.738281 21.828125 24.738281 20.101563 C 25.738281 18.371094 26.25 16.488281 26.25 14.449219 C 26.25 12.410156 25.75 10.53125 24.738281 8.800781 C 23.730469 7.070313 22.371094 5.710938 20.640625 4.710938 C 18.910156 3.710938 17.03125 3.199219 14.988281 3.199219 C 16.660156 6.101563 17.488281 9.851563 17.488281 14.449219 C 17.488281 16.78125 17.320313 18.878906 16.96875 20.75 C 16.621094 22.621094 15.96875 24.261719 14.988281 25.710938 Z M 14.988281 25.710938 "/>
</g>
</svg>
