<?xml version="1.0" encoding="UTF-8"?>
<svg xmlns="http://www.w3.org/2000/svg" xmlns:xlink="http://www.w3.org/1999/xlink" width="30pt" height="30pt" viewBox="0 0 30 30" version="1.1">
<g id="surface526">
<path style=" stroke:none;fill-rule:nonzero;fill:rgb(0%,0%,0%);fill-opacity:1;" d="M 15.011719 25.710938 C 17.050781 25.710938 18.929688 25.210938 20.660156 24.199219 C 22.390625 23.191406 23.75 21.828125 24.75 20.101563 C 25.75 18.371094 26.261719 16.488281 26.261719 14.449219 C 26.261719 12.410156 25.761719 10.53125 24.75 8.800781 C 23.738281 7.070313 22.378906 5.710938 20.660156 4.710938 C 18.941406 3.710938 17.050781 3.199219 15.011719 3.199219 C 16.328125 3.71875 17.488281 4.398438 18.480469 5.261719 C 19.46875 6.121094 20.261719 7.050781 20.828125 8.078125 C 21.398438 9.109375 21.820313 10.148438 22.101563 11.210938 C 22.378906 12.269531 22.511719 13.351563 22.511719 14.449219 C 22.511719 15.089844 22.488281 15.710938 22.441406 16.289063 C 22.390625 16.871094 22.289063 17.488281 22.148438 18.160156 C 22.011719 18.828125 21.820313 19.441406 21.589844 20.019531 C 21.359375 20.601563 21.050781 21.171875 20.671875 21.761719 C 20.289063 22.351563 19.839844 22.871094 19.320313 23.339844 C 18.800781 23.808594 18.179688 24.261719 17.449219 24.671875 C 16.71875 25.078125 15.898438 25.421875 15.011719 25.710938 Z M 15.011719 25.710938 "/>
</g>
</svg>
