<?xml version="1.0" encoding="UTF-8"?>
<svg xmlns="http://www.w3.org/2000/svg" xmlns:xlink="http://www.w3.org/1999/xlink" width="30pt" height="30pt" viewBox="0 0 30 30" version="1.1">
<g id="surface486">
<path style=" stroke:none;fill-rule:nonzero;fill:rgb(0%,0%,0%);fill-opacity:1;" d="M 3.738281 14.441406 C 3.738281 16.480469 4.238281 18.371094 5.25 20.089844 C 6.261719 21.808594 7.621094 23.191406 9.339844 24.191406 C 11.058594 25.191406 12.949219 25.699219 14.988281 25.699219 C 12.398438 24.910156 10.511719 23.570313 9.300781 21.679688 C 8.089844 19.789063 7.488281 17.378906 7.488281 14.441406 C 7.488281 13.050781 7.691406 11.738281 8.089844 10.488281 C 8.488281 9.238281 9.03125 8.148438 9.71875 7.21875 C 10.410156 6.289063 11.199219 5.46875 12.089844 4.78125 C 12.980469 4.089844 13.949219 3.558594 14.980469 3.191406 C 12.941406 3.191406 11.058594 3.691406 9.328125 4.699219 C 7.601563 5.710938 6.261719 7.070313 5.25 8.800781 C 4.238281 10.53125 3.738281 12.398438 3.738281 14.441406 Z M 3.738281 14.441406 "/>
</g>
</svg>
