<?xml version="1.0" encoding="UTF-8"?>
<svg xmlns="http://www.w3.org/2000/svg" xmlns:xlink="http://www.w3.org/1999/xlink" width="30pt" height="30pt" viewBox="0 0 30 30" version="1.1">
<g id="surface506">
<path style=" stroke:none;fill-rule:nonzero;fill:rgb(0%,0%,0%);fill-opacity:1;" d="M 3.738281 14.488281 C 3.738281 15.710938 3.929688 16.890625 4.300781 18.03125 C 4.671875 19.171875 5.210938 20.199219 5.898438 21.121094 C 6.589844 22.039063 7.398438 22.839844 8.320313 23.539063 C 9.238281 24.238281 10.269531 24.769531 11.410156 25.140625 C 12.550781 25.511719 13.730469 25.699219 14.949219 25.699219 C 18.558594 23.628906 20.371094 19.890625 20.371094 14.480469 C 20.371094 13.171875 20.21875 11.921875 19.921875 10.738281 C 19.621094 9.558594 19.210938 8.5 18.691406 7.570313 C 18.171875 6.640625 17.589844 5.820313 16.96875 5.109375 C 16.351563 4.398438 15.671875 3.78125 14.949219 3.25 C 13.429688 3.25 11.96875 3.550781 10.578125 4.140625 C 9.191406 4.730469 8 5.53125 7 6.539063 C 6 7.550781 5.199219 8.738281 4.609375 10.128906 C 4.019531 11.519531 3.738281 12.960938 3.738281 14.488281 Z M 3.738281 14.488281 "/>
</g>
</svg>
