<?xml version="1.0" encoding="UTF-8"?>
<svg xmlns="http://www.w3.org/2000/svg" xmlns:xlink="http://www.w3.org/1999/xlink" width="30pt" height="30pt" viewBox="0 0 30 30" version="1.1">
<g id="surface576">
<path style=" stroke:none;fill-rule:nonzero;fill:rgb(0%,0%,0%);fill-opacity:1;" d="M 9.648438 14.429688 C 9.648438 15.671875 9.730469 16.808594 9.898438 17.839844 C 10.070313 18.871094 10.339844 19.890625 10.730469 20.878906 C 11.121094 21.871094 11.679688 22.769531 12.398438 23.589844 C 13.121094 24.410156 14 25.109375 15.019531 25.710938 C 16.539063 25.710938 18 25.410156 19.390625 24.820313 C 20.78125 24.230469 21.980469 23.421875 22.988281 22.421875 C 24 21.421875 24.800781 20.21875 25.390625 18.820313 C 25.980469 17.421875 26.28125 15.96875 26.28125 14.429688 C 26.28125 12.890625 25.980469 11.441406 25.390625 10.050781 C 24.800781 8.660156 23.988281 7.46875 22.988281 6.460938 C 21.988281 5.449219 20.789063 4.648438 19.390625 4.058594 C 17.988281 3.46875 16.539063 3.171875 15.019531 3.171875 C 13.351563 4.308594 12.039063 5.890625 11.078125 7.910156 C 10.121094 9.929688 9.648438 12.089844 9.648438 14.429688 Z M 9.648438 14.429688 "/>
</g>
</svg>
