<?xml version="1.0" encoding="UTF-8"?>
<svg xmlns="http://www.w3.org/2000/svg" xmlns:xlink="http://www.w3.org/1999/xlink" width="30pt" height="30pt" viewBox="0 0 30 30" version="1.1">
<g id="surface591">
<path style=" stroke:none;fill-rule:nonzero;fill:rgb(0%,0%,0%);fill-opacity:1;" d="M 7.738281 14.859375 C 7.738281 13.878906 7.929688 12.941406 8.320313 12.039063 C 8.699219 11.140625 9.21875 10.371094 9.871094 9.71875 C 10.519531 9.070313 11.300781 8.550781 12.191406 8.160156 C 13.089844 7.769531 14.03125 7.578125 15.019531 7.578125 L 16.191406 7.578125 C 16.351563 7.621094 16.429688 7.71875 16.429688 7.859375 L 16.480469 8.761719 C 16.5 9.398438 16.628906 10.011719 16.878906 10.589844 C 17.128906 11.171875 17.460938 11.671875 17.878906 12.089844 C 18.300781 12.519531 18.789063 12.859375 19.359375 13.121094 C 19.929688 13.378906 20.53125 13.519531 21.160156 13.550781 L 22.011719 13.621094 C 22.171875 13.621094 22.25 13.699219 22.25 13.851563 L 22.25 14.859375 C 22.261719 15.871094 22.058594 16.839844 21.660156 17.78125 L 19.609375 17.78125 C 20.121094 17.039063 20.441406 16.191406 20.578125 15.25 C 18.898438 14.898438 17.558594 14.179688 16.550781 13.089844 C 15.539063 12 14.960938 10.71875 14.800781 9.261719 C 13.828125 9.308594 12.949219 9.609375 12.140625 10.160156 C 11.339844 10.710938 10.71875 11.398438 10.269531 12.238281 C 9.828125 13.078125 9.609375 13.960938 9.609375 14.871094 C 9.609375 15.941406 9.890625 16.910156 10.441406 17.789063 L 8.339844 17.789063 C 7.941406 16.851563 7.738281 15.878906 7.738281 14.859375 Z M 7.988281 20.890625 C 7.988281 20.628906 8.089844 20.398438 8.289063 20.199219 C 8.46875 20.019531 8.699219 19.929688 8.96875 19.929688 L 12.191406 19.929688 C 12.300781 19.929688 12.390625 19.949219 12.46875 20.011719 L 14.820313 22.230469 L 17.210938 20 C 17.28125 19.949219 17.378906 19.921875 17.5 19.921875 L 20.800781 19.921875 C 21.070313 19.921875 21.300781 20.011719 21.488281 20.199219 C 21.679688 20.390625 21.78125 20.621094 21.78125 20.878906 C 21.78125 21.148438 21.679688 21.378906 21.488281 21.570313 C 21.300781 21.761719 21.070313 21.859375 20.800781 21.859375 L 18.121094 21.859375 L 14.988281 24.699219 C 14.871094 24.789063 14.75 24.789063 14.648438 24.699219 L 11.570313 21.859375 L 8.96875 21.859375 C 8.699219 21.859375 8.46875 21.761719 8.28125 21.570313 C 8.089844 21.390625 7.988281 21.160156 7.988281 20.890625 Z M 7.988281 20.890625 "/>
</g>
</svg>
