<?xml version="1.0" encoding="UTF-8"?>
<svg xmlns="http://www.w3.org/2000/svg" xmlns:xlink="http://www.w3.org/1999/xlink" width="30pt" height="30pt" viewBox="0 0 30 30" version="1.1">
<g id="surface481">
<path style=" stroke:none;fill-rule:nonzero;fill:rgb(0%,0%,0%);fill-opacity:1;" d="M 3.738281 14.441406 C 3.738281 16.480469 4.238281 18.371094 5.25 20.089844 C 6.261719 21.808594 7.621094 23.191406 9.351563 24.191406 C 11.078125 25.191406 12.960938 25.699219 15 25.699219 C 12.929688 24.691406 11.410156 23.25 10.441406 21.371094 C 9.46875 19.488281 9 17.191406 9 14.441406 C 9 11.910156 9.558594 9.660156 10.691406 7.691406 C 11.820313 5.71875 13.261719 4.21875 15 3.191406 C 12.960938 3.191406 11.070313 3.691406 9.351563 4.699219 C 7.628906 5.710938 6.25 7.070313 5.25 8.789063 C 4.25 10.511719 3.738281 12.398438 3.738281 14.441406 Z M 3.738281 14.441406 "/>
</g>
</svg>
