<?xml version="1.0" encoding="UTF-8"?>
<svg xmlns="http://www.w3.org/2000/svg" xmlns:xlink="http://www.w3.org/1999/xlink" width="30pt" height="30pt" viewBox="0 0 30 30" version="1.1">
<g id="surface501">
<path style=" stroke:none;fill-rule:nonzero;fill:rgb(0%,0%,0%);fill-opacity:1;" d="M 3.738281 14.488281 C 3.738281 15.710938 3.929688 16.890625 4.300781 18.03125 C 4.671875 19.171875 5.210938 20.199219 5.898438 21.121094 C 6.589844 22.039063 7.398438 22.839844 8.320313 23.539063 C 9.238281 24.238281 10.269531 24.769531 11.410156 25.140625 C 12.550781 25.511719 13.730469 25.699219 14.949219 25.699219 C 19.28125 23.96875 21.441406 20.230469 21.441406 14.480469 C 21.441406 13.089844 21.261719 11.78125 20.898438 10.550781 C 20.539063 9.320313 20.050781 8.238281 19.429688 7.320313 C 18.808594 6.398438 18.121094 5.609375 17.371094 4.929688 C 16.621094 4.25 15.808594 3.699219 14.949219 3.269531 C 12.921875 3.269531 11.039063 3.769531 9.320313 4.769531 C 7.601563 5.769531 6.25 7.140625 5.238281 8.859375 C 4.230469 10.578125 3.738281 12.460938 3.738281 14.488281 Z M 3.738281 14.488281 "/>
</g>
</svg>
