<?xml version="1.0" encoding="UTF-8"?>
<svg xmlns="http://www.w3.org/2000/svg" xmlns:xlink="http://www.w3.org/1999/xlink" width="30pt" height="30pt" viewBox="0 0 30 30" version="1.1">
<g id="surface401">
<path style=" stroke:none;fill-rule:nonzero;fill:rgb(0%,0%,0%);fill-opacity:1;" d="M 3.75 14.441406 C 3.75 12.921875 4.050781 11.460938 4.640625 10.070313 C 5.230469 8.679688 6.039063 7.488281 7.039063 6.480469 C 8.039063 5.46875 9.238281 4.671875 10.628906 4.078125 C 12.019531 3.488281 13.480469 3.191406 15 3.191406 C 16.519531 3.191406 17.980469 3.488281 19.371094 4.078125 C 20.761719 4.671875 21.960938 5.480469 22.96875 6.480469 C 23.980469 7.480469 24.78125 8.679688 25.371094 10.070313 C 25.960938 11.460938 26.261719 12.910156 26.261719 14.441406 C 26.261719 15.96875 25.960938 17.421875 25.371094 18.808594 C 24.78125 20.199219 23.96875 21.398438 22.96875 22.410156 C 21.96875 23.421875 20.769531 24.21875 19.371094 24.808594 C 17.96875 25.398438 16.519531 25.699219 15 25.699219 C 13.480469 25.699219 12.019531 25.398438 10.628906 24.808594 C 9.238281 24.21875 8.050781 23.410156 7.039063 22.410156 C 6.03125 21.410156 5.230469 20.210938 4.640625 18.808594 C 4.050781 17.410156 3.75 15.96875 3.75 14.441406 Z M 15.351563 4.390625 C 16.398438 5.660156 17.261719 7.140625 17.921875 8.828125 C 18.578125 10.519531 18.910156 12.390625 18.910156 14.441406 C 18.910156 18.828125 17.769531 22.191406 15.480469 24.5 C 16.789063 24.441406 18.03125 24.128906 19.21875 23.578125 C 20.410156 23.03125 21.421875 22.300781 22.269531 21.398438 C 23.121094 20.5 23.800781 19.449219 24.308594 18.238281 C 24.820313 17.03125 25.058594 15.761719 25.058594 14.429688 C 25.058594 12.648438 24.628906 11 23.761719 9.488281 C 22.890625 7.980469 21.71875 6.761719 20.230469 5.839844 C 18.738281 4.921875 17.121094 4.449219 15.351563 4.390625 Z M 15.351563 4.390625 "/>
</g>
</svg>
