<?xml version="1.0" encoding="UTF-8"?>
<svg xmlns="http://www.w3.org/2000/svg" xmlns:xlink="http://www.w3.org/1999/xlink" width="30pt" height="30pt" viewBox="0 0 30 30" version="1.1">
<g id="surface701">
<path style=" stroke:none;fill-rule:nonzero;fill:rgb(0%,0%,0%);fill-opacity:1;" d="M 3.058594 20.980469 C 3.058594 21.21875 3.148438 21.421875 3.328125 21.578125 C 3.511719 21.761719 3.710938 21.851563 3.941406 21.851563 L 9.820313 21.851563 C 10.078125 21.851563 10.308594 21.941406 10.511719 22.128906 C 10.710938 22.320313 10.808594 22.550781 10.808594 22.808594 C 10.808594 23.070313 10.710938 23.289063 10.511719 23.488281 C 10.308594 23.691406 10.078125 23.789063 9.828125 23.789063 C 9.578125 23.789063 9.351563 23.691406 9.148438 23.488281 C 8.960938 23.320313 8.761719 23.230469 8.53125 23.230469 C 8.300781 23.230469 8.101563 23.308594 7.941406 23.480469 C 7.78125 23.648438 7.699219 23.851563 7.699219 24.089844 C 7.699219 24.328125 7.78125 24.53125 7.941406 24.691406 C 8.460938 25.210938 9.089844 25.46875 9.820313 25.46875 C 10.558594 25.46875 11.199219 25.210938 11.710938 24.699219 C 12.230469 24.179688 12.488281 23.558594 12.488281 22.820313 C 12.488281 22.078125 12.230469 21.441406 11.710938 20.921875 C 11.191406 20.398438 10.558594 20.128906 9.820313 20.128906 L 3.941406 20.128906 C 3.699219 20.128906 3.5 20.210938 3.320313 20.378906 C 3.140625 20.550781 3.058594 20.75 3.058594 20.980469 Z M 3.058594 17.96875 C 3.058594 18.199219 3.148438 18.390625 3.328125 18.550781 C 3.480469 18.710938 3.679688 18.789063 3.941406 18.789063 L 14.929688 18.789063 C 15.671875 18.789063 16.300781 18.53125 16.820313 18.011719 C 17.339844 17.488281 17.601563 16.859375 17.601563 16.128906 C 17.601563 15.398438 17.339844 14.769531 16.820313 14.25 C 16.300781 13.730469 15.671875 13.480469 14.929688 13.480469 C 14.171875 13.480469 13.539063 13.730469 13.039063 14.230469 C 12.890625 14.398438 12.808594 14.609375 12.808594 14.859375 C 12.808594 15.101563 12.890625 15.289063 13.039063 15.449219 C 13.191406 15.609375 13.390625 15.679688 13.640625 15.679688 C 13.890625 15.679688 14.089844 15.609375 14.25 15.449219 C 14.441406 15.261719 14.671875 15.171875 14.929688 15.171875 C 15.191406 15.171875 15.410156 15.261719 15.609375 15.449219 C 15.800781 15.640625 15.898438 15.871094 15.898438 16.128906 C 15.898438 16.390625 15.800781 16.628906 15.609375 16.820313 C 15.421875 17.011719 15.191406 17.109375 14.929688 17.109375 L 3.941406 17.109375 C 3.699219 17.109375 3.5 17.191406 3.320313 17.359375 C 3.140625 17.539063 3.058594 17.738281 3.058594 17.96875 Z M 5.710938 15.628906 C 5.710938 15.710938 5.769531 15.75 5.878906 15.75 L 7.308594 15.75 C 7.390625 15.75 7.460938 15.699219 7.53125 15.609375 C 7.761719 15.070313 8.101563 14.621094 8.578125 14.261719 C 9.050781 13.898438 9.578125 13.699219 10.171875 13.660156 L 10.691406 13.589844 C 10.808594 13.589844 10.878906 13.53125 10.878906 13.398438 L 10.949219 12.898438 C 11.058594 11.820313 11.519531 10.910156 12.328125 10.191406 C 13.140625 9.460938 14.101563 9.101563 15.191406 9.101563 C 16.28125 9.101563 17.230469 9.460938 18.039063 10.179688 C 18.851563 10.898438 19.308594 11.808594 19.429688 12.898438 L 19.5 13.46875 C 19.5 13.589844 19.558594 13.648438 19.679688 13.648438 L 21.308594 13.648438 C 22.210938 13.648438 22.980469 13.96875 23.621094 14.601563 C 24.261719 15.230469 24.578125 15.988281 24.578125 16.878906 C 24.578125 17.769531 24.261719 18.539063 23.621094 19.171875 C 22.980469 19.800781 22.210938 20.121094 21.308594 20.121094 L 14.398438 20.121094 C 14.289063 20.121094 14.230469 20.179688 14.230469 20.300781 L 14.230469 21.671875 C 14.230469 21.789063 14.289063 21.851563 14.398438 21.851563 L 21.308594 21.851563 C 22.199219 21.851563 23.03125 21.628906 23.789063 21.179688 C 24.550781 20.738281 25.148438 20.128906 25.589844 19.371094 C 26.03125 18.609375 26.25 17.78125 26.25 16.878906 C 26.25 16.140625 26.109375 15.460938 25.828125 14.859375 C 26.589844 13.859375 26.96875 12.75 26.96875 11.53125 C 26.96875 10.820313 26.828125 10.140625 26.550781 9.488281 C 26.269531 8.839844 25.898438 8.289063 25.429688 7.820313 C 24.960938 7.351563 24.398438 6.980469 23.761719 6.710938 C 23.121094 6.441406 22.421875 6.300781 21.710938 6.300781 C 20.171875 6.300781 18.871094 6.878906 17.828125 8.03125 C 17.050781 7.621094 16.160156 7.421875 15.179688 7.421875 C 13.769531 7.421875 12.519531 7.859375 11.429688 8.730469 C 10.339844 9.601563 9.660156 10.71875 9.359375 12.078125 C 8.511719 12.28125 7.761719 12.691406 7.101563 13.308594 C 6.441406 13.929688 5.988281 14.660156 5.730469 15.488281 L 5.730469 15.53125 C 5.71875 15.578125 5.710938 15.621094 5.710938 15.628906 Z M 19.238281 9 C 19.960938 8.320313 20.78125 7.980469 21.71875 7.980469 C 22.699219 7.980469 23.53125 8.328125 24.230469 9.03125 C 24.929688 9.730469 25.28125 10.558594 25.28125 11.53125 C 25.28125 12.140625 25.109375 12.75 24.769531 13.378906 C 23.808594 12.421875 22.660156 11.949219 21.300781 11.949219 L 20.96875 11.949219 C 20.730469 10.878906 20.160156 9.890625 19.238281 9 Z M 19.238281 9 "/>
</g>
</svg>
