<?xml version="1.0" encoding="UTF-8"?>
<svg xmlns="http://www.w3.org/2000/svg" xmlns:xlink="http://www.w3.org/1999/xlink" width="30pt" height="30pt" viewBox="0 0 30 30" version="1.1">
<g id="surface621">
<path style=" stroke:none;fill-rule:nonzero;fill:rgb(0%,0%,0%);fill-opacity:1;" d="M 4.101563 16.910156 C 4.101563 18.238281 4.558594 19.390625 5.488281 20.339844 C 6.421875 21.289063 7.550781 21.808594 8.890625 21.871094 C 9.011719 21.871094 9.070313 21.808594 9.070313 21.699219 L 9.070313 20.359375 C 9.070313 20.25 9.011719 20.191406 8.890625 20.191406 C 8.03125 20.148438 7.308594 19.808594 6.710938 19.171875 C 6.109375 18.53125 5.808594 17.78125 5.808594 16.910156 C 5.808594 16.078125 6.089844 15.359375 6.648438 14.738281 C 7.210938 14.128906 7.910156 13.769531 8.75 13.671875 L 9.28125 13.640625 C 9.410156 13.640625 9.480469 13.578125 9.480469 13.460938 L 9.550781 12.921875 C 9.660156 11.839844 10.109375 10.929688 10.921875 10.199219 C 11.730469 9.46875 12.679688 9.101563 13.769531 9.101563 C 14.851563 9.101563 15.800781 9.46875 16.621094 10.199219 C 17.441406 10.929688 17.898438 11.839844 18.019531 12.921875 L 18.101563 13.5 C 18.101563 13.609375 18.160156 13.671875 18.269531 13.671875 L 19.878906 13.671875 C 20.769531 13.671875 21.539063 13.988281 22.191406 14.628906 C 22.839844 15.269531 23.171875 16.03125 23.171875 16.898438 C 23.171875 17.769531 22.871094 18.519531 22.269531 19.160156 C 21.671875 19.800781 20.941406 20.140625 20.089844 20.179688 C 19.960938 20.179688 19.890625 20.238281 19.890625 20.351563 L 19.890625 21.691406 C 19.890625 21.800781 19.960938 21.859375 20.089844 21.859375 C 21.421875 21.820313 22.550781 21.308594 23.46875 20.351563 C 24.398438 19.390625 24.859375 18.238281 24.859375 16.898438 C 24.859375 16.039063 24.640625 15.238281 24.210938 14.488281 C 25 13.75 25.511719 12.871094 25.761719 11.871094 L 25.890625 11.191406 C 25.910156 11.179688 25.921875 11.160156 25.921875 11.121094 C 25.921875 11.050781 25.871094 10.988281 25.761719 10.960938 L 25.199219 10.789063 C 24.628906 10.621094 24.148438 10.339844 23.738281 9.941406 C 23.339844 9.539063 23.050781 9.128906 22.878906 8.691406 C 22.710938 8.261719 22.628906 7.820313 22.628906 7.371094 C 22.621094 7.128906 22.648438 6.859375 22.710938 6.578125 L 22.851563 6 C 22.878906 5.910156 22.828125 5.839844 22.710938 5.78125 L 21.910156 5.53125 C 21.488281 5.410156 21.050781 5.339844 20.601563 5.339844 C 20.25 5.339844 19.890625 5.378906 19.519531 5.46875 C 19.148438 5.558594 18.761719 5.691406 18.351563 5.871094 C 17.941406 6.050781 17.550781 6.320313 17.160156 6.671875 C 16.78125 7.019531 16.441406 7.421875 16.160156 7.890625 C 15.410156 7.570313 14.621094 7.398438 13.789063 7.398438 C 12.378906 7.398438 11.121094 7.839844 10.03125 8.710938 C 8.941406 9.578125 8.238281 10.699219 7.929688 12.070313 C 6.820313 12.328125 5.910156 12.898438 5.191406 13.800781 C 4.46875 14.699219 4.101563 15.761719 4.101563 16.910156 Z M 9.578125 23.941406 C 9.671875 24.148438 9.820313 24.300781 10.039063 24.390625 C 10.230469 24.488281 10.441406 24.5 10.660156 24.410156 C 10.878906 24.328125 11.03125 24.179688 11.109375 23.960938 C 11.210938 23.738281 11.21875 23.53125 11.128906 23.308594 C 11.050781 23.101563 10.898438 22.949219 10.679688 22.871094 C 10.480469 22.769531 10.269531 22.761719 10.058594 22.851563 C 9.851563 22.941406 9.691406 23.089844 9.589844 23.308594 C 9.5 23.480469 9.488281 23.691406 9.578125 23.941406 Z M 10.199219 21.109375 C 10.199219 21.261719 10.25 21.410156 10.359375 21.558594 C 10.46875 21.710938 10.621094 21.820313 10.820313 21.878906 C 11.078125 21.980469 11.300781 21.980469 11.488281 21.878906 C 11.679688 21.78125 11.808594 21.589844 11.890625 21.308594 L 12.769531 18.101563 C 12.839844 17.851563 12.808594 17.628906 12.691406 17.429688 C 12.570313 17.230469 12.390625 17.109375 12.148438 17.058594 C 11.929688 16.988281 11.71875 17.011719 11.519531 17.128906 C 11.320313 17.238281 11.191406 17.410156 11.121094 17.640625 L 10.238281 20.859375 C 10.238281 20.878906 10.230469 20.921875 10.21875 20.980469 C 10.210938 21.03125 10.199219 21.078125 10.199219 21.109375 Z M 12.070313 26.710938 C 12.070313 26.828125 12.089844 26.929688 12.128906 27 C 12.21875 27.21875 12.371094 27.371094 12.578125 27.449219 C 12.671875 27.5 12.78125 27.519531 12.910156 27.519531 C 12.96875 27.519531 13.070313 27.5 13.210938 27.460938 C 13.441406 27.378906 13.601563 27.230469 13.691406 27.011719 C 13.789063 26.789063 13.789063 26.570313 13.691406 26.351563 C 13.589844 26.128906 13.441406 25.980469 13.238281 25.890625 C 13.039063 25.800781 12.839844 25.800781 12.628906 25.890625 C 12.441406 25.96875 12.300781 26.089844 12.210938 26.25 C 12.109375 26.421875 12.070313 26.570313 12.070313 26.710938 Z M 12.808594 24.058594 C 12.808594 24.441406 13.019531 24.699219 13.449219 24.839844 C 13.539063 24.871094 13.621094 24.890625 13.679688 24.890625 C 13.789063 24.890625 13.910156 24.859375 14.03125 24.808594 C 14.261719 24.730469 14.421875 24.539063 14.5 24.238281 L 16.148438 18.121094 C 16.210938 17.878906 16.191406 17.671875 16.078125 17.46875 C 15.96875 17.28125 15.800781 17.148438 15.578125 17.078125 C 15.351563 17.011719 15.128906 17.03125 14.929688 17.148438 C 14.730469 17.261719 14.589844 17.429688 14.53125 17.660156 L 12.851563 23.828125 C 12.820313 23.921875 12.808594 24 12.808594 24.058594 Z M 16.25 23.640625 C 16.25 23.769531 16.269531 23.871094 16.320313 23.949219 C 16.398438 24.148438 16.550781 24.300781 16.761719 24.390625 C 16.878906 24.441406 16.988281 24.46875 17.109375 24.46875 C 17.171875 24.46875 17.269531 24.449219 17.410156 24.410156 C 17.628906 24.320313 17.78125 24.179688 17.859375 23.96875 C 17.941406 23.75 17.941406 23.539063 17.859375 23.339844 C 17.78125 23.140625 17.640625 22.988281 17.441406 22.890625 C 17.21875 22.789063 17 22.78125 16.789063 22.871094 C 16.570313 22.949219 16.421875 23.109375 16.320313 23.328125 C 16.269531 23.410156 16.25 23.511719 16.25 23.640625 Z M 16.96875 21.078125 C 16.96875 21.238281 17.019531 21.398438 17.121094 21.539063 C 17.21875 21.679688 17.371094 21.789063 17.570313 21.851563 C 17.738281 21.871094 17.828125 21.878906 17.839844 21.878906 C 18.25 21.878906 18.5 21.679688 18.609375 21.269531 L 19.480469 18.101563 C 19.539063 17.859375 19.519531 17.648438 19.410156 17.449219 C 19.300781 17.261719 19.128906 17.128906 18.910156 17.058594 C 18.679688 16.988281 18.460938 17.011719 18.269531 17.128906 C 18.070313 17.238281 17.941406 17.410156 17.871094 17.640625 L 17 20.808594 C 16.980469 20.898438 16.96875 20.988281 16.96875 21.078125 Z M 17.621094 8.828125 C 17.929688 8.261719 18.371094 7.820313 18.921875 7.519531 C 19.46875 7.21875 20.058594 7.070313 20.679688 7.078125 C 20.789063 7.078125 20.878906 7.089844 20.929688 7.101563 L 20.929688 7.410156 C 20.929688 8.390625 21.191406 9.300781 21.710938 10.160156 C 22.230469 11.019531 22.960938 11.671875 23.878906 12.109375 C 23.691406 12.550781 23.441406 12.898438 23.128906 13.179688 C 22.25 12.390625 21.171875 12 19.878906 12 L 19.558594 12 C 19.300781 10.75 18.660156 9.691406 17.621094 8.828125 Z M 17.621094 8.828125 "/>
</g>
</svg>
