<?xml version="1.0" encoding="UTF-8"?>
<svg xmlns="http://www.w3.org/2000/svg" xmlns:xlink="http://www.w3.org/1999/xlink" width="30pt" height="30pt" viewBox="0 0 30 30" version="1.1">
<g id="surface741">
<path style=" stroke:none;fill-rule:nonzero;fill:rgb(0%,0%,0%);fill-opacity:1;" d="M 4.191406 16.910156 C 4.191406 17.78125 4.398438 18.589844 4.828125 19.339844 C 5.25 20.089844 5.839844 20.691406 6.570313 21.140625 C 7.300781 21.601563 8.109375 21.839844 9 21.859375 C 9.121094 21.859375 9.191406 21.800781 9.191406 21.691406 L 9.191406 20.351563 C 9.191406 20.230469 9.128906 20.171875 9 20.171875 C 8.140625 20.128906 7.410156 19.78125 6.808594 19.140625 C 6.210938 18.5 5.898438 17.75 5.898438 16.898438 C 5.898438 16.050781 6.179688 15.308594 6.75 14.691406 C 7.320313 14.070313 8.019531 13.71875 8.859375 13.648438 L 9.378906 13.578125 C 9.511719 13.578125 9.578125 13.519531 9.578125 13.410156 L 9.648438 12.890625 C 9.761719 11.789063 10.21875 10.871094 11.03125 10.128906 C 11.839844 9.390625 12.800781 9.019531 13.898438 9.019531 C 14.988281 9.019531 15.941406 9.390625 16.761719 10.121094 C 17.578125 10.851563 18.039063 11.769531 18.160156 12.851563 L 18.238281 13.429688 C 18.238281 13.539063 18.300781 13.601563 18.421875 13.601563 L 20.039063 13.601563 C 20.941406 13.601563 21.710938 13.921875 22.359375 14.570313 C 23.011719 15.21875 23.328125 15.988281 23.328125 16.890625 C 23.328125 17.738281 23.03125 18.488281 22.421875 19.128906 C 21.808594 19.769531 21.089844 20.109375 20.238281 20.160156 C 20.109375 20.160156 20.039063 20.21875 20.039063 20.339844 L 20.039063 21.679688 C 20.039063 21.789063 20.109375 21.851563 20.238281 21.851563 C 21.121094 21.828125 21.929688 21.589844 22.660156 21.128906 C 23.390625 20.679688 23.96875 20.078125 24.390625 19.328125 C 24.808594 18.578125 25.019531 17.769531 25.019531 16.898438 C 25.019531 16.171875 24.878906 15.5 24.601563 14.878906 C 25.410156 13.890625 25.808594 12.761719 25.808594 11.511719 C 25.808594 10.550781 25.570313 9.671875 25.101563 8.859375 C 24.628906 8.050781 23.988281 7.410156 23.179688 6.941406 C 22.371094 6.46875 21.488281 6.230469 20.539063 6.230469 C 19.800781 6.230469 19.078125 6.378906 18.390625 6.691406 C 17.710938 7.03125 17.121094 7.449219 16.621094 8 C 15.738281 7.570313 14.839844 7.351563 13.910156 7.351563 C 12.488281 7.351563 11.230469 7.789063 10.128906 8.671875 C 9.03125 9.550781 8.320313 10.671875 8.011719 12.039063 C 6.890625 12.328125 5.96875 12.921875 5.25 13.820313 C 4.539063 14.71875 4.191406 15.75 4.191406 16.910156 Z M 9.519531 23.980469 C 9.519531 24.148438 9.570313 24.320313 9.679688 24.488281 C 9.789063 24.660156 9.949219 24.769531 10.148438 24.839844 C 10.378906 24.910156 10.589844 24.898438 10.789063 24.800781 C 10.980469 24.710938 11.109375 24.519531 11.179688 24.238281 L 11.320313 23.628906 C 11.371094 23.398438 11.339844 23.191406 11.230469 23 C 11.121094 22.800781 10.949219 22.671875 10.710938 22.601563 C 10.488281 22.53125 10.269531 22.558594 10.070313 22.679688 C 9.871094 22.800781 9.730469 22.980469 9.671875 23.210938 L 9.53125 23.800781 C 9.53125 23.828125 9.519531 23.890625 9.519531 23.980469 Z M 10.28125 21.078125 C 10.28125 21.289063 10.359375 21.480469 10.53125 21.648438 C 10.691406 21.820313 10.871094 21.898438 11.089844 21.898438 C 11.328125 21.898438 11.53125 21.820313 11.691406 21.660156 C 11.851563 21.5 11.929688 21.308594 11.929688 21.070313 C 11.929688 20.839844 11.851563 20.640625 11.691406 20.480469 C 11.53125 20.320313 11.328125 20.238281 11.089844 20.238281 C 10.859375 20.238281 10.671875 20.320313 10.511719 20.46875 C 10.359375 20.648438 10.28125 20.851563 10.28125 21.078125 Z M 10.890625 18.808594 C 10.878906 18.96875 10.921875 19.121094 11.03125 19.261719 C 11.128906 19.410156 11.289063 19.511719 11.511719 19.578125 C 11.71875 19.640625 11.921875 19.621094 12.128906 19.511719 C 12.339844 19.398438 12.46875 19.230469 12.539063 19 L 12.820313 18.101563 C 12.890625 17.859375 12.871094 17.640625 12.75 17.449219 C 12.628906 17.261719 12.449219 17.128906 12.210938 17.058594 C 11.988281 16.988281 11.78125 17.011719 11.578125 17.128906 C 11.378906 17.238281 11.238281 17.410156 11.171875 17.628906 L 10.929688 18.550781 C 10.929688 18.570313 10.921875 18.609375 10.910156 18.671875 C 10.898438 18.71875 10.890625 18.769531 10.890625 18.808594 Z M 12.050781 27.101563 C 12.050781 27.28125 12.101563 27.441406 12.199219 27.601563 C 12.300781 27.761719 12.460938 27.871094 12.679688 27.929688 C 12.761719 27.949219 12.851563 27.960938 12.929688 27.960938 C 13.359375 27.960938 13.621094 27.761719 13.71875 27.351563 L 13.859375 26.761719 C 13.921875 26.5 13.890625 26.28125 13.78125 26.078125 C 13.671875 25.878906 13.488281 25.761719 13.261719 25.710938 C 13.050781 25.640625 12.839844 25.660156 12.628906 25.78125 C 12.421875 25.898438 12.289063 26.070313 12.21875 26.289063 L 12.078125 26.878906 C 12.058594 26.96875 12.050781 27.039063 12.050781 27.101563 Z M 12.828125 24.199219 C 12.828125 24.421875 12.910156 24.609375 13.078125 24.78125 C 13.238281 24.941406 13.429688 25.019531 13.648438 25.019531 C 13.890625 25.019531 14.078125 24.941406 14.238281 24.789063 C 14.398438 24.628906 14.46875 24.441406 14.46875 24.199219 C 14.46875 23.96875 14.390625 23.78125 14.238281 23.621094 C 14.078125 23.460938 13.890625 23.390625 13.648438 23.390625 C 13.410156 23.390625 13.21875 23.46875 13.058594 23.621094 C 12.910156 23.769531 12.828125 23.96875 12.828125 24.199219 Z M 13.460938 21.929688 C 13.449219 22.078125 13.488281 22.238281 13.589844 22.398438 C 13.691406 22.558594 13.839844 22.660156 14.039063 22.699219 C 14.269531 22.761719 14.480469 22.738281 14.679688 22.640625 C 14.878906 22.539063 15.011719 22.351563 15.089844 22.078125 L 15.359375 21.179688 C 15.429688 20.960938 15.410156 20.75 15.289063 20.550781 C 15.171875 20.351563 15 20.21875 14.761719 20.148438 C 14.539063 20.078125 14.328125 20.109375 14.121094 20.230469 C 13.910156 20.351563 13.78125 20.53125 13.710938 20.761719 L 13.480469 21.660156 C 13.46875 21.738281 13.460938 21.828125 13.460938 21.929688 Z M 16.210938 24.078125 C 16.210938 24.238281 16.261719 24.398438 16.359375 24.558594 C 16.460938 24.71875 16.621094 24.828125 16.820313 24.890625 C 16.851563 24.890625 16.898438 24.898438 16.960938 24.910156 C 17.019531 24.921875 17.058594 24.929688 17.101563 24.929688 C 17.511719 24.929688 17.761719 24.710938 17.859375 24.269531 L 18 23.671875 C 18.070313 23.460938 18.050781 23.25 17.929688 23.039063 C 17.820313 22.828125 17.648438 22.699219 17.421875 22.628906 C 17.171875 22.570313 16.941406 22.589844 16.738281 22.710938 C 16.539063 22.828125 16.398438 23 16.328125 23.238281 L 16.238281 23.828125 C 16.238281 23.851563 16.230469 23.898438 16.21875 23.949219 C 16.210938 24 16.210938 24.039063 16.210938 24.078125 Z M 16.949219 21.121094 C 16.949219 21.339844 17.03125 21.539063 17.199219 21.691406 C 17.351563 21.851563 17.539063 21.929688 17.769531 21.929688 C 18.011719 21.929688 18.199219 21.851563 18.359375 21.699219 C 18.519531 21.539063 18.589844 21.351563 18.589844 21.121094 C 18.589844 20.878906 18.511719 20.691406 18.359375 20.53125 C 18.199219 20.371094 18.011719 20.300781 17.769531 20.300781 C 17.53125 20.300781 17.339844 20.378906 17.179688 20.53125 C 17.019531 20.679688 16.949219 20.878906 16.949219 21.121094 Z M 17.558594 18.808594 C 17.558594 18.980469 17.609375 19.140625 17.71875 19.289063 C 17.828125 19.441406 17.988281 19.550781 18.210938 19.609375 C 18.230469 19.609375 18.269531 19.621094 18.328125 19.628906 C 18.390625 19.640625 18.441406 19.648438 18.46875 19.648438 C 18.570313 19.648438 18.691406 19.621094 18.828125 19.558594 C 19.039063 19.449219 19.179688 19.269531 19.238281 19.039063 L 19.480469 18.140625 C 19.539063 17.910156 19.519531 17.699219 19.410156 17.511719 C 19.300781 17.308594 19.128906 17.179688 18.898438 17.109375 C 18.671875 17.039063 18.460938 17.058594 18.261719 17.171875 C 18.070313 17.28125 17.941406 17.441406 17.871094 17.679688 L 17.589844 18.589844 C 17.589844 18.609375 17.578125 18.648438 17.570313 18.710938 C 17.570313 18.738281 17.558594 18.78125 17.558594 18.808594 Z M 18.03125 9.011719 C 18.71875 8.320313 19.558594 7.96875 20.539063 7.96875 C 21.519531 7.96875 22.359375 8.320313 23.050781 9.019531 C 23.738281 9.71875 24.089844 10.558594 24.089844 11.539063 C 24.089844 12.210938 23.921875 12.820313 23.578125 13.390625 C 22.621094 12.429688 21.441406 11.949219 20.039063 11.949219 L 19.71875 11.949219 C 19.441406 10.769531 18.878906 9.789063 18.03125 9.011719 Z M 18.03125 9.011719 "/>
</g>
</svg>
