<?xml version="1.0" encoding="UTF-8"?>
<svg xmlns="http://www.w3.org/2000/svg" xmlns:xlink="http://www.w3.org/1999/xlink" width="30pt" height="30pt" viewBox="0 0 30 30" version="1.1">
<g id="surface706">
<rect x="0" y="0" width="30" height="30" style="fill:rgb(100%,100%,100%);fill-opacity:1;stroke:none;"/>
<path style=" stroke:none;fill-rule:nonzero;fill:rgb(0%,0%,0%);fill-opacity:1;" d="M 3.578125 13.449219 C 3.578125 12.300781 3.941406 11.269531 4.660156 10.378906 C 5.378906 9.480469 6.289063 8.898438 7.398438 8.640625 C 7.710938 7.269531 8.421875 6.148438 9.511719 5.269531 C 10.601563 4.390625 11.859375 3.949219 13.269531 3.949219 C 14.648438 3.949219 15.878906 4.378906 16.960938 5.230469 C 18.039063 6.078125 18.738281 7.179688 19.058594 8.519531 L 19.390625 8.519531 C 20.289063 8.519531 21.121094 8.738281 21.878906 9.171875 C 22.640625 9.601563 23.25 10.199219 23.691406 10.960938 C 24.128906 11.71875 24.359375 12.539063 24.359375 13.441406 C 24.359375 13.640625 24.351563 13.839844 24.328125 14.050781 C 24.980469 14.558594 25.488281 15.199219 25.871094 15.960938 C 26.25 16.71875 26.429688 17.53125 26.429688 18.390625 C 26.429688 19.160156 26.28125 19.890625 25.980469 20.578125 C 25.679688 21.269531 25.28125 21.859375 24.78125 22.359375 C 24.28125 22.851563 23.679688 23.25 22.988281 23.539063 C 22.300781 23.828125 21.578125 23.980469 20.820313 23.980469 C 20.070313 23.980469 19.351563 23.828125 18.660156 23.539063 C 17.96875 23.25 17.378906 22.851563 16.878906 22.351563 C 16.378906 21.851563 15.988281 21.261719 15.691406 20.570313 C 15.390625 19.878906 15.238281 19.160156 15.238281 18.410156 L 8.378906 18.410156 C 7.039063 18.351563 5.910156 17.839844 4.980469 16.878906 C 4.050781 15.941406 3.578125 14.789063 3.578125 13.449219 Z M 5.289063 13.449219 C 5.289063 14.320313 5.589844 15.070313 6.191406 15.710938 C 6.789063 16.351563 7.519531 16.691406 8.378906 16.738281 L 19.570313 16.738281 C 20.429688 16.699219 21.160156 16.351563 21.761719 15.710938 C 22.371094 15.070313 22.671875 14.308594 22.671875 13.449219 C 22.671875 12.570313 22.339844 11.820313 21.691406 11.179688 C 21.039063 10.539063 20.269531 10.21875 19.371094 10.21875 L 17.75 10.21875 C 17.640625 10.21875 17.578125 10.160156 17.578125 10.050781 L 17.511719 9.46875 C 17.398438 8.390625 16.929688 7.480469 16.109375 6.75 C 15.289063 6.019531 14.339844 5.648438 13.25 5.648438 C 12.160156 5.648438 11.199219 6.019531 10.398438 6.75 C 9.601563 7.480469 9.140625 8.390625 9.039063 9.46875 L 8.960938 10.050781 C 8.960938 10.160156 8.890625 10.21875 8.761719 10.21875 L 8.238281 10.21875 C 7.398438 10.320313 6.699219 10.679688 6.140625 11.289063 C 5.570313 11.898438 5.289063 12.621094 5.289063 13.449219 Z M 16.550781 18.558594 C 16.609375 19.679688 17.070313 20.628906 17.921875 21.390625 C 18.769531 22.148438 19.738281 22.53125 20.828125 22.53125 C 21.429688 22.53125 22 22.410156 22.53125 22.179688 C 23.058594 21.949219 23.511719 21.628906 23.871094 21.25 C 24.230469 20.859375 24.519531 20.421875 24.71875 19.921875 C 24.929688 19.421875 25.03125 18.921875 25.03125 18.398438 C 25.03125 17.910156 24.929688 17.421875 24.730469 16.929688 C 24.53125 16.441406 24.25 15.988281 23.878906 15.578125 C 23.488281 16.398438 22.910156 17.078125 22.140625 17.601563 C 21.371094 18.121094 20.511719 18.390625 19.570313 18.429688 L 16.539063 18.429688 C 16.539063 18.441406 16.539063 18.46875 16.550781 18.558594 Z M 16.550781 18.558594 "/>
</g>
</svg>
