<?xml version="1.0" encoding="UTF-8"?>
<svg xmlns="http://www.w3.org/2000/svg" xmlns:xlink="http://www.w3.org/1999/xlink" width="30pt" height="30pt" viewBox="0 0 30 30" version="1.1">
<g id="surface636">
<path style=" stroke:none;fill-rule:nonzero;fill:rgb(0%,0%,0%);fill-opacity:1;" d="M 4.070313 16.929688 C 4.070313 18.261719 4.539063 19.398438 5.46875 20.359375 C 6.398438 21.320313 7.539063 21.828125 8.871094 21.871094 C 8.988281 21.871094 9.050781 21.808594 9.050781 21.699219 L 9.050781 20.359375 C 9.050781 20.25 8.988281 20.191406 8.871094 20.191406 C 8.019531 20.148438 7.289063 19.800781 6.691406 19.160156 C 6.089844 18.519531 5.78125 17.769531 5.78125 16.929688 C 5.78125 16.078125 6.058594 15.339844 6.628906 14.71875 C 7.199219 14.101563 7.898438 13.75 8.730469 13.679688 L 9.261719 13.609375 C 9.390625 13.609375 9.460938 13.550781 9.460938 13.429688 L 9.53125 12.921875 C 9.640625 11.820313 10.089844 10.898438 10.898438 10.171875 C 11.710938 9.441406 12.660156 9.070313 13.761719 9.070313 C 14.851563 9.070313 15.800781 9.441406 16.621094 10.171875 C 17.441406 10.898438 17.910156 11.808594 18.019531 12.890625 L 18.089844 13.460938 C 18.089844 13.578125 18.148438 13.648438 18.261719 13.648438 L 19.878906 13.648438 C 20.789063 13.648438 21.558594 13.96875 22.210938 14.621094 C 22.859375 15.261719 23.179688 16.03125 23.179688 16.929688 C 23.179688 17.480469 23.039063 18 22.769531 18.488281 C 22.5 18.980469 22.121094 19.378906 21.640625 19.691406 C 21.160156 20 20.640625 20.171875 20.078125 20.199219 C 19.949219 20.199219 19.878906 20.261719 19.878906 20.371094 L 19.878906 21.710938 C 19.878906 21.820313 19.949219 21.878906 20.078125 21.878906 C 20.960938 21.859375 21.769531 21.621094 22.5 21.171875 C 23.230469 20.71875 23.808594 20.121094 24.230469 19.371094 C 24.648438 18.621094 24.859375 17.808594 24.859375 16.941406 C 24.859375 16.058594 24.628906 15.21875 24.179688 14.429688 C 25.011719 13.691406 25.539063 12.808594 25.761719 11.808594 L 25.898438 11.128906 C 25.921875 11.109375 25.929688 11.089844 25.929688 11.058594 C 25.929688 11 25.871094 10.949219 25.761719 10.898438 L 25.210938 10.71875 C 24.640625 10.550781 24.140625 10.269531 23.738281 9.871094 C 23.328125 9.46875 23.039063 9.058594 22.871094 8.621094 C 22.699219 8.191406 22.609375 7.761719 22.609375 7.328125 C 22.589844 7.121094 22.621094 6.839844 22.699219 6.511719 L 22.828125 5.929688 C 22.871094 5.828125 22.828125 5.75 22.699219 5.699219 L 21.898438 5.460938 C 21.488281 5.351563 21.058594 5.289063 20.609375 5.289063 C 20.25 5.289063 19.871094 5.328125 19.488281 5.421875 C 19.109375 5.511719 18.710938 5.640625 18.300781 5.828125 C 17.890625 6.019531 17.488281 6.289063 17.101563 6.640625 C 16.710938 6.988281 16.378906 7.398438 16.101563 7.871094 C 15.289063 7.558594 14.5 7.410156 13.75 7.410156 C 12.339844 7.410156 11.078125 7.851563 9.988281 8.730469 C 8.898438 9.609375 8.191406 10.730469 7.878906 12.101563 C 6.761719 12.390625 5.839844 12.980469 5.128906 13.871094 C 4.421875 14.738281 4.070313 15.769531 4.070313 16.929688 Z M 9.480469 23.980469 C 9.480469 24.148438 9.53125 24.320313 9.640625 24.488281 C 9.75 24.660156 9.910156 24.769531 10.109375 24.839844 C 10.339844 24.910156 10.550781 24.898438 10.75 24.800781 C 10.949219 24.699219 11.070313 24.519531 11.140625 24.238281 L 11.28125 23.628906 C 11.328125 23.398438 11.300781 23.191406 11.191406 23 C 11.078125 22.800781 10.910156 22.671875 10.671875 22.601563 C 10.441406 22.53125 10.230469 22.558594 10.03125 22.679688 C 9.828125 22.800781 9.691406 22.980469 9.628906 23.210938 L 9.5 23.789063 C 9.480469 23.828125 9.480469 23.890625 9.480469 23.980469 Z M 10.238281 21.078125 C 10.238281 21.289063 10.320313 21.480469 10.488281 21.648438 C 10.648438 21.820313 10.828125 21.898438 11.050781 21.898438 C 11.289063 21.898438 11.488281 21.820313 11.648438 21.660156 C 11.808594 21.5 11.890625 21.308594 11.890625 21.070313 C 11.890625 20.839844 11.808594 20.640625 11.648438 20.480469 C 11.488281 20.320313 11.289063 20.238281 11.050781 20.238281 C 10.820313 20.238281 10.621094 20.320313 10.46875 20.46875 C 10.320313 20.621094 10.238281 20.851563 10.238281 21.078125 Z M 10.851563 18.808594 C 10.839844 18.96875 10.878906 19.121094 10.988281 19.261719 C 11.089844 19.410156 11.25 19.511719 11.46875 19.578125 C 11.679688 19.640625 11.878906 19.621094 12.089844 19.511719 C 12.300781 19.398438 12.429688 19.230469 12.5 19 L 12.78125 18.101563 C 12.851563 17.859375 12.828125 17.640625 12.710938 17.449219 C 12.589844 17.261719 12.410156 17.128906 12.171875 17.058594 C 11.949219 16.988281 11.738281 17.011719 11.539063 17.128906 C 11.339844 17.238281 11.199219 17.410156 11.128906 17.628906 L 10.890625 18.550781 C 10.890625 18.570313 10.878906 18.609375 10.871094 18.671875 C 10.851563 18.71875 10.851563 18.769531 10.851563 18.808594 Z M 12.011719 27.101563 C 12.011719 27.28125 12.058594 27.441406 12.160156 27.601563 C 12.261719 27.761719 12.421875 27.871094 12.640625 27.929688 C 12.71875 27.949219 12.808594 27.960938 12.890625 27.960938 C 13.320313 27.960938 13.578125 27.761719 13.679688 27.351563 L 13.820313 26.761719 C 13.878906 26.5 13.851563 26.28125 13.738281 26.078125 C 13.628906 25.878906 13.449219 25.761719 13.21875 25.710938 C 13.011719 25.640625 12.800781 25.660156 12.589844 25.78125 C 12.378906 25.898438 12.25 26.070313 12.179688 26.289063 L 12.039063 26.878906 C 12.019531 26.96875 12.011719 27.039063 12.011719 27.101563 Z M 12.789063 24.199219 C 12.789063 24.421875 12.871094 24.609375 13.039063 24.78125 C 13.199219 24.941406 13.390625 25.019531 13.609375 25.019531 C 13.851563 25.019531 14.039063 24.941406 14.199219 24.789063 C 14.359375 24.628906 14.429688 24.441406 14.429688 24.199219 C 14.429688 23.96875 14.351563 23.78125 14.199219 23.621094 C 14.050781 23.460938 13.851563 23.390625 13.609375 23.390625 C 13.371094 23.390625 13.179688 23.46875 13.019531 23.621094 C 12.871094 23.769531 12.789063 23.96875 12.789063 24.199219 Z M 13.421875 21.929688 C 13.410156 22.078125 13.449219 22.238281 13.550781 22.398438 C 13.648438 22.558594 13.800781 22.660156 14 22.699219 C 14.230469 22.761719 14.441406 22.738281 14.640625 22.640625 C 14.828125 22.539063 14.96875 22.351563 15.050781 22.078125 L 15.320313 21.179688 C 15.390625 20.960938 15.371094 20.75 15.25 20.550781 C 15.128906 20.351563 14.960938 20.21875 14.71875 20.148438 C 14.5 20.078125 14.289063 20.109375 14.078125 20.230469 C 13.871094 20.351563 13.738281 20.53125 13.671875 20.761719 L 13.449219 21.660156 C 13.429688 21.738281 13.421875 21.828125 13.421875 21.929688 Z M 16.171875 24.078125 C 16.171875 24.238281 16.21875 24.398438 16.320313 24.558594 C 16.421875 24.71875 16.578125 24.828125 16.78125 24.890625 C 16.808594 24.890625 16.859375 24.898438 16.921875 24.910156 C 16.980469 24.921875 17.019531 24.929688 17.058594 24.929688 C 17.46875 24.929688 17.71875 24.710938 17.820313 24.269531 L 17.960938 23.671875 C 18.03125 23.460938 18.011719 23.25 17.890625 23.039063 C 17.78125 22.828125 17.609375 22.699219 17.378906 22.628906 C 17.128906 22.570313 16.898438 22.589844 16.699219 22.710938 C 16.5 22.828125 16.359375 23 16.289063 23.238281 L 16.199219 23.828125 C 16.199219 23.851563 16.191406 23.898438 16.179688 23.949219 C 16.179688 24 16.171875 24.039063 16.171875 24.078125 Z M 16.910156 21.121094 C 16.910156 21.339844 16.988281 21.539063 17.160156 21.691406 C 17.308594 21.851563 17.5 21.929688 17.730469 21.929688 C 17.96875 21.929688 18.160156 21.851563 18.320313 21.699219 C 18.480469 21.550781 18.550781 21.351563 18.550781 21.121094 C 18.550781 20.878906 18.46875 20.691406 18.320313 20.53125 C 18.171875 20.371094 17.96875 20.300781 17.730469 20.300781 C 17.488281 20.300781 17.300781 20.378906 17.140625 20.53125 C 16.980469 20.679688 16.910156 20.878906 16.910156 21.121094 Z M 17.519531 18.808594 C 17.519531 18.980469 17.570313 19.140625 17.679688 19.289063 C 17.789063 19.441406 17.949219 19.550781 18.171875 19.609375 C 18.191406 19.609375 18.230469 19.621094 18.289063 19.628906 C 18.351563 19.640625 18.398438 19.648438 18.429688 19.648438 C 18.53125 19.648438 18.648438 19.621094 18.789063 19.558594 C 19 19.449219 19.140625 19.269531 19.199219 19.039063 L 19.441406 18.140625 C 19.5 17.910156 19.480469 17.699219 19.359375 17.511719 C 19.25 17.308594 19.078125 17.179688 18.851563 17.109375 C 18.621094 17.039063 18.410156 17.058594 18.210938 17.171875 C 18.011719 17.28125 17.890625 17.441406 17.820313 17.679688 L 17.539063 18.589844 C 17.539063 18.609375 17.53125 18.648438 17.519531 18.710938 C 17.53125 18.738281 17.519531 18.78125 17.519531 18.808594 Z M 17.589844 8.761719 C 17.910156 8.179688 18.351563 7.738281 18.898438 7.421875 C 19.460938 7.101563 20.03125 6.949219 20.628906 6.960938 C 20.71875 6.960938 20.820313 6.96875 20.929688 6.988281 L 20.929688 7.300781 C 20.921875 8.28125 21.179688 9.199219 21.699219 10.058594 C 22.230469 10.921875 22.96875 11.558594 23.921875 12 C 23.730469 12.410156 23.460938 12.78125 23.121094 13.109375 C 22.199219 12.351563 21.121094 11.96875 19.890625 11.96875 L 19.578125 11.96875 C 19.269531 10.660156 18.609375 9.589844 17.589844 8.761719 Z M 17.589844 8.761719 "/>
</g>
</svg>
