<?xml version="1.0" encoding="UTF-8"?>
<svg xmlns="http://www.w3.org/2000/svg" xmlns:xlink="http://www.w3.org/1999/xlink" width="30pt" height="30pt" viewBox="0 0 30 30" version="1.1">
<g id="surface766">
<path style=" stroke:none;fill-rule:nonzero;fill:rgb(0%,0%,0%);fill-opacity:1;" d="M 4.230469 16.988281 L 4.230469 16.96875 C 4.230469 15.808594 4.589844 14.78125 5.308594 13.878906 C 6.03125 12.980469 6.949219 12.390625 8.050781 12.140625 C 8.359375 10.769531 9.058594 9.648438 10.148438 8.769531 C 11.238281 7.890625 12.5 7.449219 13.921875 7.449219 C 14.910156 7.449219 15.820313 7.671875 16.640625 8.109375 C 17.140625 7.578125 17.730469 7.160156 18.398438 6.859375 C 19.070313 6.558594 19.769531 6.410156 20.488281 6.410156 C 21.441406 6.410156 22.320313 6.648438 23.128906 7.121094 C 23.941406 7.589844 24.578125 8.230469 25.050781 9.039063 C 25.519531 9.851563 25.761719 10.730469 25.761719 11.679688 C 25.761719 12.910156 25.378906 14.011719 24.621094 14.96875 C 24.910156 15.578125 25.050781 16.25 25.050781 16.988281 C 25.050781 17.871094 24.839844 18.691406 24.410156 19.441406 C 23.988281 20.191406 23.410156 20.800781 22.671875 21.25 C 21.941406 21.699219 21.128906 21.941406 20.25 21.96875 C 20.121094 21.96875 20.050781 21.910156 20.050781 21.800781 L 20.050781 20.460938 C 20.050781 20.339844 20.121094 20.28125 20.25 20.28125 C 21.109375 20.238281 21.828125 19.890625 22.429688 19.25 C 23.03125 18.609375 23.328125 17.851563 23.328125 16.988281 C 23.328125 16.101563 23.011719 15.339844 22.359375 14.699219 C 21.71875 14.058594 20.949219 13.738281 20.050781 13.738281 L 18.441406 13.738281 C 18.320313 13.738281 18.261719 13.679688 18.261719 13.558594 L 18.179688 12.96875 C 18.070313 11.890625 17.601563 10.980469 16.78125 10.25 C 15.960938 9.519531 15 9.148438 13.921875 9.148438 C 12.820313 9.148438 11.871094 9.519531 11.058594 10.25 C 10.25 10.980469 9.789063 11.890625 9.691406 12.96875 L 9.609375 13.558594 C 9.578125 13.648438 9.5 13.699219 9.390625 13.699219 L 8.878906 13.738281 C 8.039063 13.839844 7.328125 14.191406 6.769531 14.800781 C 6.210938 15.410156 5.929688 16.140625 5.929688 16.980469 L 5.929688 17.019531 C 5.941406 17.03125 5.949219 17.039063 5.960938 17.039063 C 5.96875 17.890625 6.269531 18.628906 6.859375 19.261719 C 7.140625 19.550781 7.449219 19.78125 7.78125 19.929688 L 7.78125 19.949219 C 8.160156 20.140625 8.570313 20.261719 9.019531 20.289063 C 9.128906 20.289063 9.191406 20.351563 9.191406 20.460938 L 9.191406 21.800781 C 9.191406 21.910156 9.128906 21.96875 9.019531 21.96875 C 8.53125 21.949219 8.050781 21.851563 7.589844 21.679688 C 6.828125 21.410156 6.171875 21 5.621094 20.421875 C 5.070313 19.839844 4.671875 19.179688 4.441406 18.421875 C 4.300781 17.949219 4.230469 17.480469 4.230469 16.988281 Z M 9.730469 24.160156 C 9.730469 24.128906 9.738281 24.089844 9.75 24.03125 C 9.761719 23.96875 9.769531 23.929688 9.769531 23.910156 L 9.859375 23.328125 C 9.929688 23.089844 10.070313 22.910156 10.269531 22.800781 C 10.480469 22.679688 10.699219 22.648438 10.949219 22.71875 C 11.179688 22.789063 11.339844 22.929688 11.460938 23.128906 C 11.570313 23.339844 11.589844 23.550781 11.53125 23.761719 L 11.390625 24.359375 C 11.289063 24.800781 11.039063 25.019531 10.628906 25.019531 C 10.601563 25.019531 10.550781 25.019531 10.480469 25.011719 C 10.410156 25 10.371094 25 10.351563 25 C 10.140625 24.941406 9.988281 24.828125 9.890625 24.671875 C 9.78125 24.488281 9.730469 24.328125 9.730469 24.160156 Z M 10.46875 21.210938 C 10.46875 20.96875 10.550781 20.78125 10.699219 20.621094 C 10.851563 20.460938 11.050781 20.390625 11.289063 20.390625 C 11.53125 20.390625 11.71875 20.46875 11.878906 20.621094 C 12.039063 20.769531 12.109375 20.96875 12.109375 21.210938 C 12.109375 21.441406 12.03125 21.640625 11.878906 21.789063 C 11.730469 21.941406 11.53125 22.019531 11.289063 22.019531 C 11.058594 22.019531 10.871094 21.941406 10.71875 21.78125 C 10.558594 21.621094 10.46875 21.429688 10.46875 21.210938 Z M 12.109375 27.191406 C 12.109375 27.148438 12.121094 27.078125 12.148438 26.960938 L 12.28125 26.371094 C 12.351563 26.140625 12.488281 25.980469 12.691406 25.859375 C 12.898438 25.75 13.109375 25.730469 13.320313 25.789063 C 13.550781 25.828125 13.730469 25.960938 13.851563 26.160156 C 13.96875 26.359375 14 26.589844 13.929688 26.839844 L 13.800781 27.421875 C 13.691406 27.828125 13.429688 28.039063 13 28.039063 C 12.949219 28.039063 12.871094 28.03125 12.761719 28 C 12.539063 27.941406 12.378906 27.828125 12.269531 27.671875 C 12.160156 27.511719 12.109375 27.359375 12.109375 27.191406 Z M 12.898438 24.28125 C 12.898438 24.050781 12.980469 23.859375 13.128906 23.699219 C 13.289063 23.550781 13.480469 23.46875 13.71875 23.46875 C 13.960938 23.46875 14.148438 23.550781 14.308594 23.699219 C 14.46875 23.851563 14.539063 24.050781 14.539063 24.28125 C 14.539063 24.519531 14.460938 24.710938 14.308594 24.871094 C 14.148438 25.03125 13.960938 25.101563 13.71875 25.101563 C 13.488281 25.101563 13.300781 25.019531 13.140625 24.859375 C 12.980469 24.699219 12.898438 24.511719 12.898438 24.28125 Z M 13.519531 22.011719 C 13.519531 21.921875 13.53125 21.828125 13.550781 21.75 L 13.78125 20.851563 C 13.851563 20.609375 13.988281 20.429688 14.191406 20.320313 C 14.390625 20.210938 14.609375 20.171875 14.828125 20.238281 C 15.070313 20.308594 15.238281 20.441406 15.359375 20.640625 C 15.480469 20.839844 15.5 21.050781 15.429688 21.269531 L 15.171875 22.171875 C 15.089844 22.441406 14.949219 22.628906 14.761719 22.730469 C 14.570313 22.828125 14.351563 22.851563 14.121094 22.789063 C 13.921875 22.75 13.769531 22.648438 13.671875 22.488281 C 13.550781 22.320313 13.511719 22.160156 13.519531 22.011719 Z M 16.28125 24.160156 C 16.28125 24.128906 16.28125 24.078125 16.289063 24.019531 C 16.300781 23.960938 16.300781 23.921875 16.300781 23.910156 L 16.390625 23.328125 C 16.460938 23.089844 16.601563 22.910156 16.800781 22.800781 C 17.011719 22.679688 17.230469 22.648438 17.46875 22.71875 C 17.699219 22.789063 17.871094 22.929688 17.980469 23.128906 C 18.101563 23.339844 18.121094 23.550781 18.050781 23.761719 L 17.910156 24.359375 C 17.808594 24.800781 17.558594 25.019531 17.148438 25.019531 C 17.121094 25.019531 17.070313 25.019531 17 25.011719 C 16.929688 25 16.890625 25 16.871094 25 C 16.671875 24.941406 16.519531 24.828125 16.421875 24.671875 C 16.320313 24.511719 16.28125 24.328125 16.28125 24.160156 Z M 17.019531 21.210938 C 17.019531 20.96875 17.101563 20.78125 17.25 20.621094 C 17.398438 20.460938 17.601563 20.390625 17.839844 20.390625 C 18.078125 20.390625 18.269531 20.46875 18.429688 20.621094 C 18.589844 20.78125 18.660156 20.96875 18.660156 21.210938 C 18.660156 21.441406 18.578125 21.640625 18.429688 21.789063 C 18.269531 21.949219 18.078125 22.019531 17.839844 22.019531 C 17.601563 22.019531 17.410156 21.941406 17.261719 21.78125 C 17.109375 21.628906 17.019531 21.441406 17.019531 21.210938 Z M 18.058594 9.101563 C 18.898438 9.859375 19.460938 10.839844 19.761719 12.03125 L 20.070313 12.03125 C 21.449219 12.03125 22.621094 12.511719 23.589844 13.46875 C 23.898438 12.921875 24.058594 12.320313 24.058594 11.660156 C 24.058594 10.679688 23.710938 9.851563 23.019531 9.160156 C 22.328125 8.480469 21.488281 8.128906 20.511719 8.128906 C 19.539063 8.140625 18.730469 8.460938 18.058594 9.101563 Z M 18.058594 9.101563 "/>
</g>
</svg>
