<?xml version="1.0" encoding="UTF-8"?>
<svg xmlns="http://www.w3.org/2000/svg" xmlns:xlink="http://www.w3.org/1999/xlink" width="30pt" height="30pt" viewBox="0 0 30 30" version="1.1">
<g id="surface721">
<path style=" stroke:none;fill-rule:nonzero;fill:rgb(0%,0%,0%);fill-opacity:1;" d="M 2.660156 20.921875 C 2.660156 21.148438 2.738281 21.339844 2.910156 21.488281 C 3.078125 21.648438 3.289063 21.71875 3.53125 21.71875 L 22.140625 21.71875 C 22.378906 21.71875 22.578125 21.640625 22.738281 21.488281 C 22.910156 21.328125 22.988281 21.140625 22.988281 20.921875 C 22.988281 20.679688 22.910156 20.46875 22.75 20.308594 C 22.589844 20.140625 22.378906 20.058594 22.140625 20.058594 L 3.53125 20.058594 C 3.289063 20.058594 3.089844 20.140625 2.921875 20.308594 C 2.75 20.480469 2.660156 20.691406 2.660156 20.921875 Z M 5.269531 17.808594 C 5.269531 18.050781 5.359375 18.238281 5.53125 18.398438 C 5.671875 18.578125 5.859375 18.671875 6.121094 18.671875 L 24.730469 18.671875 C 24.960938 18.671875 25.148438 18.589844 25.308594 18.421875 C 25.46875 18.25 25.539063 18.050781 25.539063 17.808594 C 25.539063 17.578125 25.460938 17.378906 25.308594 17.230469 C 25.160156 17.078125 24.960938 17 24.730469 17 L 6.121094 17 C 5.878906 17 5.679688 17.078125 5.519531 17.230469 C 5.351563 17.390625 5.269531 17.578125 5.269531 17.808594 Z M 5.421875 15.390625 L 5.421875 15.339844 C 5.378906 15.488281 5.421875 15.558594 5.539063 15.558594 L 6.980469 15.558594 C 7.039063 15.558594 7.101563 15.511719 7.171875 15.410156 C 7.410156 14.890625 7.761719 14.46875 8.230469 14.140625 C 8.699219 13.808594 9.21875 13.621094 9.78125 13.578125 L 10.308594 13.5 C 10.429688 13.5 10.5 13.441406 10.5 13.320313 L 10.558594 12.820313 C 10.671875 11.738281 11.121094 10.851563 11.921875 10.121094 C 12.71875 9.398438 13.671875 9.039063 14.761719 9.039063 C 15.828125 9.039063 16.78125 9.398438 17.578125 10.109375 C 18.378906 10.820313 18.851563 11.710938 18.960938 12.78125 L 19.03125 13.351563 C 19.03125 13.46875 19.101563 13.53125 19.238281 13.53125 L 20.820313 13.53125 C 21.460938 13.53125 22.050781 13.699219 22.570313 14.050781 C 23.089844 14.390625 23.488281 14.851563 23.738281 15.410156 C 23.808594 15.511719 23.878906 15.558594 23.960938 15.558594 L 25.378906 15.558594 C 25.5 15.558594 25.550781 15.488281 25.53125 15.339844 C 25.308594 14.78125 25.160156 14.429688 25.070313 14.28125 C 25.789063 13.628906 26.300781 12.769531 26.570313 11.710938 L 26.738281 11.050781 C 26.769531 10.988281 26.761719 10.929688 26.730469 10.890625 C 26.699219 10.851563 26.660156 10.820313 26.609375 10.820313 L 25.988281 10.601563 C 25.101563 10.339844 24.421875 9.820313 23.949219 9.019531 C 23.480469 8.21875 23.359375 7.371094 23.578125 6.460938 L 23.710938 5.878906 C 23.761719 5.789063 23.71875 5.710938 23.578125 5.648438 L 22.738281 5.421875 C 21.648438 5.148438 20.570313 5.238281 19.519531 5.679688 C 18.46875 6.121094 17.648438 6.828125 17.050781 7.800781 C 16.261719 7.488281 15.488281 7.339844 14.761719 7.339844 C 13.371094 7.339844 12.140625 7.78125 11.050781 8.648438 C 9.960938 9.519531 9.269531 10.640625 8.949219 12 C 8.109375 12.199219 7.371094 12.601563 6.730469 13.210938 C 6.089844 13.820313 5.671875 14.550781 5.421875 15.390625 Z M 7 23.96875 C 7 24.210938 7.089844 24.398438 7.261719 24.558594 C 7.429688 24.738281 7.628906 24.828125 7.851563 24.828125 L 26.5 24.828125 C 26.730469 24.828125 26.929688 24.75 27.089844 24.578125 C 27.25 24.410156 27.328125 24.210938 27.328125 23.96875 C 27.328125 23.738281 27.25 23.550781 27.089844 23.390625 C 26.929688 23.230469 26.730469 23.160156 26.5 23.160156 L 7.859375 23.160156 C 7.621094 23.160156 7.421875 23.238281 7.261719 23.390625 C 7.089844 23.550781 7 23.738281 7 23.96875 Z M 18.511719 8.699219 C 18.859375 8.128906 19.328125 7.679688 19.921875 7.371094 C 20.511719 7.058594 21.128906 6.929688 21.789063 6.988281 C 21.71875 8.03125 21.960938 9.011719 22.488281 9.921875 C 23.03125 10.828125 23.769531 11.5 24.710938 11.941406 C 24.558594 12.289063 24.308594 12.648438 23.960938 13.011719 C 23.039063 12.25 21.988281 11.878906 20.820313 11.878906 L 20.5 11.878906 C 20.179688 10.570313 19.519531 9.511719 18.511719 8.699219 Z M 18.511719 8.699219 "/>
</g>
</svg>
