<?xml version="1.0" encoding="UTF-8"?>
<svg xmlns="http://www.w3.org/2000/svg" xmlns:xlink="http://www.w3.org/1999/xlink" width="30pt" height="30pt" viewBox="0 0 30 30" version="1.1">
<g id="surface641">
<path style=" stroke:none;fill-rule:nonzero;fill:rgb(0%,0%,0%);fill-opacity:1;" d="M 4.058594 16.929688 C 4.058594 18.050781 4.390625 19.050781 5.058594 19.929688 C 5.730469 20.808594 6.578125 21.398438 7.628906 21.699219 C 7.71875 21.71875 7.800781 21.691406 7.871094 21.621094 L 9 20.21875 C 8.121094 20.21875 7.371094 19.898438 6.730469 19.25 C 6.089844 18.601563 5.769531 17.828125 5.769531 16.929688 C 5.769531 16.089844 6.050781 15.371094 6.609375 14.761719 C 7.171875 14.148438 7.878906 13.808594 8.71875 13.730469 L 9.21875 13.660156 C 9.339844 13.660156 9.410156 13.601563 9.410156 13.46875 L 9.488281 12.941406 C 9.609375 11.851563 10.078125 10.941406 10.898438 10.210938 C 11.710938 9.480469 12.671875 9.109375 13.761719 9.109375 C 14.851563 9.109375 15.800781 9.480469 16.621094 10.210938 C 17.441406 10.941406 17.910156 11.851563 18.03125 12.929688 L 18.101563 13.511719 C 18.101563 13.621094 18.160156 13.679688 18.28125 13.679688 L 19.898438 13.679688 C 20.78125 13.679688 21.539063 14 22.179688 14.640625 C 22.820313 15.28125 23.140625 16.039063 23.140625 16.921875 C 23.140625 17.769531 22.859375 18.511719 22.300781 19.140625 C 21.738281 19.769531 21.050781 20.121094 20.230469 20.191406 C 19.78125 20.25 19.488281 20.339844 19.371094 20.46875 L 17.039063 23.378906 C 16.878906 23.550781 16.820313 23.761719 16.851563 24.011719 C 16.871094 24.25 16.980469 24.441406 17.160156 24.601563 C 17.339844 24.761719 17.53125 24.828125 17.730469 24.828125 C 17.960938 24.828125 18.171875 24.710938 18.371094 24.449219 L 20.410156 21.859375 C 21.03125 21.800781 21.609375 21.621094 22.171875 21.339844 C 22.71875 21.058594 23.199219 20.691406 23.589844 20.261719 C 23.980469 19.820313 24.300781 19.308594 24.53125 18.730469 C 24.761719 18.148438 24.878906 17.550781 24.878906 16.921875 C 24.878906 16.050781 24.648438 15.238281 24.199219 14.480469 C 25.011719 13.738281 25.539063 12.871094 25.78125 11.859375 L 25.78125 11.769531 L 25.980469 11 L 25.21875 10.738281 C 24.648438 10.570313 24.160156 10.289063 23.75 9.910156 C 23.339844 9.53125 23.058594 9.109375 22.890625 8.679688 C 22.71875 8.25 22.628906 7.808594 22.628906 7.371094 C 22.628906 7.109375 22.660156 6.851563 22.710938 6.570313 L 22.898438 5.789063 L 22.070313 5.558594 C 22.058594 5.558594 22.050781 5.558594 22.039063 5.550781 C 22.03125 5.539063 22.019531 5.53125 22 5.53125 C 21.980469 5.53125 21.96875 5.519531 21.960938 5.511719 C 21.910156 5.5 21.898438 5.488281 21.898438 5.488281 C 21.460938 5.378906 21.050781 5.328125 20.648438 5.328125 C 20.269531 5.339844 19.890625 5.378906 19.5 5.46875 C 19.109375 5.558594 18.71875 5.691406 18.300781 5.878906 C 17.878906 6.070313 17.480469 6.339844 17.101563 6.691406 C 16.71875 7.039063 16.378906 7.449219 16.101563 7.929688 C 15.351563 7.601563 14.570313 7.441406 13.761719 7.441406 C 12.351563 7.441406 11.089844 7.878906 10 8.75 C 8.910156 9.621094 8.199219 10.738281 7.890625 12.109375 C 6.761719 12.378906 5.839844 12.96875 5.128906 13.859375 C 4.421875 14.75 4.058594 15.769531 4.058594 16.929688 Z M 7.769531 24.921875 C 7.769531 25.050781 7.789063 25.148438 7.839844 25.230469 C 7.929688 25.449219 8.070313 25.601563 8.269531 25.691406 C 8.488281 25.789063 8.710938 25.800781 8.941406 25.71875 C 9.171875 25.640625 9.320313 25.488281 9.398438 25.28125 C 9.5 25.058594 9.5 24.839844 9.410156 24.609375 C 9.320313 24.378906 9.171875 24.230469 8.960938 24.160156 C 8.738281 24.058594 8.519531 24.050781 8.300781 24.140625 C 8.078125 24.21875 7.929688 24.378906 7.851563 24.589844 C 7.789063 24.671875 7.769531 24.789063 7.769531 24.921875 Z M 9.609375 22.46875 L 9.609375 22.578125 C 9.628906 22.808594 9.738281 22.988281 9.941406 23.128906 C 10.070313 23.28125 10.25 23.351563 10.480469 23.351563 C 10.710938 23.339844 10.929688 23.238281 11.140625 23.03125 L 13.46875 20.109375 C 13.609375 19.941406 13.660156 19.730469 13.640625 19.488281 C 13.609375 19.25 13.519531 19.058594 13.339844 18.910156 C 13.160156 18.769531 12.960938 18.710938 12.710938 18.730469 C 12.46875 18.75 12.28125 18.871094 12.140625 19.070313 L 9.820313 21.929688 C 9.679688 22.089844 9.609375 22.269531 9.609375 22.46875 Z M 10.191406 27.679688 C 10.28125 27.890625 10.429688 28.039063 10.648438 28.128906 C 10.761719 28.179688 10.871094 28.210938 10.980469 28.210938 C 11.039063 28.210938 11.140625 28.191406 11.28125 28.148438 C 11.488281 28.058594 11.640625 27.921875 11.71875 27.710938 C 11.800781 27.488281 11.800781 27.28125 11.730469 27.058594 C 11.660156 26.851563 11.511719 26.691406 11.289063 26.578125 C 11.070313 26.5 10.859375 26.5 10.660156 26.578125 C 10.460938 26.660156 10.308594 26.808594 10.210938 27.019531 C 10.101563 27.21875 10.089844 27.429688 10.191406 27.679688 Z M 11.78125 25.019531 L 11.78125 25.101563 C 11.800781 25.320313 11.910156 25.519531 12.101563 25.679688 C 12.289063 25.839844 12.480469 25.921875 12.660156 25.921875 C 12.878906 25.921875 13.078125 25.808594 13.261719 25.578125 L 17.570313 20.21875 C 17.710938 20.050781 17.78125 19.839844 17.761719 19.601563 C 17.738281 19.359375 17.640625 19.160156 17.46875 19.019531 C 17.269531 18.878906 17.050781 18.820313 16.808594 18.839844 C 16.570313 18.859375 16.378906 18.960938 16.238281 19.140625 L 11.96875 24.5 C 11.839844 24.648438 11.78125 24.828125 11.78125 25.019531 Z M 15.289063 26.128906 C 15.289063 26.238281 15.308594 26.351563 15.359375 26.460938 C 15.441406 26.691406 15.601563 26.839844 15.828125 26.929688 C 16.058594 27.019531 16.261719 27.019531 16.441406 26.949219 C 16.660156 26.859375 16.808594 26.710938 16.898438 26.488281 C 17 26.269531 17.011719 26.058594 16.929688 25.851563 C 16.851563 25.640625 16.699219 25.488281 16.480469 25.390625 C 16.261719 25.308594 16.039063 25.308594 15.828125 25.390625 C 15.609375 25.46875 15.460938 25.609375 15.359375 25.808594 C 15.308594 25.921875 15.289063 26.03125 15.289063 26.128906 Z M 17.570313 8.808594 C 17.878906 8.238281 18.320313 7.800781 18.871094 7.488281 C 19.421875 7.191406 20.011719 7.039063 20.628906 7.050781 C 20.75 7.050781 20.839844 7.050781 20.890625 7.058594 L 20.890625 7.359375 C 20.890625 8.328125 21.160156 9.25 21.691406 10.109375 C 22.21875 10.980469 22.949219 11.628906 23.878906 12.070313 C 23.628906 12.539063 23.371094 12.910156 23.089844 13.191406 C 22.199219 12.398438 21.128906 12.011719 19.871094 12.011719 L 19.550781 12.011719 C 19.261719 10.738281 18.601563 9.671875 17.570313 8.808594 Z M 17.570313 8.808594 "/>
</g>
</svg>
