<?xml version="1.0" encoding="UTF-8"?>
<svg xmlns="http://www.w3.org/2000/svg" xmlns:xlink="http://www.w3.org/1999/xlink" width="30pt" height="30pt" viewBox="0 0 30 30" version="1.1">
<g id="surface771">
<path style=" stroke:none;fill-rule:nonzero;fill:rgb(0%,0%,0%);fill-opacity:1;" d="M 4.230469 16.878906 C 4.230469 18 4.558594 19 5.230469 19.878906 C 5.898438 20.761719 6.761719 21.351563 7.808594 21.640625 L 7.148438 23.339844 C 7.101563 23.480469 7.148438 23.558594 7.289063 23.558594 L 9.421875 23.558594 L 8 27.769531 L 8.289063 27.769531 L 12.648438 22.109375 C 12.691406 22.070313 12.691406 22.019531 12.671875 21.96875 C 12.648438 21.921875 12.601563 21.898438 12.53125 21.898438 L 10.339844 21.898438 L 12.828125 17.25 C 12.898438 17.109375 12.859375 17.03125 12.691406 17.03125 L 9.71875 17.03125 C 9.628906 17.03125 9.550781 17.078125 9.488281 17.179688 L 8.421875 20.058594 C 7.699219 19.878906 7.109375 19.5 6.640625 18.898438 C 6.171875 18.308594 5.941406 17.640625 5.941406 16.878906 C 5.941406 16.039063 6.21875 15.308594 6.78125 14.699219 C 7.339844 14.089844 8.050781 13.730469 8.890625 13.628906 L 9.398438 13.601563 C 9.519531 13.601563 9.589844 13.550781 9.621094 13.460938 L 9.699219 12.871094 C 9.808594 11.789063 10.261719 10.878906 11.070313 10.148438 C 11.878906 9.421875 12.828125 9.050781 13.929688 9.050781 C 15.019531 9.050781 15.96875 9.421875 16.789063 10.148438 C 17.609375 10.878906 18.078125 11.789063 18.191406 12.871094 L 18.269531 13.460938 C 18.269531 13.570313 18.328125 13.628906 18.449219 13.628906 L 20.058594 13.628906 C 20.949219 13.628906 21.71875 13.949219 22.371094 14.589844 C 23.019531 15.230469 23.339844 15.988281 23.339844 16.878906 C 23.339844 17.75 23.039063 18.5 22.441406 19.140625 C 21.839844 19.78125 21.121094 20.121094 20.261719 20.171875 C 20.128906 20.171875 20.058594 20.230469 20.058594 20.351563 L 20.058594 21.691406 C 20.058594 21.800781 20.128906 21.859375 20.261719 21.859375 C 21.140625 21.839844 21.949219 21.601563 22.679688 21.140625 C 23.410156 20.691406 23.988281 20.078125 24.421875 19.328125 C 24.851563 18.578125 25.058594 17.761719 25.058594 16.878906 C 25.058594 16.148438 24.921875 15.480469 24.628906 14.859375 C 25.390625 13.898438 25.769531 12.800781 25.769531 11.570313 C 25.769531 10.621094 25.53125 9.738281 25.058594 8.929688 C 24.589844 8.121094 23.949219 7.480469 23.140625 7.011719 C 22.328125 6.539063 21.449219 6.300781 20.5 6.300781 C 19.78125 6.300781 19.078125 6.449219 18.398438 6.75 C 17.71875 7.050781 17.140625 7.46875 16.640625 8 C 15.828125 7.570313 14.929688 7.351563 13.921875 7.351563 C 12.5 7.351563 11.238281 7.789063 10.148438 8.671875 C 9.058594 9.550781 8.351563 10.671875 8.050781 12.039063 C 6.941406 12.300781 6.03125 12.878906 5.308594 13.78125 C 4.589844 14.699219 4.230469 15.730469 4.230469 16.878906 Z M 13.820313 22.960938 C 13.820313 23.199219 13.898438 23.398438 14.058594 23.550781 C 14.21875 23.710938 14.421875 23.789063 14.640625 23.789063 C 14.878906 23.789063 15.078125 23.710938 15.25 23.550781 C 15.421875 23.390625 15.5 23.191406 15.5 22.960938 C 15.5 22.71875 15.421875 22.519531 15.25 22.351563 C 15.078125 22.179688 14.878906 22.089844 14.640625 22.089844 C 14.421875 22.089844 14.230469 22.179688 14.058594 22.351563 C 13.890625 22.519531 13.820313 22.71875 13.820313 22.960938 Z M 13.820313 19.320313 C 13.820313 19.558594 13.898438 19.75 14.058594 19.898438 C 14.21875 20.058594 14.421875 20.140625 14.640625 20.140625 C 14.878906 20.140625 15.089844 20.058594 15.25 19.910156 C 15.410156 19.761719 15.5 19.558594 15.5 19.320313 C 15.5 19.089844 15.421875 18.890625 15.25 18.71875 C 15.078125 18.550781 14.878906 18.46875 14.640625 18.46875 C 14.410156 18.46875 14.21875 18.550781 14.058594 18.71875 C 13.898438 18.890625 13.820313 19.089844 13.820313 19.320313 Z M 13.820313 26.628906 C 13.820313 26.851563 13.898438 27.039063 14.058594 27.199219 C 14.230469 27.371094 14.421875 27.449219 14.640625 27.449219 C 14.878906 27.449219 15.078125 27.371094 15.25 27.210938 C 15.421875 27.050781 15.5 26.859375 15.5 26.621094 C 15.5 26.378906 15.421875 26.179688 15.25 26.011719 C 15.078125 25.839844 14.878906 25.75 14.640625 25.75 C 14.421875 25.75 14.230469 25.839844 14.058594 26.011719 C 13.898438 26.191406 13.820313 26.398438 13.820313 26.628906 Z M 17.050781 21.019531 C 17.050781 21.261719 17.128906 21.460938 17.300781 21.621094 C 17.46875 21.78125 17.660156 21.871094 17.898438 21.871094 C 18.128906 21.871094 18.328125 21.789063 18.488281 21.621094 C 18.648438 21.449219 18.730469 21.25 18.730469 21.019531 C 18.730469 20.800781 18.648438 20.601563 18.488281 20.441406 C 18.328125 20.28125 18.140625 20.199219 17.898438 20.199219 C 17.671875 20.199219 17.46875 20.28125 17.300781 20.441406 C 17.128906 20.601563 17.050781 20.789063 17.050781 21.019531 Z M 17.050781 24.660156 C 17.050781 24.890625 17.128906 25.078125 17.289063 25.238281 C 17.449219 25.398438 17.648438 25.480469 17.890625 25.480469 C 18.128906 25.480469 18.320313 25.398438 18.480469 25.238281 C 18.640625 25.078125 18.710938 24.890625 18.710938 24.648438 C 18.710938 24.410156 18.628906 24.21875 18.480469 24.058594 C 18.320313 23.898438 18.128906 23.828125 17.890625 23.828125 C 17.648438 23.828125 17.449219 23.910156 17.289063 24.058594 C 17.128906 24.21875 17.050781 24.421875 17.050781 24.660156 Z M 18.058594 9.019531 C 18.730469 8.378906 19.539063 8.050781 20.511719 8.050781 C 21.488281 8.050781 22.328125 8.390625 23.019531 9.078125 C 23.710938 9.761719 24.058594 10.601563 24.058594 11.578125 C 24.058594 12.238281 23.898438 12.839844 23.589844 13.390625 C 22.628906 12.429688 21.460938 11.949219 20.070313 11.949219 L 19.761719 11.949219 C 19.460938 10.761719 18.890625 9.78125 18.058594 9.019531 Z M 18.058594 9.019531 "/>
</g>
</svg>
