<?xml version="1.0" encoding="UTF-8"?>
<svg xmlns="http://www.w3.org/2000/svg" xmlns:xlink="http://www.w3.org/1999/xlink" width="30pt" height="30pt" viewBox="0 0 30 30" version="1.1">
<g id="surface776">
<path style=" stroke:none;fill-rule:nonzero;fill:rgb(0%,0%,0%);fill-opacity:1;" d="M 4.230469 16.890625 C 4.230469 18.21875 4.699219 19.371094 5.628906 20.328125 C 6.558594 21.289063 7.699219 21.800781 9.03125 21.859375 C 9.148438 21.859375 9.210938 21.800781 9.210938 21.691406 L 9.210938 20.351563 C 9.210938 20.238281 9.148438 20.179688 9.03125 20.179688 C 8.171875 20.128906 7.441406 19.789063 6.839844 19.148438 C 6.238281 18.511719 5.941406 17.761719 5.941406 16.890625 C 5.941406 16.058594 6.21875 15.339844 6.789063 14.71875 C 7.359375 14.109375 8.058594 13.75 8.890625 13.648438 L 9.421875 13.609375 C 9.550781 13.609375 9.621094 13.550781 9.621094 13.429688 L 9.691406 12.890625 C 9.800781 11.808594 10.25 10.898438 11.058594 10.171875 C 11.871094 9.441406 12.820313 9.070313 13.910156 9.070313 C 15 9.070313 15.949219 9.441406 16.769531 10.171875 C 17.589844 10.898438 18.050781 11.808594 18.171875 12.890625 L 18.25 13.460938 C 18.25 13.578125 18.308594 13.648438 18.421875 13.648438 L 20.039063 13.648438 C 20.949219 13.648438 21.71875 13.96875 22.371094 14.601563 C 23.011719 15.230469 23.339844 16 23.339844 16.878906 C 23.339844 17.738281 23.039063 18.488281 22.429688 19.128906 C 21.820313 19.769531 21.089844 20.121094 20.238281 20.171875 C 20.121094 20.171875 20.050781 20.230469 20.050781 20.339844 L 20.050781 21.679688 C 20.050781 21.789063 20.109375 21.851563 20.238281 21.851563 C 21.578125 21.808594 22.710938 21.300781 23.640625 20.339844 C 24.570313 19.371094 25.03125 18.21875 25.03125 16.890625 C 25.03125 16.179688 24.890625 15.511719 24.601563 14.878906 C 25.390625 13.921875 25.78125 12.808594 25.78125 11.558594 C 25.78125 10.609375 25.539063 9.730469 25.070313 8.921875 C 24.601563 8.109375 23.960938 7.46875 23.148438 7 C 22.339844 6.53125 21.46875 6.300781 20.53125 6.300781 C 18.980469 6.300781 17.679688 6.878906 16.640625 8.03125 C 15.828125 7.601563 14.929688 7.378906 13.929688 7.378906 C 12.519531 7.378906 11.261719 7.820313 10.171875 8.699219 C 9.078125 9.578125 8.371094 10.699219 8.058594 12.058594 C 6.949219 12.320313 6.039063 12.898438 5.320313 13.800781 C 4.589844 14.710938 4.230469 15.738281 4.230469 16.890625 Z M 9.71875 24.609375 C 9.71875 24.820313 9.800781 25.011719 9.960938 25.179688 C 10.140625 25.339844 10.328125 25.421875 10.539063 25.421875 C 10.78125 25.421875 10.96875 25.339844 11.128906 25.191406 C 11.289063 25.03125 11.359375 24.839844 11.359375 24.609375 C 11.359375 24.371094 11.28125 24.179688 11.121094 24.019531 C 10.960938 23.859375 10.769531 23.789063 10.53125 23.789063 C 10.300781 23.789063 10.101563 23.871094 9.941406 24.019531 C 9.800781 24.171875 9.71875 24.371094 9.71875 24.609375 Z M 10.578125 20.980469 C 10.578125 21.21875 10.660156 21.421875 10.820313 21.589844 C 10.980469 21.761719 11.171875 21.839844 11.410156 21.839844 C 11.640625 21.839844 11.839844 21.761719 12 21.589844 C 12.160156 21.421875 12.238281 21.21875 12.238281 20.980469 C 12.238281 20.75 12.160156 20.558594 12 20.398438 C 11.839844 20.238281 11.648438 20.160156 11.410156 20.160156 C 11.179688 20.160156 10.980469 20.238281 10.820313 20.398438 C 10.660156 20.558594 10.578125 20.761719 10.578125 20.980469 Z M 12.46875 26.558594 C 12.46875 26.78125 12.550781 26.96875 12.710938 27.128906 C 12.878906 27.300781 13.070313 27.378906 13.289063 27.378906 C 13.53125 27.378906 13.730469 27.300781 13.890625 27.148438 C 14.058594 26.988281 14.140625 26.800781 14.140625 26.558594 C 14.140625 26.320313 14.058594 26.121094 13.890625 25.960938 C 13.71875 25.789063 13.519531 25.710938 13.289063 25.710938 C 13.070313 25.710938 12.878906 25.789063 12.710938 25.960938 C 12.558594 26.128906 12.46875 26.328125 12.46875 26.558594 Z M 13.328125 22.898438 C 13.328125 23.121094 13.410156 23.320313 13.578125 23.5 C 13.738281 23.660156 13.929688 23.738281 14.148438 23.738281 C 14.390625 23.738281 14.589844 23.660156 14.761719 23.5 C 14.929688 23.339844 15.011719 23.140625 15.011719 22.898438 C 15.011719 22.671875 14.929688 22.46875 14.761719 22.300781 C 14.589844 22.128906 14.390625 22.050781 14.148438 22.050781 C 13.921875 22.050781 13.730469 22.128906 13.570313 22.300781 C 13.410156 22.46875 13.328125 22.671875 13.328125 22.898438 Z M 13.761719 19.300781 C 13.761719 19.53125 13.839844 19.71875 14 19.878906 C 14.160156 20.039063 14.359375 20.121094 14.578125 20.121094 C 14.820313 20.121094 15.019531 20.039063 15.179688 19.878906 C 15.351563 19.71875 15.429688 19.53125 15.429688 19.289063 C 15.429688 19.058594 15.351563 18.859375 15.179688 18.699219 C 15.011719 18.539063 14.808594 18.460938 14.578125 18.460938 C 14.359375 18.460938 14.160156 18.539063 14 18.699219 C 13.839844 18.859375 13.761719 19.070313 13.761719 19.300781 Z M 16.128906 24.609375 C 16.128906 24.820313 16.210938 25.011719 16.359375 25.179688 C 16.53125 25.339844 16.738281 25.421875 16.960938 25.421875 C 17.199219 25.421875 17.390625 25.339844 17.550781 25.191406 C 17.710938 25.03125 17.78125 24.839844 17.78125 24.609375 C 17.78125 24.371094 17.699219 24.179688 17.550781 24.019531 C 17.390625 23.859375 17.199219 23.789063 16.960938 23.789063 C 16.71875 23.789063 16.519531 23.871094 16.359375 24.03125 C 16.210938 24.179688 16.128906 24.378906 16.128906 24.609375 Z M 16.980469 20.980469 C 16.980469 21.21875 17.058594 21.421875 17.21875 21.589844 C 17.378906 21.761719 17.578125 21.839844 17.808594 21.839844 C 18.039063 21.839844 18.238281 21.761719 18.398438 21.589844 C 18.558594 21.421875 18.640625 21.21875 18.640625 20.980469 C 18.640625 20.75 18.558594 20.558594 18.398438 20.398438 C 18.238281 20.238281 18.050781 20.160156 17.808594 20.160156 C 17.578125 20.160156 17.378906 20.238281 17.21875 20.398438 C 17.058594 20.558594 16.980469 20.761719 16.980469 20.980469 Z M 18.03125 9.019531 C 18.710938 8.339844 19.53125 8.011719 20.511719 8.011719 C 21.488281 8.011719 22.320313 8.359375 23.011719 9.050781 C 23.699219 9.738281 24.039063 10.578125 24.039063 11.570313 C 24.039063 12.160156 23.871094 12.769531 23.53125 13.410156 C 22.570313 12.449219 21.398438 11.96875 20.03125 11.96875 L 19.71875 11.96875 C 19.441406 10.800781 18.871094 9.820313 18.03125 9.019531 Z M 18.03125 9.019531 "/>
</g>
</svg>
