<?xml version="1.0" encoding="UTF-8"?>
<svg xmlns="http://www.w3.org/2000/svg" xmlns:xlink="http://www.w3.org/1999/xlink" width="30pt" height="30pt" viewBox="0 0 30 30" version="1.1">
<g id="surface616">
<path style=" stroke:none;fill-rule:nonzero;fill:rgb(0%,0%,0%);fill-opacity:1;" d="M 4.140625 16.898438 C 4.140625 15.738281 4.488281 14.71875 5.199219 13.820313 C 5.910156 12.921875 6.820313 12.351563 7.941406 12.101563 C 8.171875 11.070313 8.640625 10.171875 9.339844 9.398438 C 10.039063 8.628906 10.890625 8.078125 11.871094 7.75 C 12.488281 7.539063 13.128906 7.429688 13.800781 7.429688 C 14.609375 7.429688 15.398438 7.589844 16.148438 7.910156 C 16.429688 7.441406 16.761719 7.03125 17.140625 6.691406 C 17.519531 6.351563 17.910156 6.078125 18.308594 5.898438 C 18.710938 5.71875 19.109375 5.578125 19.488281 5.488281 C 19.871094 5.398438 20.25 5.359375 20.609375 5.359375 C 20.988281 5.359375 21.398438 5.410156 21.839844 5.519531 L 22.660156 5.769531 C 22.800781 5.828125 22.839844 5.898438 22.800781 5.988281 L 22.660156 6.589844 C 22.589844 6.898438 22.558594 7.191406 22.558594 7.449219 C 22.558594 7.761719 22.609375 8.078125 22.710938 8.398438 C 22.808594 8.71875 22.949219 9.03125 23.148438 9.339844 C 23.339844 9.648438 23.609375 9.921875 23.949219 10.171875 C 24.289063 10.421875 24.671875 10.609375 25.101563 10.738281 L 25.71875 10.960938 C 25.820313 10.988281 25.871094 11.039063 25.871094 11.121094 C 25.871094 11.140625 25.859375 11.160156 25.851563 11.191406 L 25.671875 11.859375 C 25.398438 12.941406 24.890625 13.789063 24.171875 14.429688 C 24.570313 15.128906 24.789063 15.878906 24.820313 16.671875 C 24.828125 16.71875 24.828125 16.789063 24.828125 16.898438 C 24.828125 17.789063 24.609375 18.621094 24.160156 19.378906 C 23.71875 20.140625 23.109375 20.738281 22.359375 21.179688 C 21.601563 21.621094 20.769531 21.851563 19.878906 21.851563 L 9.070313 21.851563 C 8.179688 21.851563 7.351563 21.628906 6.589844 21.179688 C 5.828125 20.730469 5.238281 20.128906 4.800781 19.378906 C 4.359375 18.628906 4.140625 17.800781 4.140625 16.898438 Z M 5.851563 16.898438 C 5.851563 17.789063 6.171875 18.558594 6.808594 19.210938 C 7.449219 19.859375 8.199219 20.191406 9.070313 20.191406 L 19.878906 20.191406 C 20.769531 20.191406 21.53125 19.871094 22.160156 19.21875 C 22.789063 18.570313 23.109375 17.800781 23.109375 16.898438 C 23.109375 16.019531 22.789063 15.269531 22.148438 14.640625 C 21.511719 14.011719 20.75 13.691406 19.871094 13.691406 L 18.089844 13.691406 L 17.988281 12.941406 C 17.890625 11.929688 17.46875 11.058594 16.730469 10.351563 C 15.988281 9.640625 15.109375 9.238281 14.101563 9.148438 C 14.070313 9.148438 14.019531 9.148438 13.949219 9.140625 C 13.878906 9.128906 13.839844 9.128906 13.800781 9.128906 C 13.289063 9.128906 12.78125 9.230469 12.261719 9.421875 L 12.261719 9.398438 C 11.53125 9.679688 10.910156 10.140625 10.421875 10.769531 C 9.921875 11.398438 9.621094 12.121094 9.519531 12.941406 L 9.449219 13.660156 L 8.769531 13.691406 C 7.929688 13.789063 7.230469 14.140625 6.671875 14.75 C 6.109375 15.359375 5.851563 16.070313 5.851563 16.898438 Z M 17.601563 8.789063 C 18.660156 9.699219 19.320313 10.761719 19.570313 11.96875 L 19.890625 11.96875 C 21.128906 11.96875 22.191406 12.359375 23.058594 13.148438 C 23.390625 12.839844 23.640625 12.480469 23.820313 12.078125 C 22.910156 11.648438 22.191406 10.988281 21.660156 10.109375 C 21.140625 9.230469 20.871094 8.300781 20.871094 7.328125 L 20.871094 7.089844 C 20.820313 7.078125 20.738281 7.078125 20.628906 7.078125 C 20.050781 7.070313 19.480469 7.210938 18.929688 7.519531 C 18.378906 7.820313 17.929688 8.238281 17.601563 8.789063 Z M 17.601563 8.789063 "/>
</g>
</svg>
