<?xml version="1.0" encoding="UTF-8"?>
<svg xmlns="http://www.w3.org/2000/svg" xmlns:xlink="http://www.w3.org/1999/xlink" width="30pt" height="30pt" viewBox="0 0 30 30" version="1.1">
<g id="surface731">
<path style=" stroke:none;fill-rule:nonzero;fill:rgb(0%,0%,0%);fill-opacity:1;" d="M 4.289063 16.929688 C 4.289063 17.589844 4.410156 18.210938 4.671875 18.808594 C 4.929688 19.410156 5.261719 19.921875 5.691406 20.359375 C 6.121094 20.800781 6.628906 21.148438 7.210938 21.410156 C 7.789063 21.671875 8.421875 21.828125 9.078125 21.859375 C 9.199219 21.859375 9.261719 21.800781 9.261719 21.691406 L 9.261719 20.351563 C 9.261719 20.238281 9.199219 20.179688 9.078125 20.179688 C 8.210938 20.121094 7.480469 19.769531 6.890625 19.148438 C 6.300781 18.53125 6 17.78125 6 16.929688 C 6 16.089844 6.28125 15.359375 6.851563 14.75 C 7.421875 14.128906 8.109375 13.78125 8.949219 13.710938 L 9.46875 13.648438 C 9.589844 13.648438 9.660156 13.589844 9.660156 13.46875 L 9.738281 12.949219 C 9.808594 12.238281 10.039063 11.589844 10.429688 11.011719 C 10.820313 10.429688 11.328125 9.96875 11.949219 9.648438 C 12.570313 9.328125 13.238281 9.160156 13.96875 9.160156 C 15.058594 9.160156 16.011719 9.519531 16.820313 10.238281 C 17.628906 10.960938 18.089844 11.859375 18.210938 12.929688 L 18.28125 13.511719 C 18.28125 13.621094 18.339844 13.679688 18.46875 13.679688 L 20.070313 13.679688 C 20.96875 13.679688 21.738281 14 22.390625 14.640625 C 23.03125 15.28125 23.359375 16.039063 23.359375 16.929688 C 23.359375 17.789063 23.058594 18.53125 22.46875 19.148438 C 21.878906 19.769531 21.140625 20.121094 20.28125 20.179688 C 20.148438 20.179688 20.078125 20.238281 20.078125 20.351563 L 20.078125 21.691406 C 20.078125 21.800781 20.148438 21.859375 20.28125 21.859375 C 21.621094 21.800781 22.75 21.289063 23.660156 20.351563 C 24.539063 19.398438 25 18.261719 25 16.929688 C 25 16.289063 24.839844 15.609375 24.53125 14.871094 C 25.320313 13.878906 25.71875 12.789063 25.71875 11.601563 C 25.71875 10.648438 25.480469 9.769531 25.011719 8.96875 C 24.539063 8.160156 23.898438 7.53125 23.101563 7.058594 C 22.300781 6.589844 21.421875 6.359375 20.480469 6.359375 C 18.890625 6.359375 17.601563 6.941406 16.609375 8.089844 C 15.800781 7.660156 14.910156 7.449219 13.949219 7.449219 C 12.539063 7.449219 11.289063 7.890625 10.199219 8.769531 C 9.109375 9.648438 8.410156 10.769531 8.101563 12.140625 C 6.980469 12.398438 6.070313 12.96875 5.359375 13.859375 C 4.640625 14.75 4.289063 15.769531 4.289063 16.929688 Z M 11.941406 21.550781 C 11.921875 21.691406 11.960938 21.761719 12.078125 21.761719 L 14.25 21.761719 L 12.929688 25.929688 L 13.21875 25.929688 L 17.398438 20.351563 C 17.441406 20.308594 17.449219 20.261719 17.421875 20.210938 C 17.390625 20.160156 17.351563 20.140625 17.28125 20.140625 L 15.101563 20.140625 L 17.398438 15.898438 C 17.46875 15.761719 17.429688 15.679688 17.261719 15.679688 L 14.320313 15.679688 C 14.238281 15.679688 14.179688 15.730469 14.109375 15.820313 Z M 18 9.050781 C 18.671875 8.390625 19.488281 8.058594 20.46875 8.058594 C 21.449219 8.058594 22.28125 8.398438 22.96875 9.089844 C 23.660156 9.769531 24 10.609375 24 11.601563 C 24 12.191406 23.828125 12.789063 23.480469 13.398438 C 22.511719 12.46875 21.359375 12 20.03125 12 L 19.71875 12 C 19.441406 10.808594 18.859375 9.828125 18 9.050781 Z M 18 9.050781 "/>
</g>
</svg>
