<?xml version="1.0" encoding="UTF-8"?>
<svg xmlns="http://www.w3.org/2000/svg" xmlns:xlink="http://www.w3.org/1999/xlink" width="30pt" height="30pt" viewBox="0 0 30 30" version="1.1">
<g id="surface606">
<path style=" stroke:none;fill-rule:nonzero;fill:rgb(0%,0%,0%);fill-opacity:1;" d="M 3.570313 13.429688 C 3.570313 12.28125 3.929688 11.25 4.648438 10.351563 C 5.371094 9.449219 6.28125 8.871094 7.378906 8.609375 C 7.699219 7.238281 8.398438 6.121094 9.5 5.238281 C 10.601563 4.359375 11.851563 3.929688 13.261719 3.929688 C 14.640625 3.929688 15.871094 4.359375 16.949219 5.210938 C 18.03125 6.058594 18.730469 7.160156 19.050781 8.5 L 19.378906 8.5 C 20.28125 8.5 21.109375 8.71875 21.871094 9.148438 C 22.628906 9.578125 23.238281 10.179688 23.679688 10.941406 C 24.121094 11.699219 24.351563 12.519531 24.351563 13.421875 C 24.351563 14.570313 24 15.601563 23.289063 16.5 C 23.929688 17.050781 24.691406 17.339844 25.550781 17.371094 L 26.210938 17.429688 C 26.328125 17.429688 26.390625 17.488281 26.390625 17.621094 L 26.390625 18.390625 C 26.398438 19.398438 26.148438 20.339844 25.660156 21.191406 C 25.171875 22.050781 24.488281 22.71875 23.640625 23.21875 C 22.789063 23.71875 21.859375 23.96875 20.851563 23.96875 C 20.078125 23.96875 19.351563 23.820313 18.660156 23.53125 C 17.96875 23.238281 17.378906 22.839844 16.878906 22.339844 C 16.390625 21.839844 15.988281 21.25 15.699219 20.558594 C 15.410156 19.871094 15.261719 19.148438 15.261719 18.390625 L 8.371094 18.390625 C 7.03125 18.328125 5.898438 17.820313 4.96875 16.859375 C 4.039063 15.898438 3.570313 14.761719 3.570313 13.429688 Z M 5.28125 13.429688 C 5.28125 14.300781 5.578125 15.050781 6.179688 15.691406 C 6.78125 16.328125 7.511719 16.671875 8.371094 16.710938 L 19.558594 16.710938 C 20.421875 16.671875 21.148438 16.328125 21.75 15.691406 C 22.351563 15.050781 22.648438 14.300781 22.648438 13.429688 C 22.648438 12.550781 22.328125 11.800781 21.679688 11.148438 C 21.03125 10.511719 20.261719 10.179688 19.371094 10.179688 L 17.75 10.179688 C 17.640625 10.179688 17.578125 10.121094 17.578125 10.011719 L 17.511719 9.429688 C 17.398438 8.351563 16.929688 7.441406 16.109375 6.71875 C 15.289063 6 14.339844 5.628906 13.25 5.628906 C 12.148438 5.628906 11.199219 5.988281 10.390625 6.71875 C 9.578125 7.449219 9.128906 8.351563 9.03125 9.429688 L 8.960938 10.011719 C 8.960938 10.121094 8.890625 10.179688 8.761719 10.179688 L 8.230469 10.179688 C 7.390625 10.28125 6.691406 10.640625 6.128906 11.25 C 5.570313 11.859375 5.28125 12.589844 5.28125 13.429688 Z M 16.710938 18.390625 C 16.710938 19.179688 16.910156 19.910156 17.308594 20.558594 C 17.710938 21.210938 18.21875 21.710938 18.851563 22.058594 C 19.480469 22.410156 20.140625 22.578125 20.839844 22.578125 C 21.460938 22.578125 22.070313 22.429688 22.660156 22.128906 C 23.261719 21.828125 23.78125 21.378906 24.238281 20.769531 C 24.699219 20.160156 24.988281 19.460938 25.101563 18.671875 C 24.019531 18.449219 23.121094 18.019531 22.378906 17.371094 C 21.539063 18.019531 20.601563 18.359375 19.558594 18.378906 L 16.710938 18.378906 Z M 16.710938 18.390625 "/>
</g>
</svg>
