<?xml version="1.0" encoding="UTF-8"?>
<svg xmlns="http://www.w3.org/2000/svg" xmlns:xlink="http://www.w3.org/1999/xlink" width="30pt" height="30pt" viewBox="0 0 30 30" version="1.1">
<g id="surface736">
<path style=" stroke:none;fill-rule:nonzero;fill:rgb(0%,0%,0%);fill-opacity:1;" d="M 6.769531 19.609375 C 6.769531 20.578125 7.121094 21.421875 7.828125 22.128906 C 8.539063 22.839844 9.378906 23.191406 10.351563 23.191406 L 17.199219 23.191406 C 18.171875 23.191406 19 22.839844 19.691406 22.140625 C 20.378906 21.441406 20.730469 20.601563 20.730469 19.609375 C 20.730469 19.128906 20.660156 18.71875 20.519531 18.378906 C 21.351563 17.851563 22.011719 17.140625 22.488281 16.261719 C 22.96875 15.378906 23.21875 14.429688 23.21875 13.421875 C 23.21875 12.609375 23.058594 11.828125 22.75 11.089844 C 22.429688 10.351563 22.011719 9.710938 21.46875 9.179688 C 20.929688 8.648438 20.300781 8.21875 19.558594 7.898438 C 18.820313 7.578125 18.050781 7.421875 17.238281 7.421875 C 16.148438 7.421875 15.140625 7.691406 14.21875 8.230469 C 13.300781 8.769531 12.570313 9.5 12.039063 10.410156 C 11.511719 11.328125 11.25 12.328125 11.25 13.421875 L 11.25 13.761719 C 10.238281 14.328125 9.578125 15.171875 9.261719 16.25 C 8.5 16.488281 7.898438 16.910156 7.449219 17.519531 C 7 18.128906 6.769531 18.828125 6.769531 19.609375 Z M 8.75 19.609375 C 8.75 19.191406 8.878906 18.828125 9.148438 18.53125 C 9.421875 18.230469 9.761719 18.058594 10.171875 18.019531 L 10.800781 17.941406 C 10.921875 17.941406 10.988281 17.859375 10.988281 17.710938 L 11.089844 17.148438 C 11.160156 16.570313 11.398438 16.089844 11.820313 15.710938 C 12.238281 15.320313 12.730469 15.128906 13.300781 15.128906 C 13.878906 15.128906 14.390625 15.320313 14.808594 15.710938 C 15.238281 16.101563 15.488281 16.578125 15.558594 17.148438 L 15.640625 17.800781 C 15.699219 17.949219 15.789063 18.03125 15.890625 18.03125 L 17.199219 18.03125 C 17.628906 18.03125 18 18.191406 18.320313 18.5 C 18.640625 18.808594 18.789063 19.179688 18.789063 19.621094 C 18.789063 20.070313 18.628906 20.449219 18.320313 20.769531 C 18.011719 21.089844 17.628906 21.25 17.199219 21.25 L 10.351563 21.25 C 9.898438 21.25 9.519531 21.089844 9.210938 20.769531 C 8.898438 20.449219 8.75 20.058594 8.75 19.609375 Z M 13.179688 13.21875 C 13.25 12.128906 13.671875 11.210938 14.449219 10.460938 C 15.230469 9.71875 16.160156 9.339844 17.25 9.339844 C 18.359375 9.339844 19.308594 9.738281 20.089844 10.53125 C 20.871094 11.320313 21.261719 12.289063 21.261719 13.421875 C 21.261719 14.121094 21.089844 14.769531 20.75 15.371094 C 20.410156 15.96875 19.949219 16.449219 19.371094 16.820313 C 18.78125 16.328125 18.101563 16.089844 17.339844 16.089844 C 17.050781 15.210938 16.53125 14.519531 15.800781 14 C 15.070313 13.480469 14.238281 13.21875 13.308594 13.21875 Z M 13.179688 13.21875 "/>
</g>
</svg>
