<?xml version="1.0" encoding="UTF-8"?>
<svg xmlns="http://www.w3.org/2000/svg" xmlns:xlink="http://www.w3.org/1999/xlink" width="30pt" height="30pt" viewBox="0 0 30 30" version="1.1">
<g id="surface726">
<path style=" stroke:none;fill-rule:nonzero;fill:rgb(0%,0%,0%);fill-opacity:1;" d="M 4.25 16.890625 C 4.25 18.21875 4.710938 19.371094 5.640625 20.320313 C 6.570313 21.28125 7.699219 21.789063 9.039063 21.859375 C 9.160156 21.859375 9.21875 21.800781 9.21875 21.679688 L 9.21875 20.351563 C 9.21875 20.230469 9.160156 20.171875 9.039063 20.171875 C 8.179688 20.128906 7.460938 19.789063 6.859375 19.148438 C 6.261719 18.511719 5.960938 17.761719 5.960938 16.890625 C 5.960938 16.058594 6.238281 15.339844 6.800781 14.71875 C 7.359375 14.109375 8.058594 13.75 8.898438 13.648438 L 9.421875 13.578125 C 9.550781 13.578125 9.621094 13.519531 9.621094 13.398438 L 9.699219 12.890625 C 9.808594 11.808594 10.261719 10.898438 11.070313 10.179688 C 11.878906 9.449219 12.828125 9.089844 13.921875 9.089844 C 15.011719 9.089844 15.960938 9.460938 16.78125 10.191406 C 17.601563 10.921875 18.058594 11.820313 18.179688 12.898438 L 18.25 13.480469 C 18.25 13.601563 18.308594 13.660156 18.429688 13.660156 L 20.050781 13.660156 C 20.960938 13.660156 21.730469 13.980469 22.371094 14.609375 C 23.011719 15.238281 23.328125 16 23.328125 16.898438 C 23.328125 17.769531 23.03125 18.519531 22.429688 19.160156 C 21.828125 19.800781 21.101563 20.140625 20.25 20.179688 C 20.121094 20.179688 20.058594 20.238281 20.058594 20.359375 L 20.058594 21.691406 C 20.058594 21.808594 20.121094 21.871094 20.25 21.871094 C 21.128906 21.839844 21.929688 21.601563 22.660156 21.148438 C 23.390625 20.699219 23.96875 20.101563 24.390625 19.351563 C 24.808594 18.601563 25.019531 17.78125 25.019531 16.910156 C 25.019531 16.171875 24.878906 15.5 24.589844 14.898438 C 25.378906 13.941406 25.769531 12.839844 25.769531 11.578125 C 25.769531 10.640625 25.53125 9.761719 25.058594 8.960938 C 24.589844 8.148438 23.949219 7.511719 23.140625 7.039063 C 22.328125 6.570313 21.460938 6.328125 20.519531 6.328125 C 18.960938 6.328125 17.671875 6.910156 16.640625 8.058594 C 15.820313 7.621094 14.921875 7.398438 13.929688 7.398438 C 12.519531 7.398438 11.261719 7.839844 10.171875 8.71875 C 9.078125 9.601563 8.371094 10.71875 8.058594 12.078125 C 6.960938 12.339844 6.050781 12.921875 5.328125 13.820313 C 4.609375 14.710938 4.25 15.738281 4.25 16.890625 Z M 9.621094 23.871094 C 9.710938 24.089844 9.859375 24.238281 10.078125 24.328125 C 10.28125 24.429688 10.488281 24.441406 10.699219 24.351563 C 10.921875 24.269531 11.058594 24.121094 11.148438 23.898438 C 11.238281 23.679688 11.238281 23.460938 11.160156 23.25 C 11.078125 23.03125 10.929688 22.878906 10.71875 22.78125 C 10.519531 22.699219 10.320313 22.699219 10.109375 22.789063 C 9.898438 22.878906 9.75 23.019531 9.648438 23.21875 C 9.539063 23.390625 9.53125 23.609375 9.621094 23.871094 Z M 10.25 21.039063 C 10.25 21.199219 10.300781 21.351563 10.398438 21.5 C 10.5 21.648438 10.660156 21.75 10.859375 21.808594 C 11.078125 21.878906 11.300781 21.859375 11.511719 21.75 C 11.71875 21.640625 11.859375 21.460938 11.941406 21.199219 L 12.921875 18.089844 C 12.988281 17.851563 12.96875 17.621094 12.839844 17.421875 C 12.71875 17.21875 12.53125 17.089844 12.289063 17.039063 C 12.070313 16.96875 11.859375 16.988281 11.671875 17.101563 C 11.46875 17.210938 11.339844 17.378906 11.269531 17.601563 L 10.269531 20.78125 Z M 12.109375 26.640625 C 12.109375 26.710938 12.128906 26.808594 12.171875 26.929688 C 12.261719 27.148438 12.421875 27.308594 12.628906 27.378906 C 12.710938 27.429688 12.820313 27.460938 12.960938 27.460938 C 13.019531 27.460938 13.121094 27.441406 13.261719 27.398438 C 13.480469 27.320313 13.640625 27.171875 13.730469 26.949219 C 13.828125 26.730469 13.828125 26.511719 13.730469 26.289063 C 13.628906 26.070313 13.480469 25.921875 13.28125 25.828125 C 13.078125 25.738281 12.871094 25.738281 12.660156 25.820313 C 12.46875 25.898438 12.328125 26.019531 12.238281 26.179688 C 12.148438 26.339844 12.109375 26.488281 12.109375 26.640625 Z M 12.851563 23.96875 C 12.851563 24.148438 12.898438 24.300781 13 24.449219 C 13.101563 24.589844 13.261719 24.691406 13.480469 24.730469 C 13.5 24.730469 13.539063 24.738281 13.589844 24.75 C 13.640625 24.761719 13.691406 24.769531 13.71875 24.769531 C 14.148438 24.738281 14.421875 24.53125 14.53125 24.148438 L 16.289063 18.078125 C 16.359375 17.839844 16.339844 17.621094 16.230469 17.429688 C 16.121094 17.238281 15.949219 17.109375 15.730469 17.039063 C 15.5 16.96875 15.28125 16.988281 15.078125 17.101563 C 14.878906 17.210938 14.75 17.378906 14.679688 17.601563 L 12.878906 23.671875 C 12.878906 23.691406 12.878906 23.730469 12.871094 23.769531 C 12.859375 23.808594 12.859375 23.851563 12.859375 23.878906 C 12.851563 23.921875 12.851563 23.949219 12.851563 23.96875 Z M 16.289063 23.570313 C 16.289063 23.671875 16.308594 23.78125 16.339844 23.890625 C 16.421875 24.101563 16.570313 24.25 16.800781 24.328125 C 16.890625 24.371094 17.011719 24.398438 17.160156 24.398438 C 17.28125 24.398438 17.378906 24.378906 17.449219 24.339844 C 17.679688 24.25 17.828125 24.109375 17.910156 23.910156 C 17.988281 23.691406 17.988281 23.480469 17.910156 23.261719 C 17.828125 23.050781 17.691406 22.890625 17.488281 22.78125 C 17.269531 22.699219 17.050781 22.699219 16.839844 22.789063 C 16.621094 22.878906 16.46875 23.019531 16.371094 23.21875 C 16.320313 23.328125 16.289063 23.441406 16.289063 23.570313 Z M 17.011719 21.03125 C 17.011719 21.390625 17.21875 21.640625 17.628906 21.78125 C 17.769531 21.820313 17.871094 21.839844 17.929688 21.839844 C 18.050781 21.839844 18.160156 21.808594 18.269531 21.761719 C 18.441406 21.671875 18.578125 21.488281 18.671875 21.210938 L 19.648438 18.101563 C 19.730469 17.871094 19.699219 17.648438 19.589844 17.460938 C 19.46875 17.261719 19.300781 17.128906 19.078125 17.058594 C 18.851563 16.988281 18.640625 17.011719 18.441406 17.121094 C 18.25 17.230469 18.109375 17.398438 18.039063 17.621094 L 17.058594 20.75 C 17.019531 20.910156 17.011719 21.011719 17.011719 21.03125 Z M 18.039063 9.019531 C 18.730469 8.359375 19.550781 8.03125 20.519531 8.03125 C 21.488281 8.03125 22.328125 8.378906 23.019531 9.070313 C 23.710938 9.761719 24.058594 10.601563 24.058594 11.570313 C 24.058594 12.191406 23.890625 12.800781 23.539063 13.410156 C 22.558594 12.429688 21.398438 11.941406 20.050781 11.941406 L 19.71875 11.941406 C 19.410156 10.78125 18.851563 9.808594 18.039063 9.019531 Z M 18.039063 9.019531 "/>
</g>
</svg>
