<?xml version="1.0" encoding="UTF-8"?>
<svg xmlns="http://www.w3.org/2000/svg" xmlns:xlink="http://www.w3.org/1999/xlink" width="30pt" height="30pt" viewBox="0 0 30 30" version="1.1">
<g id="surface821">
<path style=" stroke:none;fill-rule:nonzero;fill:rgb(0%,0%,0%);fill-opacity:1;" d="M 11.011719 12.230469 C 11.011719 11.96875 11.140625 11.640625 11.390625 11.21875 C 11.640625 10.800781 11.890625 10.449219 12.121094 10.179688 C 12.179688 10.109375 12.261719 10.011719 12.351563 9.898438 C 12.441406 9.789063 12.5 9.730469 12.511719 9.71875 L 12.878906 10.148438 C 13.160156 10.460938 13.410156 10.808594 13.640625 11.21875 C 13.871094 11.628906 13.988281 11.960938 13.988281 12.230469 C 13.988281 12.640625 13.851563 13 13.558594 13.289063 C 13.28125 13.578125 12.929688 13.730469 12.511719 13.730469 C 12.101563 13.730469 11.738281 13.578125 11.449219 13.289063 C 11.160156 12.988281 11.011719 12.640625 11.011719 12.230469 Z M 14.128906 16.378906 C 14.128906 16.089844 14.210938 15.761719 14.371094 15.371094 C 14.53125 14.988281 14.730469 14.628906 14.96875 14.308594 C 15.429688 13.699219 15.859375 13.191406 16.28125 12.78125 C 16.320313 12.75 16.410156 12.671875 16.539063 12.539063 L 16.789063 12.78125 C 17.179688 13.148438 17.621094 13.660156 18.109375 14.300781 C 18.371094 14.640625 18.570313 15 18.730469 15.378906 C 18.890625 15.761719 18.96875 16.089844 18.96875 16.378906 C 18.96875 17.070313 18.738281 17.640625 18.269531 18.109375 C 17.800781 18.578125 17.21875 18.808594 16.539063 18.808594 C 15.859375 18.808594 15.289063 18.570313 14.820313 18.101563 C 14.351563 17.628906 14.128906 17.050781 14.128906 16.378906 Z M 15.648438 9.480469 C 15.648438 9.050781 15.980469 8.480469 16.648438 7.78125 L 16.898438 8.058594 C 17.089844 8.28125 17.261719 8.519531 17.410156 8.800781 C 17.558594 9.070313 17.640625 9.300781 17.640625 9.480469 C 17.640625 9.761719 17.539063 9.980469 17.351563 10.171875 C 17.160156 10.351563 16.929688 10.449219 16.648438 10.449219 C 16.359375 10.449219 16.121094 10.359375 15.929688 10.171875 C 15.75 9.980469 15.648438 9.75 15.648438 9.480469 Z M 15.648438 9.480469 "/>
</g>
</svg>
