<?xml version="1.0" encoding="UTF-8"?>
<svg xmlns="http://www.w3.org/2000/svg" xmlns:xlink="http://www.w3.org/1999/xlink" width="30pt" height="30pt" viewBox="0 0 30 30" version="1.1">
<g id="surface831">
<path style=" stroke:none;fill-rule:nonzero;fill:rgb(0%,0%,0%);fill-opacity:1;" d="M 9.769531 15.53125 C 9.769531 16.46875 10.011719 17.351563 10.480469 18.148438 C 10.949219 18.949219 11.589844 19.589844 12.390625 20.050781 C 13.191406 20.519531 14.058594 20.75 15 20.75 C 15.960938 20.75 16.828125 20.519531 17.628906 20.058594 C 18.429688 19.601563 19.058594 18.96875 19.519531 18.171875 C 19.980469 17.371094 20.210938 16.488281 20.210938 15.539063 C 20.210938 15.300781 20.128906 15.101563 19.96875 14.929688 C 19.808594 14.761719 19.621094 14.679688 19.378906 14.679688 C 19.148438 14.679688 18.949219 14.761719 18.78125 14.929688 C 18.609375 15.101563 18.53125 15.300781 18.53125 15.539063 C 18.53125 16.519531 18.179688 17.359375 17.488281 18.050781 C 16.800781 18.738281 15.960938 19.089844 14.980469 19.089844 C 14.011719 19.089844 13.191406 18.738281 12.511719 18.050781 C 11.828125 17.359375 11.488281 16.519531 11.488281 15.539063 C 11.488281 14.691406 11.75 13.921875 12.28125 13.230469 C 12.808594 12.539063 13.421875 12.171875 14.121094 12.128906 L 13.738281 12.5 C 13.578125 12.679688 13.5 12.871094 13.5 13.078125 C 13.5 13.300781 13.578125 13.5 13.738281 13.679688 C 14.101563 14.03125 14.511719 14.03125 14.949219 13.679688 L 16.789063 11.859375 C 16.949219 11.738281 17.03125 11.53125 17.03125 11.238281 C 17.03125 10.980469 16.949219 10.789063 16.789063 10.671875 L 14.96875 8.800781 C 14.789063 8.640625 14.601563 8.558594 14.398438 8.558594 C 14.148438 8.558594 13.941406 8.640625 13.769531 8.808594 C 13.601563 8.980469 13.519531 9.179688 13.519531 9.410156 C 13.519531 9.648438 13.601563 9.859375 13.761719 10.019531 L 14.140625 10.378906 C 12.890625 10.601563 11.851563 11.199219 11.019531 12.179688 C 10.191406 13.160156 9.769531 14.269531 9.769531 15.53125 Z M 9.769531 15.53125 "/>
</g>
</svg>
