<?xml version="1.0" encoding="UTF-8"?>
<svg xmlns="http://www.w3.org/2000/svg" xmlns:xlink="http://www.w3.org/1999/xlink" width="30pt" height="30pt" viewBox="0 0 30 30" version="1.1">
<g id="surface846">
<path style=" stroke:none;fill-rule:nonzero;fill:rgb(0%,0%,0%);fill-opacity:1;" d="M 4.089844 16.949219 C 4.089844 15.789063 4.449219 14.761719 5.171875 13.859375 C 5.890625 12.960938 6.808594 12.371094 7.910156 12.121094 C 8.21875 10.75 8.921875 9.628906 10.011719 8.75 C 11.101563 7.871094 12.359375 7.429688 13.78125 7.429688 C 14.589844 7.429688 15.328125 7.558594 15.980469 7.828125 C 15.980469 7.839844 15.980469 7.839844 15.988281 7.851563 C 16.828125 8.171875 17.570313 8.691406 18.199219 9.398438 L 18.230469 9.398438 C 18.910156 10.128906 19.359375 11 19.601563 12.019531 L 19.910156 12.019531 C 20.988281 12.019531 21.929688 12.308594 22.738281 12.878906 L 22.738281 12.871094 C 23.269531 13.230469 23.71875 13.671875 24.078125 14.199219 C 24.441406 14.730469 24.679688 15.308594 24.808594 15.941406 C 24.851563 16.148438 24.871094 16.320313 24.890625 16.460938 L 24.890625 16.519531 C 24.890625 16.53125 24.890625 16.578125 24.898438 16.691406 C 24.910156 16.800781 24.910156 16.878906 24.910156 16.929688 L 24.910156 16.960938 C 24.910156 17.839844 24.699219 18.660156 24.269531 19.410156 C 23.851563 20.160156 23.269531 20.769531 22.53125 21.21875 C 21.800781 21.671875 20.988281 21.910156 20.109375 21.941406 C 19.980469 21.941406 19.910156 21.878906 19.910156 21.769531 L 19.910156 20.429688 C 19.910156 20.300781 19.980469 20.238281 20.109375 20.238281 C 20.96875 20.199219 21.691406 19.859375 22.289063 19.21875 C 22.890625 18.578125 23.191406 17.828125 23.191406 16.960938 C 23.191406 16.070313 22.871094 15.308594 22.21875 14.671875 C 21.578125 14.03125 20.808594 13.710938 19.910156 13.710938 L 18.300781 13.710938 C 18.179688 13.710938 18.121094 13.648438 18.121094 13.539063 L 18.039063 12.949219 C 17.941406 11.949219 17.519531 11.089844 16.769531 10.359375 C 16.761719 10.351563 16.761719 10.339844 16.75 10.328125 C 16.738281 10.320313 16.730469 10.308594 16.730469 10.300781 C 16.71875 10.289063 16.710938 10.28125 16.691406 10.28125 C 16.691406 10.261719 16.679688 10.25 16.671875 10.25 C 15.941406 9.589844 15.089844 9.210938 14.109375 9.128906 C 14.039063 9.121094 13.929688 9.121094 13.769531 9.121094 C 12.671875 9.121094 11.71875 9.488281 10.910156 10.21875 C 10.101563 10.949219 9.640625 11.859375 9.539063 12.941406 L 9.460938 13.53125 C 9.429688 13.621094 9.351563 13.671875 9.238281 13.671875 L 8.75 13.699219 C 7.910156 13.800781 7.199219 14.160156 6.640625 14.769531 C 6.078125 15.378906 5.800781 16.109375 5.800781 16.949219 L 5.800781 16.988281 L 5.828125 16.988281 C 5.839844 17.46875 5.941406 17.921875 6.128906 18.339844 C 6.328125 18.769531 6.589844 19.128906 6.929688 19.429688 C 7.140625 19.609375 7.378906 19.769531 7.671875 19.910156 L 7.671875 19.921875 C 8.070313 20.109375 8.46875 20.21875 8.878906 20.238281 C 8.988281 20.238281 9.050781 20.300781 9.050781 20.421875 L 9.050781 21.761719 C 9.050781 21.871094 8.988281 21.929688 8.878906 21.929688 C 8.359375 21.898438 7.871094 21.800781 7.398438 21.628906 L 7.398438 21.640625 C 6.570313 21.351563 5.859375 20.871094 5.289063 20.210938 C 4.71875 19.550781 4.339844 18.769531 4.179688 17.898438 L 4.179688 17.871094 C 4.171875 17.859375 4.171875 17.851563 4.171875 17.828125 C 4.109375 17.570313 4.089844 17.269531 4.089844 16.949219 Z M 9.589844 24.121094 C 9.589844 24.089844 9.601563 24.050781 9.609375 23.988281 C 9.621094 23.941406 9.628906 23.898438 9.628906 23.871094 L 9.71875 23.28125 C 9.789063 23.039063 9.921875 22.871094 10.128906 22.75 C 10.339844 22.628906 10.558594 22.609375 10.808594 22.671875 C 11.039063 22.738281 11.199219 22.878906 11.320313 23.078125 C 11.429688 23.289063 11.449219 23.5 11.390625 23.710938 L 11.25 24.308594 C 11.148438 24.75 10.898438 24.96875 10.488281 24.96875 C 10.460938 24.96875 10.410156 24.960938 10.351563 24.949219 C 10.289063 24.941406 10.25 24.929688 10.210938 24.929688 C 10 24.871094 9.851563 24.761719 9.75 24.601563 C 9.640625 24.449219 9.589844 24.289063 9.589844 24.121094 Z M 10.328125 21.179688 C 10.328125 20.941406 10.410156 20.75 10.558594 20.589844 C 10.710938 20.429688 10.910156 20.359375 11.148438 20.359375 C 11.390625 20.359375 11.578125 20.441406 11.738281 20.589844 C 11.898438 20.738281 11.96875 20.941406 11.96875 21.179688 C 11.96875 21.410156 11.890625 21.601563 11.738281 21.761719 C 11.589844 21.921875 11.390625 21.988281 11.148438 21.988281 C 10.921875 21.988281 10.730469 21.910156 10.578125 21.75 C 10.421875 21.589844 10.328125 21.398438 10.328125 21.179688 Z M 11.96875 27.171875 C 11.96875 27.128906 11.980469 27.058594 12.011719 26.941406 L 12.140625 26.351563 C 12.210938 26.121094 12.351563 25.949219 12.550781 25.839844 C 12.761719 25.71875 12.96875 25.699219 13.179688 25.769531 C 13.410156 25.808594 13.589844 25.941406 13.710938 26.140625 C 13.828125 26.339844 13.859375 26.570313 13.789063 26.820313 L 13.660156 27.410156 C 13.558594 27.820313 13.289063 28.019531 12.859375 28.019531 C 12.789063 28.019531 12.699219 28.011719 12.621094 27.988281 C 12.398438 27.929688 12.238281 27.820313 12.128906 27.660156 C 12.03125 27.5 11.96875 27.339844 11.96875 27.171875 Z M 12.761719 24.261719 C 12.761719 24.03125 12.839844 23.828125 12.988281 23.679688 C 13.148438 23.519531 13.339844 23.449219 13.578125 23.449219 C 13.820313 23.449219 14.011719 23.53125 14.171875 23.679688 C 14.328125 23.839844 14.398438 24.03125 14.398438 24.261719 C 14.398438 24.5 14.320313 24.691406 14.171875 24.851563 C 14.011719 25.011719 13.820313 25.078125 13.578125 25.078125 C 13.351563 25.078125 13.160156 25 13 24.839844 C 12.839844 24.679688 12.761719 24.488281 12.761719 24.261719 Z M 13.378906 21.988281 C 13.378906 21.890625 13.390625 21.800781 13.410156 21.71875 L 13.640625 20.820313 C 13.710938 20.589844 13.851563 20.410156 14.050781 20.289063 C 14.261719 20.171875 14.46875 20.140625 14.691406 20.210938 C 14.929688 20.28125 15.101563 20.410156 15.21875 20.609375 C 15.339844 20.808594 15.359375 21.019531 15.289063 21.238281 L 15.03125 22.140625 C 14.949219 22.421875 14.808594 22.601563 14.621094 22.699219 C 14.429688 22.800781 14.210938 22.820313 13.980469 22.761719 C 13.78125 22.71875 13.628906 22.621094 13.53125 22.460938 C 13.410156 22.300781 13.371094 22.140625 13.378906 21.988281 Z M 16.140625 24.128906 C 16.140625 24.101563 16.140625 24.050781 16.148438 24 C 16.160156 23.949219 16.160156 23.910156 16.160156 23.890625 L 16.25 23.300781 C 16.320313 23.058594 16.449219 22.890625 16.660156 22.769531 C 16.871094 22.648438 17.089844 22.628906 17.339844 22.691406 C 17.570313 22.761719 17.738281 22.898438 17.851563 23.101563 C 17.96875 23.308594 17.988281 23.519531 17.921875 23.730469 L 17.78125 24.328125 C 17.679688 24.769531 17.429688 24.988281 17.019531 24.988281 C 16.988281 24.988281 16.941406 24.980469 16.878906 24.96875 C 16.820313 24.960938 16.769531 24.949219 16.738281 24.949219 C 16.539063 24.890625 16.390625 24.78125 16.289063 24.621094 C 16.199219 24.460938 16.140625 24.300781 16.140625 24.128906 Z M 16.878906 21.191406 C 16.878906 20.949219 16.960938 20.761719 17.109375 20.601563 C 17.269531 20.441406 17.460938 20.371094 17.699219 20.371094 C 17.941406 20.371094 18.128906 20.449219 18.289063 20.601563 C 18.449219 20.761719 18.519531 20.949219 18.519531 21.191406 C 18.519531 21.421875 18.441406 21.621094 18.289063 21.769531 C 18.140625 21.921875 17.949219 22 17.710938 22 C 17.46875 22 17.28125 21.921875 17.128906 21.761719 C 16.96875 21.609375 16.878906 21.421875 16.878906 21.191406 Z M 16.878906 21.191406 "/>
</g>
</svg>
