<?xml version="1.0" encoding="UTF-8"?>
<svg xmlns="http://www.w3.org/2000/svg" xmlns:xlink="http://www.w3.org/1999/xlink" width="30pt" height="30pt" viewBox="0 0 30 30" version="1.1">
<g id="surface856">
<path style=" stroke:none;fill-rule:nonzero;fill:rgb(0%,0%,0%);fill-opacity:1;" d="M 6.351563 12.460938 C 6.351563 11.519531 6.648438 10.691406 7.25 9.960938 C 7.851563 9.230469 8.621094 8.75 9.558594 8.53125 C 9.789063 7.421875 10.351563 6.5 11.261719 5.78125 C 12.171875 5.058594 13.210938 4.699219 14.378906 4.699219 C 15.5 4.699219 16.511719 5.050781 17.378906 5.738281 C 18.261719 6.429688 18.828125 7.328125 19.101563 8.441406 L 19.378906 8.441406 C 20.140625 8.441406 20.839844 8.601563 21.5 8.929688 C 22.160156 9.261719 22.679688 9.699219 23.070313 10.269531 C 23.460938 10.839844 23.660156 11.449219 23.660156 12.109375 C 23.660156 13.230469 23.230469 14.191406 22.371094 14.96875 C 22.371094 15.320313 22.261719 15.71875 22.050781 16.171875 C 21.828125 16.621094 21.550781 17.03125 21.179688 17.398438 C 20.820313 17.769531 20.449219 17.988281 20.078125 18.078125 C 19.960938 18.699219 19.671875 19.21875 19.21875 19.648438 C 18.769531 20.078125 18.230469 20.359375 17.589844 20.5 C 17.890625 20.800781 18.039063 21.148438 18.039063 21.558594 C 18.039063 22.050781 17.871094 22.46875 17.519531 22.820313 C 17.171875 23.171875 16.75 23.339844 16.25 23.339844 C 15.761719 23.339844 15.339844 23.171875 14.988281 22.820313 C 14.640625 22.46875 14.460938 22.050781 14.460938 21.558594 C 14.460938 21.5 14.46875 21.421875 14.5 21.300781 C 14.53125 21.179688 14.539063 21.089844 14.539063 21.03125 L 14.460938 21.03125 C 13.871094 21.03125 13.371094 20.820313 12.949219 20.398438 C 12.53125 19.980469 12.320313 19.46875 12.320313 18.890625 C 12.320313 18.660156 12.441406 18.308594 12.691406 17.828125 C 12.199219 17.570313 11.808594 17.160156 11.519531 16.570313 L 10.269531 16.570313 C 9.179688 16.480469 8.25 16.039063 7.488281 15.269531 C 6.730469 14.488281 6.351563 13.550781 6.351563 12.460938 Z M 6.351563 12.460938 "/>
</g>
</svg>
