<?xml version="1.0" encoding="UTF-8"?>
<svg xmlns="http://www.w3.org/2000/svg" xmlns:xlink="http://www.w3.org/1999/xlink" width="30pt" height="30pt" viewBox="0 0 30 30" version="1.1">
<g id="surface906">
<path style=" stroke:none;fill-rule:nonzero;fill:rgb(0%,0%,0%);fill-opacity:1;" d="M 3.101563 16.96875 C 3.101563 17.210938 3.191406 17.421875 3.378906 17.589844 C 3.539063 17.78125 3.75 17.871094 4.011719 17.871094 L 18.699219 17.871094 C 18.988281 17.871094 19.230469 17.96875 19.429688 18.171875 C 19.628906 18.371094 19.730469 18.621094 19.730469 18.910156 C 19.730469 19.199219 19.628906 19.441406 19.429688 19.628906 C 19.230469 19.820313 18.988281 19.921875 18.691406 19.921875 C 18.398438 19.921875 18.148438 19.820313 17.960938 19.628906 C 17.800781 19.449219 17.601563 19.371094 17.359375 19.371094 C 17.109375 19.371094 16.898438 19.460938 16.71875 19.628906 C 16.539063 19.800781 16.449219 20.011719 16.449219 20.238281 C 16.449219 20.488281 16.539063 20.699219 16.730469 20.871094 C 17.289063 21.421875 17.949219 21.699219 18.691406 21.699219 C 19.46875 21.699219 20.140625 21.429688 20.699219 20.890625 C 21.261719 20.351563 21.53125 19.699219 21.53125 18.921875 C 21.53125 18.140625 21.25 17.480469 20.691406 16.921875 C 20.128906 16.359375 19.460938 16.078125 18.691406 16.078125 L 4.011719 16.078125 C 3.761719 16.078125 3.550781 16.171875 3.371094 16.339844 C 3.191406 16.511719 3.101563 16.71875 3.101563 16.96875 Z M 3.101563 13.691406 C 3.101563 13.921875 3.191406 14.121094 3.378906 14.300781 C 3.550781 14.480469 3.761719 14.558594 4.011719 14.558594 L 24.050781 14.558594 C 24.828125 14.558594 25.5 14.289063 26.058594 13.738281 C 26.621094 13.199219 26.898438 12.539063 26.898438 11.769531 C 26.898438 11 26.621094 10.328125 26.058594 9.78125 C 25.5 9.230469 24.828125 8.949219 24.050781 8.949219 C 23.28125 8.949219 22.628906 9.21875 22.101563 9.75 C 21.921875 9.910156 21.828125 10.128906 21.828125 10.421875 C 21.828125 10.679688 21.921875 10.890625 22.089844 11.050781 C 22.261719 11.210938 22.46875 11.289063 22.71875 11.289063 C 22.960938 11.289063 23.171875 11.210938 23.351563 11.050781 C 23.539063 10.839844 23.769531 10.738281 24.050781 10.738281 C 24.339844 10.738281 24.578125 10.839844 24.78125 11.039063 C 24.980469 11.238281 25.078125 11.480469 25.078125 11.769531 C 25.078125 12.058594 24.980469 12.300781 24.78125 12.488281 C 24.578125 12.679688 24.339844 12.78125 24.050781 12.78125 L 4.011719 12.78125 C 3.761719 12.78125 3.550781 12.871094 3.371094 13.039063 C 3.191406 13.230469 3.101563 13.441406 3.101563 13.691406 Z M 3.101563 13.691406 "/>
</g>
</svg>
