<?xml version="1.0" encoding="UTF-8"?>
<svg xmlns="http://www.w3.org/2000/svg" xmlns:xlink="http://www.w3.org/1999/xlink" width="30pt" height="30pt" viewBox="0 0 30 30" version="1.1">
<g id="surface911">
<path style=" stroke:none;fill-rule:nonzero;fill:rgb(0%,0%,0%);fill-opacity:1;" d="M 2.75 15.359375 C 2.75 15.109375 2.851563 14.878906 3.050781 14.671875 C 3.269531 14.480469 3.511719 14.378906 3.75 14.378906 L 6.078125 14.378906 C 6.351563 14.378906 6.570313 14.480469 6.75 14.671875 C 6.929688 14.859375 7.019531 15.101563 7.019531 15.359375 C 7.019531 15.648438 6.929688 15.890625 6.75 16.078125 C 6.570313 16.269531 6.339844 16.371094 6.078125 16.371094 L 3.75 16.371094 C 3.480469 16.371094 3.25 16.269531 3.050781 16.070313 C 2.851563 15.859375 2.75 15.621094 2.75 15.359375 Z M 6.078125 7.378906 C 6.078125 7.109375 6.171875 6.878906 6.339844 6.699219 C 6.570313 6.5 6.800781 6.398438 7.050781 6.398438 C 7.308594 6.398438 7.539063 6.5 7.730469 6.691406 L 9.371094 8.339844 C 9.558594 8.558594 9.648438 8.789063 9.648438 9.03125 C 9.648438 9.308594 9.558594 9.550781 9.378906 9.730469 C 9.199219 9.910156 8.980469 10.011719 8.71875 10.011719 C 8.480469 10.011719 8.238281 9.910156 8.019531 9.71875 L 6.339844 8.109375 C 6.171875 7.898438 6.078125 7.648438 6.078125 7.378906 Z M 8.078125 20.878906 C 8.078125 20.601563 8.179688 20.371094 8.371094 20.199219 C 8.550781 20.03125 8.769531 19.941406 9.050781 19.941406 L 11.679688 19.941406 L 14.789063 17.019531 C 14.890625 16.941406 15 16.941406 15.128906 17.019531 L 18.289063 19.941406 L 21.058594 19.941406 C 21.328125 19.941406 21.558594 20.03125 21.75 20.21875 C 21.941406 20.398438 22.039063 20.628906 22.039063 20.890625 C 22.039063 21.160156 21.941406 21.390625 21.75 21.578125 C 21.558594 21.769531 21.328125 21.871094 21.058594 21.871094 L 17.679688 21.871094 C 17.578125 21.871094 17.480469 21.851563 17.390625 21.800781 L 14.980469 19.53125 L 12.589844 21.800781 C 12.511719 21.851563 12.421875 21.871094 12.308594 21.871094 L 9.050781 21.871094 C 8.78125 21.871094 8.550781 21.769531 8.359375 21.578125 C 8.171875 21.378906 8.078125 21.148438 8.078125 20.878906 Z M 9 15.359375 C 9 16.328125 9.210938 17.210938 9.621094 18 C 9.640625 18.121094 9.730469 18.179688 9.871094 18.179688 L 11.75 18.179688 C 11.820313 18.179688 11.871094 18.148438 11.898438 18.101563 C 11.929688 18.039063 11.921875 17.980469 11.878906 17.910156 C 11.238281 17.140625 10.921875 16.289063 10.921875 15.359375 C 10.921875 14.238281 11.320313 13.28125 12.121094 12.488281 C 12.921875 11.699219 13.878906 11.308594 15.011719 11.308594 C 16.128906 11.308594 17.078125 11.699219 17.871094 12.488281 C 18.660156 13.28125 19.058594 14.230469 19.058594 15.359375 C 19.058594 16.300781 18.738281 17.148438 18.109375 17.910156 C 18.070313 17.980469 18.058594 18.039063 18.078125 18.101563 C 18.101563 18.160156 18.148438 18.179688 18.230469 18.179688 L 20.128906 18.179688 C 20.261719 18.179688 20.339844 18.121094 20.359375 18 C 20.800781 17.230469 21 16.351563 21 15.359375 C 21 14.550781 20.839844 13.769531 20.519531 13.039063 C 20.199219 12.300781 19.769531 11.671875 19.238281 11.128906 C 18.710938 10.601563 18.070313 10.171875 17.328125 9.851563 C 16.589844 9.53125 15.820313 9.378906 15.011719 9.378906 C 14.199219 9.378906 13.421875 9.539063 12.679688 9.851563 C 11.941406 10.171875 11.300781 10.589844 10.761719 11.128906 C 10.21875 11.660156 9.789063 12.300781 9.46875 13.039063 C 9.160156 13.769531 9 14.539063 9 15.359375 Z M 14.03125 6.398438 L 14.03125 4.101563 C 14.03125 3.808594 14.121094 3.578125 14.308594 3.390625 C 14.5 3.199219 14.738281 3.109375 15.019531 3.109375 C 15.300781 3.109375 15.53125 3.199219 15.71875 3.390625 C 15.910156 3.578125 16 3.828125 16 4.109375 L 16 6.410156 C 16 6.699219 15.910156 6.929688 15.71875 7.121094 C 15.539063 7.300781 15.300781 7.398438 15.019531 7.398438 C 14.730469 7.398438 14.5 7.308594 14.308594 7.121094 C 14.121094 6.929688 14.03125 6.691406 14.03125 6.398438 Z M 20.378906 9.039063 C 20.378906 8.789063 20.46875 8.558594 20.648438 8.351563 L 22.269531 6.699219 C 22.460938 6.511719 22.699219 6.410156 22.96875 6.410156 C 23.238281 6.410156 23.480469 6.511719 23.660156 6.699219 C 23.851563 6.890625 23.941406 7.121094 23.941406 7.390625 C 23.941406 7.679688 23.851563 7.921875 23.679688 8.121094 L 22 9.730469 C 21.789063 9.921875 21.550781 10.019531 21.300781 10.019531 C 21.03125 10.019531 20.808594 9.929688 20.640625 9.738281 C 20.46875 9.550781 20.378906 9.320313 20.378906 9.039063 Z M 22.988281 15.359375 C 22.988281 15.089844 23.078125 14.859375 23.261719 14.671875 C 23.441406 14.480469 23.660156 14.378906 23.921875 14.378906 L 26.269531 14.378906 C 26.539063 14.378906 26.769531 14.480469 26.960938 14.671875 C 27.148438 14.859375 27.25 15.101563 27.25 15.359375 C 27.25 15.640625 27.148438 15.871094 26.960938 16.070313 C 26.769531 16.269531 26.539063 16.371094 26.269531 16.371094 L 23.921875 16.371094 C 23.648438 16.371094 23.429688 16.269531 23.25 16.078125 C 23.078125 15.878906 22.988281 15.640625 22.988281 15.359375 Z M 22.988281 15.359375 "/>
</g>
</svg>
