<?xml version="1.0" encoding="UTF-8"?>
<svg xmlns="http://www.w3.org/2000/svg" xmlns:xlink="http://www.w3.org/1999/xlink" width="30pt" height="30pt" viewBox="0 0 30 30" version="1.1">
<g id="surface1001">
<path style=" stroke:none;fill-rule:nonzero;fill:rgb(0%,0%,0%);fill-opacity:1;" d="M 4.128906 15.191406 C 4.128906 15.878906 4.488281 16.46875 5.210938 16.960938 C 6.53125 17.890625 8.519531 18.351563 11.191406 18.351563 C 12.390625 18.351563 13.5 18.25 14.53125 18.039063 C 15.609375 17.808594 16.5 17.441406 17.179688 16.941406 C 17.859375 16.441406 18.210938 15.859375 18.210938 15.179688 C 18.210938 14.96875 18.171875 14.769531 18.089844 14.558594 C 19.480469 14.21875 20.570313 13.761719 21.359375 13.179688 C 22.148438 12.601563 22.550781 11.929688 22.550781 11.179688 C 22.550781 10.988281 22.519531 10.789063 22.460938 10.578125 C 24.75 9.769531 25.890625 8.679688 25.890625 7.300781 C 25.890625 6.421875 25.390625 5.640625 24.398438 4.960938 C 22.449219 3.660156 19.589844 3.011719 15.820313 3.011719 C 14.039063 3.011719 12.429688 3.171875 10.988281 3.480469 C 9.421875 3.800781 8.160156 4.300781 7.199219 4.980469 C 6.238281 5.660156 5.761719 6.441406 5.761719 7.308594 C 5.761719 7.828125 5.921875 8.300781 6.238281 8.730469 C 5.058594 9.398438 4.46875 10.21875 4.46875 11.191406 C 4.46875 11.941406 4.839844 12.601563 5.570313 13.171875 C 4.609375 13.730469 4.128906 14.398438 4.128906 15.191406 Z M 4.730469 19.691406 C 4.730469 20.421875 5.179688 21 6.078125 21.410156 C 6.980469 21.820313 8.121094 22.03125 9.488281 22.03125 C 10.878906 22.03125 12.019531 21.820313 12.929688 21.410156 C 13.839844 21 14.289063 20.421875 14.289063 19.691406 C 14.289063 19.421875 14.199219 19.191406 14.03125 19 C 13.859375 18.808594 13.628906 18.71875 13.359375 18.71875 C 13.140625 18.71875 12.941406 18.800781 12.761719 18.949219 C 12.578125 19.101563 12.46875 19.300781 12.421875 19.519531 C 12.21875 19.679688 11.859375 19.820313 11.320313 19.949219 C 10.78125 20.078125 10.171875 20.148438 9.488281 20.148438 C 8.390625 20.148438 7.488281 19.988281 6.808594 19.679688 C 6.96875 19.519531 7.050781 19.320313 7.070313 19.078125 C 7.089844 18.839844 7.03125 18.628906 6.921875 18.460938 C 6.761719 18.25 6.558594 18.109375 6.308594 18.058594 C 6.058594 18.011719 5.828125 18.058594 5.609375 18.191406 C 5.019531 18.601563 4.730469 19.089844 4.730469 19.691406 Z M 6.011719 15.191406 C 6.011719 15.179688 6.070313 15.121094 6.199219 15.011719 C 6.289063 14.921875 6.480469 14.808594 6.761719 14.671875 C 7.039063 14.53125 7.371094 14.421875 7.71875 14.320313 L 7.839844 14.261719 C 9.460938 14.800781 11.351563 15.070313 13.511719 15.070313 C 14.460938 15.070313 15.320313 15.019531 16.089844 14.910156 L 16.351563 15.140625 C 16.261719 15.300781 16.050781 15.460938 15.71875 15.640625 C 15.320313 15.851563 14.699219 16.050781 13.859375 16.210938 C 13.019531 16.371094 12.128906 16.460938 11.191406 16.460938 C 10.25 16.460938 9.359375 16.378906 8.519531 16.210938 C 7.679688 16.039063 7.050781 15.851563 6.640625 15.640625 C 6.300781 15.5 6.089844 15.351563 6.011719 15.191406 Z M 6.121094 23.609375 C 6.121094 24.238281 6.480469 24.730469 7.199219 25.070313 C 7.921875 25.410156 8.808594 25.578125 9.871094 25.578125 C 10.949219 25.578125 11.859375 25.410156 12.589844 25.070313 C 13.320313 24.730469 13.691406 24.238281 13.691406 23.609375 C 13.691406 23.359375 13.601563 23.128906 13.410156 22.941406 C 13.21875 22.75 13 22.648438 12.75 22.648438 C 12.28125 22.648438 11.96875 22.890625 11.828125 23.371094 C 11.441406 23.609375 10.789063 23.738281 9.871094 23.738281 C 9.070313 23.738281 8.429688 23.621094 7.949219 23.371094 C 7.800781 22.890625 7.5 22.648438 7.03125 22.648438 C 6.78125 22.648438 6.558594 22.738281 6.390625 22.929688 C 6.21875 23.121094 6.121094 23.339844 6.121094 23.609375 Z M 6.328125 11.191406 C 6.328125 11.109375 6.378906 11.019531 6.480469 10.910156 C 6.71875 10.609375 7.199219 10.308594 7.898438 10.03125 C 9.820313 11.058594 12.460938 11.570313 15.808594 11.570313 C 17.519531 11.570313 19.128906 11.410156 20.628906 11.101563 L 20.628906 11.191406 C 20.628906 11.339844 20.539063 11.488281 20.351563 11.640625 C 19.941406 12 19.179688 12.339844 18.058594 12.671875 C 16.851563 13.03125 15.328125 13.210938 13.5 13.210938 C 11.660156 13.210938 10.140625 13.03125 8.929688 12.671875 C 7.769531 12.351563 7 12.011719 6.609375 11.648438 C 6.421875 11.5 6.328125 11.351563 6.328125 11.191406 Z M 7.628906 7.308594 C 7.628906 7.128906 7.75 6.941406 7.980469 6.71875 C 8.429688 6.300781 9.328125 5.898438 10.660156 5.511719 C 12.089844 5.089844 13.800781 4.878906 15.800781 4.878906 C 17.808594 4.878906 19.539063 5.089844 20.988281 5.511719 C 22.339844 5.898438 23.230469 6.308594 23.671875 6.730469 C 23.890625 6.949219 24.011719 7.148438 24.011719 7.320313 C 24.011719 7.488281 23.898438 7.671875 23.671875 7.878906 C 23.230469 8.300781 22.339844 8.710938 20.988281 9.109375 C 19.539063 9.53125 17.820313 9.738281 15.800781 9.738281 C 13.800781 9.738281 12.078125 9.53125 10.660156 9.109375 C 9.320313 8.710938 8.421875 8.300781 7.980469 7.871094 C 7.75 7.660156 7.628906 7.480469 7.628906 7.308594 Z M 7.628906 7.308594 "/>
</g>
</svg>
