<?xml version="1.0" encoding="UTF-8"?>
<svg xmlns="http://www.w3.org/2000/svg" xmlns:xlink="http://www.w3.org/1999/xlink" width="30pt" height="30pt" viewBox="0 0 30 30" version="1.1">
<g id="surface926">
<path style=" stroke:none;fill-rule:nonzero;fill:rgb(0%,0%,0%);fill-opacity:1;" d="M 12.480469 19.558594 C 12.480469 20.269531 12.71875 20.878906 13.210938 21.378906 C 13.699219 21.878906 14.28125 22.128906 14.96875 22.128906 C 15.660156 22.128906 16.25 21.878906 16.761719 21.378906 C 17.269531 20.878906 17.519531 20.269531 17.519531 19.570313 C 17.519531 18.941406 17.300781 18.378906 16.871094 17.898438 C 16.441406 17.421875 15.910156 17.128906 15.300781 17.050781 L 15.300781 9.691406 C 15.300781 9.628906 15.269531 9.558594 15.199219 9.5 C 15.128906 9.429688 15.058594 9.398438 14.980469 9.398438 C 14.890625 9.398438 14.820313 9.429688 14.769531 9.480469 C 14.71875 9.539063 14.691406 9.601563 14.691406 9.691406 L 14.691406 17.03125 C 14.078125 17.121094 13.558594 17.398438 13.128906 17.878906 C 12.691406 18.371094 12.480469 18.921875 12.480469 19.558594 Z M 12.480469 19.558594 "/>
</g>
</svg>
