<?xml version="1.0" encoding="UTF-8"?>
<svg xmlns="http://www.w3.org/2000/svg" xmlns:xlink="http://www.w3.org/1999/xlink" width="30pt" height="30pt" viewBox="0 0 30 30" version="1.1">
<g id="surface1096">
<path style=" stroke:none;fill-rule:nonzero;fill:rgb(0%,0%,0%);fill-opacity:1;" d="M 4.648438 15.5 C 4.648438 15.28125 4.730469 15.089844 4.878906 14.941406 C 5.039063 14.789063 5.230469 14.71875 5.449219 14.71875 L 17.53125 14.71875 C 17.75 14.71875 17.929688 14.789063 18.070313 14.941406 C 18.210938 15.089844 18.289063 15.28125 18.289063 15.511719 C 18.289063 15.730469 18.21875 15.910156 18.070313 16.050781 C 17.929688 16.191406 17.75 16.269531 17.53125 16.269531 L 5.449219 16.269531 C 5.230469 16.269531 5.03125 16.199219 4.878906 16.050781 C 4.71875 15.898438 4.648438 15.71875 4.648438 15.5 Z M 7.058594 12.601563 C 7.058594 12.378906 7.140625 12.199219 7.289063 12.050781 C 7.441406 11.898438 7.628906 11.820313 7.851563 11.820313 L 19.941406 11.820313 C 20.148438 11.820313 20.328125 11.898438 20.480469 12.050781 C 20.628906 12.199219 20.699219 12.378906 20.699219 12.601563 C 20.699219 12.820313 20.628906 13 20.480469 13.160156 C 20.328125 13.308594 20.148438 13.390625 19.941406 13.390625 L 7.859375 13.390625 C 7.640625 13.390625 7.449219 13.308594 7.300781 13.160156 C 7.148438 13.011719 7.058594 12.820313 7.058594 12.601563 Z M 8.679688 18.339844 C 8.679688 18.128906 8.761719 17.949219 8.921875 17.800781 C 9.058594 17.660156 9.238281 17.578125 9.460938 17.578125 L 21.558594 17.578125 C 21.78125 17.578125 21.96875 17.648438 22.121094 17.800781 C 22.269531 17.941406 22.339844 18.121094 22.339844 18.339844 C 22.339844 18.558594 22.261719 18.75 22.109375 18.898438 C 21.960938 19.050781 21.769531 19.128906 21.550781 19.128906 L 9.460938 19.128906 C 9.238281 19.128906 9.058594 19.050781 8.898438 18.898438 C 8.738281 18.75 8.679688 18.558594 8.679688 18.339844 Z M 19.261719 15.5 C 19.261719 15.269531 19.328125 15.078125 19.480469 14.929688 C 19.628906 14.78125 19.820313 14.710938 20.050781 14.710938 L 24.570313 14.710938 C 24.800781 14.710938 24.988281 14.78125 25.140625 14.929688 C 25.289063 15.078125 25.359375 15.269531 25.359375 15.488281 C 25.359375 15.710938 25.289063 15.890625 25.140625 16.03125 C 24.988281 16.171875 24.800781 16.25 24.578125 16.25 L 20.058594 16.25 C 19.828125 16.25 19.640625 16.179688 19.488281 16.03125 C 19.328125 15.898438 19.261719 15.71875 19.261719 15.5 Z M 19.261719 15.5 "/>
</g>
</svg>
