<?xml version="1.0" encoding="UTF-8"?>
<svg xmlns="http://www.w3.org/2000/svg" xmlns:xlink="http://www.w3.org/1999/xlink" width="30pt" height="30pt" viewBox="0 0 30 30" version="1.1">
<g id="surface1026">
<path style=" stroke:none;fill-rule:nonzero;fill:rgb(0%,0%,0%);fill-opacity:1;" d="M 5.011719 13.5 C 5.011719 13.679688 5.070313 13.808594 5.179688 13.898438 C 5.300781 14.011719 5.441406 14.070313 5.601563 14.070313 L 16 14.070313 C 16.171875 14.070313 16.328125 14.128906 16.460938 14.261719 C 16.589844 14.378906 16.660156 14.539063 16.660156 14.71875 C 16.660156 14.898438 16.589844 15.058594 16.460938 15.191406 C 16.328125 15.320313 16.179688 15.390625 16 15.390625 C 15.820313 15.390625 15.660156 15.320313 15.53125 15.179688 C 15.398438 15.070313 15.269531 15.019531 15.128906 15.019531 C 14.96875 15.019531 14.828125 15.070313 14.71875 15.179688 C 14.609375 15.289063 14.558594 15.421875 14.558594 15.570313 C 14.558594 15.730469 14.621094 15.871094 14.730469 15.980469 C 15.089844 16.339844 15.511719 16.511719 16.011719 16.511719 C 16.511719 16.511719 16.921875 16.339844 17.269531 15.988281 C 17.621094 15.640625 17.789063 15.21875 17.789063 14.71875 C 17.789063 14.230469 17.621094 13.800781 17.269531 13.449219 C 16.921875 13.101563 16.5 12.921875 16.011719 12.921875 L 5.601563 12.921875 C 5.441406 12.921875 5.300781 12.980469 5.179688 13.089844 C 5.070313 13.210938 5.011719 13.339844 5.011719 13.5 Z M 5.011719 11.480469 C 5.011719 11.648438 5.070313 11.78125 5.179688 11.871094 C 5.300781 11.980469 5.441406 12.03125 5.601563 12.03125 L 19.410156 12.03125 C 19.898438 12.03125 20.328125 11.851563 20.679688 11.511719 C 21.03125 11.160156 21.199219 10.738281 21.199219 10.238281 C 21.199219 9.75 21.03125 9.328125 20.679688 8.980469 C 20.328125 8.628906 19.910156 8.460938 19.410156 8.460938 C 18.921875 8.460938 18.5 8.628906 18.140625 8.96875 C 18.03125 9.089844 17.980469 9.238281 17.980469 9.390625 C 17.980469 9.550781 18.03125 9.691406 18.140625 9.789063 C 18.25 9.890625 18.378906 9.941406 18.539063 9.941406 C 18.691406 9.941406 18.828125 9.890625 18.949219 9.78125 C 19.070313 9.660156 19.21875 9.601563 19.398438 9.601563 C 19.570313 9.601563 19.730469 9.660156 19.859375 9.78125 C 19.988281 9.898438 20.058594 10.050781 20.058594 10.230469 C 20.058594 10.410156 19.988281 10.570313 19.859375 10.699219 C 19.730469 10.828125 19.578125 10.898438 19.398438 10.898438 L 5.601563 10.898438 C 5.441406 10.898438 5.300781 10.960938 5.179688 11.070313 C 5.070313 11.179688 5.011719 11.320313 5.011719 11.480469 Z M 18.269531 18.898438 C 18.269531 19.421875 18.351563 19.878906 18.511719 20.269531 C 18.671875 20.660156 18.890625 20.980469 19.171875 21.210938 C 19.449219 21.441406 19.75 21.609375 20.078125 21.730469 C 20.410156 21.839844 20.761719 21.898438 21.128906 21.898438 C 21.640625 21.898438 22.109375 21.808594 22.539063 21.640625 C 22.96875 21.46875 23.308594 21.238281 23.589844 20.949219 C 23.859375 20.660156 24.101563 20.339844 24.300781 20 C 24.5 19.660156 24.648438 19.300781 24.75 18.921875 C 24.851563 18.539063 24.929688 18.199219 24.980469 17.890625 C 25.03125 17.578125 25.050781 17.289063 25.050781 17.03125 C 25.050781 16.058594 24.78125 15.308594 24.25 14.78125 C 23.71875 14.25 23.011719 13.980469 22.128906 13.980469 C 21.640625 13.980469 21.160156 14.101563 20.699219 14.328125 C 20.238281 14.558594 19.828125 14.890625 19.46875 15.308594 C 19.109375 15.730469 18.820313 16.25 18.609375 16.871094 C 18.378906 17.488281 18.269531 18.171875 18.269531 18.898438 Z M 20.320313 18.960938 C 20.320313 18.808594 20.328125 18.621094 20.359375 18.378906 C 20.390625 18.148438 20.441406 17.871094 20.519531 17.550781 C 20.601563 17.230469 20.699219 16.929688 20.820313 16.660156 C 20.941406 16.390625 21.109375 16.160156 21.339844 15.96875 C 21.558594 15.78125 21.808594 15.679688 22.089844 15.679688 C 22.359375 15.679688 22.578125 15.769531 22.738281 15.941406 C 22.898438 16.109375 22.96875 16.378906 22.96875 16.730469 C 22.96875 17.691406 22.800781 18.511719 22.46875 19.179688 C 22.140625 19.851563 21.730469 20.191406 21.238281 20.191406 C 20.628906 20.191406 20.320313 19.78125 20.320313 18.960938 Z M 20.320313 18.960938 "/>
</g>
</svg>
