<?xml version="1.0" encoding="UTF-8"?>
<svg xmlns="http://www.w3.org/2000/svg" xmlns:xlink="http://www.w3.org/1999/xlink" width="30pt" height="30pt" viewBox="0 0 30 30" version="1.1">
<g id="surface1071">
<path style=" stroke:none;fill-rule:nonzero;fill:rgb(0%,0%,0%);fill-opacity:1;" d="M 4.921875 13.5 C 4.921875 13.679688 4.980469 13.808594 5.089844 13.898438 C 5.210938 14.011719 5.351563 14.070313 5.511719 14.070313 L 15.910156 14.070313 C 16.089844 14.070313 16.238281 14.128906 16.371094 14.261719 C 16.5 14.378906 16.570313 14.539063 16.570313 14.71875 C 16.570313 14.898438 16.5 15.058594 16.371094 15.191406 C 16.238281 15.320313 16.089844 15.390625 15.910156 15.390625 C 15.730469 15.390625 15.570313 15.320313 15.441406 15.179688 C 15.308594 15.070313 15.179688 15.019531 15.039063 15.019531 C 14.878906 15.019531 14.738281 15.070313 14.628906 15.179688 C 14.519531 15.289063 14.46875 15.421875 14.46875 15.570313 C 14.46875 15.730469 14.53125 15.871094 14.640625 15.980469 C 15 16.339844 15.421875 16.511719 15.921875 16.511719 C 16.410156 16.511719 16.828125 16.339844 17.179688 15.988281 C 17.53125 15.640625 17.699219 15.21875 17.699219 14.71875 C 17.699219 14.230469 17.53125 13.800781 17.179688 13.449219 C 16.828125 13.101563 16.410156 12.921875 15.921875 12.921875 L 5.511719 12.921875 C 5.351563 12.921875 5.210938 12.980469 5.089844 13.089844 C 4.980469 13.210938 4.921875 13.339844 4.921875 13.5 Z M 4.921875 11.480469 C 4.921875 11.648438 4.980469 11.78125 5.089844 11.871094 C 5.210938 11.980469 5.351563 12.03125 5.511719 12.03125 L 19.320313 12.03125 C 19.808594 12.03125 20.238281 11.851563 20.589844 11.511719 C 20.941406 11.160156 21.109375 10.738281 21.109375 10.238281 C 21.109375 9.75 20.941406 9.328125 20.589844 8.980469 C 20.238281 8.628906 19.820313 8.460938 19.320313 8.460938 C 18.828125 8.460938 18.410156 8.628906 18.050781 8.96875 C 17.941406 9.089844 17.890625 9.238281 17.890625 9.390625 C 17.890625 9.550781 17.941406 9.691406 18.050781 9.789063 C 18.160156 9.890625 18.289063 9.941406 18.449219 9.941406 C 18.601563 9.941406 18.738281 9.890625 18.859375 9.78125 C 18.980469 9.660156 19.128906 9.601563 19.308594 9.601563 C 19.480469 9.601563 19.640625 9.660156 19.769531 9.78125 C 19.898438 9.898438 19.96875 10.050781 19.96875 10.230469 C 19.96875 10.410156 19.898438 10.570313 19.769531 10.699219 C 19.640625 10.828125 19.488281 10.898438 19.308594 10.898438 L 5.511719 10.898438 C 5.351563 10.898438 5.210938 10.960938 5.089844 11.070313 C 4.980469 11.179688 4.921875 11.320313 4.921875 11.480469 Z M 18.328125 18.71875 C 18.328125 19.679688 18.578125 20.449219 19.078125 21.03125 C 19.578125 21.609375 20.339844 21.898438 21.371094 21.898438 C 22.320313 21.898438 23.101563 21.609375 23.71875 21.03125 C 24.339844 20.449219 24.640625 19.691406 24.640625 18.75 C 24.640625 18.109375 24.421875 17.578125 23.96875 17.179688 C 23.519531 16.78125 22.980469 16.578125 22.320313 16.578125 C 21.589844 16.578125 21.019531 16.828125 20.601563 17.328125 L 20.578125 17.328125 C 20.910156 16.171875 21.460938 15.589844 22.230469 15.589844 C 22.480469 15.589844 22.671875 15.640625 22.808594 15.730469 C 22.929688 15.820313 23.011719 15.949219 23.039063 16.140625 L 25.148438 16.140625 C 25.140625 15.828125 25.070313 15.550781 24.960938 15.300781 C 24.839844 15.050781 24.699219 14.839844 24.519531 14.679688 C 24.339844 14.519531 24.128906 14.378906 23.890625 14.28125 C 23.648438 14.171875 23.398438 14.101563 23.140625 14.050781 C 22.878906 14.011719 22.621094 13.980469 22.339844 13.980469 C 21.71875 13.980469 21.160156 14.101563 20.660156 14.339844 C 20.160156 14.578125 19.78125 14.878906 19.488281 15.230469 C 19.210938 15.578125 18.96875 15.980469 18.78125 16.429688 C 18.589844 16.878906 18.46875 17.289063 18.398438 17.660156 C 18.359375 18.039063 18.328125 18.390625 18.328125 18.71875 Z M 20.378906 19.171875 C 20.378906 18.800781 20.5 18.519531 20.75 18.328125 C 20.988281 18.140625 21.269531 18.039063 21.570313 18.039063 C 21.761719 18.039063 21.921875 18.070313 22.050781 18.121094 C 22.179688 18.171875 22.28125 18.238281 22.351563 18.308594 C 22.421875 18.378906 22.46875 18.46875 22.5 18.578125 C 22.539063 18.691406 22.558594 18.769531 22.570313 18.828125 C 22.578125 18.890625 22.578125 18.949219 22.578125 19.019531 C 22.578125 19.328125 22.46875 19.601563 22.261719 19.808594 C 22.050781 20.019531 21.761719 20.128906 21.410156 20.128906 C 21.101563 20.128906 20.859375 20.039063 20.660156 19.859375 C 20.480469 19.691406 20.378906 19.460938 20.378906 19.171875 Z M 20.378906 19.171875 "/>
</g>
</svg>
