<?xml version="1.0" encoding="UTF-8"?>
<svg xmlns="http://www.w3.org/2000/svg" xmlns:xlink="http://www.w3.org/1999/xlink" width="30pt" height="30pt" viewBox="0 0 30 30" version="1.1">
<g id="surface41">
<path style=" stroke:none;fill-rule:nonzero;fill:rgb(0%,0%,0%);fill-opacity:1;" d="M 3.621094 21.011719 C 3.621094 20.761719 3.699219 20.550781 3.871094 20.378906 C 4.039063 20.21875 4.238281 20.140625 4.46875 20.140625 L 9.890625 20.140625 C 10.628906 20.140625 11.261719 20.398438 11.78125 20.929688 C 12.300781 21.460938 12.558594 22.089844 12.558594 22.828125 C 12.558594 23.570313 12.300781 24.210938 11.78125 24.730469 C 11.261719 25.25 10.628906 25.511719 9.890625 25.511719 C 9.148438 25.511719 8.511719 25.25 7.988281 24.71875 C 7.828125 24.558594 7.761719 24.359375 7.761719 24.121094 C 7.761719 23.878906 7.839844 23.671875 7.988281 23.519531 C 8.140625 23.359375 8.339844 23.28125 8.589844 23.28125 C 8.820313 23.28125 9.019531 23.359375 9.199219 23.519531 C 9.398438 23.710938 9.628906 23.808594 9.890625 23.808594 C 10.148438 23.808594 10.378906 23.710938 10.570313 23.519531 C 10.761719 23.328125 10.859375 23.101563 10.859375 22.820313 C 10.859375 22.558594 10.761719 22.328125 10.570313 22.140625 C 10.378906 21.949219 10.148438 21.851563 9.890625 21.851563 L 4.46875 21.851563 C 4.238281 21.851563 4.039063 21.769531 3.871094 21.601563 C 3.699219 21.429688 3.621094 21.25 3.621094 21.011719 Z M 3.621094 17.96875 C 3.621094 17.730469 3.699219 17.519531 3.871094 17.351563 C 4.039063 17.191406 4.238281 17.109375 4.46875 17.109375 L 15.019531 17.109375 C 15.28125 17.109375 15.511719 17.011719 15.699219 16.820313 C 15.890625 16.628906 15.988281 16.390625 15.988281 16.128906 C 15.988281 15.871094 15.890625 15.628906 15.699219 15.441406 C 15.511719 15.25 15.28125 15.148438 15.019531 15.148438 C 14.738281 15.148438 14.519531 15.238281 14.339844 15.429688 C 14.160156 15.578125 13.949219 15.660156 13.699219 15.660156 C 13.460938 15.660156 13.261719 15.578125 13.101563 15.429688 C 12.949219 15.28125 12.871094 15.078125 12.871094 14.828125 C 12.871094 14.578125 12.941406 14.378906 13.101563 14.21875 C 13.609375 13.710938 14.25 13.460938 15.019531 13.460938 C 15.761719 13.460938 16.398438 13.71875 16.921875 14.238281 C 17.441406 14.761719 17.699219 15.390625 17.699219 16.121094 C 17.699219 16.851563 17.441406 17.488281 16.921875 18.011719 C 16.398438 18.53125 15.769531 18.789063 15.019531 18.789063 L 4.46875 18.789063 C 4.230469 18.789063 4.03125 18.710938 3.871094 18.550781 C 3.699219 18.398438 3.621094 18.199219 3.621094 17.96875 Z M 5.769531 15.609375 C 5.769531 15.691406 5.820313 15.730469 5.929688 15.730469 L 7.371094 15.730469 C 7.449219 15.730469 7.519531 15.679688 7.589844 15.578125 C 7.808594 15.039063 8.171875 14.589844 8.640625 14.230469 C 9.121094 13.871094 9.648438 13.671875 10.230469 13.628906 L 10.761719 13.550781 C 10.890625 13.550781 10.960938 13.488281 10.960938 13.378906 L 11.03125 12.859375 C 11.140625 11.78125 11.589844 10.871094 12.398438 10.140625 C 13.210938 9.410156 14.160156 9.039063 15.261719 9.039063 C 16.371094 9.039063 17.328125 9.398438 18.140625 10.128906 C 18.949219 10.859375 19.410156 11.769531 19.53125 12.859375 L 19.601563 13.449219 C 19.601563 13.558594 19.660156 13.621094 19.769531 13.621094 L 21.390625 13.621094 C 22.300781 13.621094 23.070313 13.941406 23.71875 14.578125 C 24.371094 15.21875 24.691406 15.980469 24.691406 16.878906 C 24.691406 17.769531 24.371094 18.539063 23.71875 19.179688 C 23.070313 19.820313 22.300781 20.140625 21.390625 20.140625 L 14.480469 20.140625 C 14.359375 20.140625 14.289063 20.199219 14.289063 20.308594 L 14.289063 21.699219 C 14.289063 21.808594 14.351563 21.871094 14.480469 21.871094 L 21.390625 21.871094 C 22.300781 21.871094 23.128906 21.648438 23.898438 21.199219 C 24.671875 20.761719 25.269531 20.148438 25.71875 19.390625 C 26.171875 18.621094 26.390625 17.789063 26.390625 16.890625 C 26.390625 15.980469 26.171875 15.148438 25.71875 14.390625 C 25.269531 13.628906 24.671875 13.019531 23.898438 12.578125 C 23.128906 12.140625 22.300781 11.910156 21.390625 11.910156 L 21.078125 11.910156 C 20.769531 10.578125 20.070313 9.488281 18.980469 8.640625 C 17.898438 7.789063 16.648438 7.371094 15.25 7.371094 C 13.839844 7.371094 12.589844 7.808594 11.5 8.691406 C 10.410156 9.570313 9.71875 10.691406 9.429688 12.058594 C 8.570313 12.261719 7.808594 12.671875 7.148438 13.289063 C 6.488281 13.910156 6.03125 14.648438 5.769531 15.5 L 5.769531 15.539063 C 5.769531 15.558594 5.769531 15.578125 5.769531 15.609375 Z M 5.769531 15.609375 "/>
</g>
</svg>
