<?xml version="1.0" encoding="UTF-8"?>
<svg xmlns="http://www.w3.org/2000/svg" xmlns:xlink="http://www.w3.org/1999/xlink" width="30pt" height="30pt" viewBox="0 0 30 30" version="1.1">
<g id="surface31">
<path style=" stroke:none;fill-rule:nonzero;fill:rgb(0%,0%,0%);fill-opacity:1;" d="M 4.640625 16.878906 C 4.640625 18.210938 5.101563 19.359375 6.03125 20.308594 C 6.960938 21.269531 8.089844 21.78125 9.429688 21.839844 C 9.539063 21.839844 9.601563 21.78125 9.601563 21.671875 L 9.601563 20.339844 C 9.601563 20.21875 9.539063 20.148438 9.429688 20.148438 C 8.570313 20.109375 7.851563 19.769531 7.25 19.128906 C 6.648438 18.488281 6.351563 17.738281 6.351563 16.878906 C 6.351563 16.058594 6.628906 15.339844 7.191406 14.71875 C 7.75 14.109375 8.449219 13.75 9.289063 13.648438 L 9.820313 13.648438 C 9.949219 13.648438 10.019531 13.589844 10.019531 13.46875 L 10.078125 12.898438 C 10.191406 11.820313 10.648438 10.910156 11.460938 10.179688 C 12.269531 9.449219 13.230469 9.078125 14.320313 9.078125 C 15.398438 9.078125 16.351563 9.449219 17.171875 10.179688 C 17.988281 10.910156 18.449219 11.820313 18.558594 12.898438 L 18.640625 13.46875 C 18.640625 13.589844 18.699219 13.648438 18.820313 13.648438 L 20.429688 13.648438 C 21.320313 13.648438 22.089844 13.96875 22.738281 14.609375 C 23.390625 15.25 23.71875 16.011719 23.71875 16.871094 C 23.71875 17.730469 23.421875 18.480469 22.820313 19.121094 C 22.21875 19.761719 21.488281 20.101563 20.640625 20.140625 C 20.511719 20.140625 20.441406 20.199219 20.441406 20.328125 L 20.441406 21.660156 C 20.441406 21.769531 20.511719 21.828125 20.640625 21.828125 C 21.511719 21.808594 22.308594 21.570313 23.039063 21.121094 C 23.769531 20.671875 24.351563 20.070313 24.769531 19.320313 C 25.191406 18.570313 25.398438 17.75 25.398438 16.878906 C 25.398438 16.210938 25.269531 15.570313 25.011719 14.96875 C 24.75 14.359375 24.390625 13.839844 23.949219 13.398438 C 23.511719 12.960938 22.980469 12.609375 22.371094 12.351563 C 21.761719 12.089844 21.121094 11.960938 20.449219 11.960938 L 20.128906 11.960938 C 19.800781 10.621094 19.101563 9.53125 18.019531 8.671875 C 16.949219 7.820313 15.71875 7.390625 14.339844 7.390625 C 12.929688 7.390625 11.671875 7.828125 10.578125 8.710938 C 9.488281 9.589844 8.789063 10.710938 8.480469 12.070313 C 7.371094 12.328125 6.460938 12.898438 5.75 13.800781 C 4.988281 14.710938 4.640625 15.730469 4.640625 16.878906 Z M 11.578125 17.511719 C 11.578125 17.761719 11.660156 17.96875 11.820313 18.148438 C 11.96875 18.300781 12.171875 18.378906 12.429688 18.378906 C 12.671875 18.378906 12.878906 18.300781 13.050781 18.148438 L 14.160156 17.011719 L 14.160156 20.988281 C 14.160156 21.230469 14.238281 21.429688 14.390625 21.601563 C 14.550781 21.769531 14.738281 21.851563 14.980469 21.851563 C 15.210938 21.851563 15.410156 21.769531 15.578125 21.601563 C 15.75 21.429688 15.828125 21.230469 15.828125 20.988281 L 15.828125 17.050781 L 16.949219 18.160156 C 17.351563 18.46875 17.761719 18.46875 18.171875 18.160156 C 18.328125 18.011719 18.410156 17.800781 18.410156 17.539063 C 18.410156 17.300781 18.328125 17.101563 18.171875 16.921875 L 15.578125 14.351563 C 15.421875 14.191406 15.21875 14.109375 14.980469 14.109375 C 14.738281 14.109375 14.539063 14.191406 14.390625 14.351563 L 11.808594 16.921875 C 11.660156 17.078125 11.578125 17.269531 11.578125 17.511719 Z M 11.578125 17.511719 "/>
</g>
</svg>
