<?xml version="1.0" encoding="UTF-8"?>
<svg xmlns="http://www.w3.org/2000/svg" xmlns:xlink="http://www.w3.org/1999/xlink" width="30pt" height="30pt" viewBox="0 0 30 30" version="1.1">
<g id="surface81">
<path style=" stroke:none;fill-rule:nonzero;fill:rgb(0%,0%,0%);fill-opacity:1;" d="M 1.480469 16.878906 C 1.480469 18.21875 1.949219 19.371094 2.878906 20.328125 C 3.808594 21.289063 4.949219 21.800781 6.28125 21.859375 C 6.398438 21.859375 6.460938 21.800781 6.460938 21.691406 L 6.460938 20.351563 C 6.460938 20.230469 6.398438 20.171875 6.28125 20.171875 C 5.421875 20.128906 4.691406 19.78125 4.089844 19.140625 C 3.488281 18.5 3.191406 17.738281 3.191406 16.878906 C 3.191406 16.050781 3.46875 15.328125 4.039063 14.710938 C 4.609375 14.089844 5.308594 13.738281 6.140625 13.640625 L 6.671875 13.601563 C 6.800781 13.601563 6.871094 13.539063 6.871094 13.421875 L 6.941406 12.871094 C 7.050781 11.789063 7.5 10.878906 8.308594 10.160156 C 9.121094 9.429688 10.070313 9.070313 11.171875 9.070313 C 12.261719 9.070313 13.210938 9.429688 14.03125 10.160156 C 14.851563 10.890625 15.320313 11.789063 15.429688 12.871094 L 15.5 13.449219 C 15.5 13.570313 15.558594 13.640625 15.671875 13.640625 L 17.289063 13.640625 C 18.179688 13.640625 18.960938 13.960938 19.609375 14.601563 C 20.261719 15.238281 20.589844 16 20.589844 16.871094 C 20.589844 17.738281 20.289063 18.488281 19.679688 19.128906 C 19.070313 19.769531 18.339844 20.109375 17.488281 20.160156 C 17.359375 20.160156 17.289063 20.21875 17.289063 20.339844 L 17.289063 21.679688 C 17.289063 21.789063 17.359375 21.851563 17.488281 21.851563 C 18.828125 21.808594 19.960938 21.300781 20.878906 20.339844 C 21.808594 19.371094 22.269531 18.21875 22.269531 16.878906 C 22.269531 16.140625 22.128906 15.46875 21.859375 14.871094 C 22.648438 13.910156 23.039063 12.800781 23.039063 11.539063 C 23.039063 10.601563 22.800781 9.71875 22.328125 8.910156 C 21.851563 8.101563 21.210938 7.460938 20.398438 6.980469 C 19.589844 6.511719 18.710938 6.269531 17.769531 6.269531 C 16.210938 6.269531 14.910156 6.851563 13.871094 8.019531 C 13.070313 7.578125 12.171875 7.359375 11.160156 7.359375 C 9.75 7.359375 8.488281 7.800781 7.398438 8.671875 C 6.308594 9.539063 5.601563 10.671875 5.289063 12.039063 C 4.179688 12.300781 3.269531 12.878906 2.550781 13.78125 C 1.839844 14.699219 1.480469 15.730469 1.480469 16.878906 Z M 6.820313 23.941406 C 6.921875 24.160156 7.070313 24.308594 7.28125 24.390625 C 7.480469 24.488281 7.691406 24.5 7.910156 24.410156 C 8.128906 24.328125 8.28125 24.179688 8.359375 23.960938 C 8.460938 23.738281 8.46875 23.53125 8.378906 23.308594 C 8.300781 23.101563 8.148438 22.949219 7.929688 22.871094 C 7.730469 22.761719 7.519531 22.75 7.308594 22.839844 C 7.089844 22.929688 6.941406 23.078125 6.839844 23.308594 C 6.738281 23.488281 6.730469 23.699219 6.820313 23.941406 Z M 7.460938 21.101563 C 7.460938 21.238281 7.488281 21.371094 7.550781 21.480469 C 7.738281 21.789063 8.039063 21.941406 8.441406 21.941406 C 8.761719 21.941406 8.988281 21.71875 9.128906 21.289063 L 10.171875 18.070313 C 10.25 17.828125 10.230469 17.601563 10.101563 17.398438 C 9.96875 17.199219 9.789063 17.070313 9.550781 17.03125 C 9.339844 16.980469 9.128906 17 8.929688 17.101563 C 8.730469 17.210938 8.589844 17.378906 8.519531 17.601563 L 7.488281 20.820313 C 7.46875 20.921875 7.460938 21.019531 7.460938 21.101563 Z M 9.328125 26.71875 C 9.328125 26.851563 9.351563 26.949219 9.378906 27.011719 C 9.46875 27.230469 9.621094 27.378906 9.828125 27.460938 C 9.921875 27.511719 10.039063 27.53125 10.179688 27.53125 C 10.238281 27.53125 10.339844 27.511719 10.480469 27.46875 C 10.699219 27.390625 10.859375 27.238281 10.949219 27.019531 C 11.039063 26.800781 11.050781 26.578125 10.949219 26.359375 C 10.851563 26.140625 10.699219 25.988281 10.5 25.910156 C 10.300781 25.828125 10.089844 25.828125 9.878906 25.910156 C 9.691406 25.980469 9.550781 26.101563 9.460938 26.261719 C 9.371094 26.421875 9.328125 26.578125 9.328125 26.71875 Z M 9.941406 4.570313 C 9.941406 4.820313 10.019531 5.019531 10.179688 5.171875 L 10.828125 5.820313 C 10.988281 5.980469 11.171875 6.070313 11.371094 6.089844 C 11.578125 6.121094 11.78125 6.039063 11.980469 5.859375 C 12.179688 5.679688 12.28125 5.460938 12.28125 5.21875 C 12.28125 4.980469 12.199219 4.78125 12.039063 4.621094 L 11.398438 3.980469 C 11.210938 3.808594 11.011719 3.730469 10.78125 3.730469 C 10.539063 3.730469 10.328125 3.808594 10.171875 3.96875 C 10.019531 4.140625 9.941406 4.339844 9.941406 4.570313 Z M 10.058594 24.03125 C 10.058594 24.191406 10.109375 24.351563 10.21875 24.511719 C 10.328125 24.671875 10.488281 24.78125 10.699219 24.839844 C 10.808594 24.859375 10.890625 24.878906 10.941406 24.878906 C 11.089844 24.878906 11.21875 24.851563 11.320313 24.800781 C 11.519531 24.71875 11.660156 24.53125 11.75 24.230469 L 13.550781 18.089844 C 13.621094 17.851563 13.601563 17.640625 13.488281 17.441406 C 13.378906 17.238281 13.21875 17.109375 12.988281 17.050781 C 12.75 16.980469 12.53125 17 12.328125 17.109375 C 12.128906 17.21875 11.988281 17.378906 11.921875 17.621094 L 10.078125 23.808594 C 10.070313 23.921875 10.058594 24 10.058594 24.03125 Z M 13.511719 23.640625 C 13.511719 23.769531 13.53125 23.871094 13.578125 23.949219 C 13.671875 24.160156 13.820313 24.300781 14.03125 24.390625 C 14.140625 24.441406 14.25 24.46875 14.378906 24.46875 C 14.441406 24.46875 14.539063 24.449219 14.679688 24.410156 C 14.910156 24.320313 15.058594 24.179688 15.140625 23.96875 C 15.21875 23.75 15.21875 23.539063 15.140625 23.339844 C 15.058594 23.140625 14.921875 22.988281 14.71875 22.890625 C 14.488281 22.78125 14.28125 22.769531 14.058594 22.859375 C 13.851563 22.949219 13.691406 23.101563 13.578125 23.328125 C 13.53125 23.410156 13.511719 23.511719 13.511719 23.640625 Z M 14.230469 21.078125 C 14.230469 21.238281 14.28125 21.390625 14.378906 21.53125 C 14.480469 21.679688 14.640625 21.78125 14.839844 21.839844 C 14.929688 21.859375 15.011719 21.871094 15.089844 21.871094 C 15.480469 21.871094 15.738281 21.671875 15.878906 21.261719 L 16.910156 18.078125 C 16.988281 17.851563 16.960938 17.628906 16.839844 17.429688 C 16.71875 17.230469 16.550781 17.101563 16.320313 17.039063 C 16.078125 16.96875 15.871094 16.988281 15.679688 17.101563 C 15.488281 17.210938 15.359375 17.371094 15.28125 17.609375 L 14.261719 20.808594 C 14.25 20.941406 14.230469 21.03125 14.230469 21.078125 Z M 15.300781 9 C 15.96875 8.359375 16.800781 8.03125 17.78125 8.03125 C 18.761719 8.03125 19.589844 8.371094 20.28125 9.058594 C 20.96875 9.738281 21.320313 10.570313 21.320313 11.550781 C 21.320313 12.171875 21.148438 12.789063 20.800781 13.398438 C 19.839844 12.441406 18.679688 11.960938 17.289063 11.960938 L 17 11.960938 C 16.699219 10.800781 16.140625 9.808594 15.300781 9 Z M 16.921875 3.730469 C 16.921875 3.96875 17 4.171875 17.171875 4.339844 C 17.339844 4.511719 17.539063 4.589844 17.78125 4.589844 C 18.011719 4.589844 18.210938 4.511719 18.371094 4.339844 C 18.53125 4.171875 18.609375 3.96875 18.609375 3.730469 L 18.609375 1.671875 C 18.609375 1.429688 18.53125 1.230469 18.371094 1.058594 C 18.210938 0.890625 18.019531 0.808594 17.78125 0.808594 C 17.539063 0.808594 17.339844 0.890625 17.171875 1.058594 C 17 1.230469 16.921875 1.429688 16.921875 1.671875 Z M 22.46875 6.019531 C 22.46875 6.261719 22.550781 6.460938 22.71875 6.621094 C 22.871094 6.789063 23.058594 6.878906 23.300781 6.878906 C 23.53125 6.878906 23.738281 6.789063 23.898438 6.621094 L 25.339844 5.179688 C 25.519531 5.03125 25.609375 4.828125 25.609375 4.578125 C 25.609375 4.339844 25.519531 4.140625 25.351563 3.96875 C 25.179688 3.800781 24.96875 3.71875 24.738281 3.71875 C 24.519531 3.71875 24.328125 3.808594 24.171875 3.988281 L 22.71875 5.421875 C 22.558594 5.570313 22.46875 5.78125 22.46875 6.019531 Z M 23.28125 17.921875 C 23.28125 18.148438 23.359375 18.351563 23.519531 18.519531 L 24.179688 19.148438 C 24.320313 19.328125 24.519531 19.421875 24.78125 19.421875 C 25.019531 19.421875 25.210938 19.328125 25.351563 19.148438 C 25.53125 18.988281 25.621094 18.789063 25.621094 18.550781 C 25.621094 18.308594 25.53125 18.109375 25.351563 17.941406 L 24.699219 17.320313 C 24.539063 17.140625 24.351563 17.058594 24.121094 17.058594 C 23.890625 17.058594 23.691406 17.140625 23.519531 17.308594 C 23.359375 17.480469 23.28125 17.691406 23.28125 17.921875 Z M 24.738281 11.550781 C 24.738281 11.789063 24.828125 11.988281 25 12.148438 C 25.179688 12.328125 25.378906 12.410156 25.621094 12.410156 L 27.648438 12.410156 C 27.890625 12.410156 28.089844 12.328125 28.261719 12.160156 C 28.429688 11.988281 28.519531 11.789063 28.519531 11.550781 C 28.519531 11.320313 28.441406 11.121094 28.269531 10.960938 C 28.101563 10.800781 27.890625 10.71875 27.648438 10.71875 L 25.621094 10.71875 C 25.371094 10.71875 25.160156 10.800781 24.988281 10.960938 C 24.828125 11.121094 24.738281 11.320313 24.738281 11.550781 Z M 24.738281 11.550781 "/>
</g>
</svg>
