<?xml version="1.0" encoding="UTF-8"?>
<svg xmlns="http://www.w3.org/2000/svg" xmlns:xlink="http://www.w3.org/1999/xlink" width="30pt" height="30pt" viewBox="0 0 30 30" version="1.1">
<g id="surface156">
<path style=" stroke:none;fill-rule:nonzero;fill:rgb(0%,0%,0%);fill-opacity:1;" d="M 3.089844 13.429688 C 3.089844 13.699219 3.179688 13.921875 3.371094 14.101563 C 3.558594 14.28125 3.800781 14.359375 4.089844 14.359375 L 5.78125 14.359375 C 6.050781 14.359375 6.28125 14.269531 6.46875 14.089844 C 6.660156 13.910156 6.761719 13.691406 6.761719 13.429688 C 6.761719 13.140625 6.671875 12.898438 6.480469 12.71875 C 6.289063 12.539063 6.058594 12.441406 5.789063 12.441406 L 4.089844 12.441406 C 3.800781 12.441406 3.558594 12.53125 3.371094 12.71875 C 3.179688 12.890625 3.089844 13.128906 3.089844 13.429688 Z M 4.859375 19.609375 C 4.859375 20.578125 5.210938 21.421875 5.921875 22.128906 C 6.628906 22.839844 7.460938 23.191406 8.429688 23.191406 L 15.289063 23.191406 C 16.261719 23.191406 17.089844 22.839844 17.78125 22.140625 C 18.46875 21.441406 18.820313 20.601563 18.820313 19.609375 C 18.820313 19.128906 18.75 18.71875 18.609375 18.378906 C 19.441406 17.851563 20.101563 17.140625 20.578125 16.261719 C 21.058594 15.378906 21.308594 14.429688 21.308594 13.421875 C 21.308594 12.609375 21.148438 11.828125 20.828125 11.089844 C 20.511719 10.351563 20.078125 9.710938 19.550781 9.179688 C 19.019531 8.648438 18.378906 8.21875 17.640625 7.898438 C 16.898438 7.578125 16.128906 7.421875 15.320313 7.421875 C 14.230469 7.421875 13.21875 7.691406 12.300781 8.230469 C 11.378906 8.769531 10.648438 9.5 10.121094 10.410156 C 9.589844 11.328125 9.328125 12.328125 9.328125 13.421875 L 9.328125 13.761719 C 8.328125 14.328125 7.671875 15.160156 7.351563 16.25 C 6.589844 16.488281 5.988281 16.910156 5.539063 17.519531 C 5.089844 18.128906 4.859375 18.828125 4.859375 19.609375 Z M 6.421875 5.449219 C 6.421875 5.730469 6.511719 5.960938 6.679688 6.121094 L 8.289063 7.808594 C 8.761719 8.171875 9.230469 8.171875 9.699219 7.808594 C 9.890625 7.621094 9.980469 7.390625 9.980469 7.109375 C 9.980469 6.839844 9.890625 6.609375 9.699219 6.410156 L 8.050781 4.761719 C 7.839844 4.570313 7.601563 4.46875 7.351563 4.46875 C 7.070313 4.46875 6.839844 4.558594 6.671875 4.75 C 6.5 4.941406 6.421875 5.171875 6.421875 5.449219 Z M 6.839844 19.609375 C 6.839844 19.191406 6.96875 18.828125 7.238281 18.53125 C 7.511719 18.230469 7.851563 18.058594 8.261719 18.019531 L 8.878906 17.941406 C 9.011719 17.941406 9.078125 17.859375 9.078125 17.710938 L 9.171875 17.148438 C 9.238281 16.570313 9.480469 16.089844 9.898438 15.710938 C 10.320313 15.320313 10.808594 15.128906 11.378906 15.128906 C 11.960938 15.128906 12.46875 15.320313 12.890625 15.710938 C 13.320313 16.101563 13.570313 16.578125 13.640625 17.148438 L 13.71875 17.800781 C 13.78125 17.949219 13.859375 18.03125 13.960938 18.03125 L 15.28125 18.03125 C 15.710938 18.03125 16.078125 18.191406 16.398438 18.5 C 16.71875 18.808594 16.871094 19.179688 16.871094 19.621094 C 16.871094 20.070313 16.710938 20.449219 16.398438 20.769531 C 16.089844 21.089844 15.710938 21.25 15.28125 21.25 L 8.429688 21.25 C 7.980469 21.25 7.601563 21.089844 7.300781 20.769531 C 6.988281 20.449219 6.839844 20.058594 6.839844 19.609375 Z M 11.261719 13.21875 C 11.328125 12.128906 11.75 11.210938 12.53125 10.460938 C 13.300781 9.71875 14.238281 9.339844 15.320313 9.339844 C 16.429688 9.339844 17.378906 9.738281 18.160156 10.53125 C 18.941406 11.320313 19.328125 12.289063 19.328125 13.421875 C 19.328125 14.121094 19.160156 14.769531 18.820313 15.371094 C 18.480469 15.96875 18.019531 16.449219 17.441406 16.820313 C 16.851563 16.328125 16.171875 16.089844 15.410156 16.089844 C 15.121094 15.210938 14.601563 14.519531 13.871094 14 C 13.140625 13.480469 12.308594 13.21875 11.390625 13.21875 Z M 14.351563 4.46875 C 14.351563 4.738281 14.449219 4.980469 14.640625 5.171875 C 14.828125 5.359375 15.058594 5.460938 15.328125 5.460938 C 15.609375 5.460938 15.839844 5.359375 16.03125 5.171875 C 16.21875 4.980469 16.320313 4.75 16.320313 4.46875 L 16.320313 2.128906 C 16.320313 1.871094 16.21875 1.648438 16.03125 1.46875 C 15.839844 1.289063 15.609375 1.199219 15.328125 1.199219 C 15.058594 1.199219 14.828125 1.289063 14.640625 1.46875 C 14.449219 1.648438 14.351563 1.871094 14.351563 2.128906 Z M 20.671875 19.699219 C 20.671875 19.96875 20.761719 20.199219 20.941406 20.398438 L 22.578125 22.019531 C 23 22.441406 23.46875 22.441406 23.988281 22.019531 C 24.171875 21.851563 24.25 21.628906 24.25 21.339844 C 24.25 21.070313 24.160156 20.851563 23.988281 20.671875 L 22.300781 19 C 22.121094 18.828125 21.890625 18.75 21.621094 18.75 C 21.339844 18.75 21.121094 18.839844 20.941406 19.019531 C 20.761719 19.199219 20.671875 19.429688 20.671875 19.699219 Z M 20.671875 7.089844 C 20.671875 7.371094 20.761719 7.609375 20.941406 7.808594 C 21.121094 7.988281 21.351563 8.078125 21.621094 8.078125 C 21.890625 8.078125 22.121094 7.988281 22.300781 7.808594 L 23.988281 6.121094 C 24.171875 5.949219 24.25 5.730469 24.25 5.449219 C 24.25 5.171875 24.148438 4.941406 23.960938 4.761719 C 23.769531 4.578125 23.539063 4.480469 23.261719 4.480469 C 23 4.480469 22.769531 4.578125 22.578125 4.769531 L 20.941406 6.398438 C 20.761719 6.578125 20.671875 6.808594 20.671875 7.089844 Z M 23.25 13.429688 C 23.25 13.699219 23.339844 13.921875 23.53125 14.101563 C 23.71875 14.28125 23.960938 14.359375 24.25 14.359375 L 25.941406 14.359375 C 26.210938 14.359375 26.441406 14.269531 26.628906 14.089844 C 26.820313 13.910156 26.921875 13.691406 26.921875 13.429688 C 26.921875 13.140625 26.828125 12.898438 26.640625 12.71875 C 26.449219 12.539063 26.21875 12.441406 25.949219 12.441406 L 24.261719 12.441406 C 23.96875 12.441406 23.730469 12.53125 23.539063 12.71875 C 23.351563 12.890625 23.25 13.128906 23.25 13.429688 Z M 23.25 13.429688 "/>
</g>
</svg>
