<?xml version="1.0" encoding="UTF-8"?>
<svg xmlns="http://www.w3.org/2000/svg" xmlns:xlink="http://www.w3.org/1999/xlink" width="30pt" height="30pt" viewBox="0 0 30 30" version="1.1">
<g id="surface106">
<path style=" stroke:none;fill-rule:nonzero;fill:rgb(0%,0%,0%);fill-opacity:1;" d="M 1.480469 16.910156 C 1.480469 18.03125 1.808594 19.039063 2.480469 19.921875 C 3.148438 20.800781 4.011719 21.390625 5.058594 21.691406 C 5.148438 21.699219 5.230469 21.679688 5.300781 21.609375 L 6.46875 20.199219 C 5.578125 20.199219 4.808594 19.878906 4.171875 19.230469 C 3.53125 18.578125 3.210938 17.808594 3.210938 16.898438 C 3.210938 16.070313 3.488281 15.351563 4.058594 14.730469 C 4.628906 14.121094 5.328125 13.761719 6.171875 13.660156 L 6.660156 13.628906 C 6.789063 13.628906 6.859375 13.570313 6.859375 13.441406 L 6.929688 12.898438 C 7.039063 11.820313 7.5 10.910156 8.308594 10.179688 C 9.121094 9.449219 10.078125 9.078125 11.171875 9.078125 C 12.269531 9.078125 13.230469 9.449219 14.050781 10.179688 C 14.871094 10.910156 15.328125 11.820313 15.441406 12.898438 L 15.511719 13.488281 C 15.550781 13.601563 15.628906 13.660156 15.730469 13.660156 L 17.371094 13.660156 C 18.25 13.660156 19.011719 13.980469 19.648438 14.609375 C 20.289063 15.238281 20.609375 16.011719 20.609375 16.890625 C 20.609375 17.730469 20.328125 18.46875 19.761719 19.101563 C 19.191406 19.730469 18.511719 20.078125 17.691406 20.148438 C 17.199219 20.210938 16.898438 20.300781 16.789063 20.429688 L 14.601563 23.25 C 14.460938 23.441406 14.410156 23.648438 14.441406 23.878906 C 14.46875 24.109375 14.570313 24.300781 14.75 24.441406 C 14.898438 24.609375 15.101563 24.679688 15.351563 24.648438 C 15.601563 24.621094 15.800781 24.5 15.949219 24.289063 L 17.871094 21.828125 C 18.691406 21.75 19.441406 21.480469 20.121094 21.011719 C 20.800781 20.550781 21.328125 19.949219 21.730469 19.21875 C 22.121094 18.488281 22.320313 17.710938 22.320313 16.878906 C 22.320313 16.160156 22.179688 15.488281 21.898438 14.871094 C 22.691406 13.910156 23.078125 12.800781 23.078125 11.539063 C 23.078125 10.828125 22.941406 10.160156 22.660156 9.511719 C 22.378906 8.859375 22 8.300781 21.53125 7.828125 C 21.058594 7.359375 20.5 6.988281 19.851563 6.710938 C 19.199219 6.429688 18.519531 6.289063 17.808594 6.289063 C 16.308594 6.289063 15.019531 6.871094 13.929688 8.03125 C 13.140625 7.589844 12.230469 7.371094 11.210938 7.371094 C 9.800781 7.371094 8.550781 7.808594 7.460938 8.691406 C 6.371094 9.570313 5.679688 10.691406 5.390625 12.058594 C 4.261719 12.320313 3.328125 12.890625 2.601563 13.789063 C 1.871094 14.691406 1.480469 15.761719 1.480469 16.910156 Z M 5.378906 25.148438 C 5.449219 25.371094 5.609375 25.53125 5.839844 25.628906 C 6.058594 25.730469 6.28125 25.730469 6.511719 25.640625 C 6.738281 25.550781 6.890625 25.390625 6.96875 25.171875 C 7.058594 24.960938 7.070313 24.761719 6.96875 24.550781 C 6.878906 24.339844 6.730469 24.191406 6.519531 24.089844 C 6.300781 23.988281 6.078125 23.980469 5.859375 24.070313 C 5.640625 24.160156 5.488281 24.308594 5.410156 24.53125 C 5.320313 24.78125 5.308594 24.988281 5.378906 25.148438 Z M 7.191406 22.410156 L 7.191406 22.519531 C 7.210938 22.738281 7.308594 22.921875 7.488281 23.070313 C 7.671875 23.21875 7.871094 23.289063 8.121094 23.269531 C 8.359375 23.25 8.550781 23.148438 8.691406 22.980469 L 10.871094 20.160156 C 11.011719 19.980469 11.078125 19.769531 11.058594 19.53125 C 11.039063 19.289063 10.941406 19.101563 10.769531 18.960938 C 10.589844 18.808594 10.378906 18.75 10.140625 18.769531 C 9.898438 18.789063 9.699219 18.898438 9.539063 19.078125 L 7.390625 21.878906 C 7.25 22.039063 7.191406 22.21875 7.191406 22.410156 Z M 7.699219 27.269531 C 7.699219 27.328125 7.71875 27.429688 7.761719 27.570313 C 7.851563 27.789063 8 27.941406 8.21875 28.03125 C 8.328125 28.070313 8.449219 28.101563 8.578125 28.101563 C 8.671875 28.101563 8.78125 28.078125 8.890625 28.050781 C 9.101563 27.96875 9.25 27.820313 9.328125 27.609375 C 9.429688 27.390625 9.441406 27.171875 9.351563 26.941406 C 9.269531 26.710938 9.121094 26.558594 8.898438 26.480469 C 8.679688 26.378906 8.460938 26.378906 8.230469 26.46875 C 8 26.558594 7.851563 26.710938 7.78125 26.921875 C 7.730469 27.03125 7.699219 27.148438 7.699219 27.269531 Z M 9.371094 24.898438 L 9.371094 25 C 9.390625 25.230469 9.5 25.421875 9.699219 25.578125 C 9.851563 25.738281 10.050781 25.808594 10.300781 25.78125 C 10.550781 25.75 10.75 25.640625 10.898438 25.441406 L 15.039063 20.210938 C 15.179688 20.011719 15.230469 19.800781 15.210938 19.570313 C 15.191406 19.339844 15.078125 19.148438 14.898438 18.980469 C 14.71875 18.839844 14.511719 18.78125 14.28125 18.808594 C 14.050781 18.839844 13.859375 18.941406 13.71875 19.121094 L 9.558594 24.378906 C 9.429688 24.53125 9.371094 24.710938 9.371094 24.898438 Z M 9.949219 4.609375 C 9.949219 4.851563 10.039063 5.050781 10.21875 5.199219 L 10.828125 5.859375 C 10.988281 6.019531 11.171875 6.101563 11.371094 6.121094 C 11.578125 6.148438 11.78125 6.078125 11.980469 5.898438 C 12.179688 5.71875 12.28125 5.511719 12.28125 5.261719 C 12.28125 5.039063 12.199219 4.828125 12.039063 4.660156 L 11.398438 4.011719 C 11.25 3.851563 11.058594 3.769531 10.820313 3.769531 C 10.578125 3.769531 10.371094 3.851563 10.199219 4.011719 C 10.039063 4.179688 9.949219 4.378906 9.949219 4.609375 Z M 12.898438 26.039063 C 12.898438 26.160156 12.921875 26.261719 12.96875 26.351563 C 13.058594 26.570313 13.210938 26.71875 13.421875 26.808594 C 13.53125 26.859375 13.640625 26.890625 13.769531 26.890625 C 13.828125 26.890625 13.929688 26.871094 14.070313 26.828125 C 14.289063 26.738281 14.449219 26.589844 14.53125 26.371094 C 14.628906 26.148438 14.640625 25.929688 14.550781 25.710938 C 14.46875 25.488281 14.320313 25.339844 14.101563 25.261719 C 13.878906 25.160156 13.660156 25.148438 13.429688 25.238281 C 13.199219 25.328125 13.050781 25.480469 12.96875 25.691406 C 12.921875 25.800781 12.898438 25.921875 12.898438 26.039063 Z M 15.300781 9.03125 C 16.011719 8.390625 16.828125 8.058594 17.78125 8.058594 C 18.769531 8.058594 19.609375 8.398438 20.308594 9.089844 C 21.011719 9.78125 21.359375 10.601563 21.359375 11.578125 C 21.359375 12.238281 21.191406 12.859375 20.839844 13.441406 C 19.871094 12.46875 18.710938 11.988281 17.359375 11.988281 L 17.019531 11.988281 C 16.75 10.828125 16.179688 9.851563 15.300781 9.03125 Z M 16.929688 3.769531 C 16.929688 4 17.011719 4.199219 17.179688 4.359375 C 17.351563 4.519531 17.550781 4.601563 17.78125 4.601563 C 18.019531 4.601563 18.230469 4.519531 18.398438 4.359375 C 18.570313 4.199219 18.648438 4 18.648438 3.769531 L 18.648438 1.699219 C 18.648438 1.46875 18.558594 1.269531 18.390625 1.101563 C 18.21875 0.929688 18.011719 0.851563 17.78125 0.851563 C 17.550781 0.851563 17.351563 0.929688 17.179688 1.101563 C 17.011719 1.269531 16.929688 1.46875 16.929688 1.699219 Z M 22.5 6.050781 C 22.5 6.289063 22.570313 6.488281 22.71875 6.648438 C 22.898438 6.820313 23.101563 6.898438 23.328125 6.910156 C 23.558594 6.910156 23.75 6.828125 23.898438 6.648438 L 25.398438 5.199219 C 25.558594 5.039063 25.640625 4.828125 25.640625 4.589844 C 25.640625 4.351563 25.550781 4.148438 25.378906 3.980469 C 25.210938 3.808594 25.011719 3.71875 24.78125 3.71875 C 24.558594 3.71875 24.359375 3.800781 24.179688 3.96875 L 22.730469 5.441406 C 22.578125 5.609375 22.5 5.808594 22.5 6.050781 Z M 23.28125 17.949219 C 23.28125 18.191406 23.359375 18.390625 23.519531 18.550781 L 24.179688 19.179688 C 24.339844 19.339844 24.519531 19.429688 24.71875 19.449219 L 24.78125 19.449219 C 24.960938 19.449219 25.160156 19.359375 25.398438 19.179688 C 25.558594 19.019531 25.640625 18.820313 25.640625 18.601563 C 25.640625 18.359375 25.558594 18.148438 25.398438 17.96875 L 24.738281 17.351563 C 24.578125 17.179688 24.378906 17.101563 24.148438 17.101563 C 23.910156 17.101563 23.699219 17.179688 23.53125 17.351563 C 23.371094 17.511719 23.28125 17.71875 23.28125 17.949219 Z M 24.78125 11.578125 C 24.78125 11.820313 24.859375 12.019531 25.019531 12.179688 C 25.179688 12.359375 25.378906 12.449219 25.621094 12.449219 L 27.660156 12.449219 C 27.898438 12.449219 28.101563 12.359375 28.269531 12.191406 C 28.441406 12.019531 28.519531 11.808594 28.519531 11.578125 C 28.519531 11.351563 28.441406 11.148438 28.269531 10.988281 C 28.101563 10.828125 27.898438 10.75 27.660156 10.75 L 25.621094 10.75 C 25.378906 10.75 25.179688 10.828125 25.019531 10.988281 C 24.859375 11.148438 24.78125 11.351563 24.78125 11.578125 Z M 24.78125 11.578125 "/>
</g>
</svg>
