<?xml version="1.0" encoding="UTF-8"?>
<svg xmlns="http://www.w3.org/2000/svg" xmlns:xlink="http://www.w3.org/1999/xlink" width="30pt" height="30pt" viewBox="0 0 30 30" version="1.1">
<g id="surface111">
<path style=" stroke:none;fill-rule:nonzero;fill:rgb(0%,0%,0%);fill-opacity:1;" d="M 1.511719 16.890625 C 1.511719 18.21875 1.96875 19.371094 2.898438 20.328125 C 3.828125 21.289063 4.960938 21.800781 6.308594 21.859375 C 6.421875 21.859375 6.480469 21.800781 6.480469 21.691406 L 6.480469 20.351563 C 6.480469 20.238281 6.421875 20.179688 6.308594 20.179688 C 5.449219 20.140625 4.71875 19.789063 4.121094 19.148438 C 3.519531 18.511719 3.21875 17.75 3.21875 16.890625 C 3.21875 16.070313 3.5 15.351563 4.070313 14.730469 C 4.640625 14.109375 5.339844 13.761719 6.171875 13.660156 L 6.699219 13.609375 C 6.828125 13.609375 6.898438 13.550781 6.898438 13.441406 L 6.96875 12.898438 C 7.078125 11.820313 7.53125 10.910156 8.339844 10.179688 C 9.148438 9.449219 10.101563 9.078125 11.191406 9.078125 C 12.28125 9.078125 13.230469 9.449219 14.050781 10.179688 C 14.871094 10.910156 15.328125 11.820313 15.449219 12.898438 L 15.519531 13.46875 C 15.519531 13.589844 15.578125 13.660156 15.691406 13.660156 L 17.308594 13.660156 C 18.199219 13.660156 18.960938 13.980469 19.609375 14.621094 C 20.261719 15.261719 20.578125 16.011719 20.578125 16.890625 C 20.578125 17.761719 20.28125 18.511719 19.679688 19.148438 C 19.078125 19.789063 18.351563 20.128906 17.5 20.179688 C 17.378906 20.179688 17.308594 20.238281 17.308594 20.351563 L 17.308594 21.691406 C 17.308594 21.800781 17.371094 21.859375 17.5 21.859375 C 18.828125 21.820313 19.960938 21.308594 20.890625 20.351563 C 21.820313 19.378906 22.28125 18.230469 22.28125 16.898438 C 22.28125 16.179688 22.140625 15.511719 21.859375 14.890625 C 22.640625 13.921875 23.03125 12.820313 23.03125 11.578125 C 23.03125 10.628906 22.789063 9.75 22.320313 8.941406 C 21.851563 8.128906 21.210938 7.488281 20.398438 7.019531 C 19.589844 6.550781 18.71875 6.320313 17.78125 6.320313 C 16.21875 6.320313 14.929688 6.898438 13.898438 8.058594 C 13.078125 7.621094 12.179688 7.398438 11.191406 7.398438 C 9.78125 7.398438 8.519531 7.839844 7.429688 8.71875 C 6.339844 9.601563 5.640625 10.71875 5.328125 12.078125 C 4.21875 12.339844 3.308594 12.921875 2.589844 13.820313 C 1.871094 14.71875 1.511719 15.738281 1.511719 16.890625 Z M 6.910156 23.75 C 6.910156 23.921875 6.960938 24.078125 7.070313 24.238281 C 7.179688 24.398438 7.339844 24.511719 7.558594 24.570313 C 7.671875 24.589844 7.761719 24.609375 7.828125 24.609375 C 8.21875 24.609375 8.480469 24.398438 8.601563 23.96875 L 10.179688 18.089844 C 10.25 17.851563 10.21875 17.628906 10.101563 17.421875 C 9.980469 17.210938 9.800781 17.089844 9.570313 17.039063 C 9.351563 16.96875 9.140625 16.988281 8.941406 17.109375 C 8.738281 17.21875 8.601563 17.390625 8.53125 17.621094 L 6.949219 23.53125 C 6.929688 23.660156 6.910156 23.730469 6.910156 23.75 Z M 9.519531 26.828125 C 9.519531 27.019531 9.570313 27.191406 9.671875 27.351563 C 9.769531 27.511719 9.941406 27.609375 10.191406 27.648438 C 10.300781 27.671875 10.390625 27.691406 10.449219 27.691406 C 10.609375 27.691406 10.761719 27.628906 10.898438 27.519531 C 11.039063 27.398438 11.128906 27.238281 11.171875 27.039063 L 13.570313 18.109375 C 13.628906 17.878906 13.609375 17.660156 13.5 17.46875 C 13.390625 17.28125 13.21875 17.140625 13 17.070313 C 12.769531 17 12.550781 17.019531 12.351563 17.140625 C 12.148438 17.25 12.011719 17.421875 11.949219 17.648438 L 9.550781 26.578125 C 9.53125 26.730469 9.519531 26.820313 9.519531 26.828125 Z M 9.941406 4.601563 C 9.941406 4.839844 10.019531 5.039063 10.191406 5.210938 L 10.839844 5.871094 C 11.03125 6.019531 11.238281 6.089844 11.460938 6.089844 C 11.671875 6.089844 11.871094 6.011719 12.039063 5.859375 C 12.210938 5.699219 12.300781 5.511719 12.300781 5.269531 C 12.300781 5.03125 12.21875 4.808594 12.058594 4.628906 L 11.421875 3.980469 C 11.238281 3.808594 11.039063 3.730469 10.820313 3.730469 C 10.578125 3.730469 10.371094 3.820313 10.199219 3.988281 C 10.03125 4.160156 9.941406 4.371094 9.941406 4.601563 Z M 13.671875 23.769531 C 13.671875 23.929688 13.71875 24.089844 13.820313 24.238281 C 13.921875 24.390625 14.078125 24.5 14.28125 24.558594 C 14.390625 24.578125 14.480469 24.601563 14.53125 24.601563 C 14.699219 24.601563 14.871094 24.550781 15.019531 24.449219 C 15.171875 24.351563 15.269531 24.191406 15.320313 23.960938 L 16.898438 18.078125 C 16.960938 17.851563 16.941406 17.628906 16.828125 17.441406 C 16.71875 17.238281 16.550781 17.109375 16.328125 17.039063 C 16.089844 16.96875 15.878906 16.988281 15.679688 17.109375 C 15.480469 17.21875 15.351563 17.390625 15.289063 17.621094 L 13.710938 23.53125 C 13.691406 23.679688 13.671875 23.761719 13.671875 23.769531 Z M 15.300781 9.03125 C 16.011719 8.359375 16.828125 8.03125 17.78125 8.03125 C 18.761719 8.03125 19.601563 8.378906 20.28125 9.070313 C 20.96875 9.761719 21.308594 10.601563 21.308594 11.589844 C 21.308594 12.210938 21.140625 12.828125 20.789063 13.441406 C 19.820313 12.46875 18.660156 11.988281 17.300781 11.988281 L 16.96875 11.988281 C 16.699219 10.808594 16.140625 9.828125 15.300781 9.03125 Z M 16.921875 3.78125 C 16.921875 4.011719 17 4.210938 17.171875 4.371094 C 17.339844 4.53125 17.539063 4.609375 17.78125 4.609375 C 18.011719 4.609375 18.210938 4.53125 18.371094 4.378906 C 18.53125 4.21875 18.609375 4.03125 18.609375 3.789063 L 18.609375 1.730469 C 18.609375 1.46875 18.53125 1.261719 18.378906 1.101563 C 18.21875 0.941406 18.03125 0.859375 17.789063 0.859375 C 17.539063 0.859375 17.328125 0.941406 17.171875 1.109375 C 17.011719 1.28125 16.929688 1.480469 16.929688 1.730469 L 16.929688 3.78125 Z M 22.449219 6.058594 C 22.449219 6.300781 22.539063 6.5 22.71875 6.648438 C 22.859375 6.808594 23.039063 6.890625 23.269531 6.910156 C 23.5 6.929688 23.710938 6.839844 23.890625 6.648438 L 25.328125 5.21875 C 25.511719 5.050781 25.589844 4.839844 25.589844 4.589844 C 25.589844 4.351563 25.511719 4.140625 25.339844 3.980469 C 25.171875 3.820313 24.96875 3.738281 24.730469 3.738281 C 24.519531 3.738281 24.328125 3.820313 24.148438 3.988281 L 22.71875 5.429688 C 22.539063 5.601563 22.449219 5.808594 22.449219 6.058594 Z M 23.261719 17.910156 C 23.261719 18.148438 23.339844 18.359375 23.5 18.539063 L 24.148438 19.171875 C 24.328125 19.308594 24.53125 19.378906 24.75 19.378906 L 24.769531 19.398438 C 25 19.398438 25.191406 19.320313 25.351563 19.160156 C 25.511719 19 25.589844 18.789063 25.589844 18.550781 C 25.589844 18.308594 25.5 18.121094 25.328125 17.96875 L 24.710938 17.308594 C 24.53125 17.148438 24.320313 17.070313 24.089844 17.070313 C 23.859375 17.070313 23.660156 17.148438 23.5 17.320313 C 23.339844 17.488281 23.261719 17.671875 23.261719 17.910156 Z M 24.71875 11.578125 C 24.71875 11.820313 24.808594 12.011719 24.980469 12.171875 C 25.160156 12.351563 25.359375 12.429688 25.601563 12.429688 L 27.628906 12.429688 C 27.871094 12.429688 28.070313 12.351563 28.238281 12.179688 C 28.410156 12.011719 28.488281 11.808594 28.488281 11.578125 C 28.488281 11.339844 28.410156 11.140625 28.238281 10.96875 C 28.070313 10.800781 27.871094 10.710938 27.628906 10.710938 L 25.601563 10.710938 C 25.359375 10.710938 25.160156 10.800781 24.980469 10.96875 C 24.800781 11.140625 24.71875 11.339844 24.71875 11.578125 Z M 24.71875 11.578125 "/>
</g>
</svg>
