<?xml version="1.0" encoding="UTF-8"?>
<svg xmlns="http://www.w3.org/2000/svg" xmlns:xlink="http://www.w3.org/1999/xlink" width="30pt" height="30pt" viewBox="0 0 30 30" version="1.1">
<g id="surface56">
<path style=" stroke:none;fill-rule:nonzero;fill:rgb(0%,0%,0%);fill-opacity:1;" d="M 0.351563 21.011719 C 0.351563 21.25 0.441406 21.449219 0.621094 21.609375 C 0.789063 21.78125 0.988281 21.859375 1.230469 21.859375 L 7.109375 21.859375 C 7.371094 21.859375 7.589844 21.949219 7.789063 22.140625 C 7.988281 22.328125 8.089844 22.558594 8.089844 22.820313 C 8.089844 23.078125 7.988281 23.320313 7.789063 23.511719 C 7.589844 23.699219 7.371094 23.800781 7.109375 23.800781 C 6.851563 23.800781 6.628906 23.699219 6.429688 23.5 C 6.25 23.339844 6.050781 23.261719 5.820313 23.261719 C 5.578125 23.261719 5.378906 23.339844 5.21875 23.5 C 5.058594 23.660156 4.980469 23.859375 4.980469 24.101563 C 4.980469 24.339844 5.058594 24.539063 5.21875 24.699219 C 5.75 25.230469 6.378906 25.5 7.109375 25.5 C 7.851563 25.5 8.480469 25.238281 8.988281 24.71875 C 9.511719 24.199219 9.769531 23.570313 9.769531 22.828125 C 9.769531 22.089844 9.511719 21.460938 8.988281 20.941406 C 8.46875 20.410156 7.839844 20.148438 7.109375 20.148438 L 1.230469 20.148438 C 0.988281 20.148438 0.789063 20.238281 0.609375 20.410156 C 0.429688 20.578125 0.351563 20.78125 0.351563 21.011719 Z M 0.351563 18 C 0.351563 18.21875 0.441406 18.410156 0.621094 18.570313 C 0.789063 18.738281 0.988281 18.820313 1.230469 18.820313 L 12.199219 18.820313 C 12.941406 18.820313 13.570313 18.558594 14.089844 18.039063 C 14.609375 17.519531 14.871094 16.890625 14.871094 16.148438 C 14.871094 15.410156 14.609375 14.789063 14.089844 14.269531 C 13.570313 13.761719 12.941406 13.5 12.199219 13.5 C 11.441406 13.5 10.820313 13.75 10.320313 14.261719 C 10.160156 14.421875 10.089844 14.628906 10.089844 14.871094 C 10.089844 15.109375 10.171875 15.308594 10.320313 15.46875 C 10.46875 15.621094 10.671875 15.699219 10.921875 15.699219 C 11.160156 15.699219 11.359375 15.621094 11.539063 15.46875 C 11.730469 15.28125 11.949219 15.191406 12.210938 15.191406 C 12.46875 15.191406 12.699219 15.28125 12.890625 15.46875 C 13.078125 15.660156 13.179688 15.890625 13.179688 16.148438 C 13.179688 16.421875 13.078125 16.648438 12.890625 16.839844 C 12.699219 17.03125 12.46875 17.128906 12.210938 17.128906 L 1.230469 17.128906 C 0.988281 17.128906 0.789063 17.21875 0.609375 17.390625 C 0.429688 17.570313 0.351563 17.769531 0.351563 18 Z M 3 15.648438 C 3 15.730469 3.058594 15.769531 3.171875 15.769531 L 4.601563 15.769531 C 4.671875 15.769531 4.730469 15.71875 4.800781 15.628906 C 5.019531 15.089844 5.371094 14.640625 5.851563 14.28125 C 6.320313 13.929688 6.851563 13.730469 7.449219 13.679688 L 7.980469 13.609375 C 8.101563 13.609375 8.171875 13.550781 8.171875 13.441406 L 8.238281 12.921875 C 8.351563 11.839844 8.800781 10.941406 9.609375 10.210938 C 10.421875 9.480469 11.371094 9.121094 12.460938 9.121094 C 13.558594 9.121094 14.511719 9.480469 15.320313 10.199219 C 16.128906 10.921875 16.589844 11.828125 16.699219 12.910156 L 16.769531 13.488281 C 16.769531 13.609375 16.828125 13.671875 16.949219 13.671875 L 18.578125 13.671875 C 19.480469 13.671875 20.25 13.980469 20.878906 14.609375 C 21.511719 15.238281 21.828125 16 21.828125 16.878906 C 21.828125 17.769531 21.511719 18.539063 20.878906 19.171875 C 20.25 19.800781 19.480469 20.121094 18.578125 20.121094 L 11.679688 20.121094 C 11.550781 20.121094 11.488281 20.179688 11.488281 20.300781 L 11.488281 21.671875 C 11.488281 21.78125 11.550781 21.839844 11.679688 21.839844 L 18.578125 21.839844 C 19.46875 21.839844 20.300781 21.621094 21.058594 21.171875 C 21.820313 20.730469 22.421875 20.121094 22.859375 19.359375 C 23.300781 18.601563 23.519531 17.769531 23.519531 16.878906 C 23.519531 16.140625 23.378906 15.46875 23.101563 14.851563 C 23.859375 13.859375 24.230469 12.75 24.230469 11.539063 C 24.230469 10.601563 23.988281 9.730469 23.519531 8.921875 C 23.050781 8.109375 22.410156 7.46875 21.601563 7 C 20.789063 6.53125 19.921875 6.289063 18.980469 6.289063 C 17.441406 6.289063 16.148438 6.871094 15.121094 8.019531 C 14.320313 7.609375 13.429688 7.410156 12.449219 7.410156 C 11.039063 7.410156 9.800781 7.851563 8.71875 8.71875 C 7.640625 9.589844 6.949219 10.710938 6.660156 12.058594 C 5.808594 12.261719 5.058594 12.671875 4.410156 13.289063 C 3.761719 13.910156 3.300781 14.640625 3.050781 15.480469 L 3.050781 15.519531 C 3.011719 15.589844 3 15.621094 3 15.648438 Z M 11.179688 4.621094 C 11.179688 4.851563 11.269531 5.050781 11.449219 5.21875 L 12.058594 5.871094 C 12.21875 6.03125 12.429688 6.109375 12.671875 6.109375 C 12.921875 6.109375 13.121094 6.03125 13.28125 5.878906 C 13.441406 5.730469 13.519531 5.53125 13.519531 5.28125 C 13.519531 5.039063 13.449219 4.839844 13.289063 4.679688 L 12.628906 4.03125 C 12.46875 3.859375 12.28125 3.769531 12.039063 3.769531 C 11.800781 3.769531 11.601563 3.851563 11.429688 4.019531 C 11.261719 4.191406 11.179688 4.390625 11.179688 4.621094 Z M 16.5 9.03125 C 17.21875 8.351563 18.039063 8.011719 18.980469 8.011719 C 19.949219 8.011719 20.78125 8.359375 21.488281 9.058594 C 22.191406 9.761719 22.539063 10.601563 22.539063 11.570313 C 22.539063 12.21875 22.371094 12.828125 22.019531 13.398438 C 21.058594 12.441406 19.910156 11.96875 18.558594 11.96875 L 18.21875 11.96875 C 17.988281 10.878906 17.410156 9.898438 16.5 9.03125 Z M 18.121094 3.789063 C 18.121094 4.019531 18.199219 4.21875 18.371094 4.378906 C 18.539063 4.539063 18.738281 4.621094 18.96875 4.621094 C 19.210938 4.621094 19.410156 4.539063 19.578125 4.378906 C 19.75 4.21875 19.828125 4.03125 19.828125 3.789063 L 19.828125 1.738281 C 19.828125 1.5 19.75 1.300781 19.578125 1.128906 C 19.410156 0.960938 19.210938 0.878906 18.96875 0.878906 C 18.730469 0.878906 18.53125 0.960938 18.371094 1.128906 C 18.210938 1.300781 18.121094 1.5 18.121094 1.738281 Z M 23.671875 6.058594 C 23.671875 6.300781 23.75 6.5 23.898438 6.660156 C 24.070313 6.828125 24.269531 6.910156 24.511719 6.921875 C 24.75 6.929688 24.941406 6.839844 25.078125 6.660156 L 26.539063 5.230469 C 26.710938 5.058594 26.789063 4.859375 26.789063 4.621094 C 26.789063 4.390625 26.710938 4.191406 26.539063 4.019531 C 26.371094 3.851563 26.171875 3.769531 25.929688 3.769531 C 25.691406 3.769531 25.488281 3.839844 25.328125 4 L 23.898438 5.46875 C 23.75 5.628906 23.671875 5.820313 23.671875 6.058594 Z M 24.441406 17.890625 C 24.441406 18.121094 24.519531 18.320313 24.691406 18.488281 L 25.328125 19.140625 C 25.53125 19.300781 25.738281 19.378906 25.949219 19.378906 C 26.140625 19.378906 26.339844 19.300781 26.539063 19.140625 C 26.710938 18.96875 26.789063 18.769531 26.789063 18.539063 C 26.789063 18.320313 26.710938 18.121094 26.539063 17.929688 L 25.898438 17.28125 C 25.738281 17.121094 25.539063 17.039063 25.320313 17.039063 C 25.070313 17.039063 24.859375 17.121094 24.691406 17.289063 C 24.519531 17.449219 24.441406 17.648438 24.441406 17.890625 Z M 25.949219 11.570313 C 25.949219 11.808594 26.03125 12 26.199219 12.160156 C 26.351563 12.339844 26.539063 12.421875 26.769531 12.421875 L 28.789063 12.421875 C 29.03125 12.421875 29.230469 12.339844 29.398438 12.171875 C 29.570313 12 29.648438 11.800781 29.648438 11.570313 C 29.648438 11.339844 29.558594 11.140625 29.390625 10.96875 C 29.21875 10.800781 29.019531 10.710938 28.789063 10.710938 L 26.769531 10.710938 C 26.53125 10.710938 26.339844 10.789063 26.179688 10.960938 C 26.03125 11.128906 25.949219 11.328125 25.949219 11.570313 Z M 25.949219 11.570313 "/>
</g>
</svg>
