<?xml version="1.0" encoding="UTF-8"?>
<svg xmlns="http://www.w3.org/2000/svg" xmlns:xlink="http://www.w3.org/1999/xlink" width="30pt" height="30pt" viewBox="0 0 30 30" version="1.1">
<g id="surface71">
<path style=" stroke:none;fill-rule:nonzero;fill:rgb(0%,0%,0%);fill-opacity:1;" d="M 1.558594 16.898438 C 1.558594 17.800781 1.78125 18.628906 2.21875 19.390625 C 2.660156 20.148438 3.261719 20.75 4.019531 21.191406 C 4.78125 21.628906 5.601563 21.851563 6.488281 21.851563 L 17.320313 21.851563 C 18.210938 21.851563 19.039063 21.628906 19.800781 21.191406 C 20.558594 20.75 21.171875 20.148438 21.609375 19.390625 C 22.050781 18.628906 22.28125 17.800781 22.28125 16.898438 C 22.28125 16.238281 22.140625 15.570313 21.859375 14.898438 C 22.621094 13.980469 23 12.871094 23 11.601563 C 23 10.890625 22.859375 10.210938 22.589844 9.558594 C 22.320313 8.910156 21.941406 8.359375 21.46875 7.890625 C 21 7.421875 20.449219 7.039063 19.800781 6.769531 C 19.148438 6.488281 18.46875 6.359375 17.761719 6.359375 C 16.28125 6.359375 14.988281 6.941406 13.878906 8.101563 C 13.109375 7.660156 12.210938 7.441406 11.179688 7.441406 C 9.769531 7.441406 8.53125 7.878906 7.449219 8.75 C 6.371094 9.621094 5.671875 10.738281 5.371094 12.101563 C 4.25 12.359375 3.339844 12.929688 2.628906 13.828125 C 1.921875 14.730469 1.558594 15.75 1.558594 16.898438 Z M 3.269531 16.898438 C 3.269531 16.058594 3.550781 15.339844 4.109375 14.730469 C 4.671875 14.121094 5.371094 13.769531 6.210938 13.671875 L 6.710938 13.640625 C 6.828125 13.640625 6.898438 13.578125 6.898438 13.460938 L 6.96875 12.921875 C 7.109375 11.839844 7.578125 10.929688 8.378906 10.210938 C 9.179688 9.480469 10.121094 9.121094 11.191406 9.121094 C 12.289063 9.121094 13.25 9.488281 14.058594 10.21875 C 14.878906 10.949219 15.328125 11.851563 15.429688 12.929688 L 15.5 13.511719 C 15.519531 13.621094 15.589844 13.679688 15.710938 13.679688 L 17.320313 13.679688 C 18.199219 13.679688 18.960938 14 19.601563 14.640625 C 20.238281 15.28125 20.558594 16.03125 20.558594 16.910156 C 20.558594 17.820313 20.238281 18.589844 19.609375 19.230469 C 18.980469 19.871094 18.210938 20.191406 17.328125 20.191406 L 6.488281 20.191406 C 5.609375 20.191406 4.859375 19.871094 4.21875 19.21875 C 3.589844 18.570313 3.269531 17.800781 3.269531 16.898438 Z M 9.96875 4.628906 C 9.96875 4.871094 10.050781 5.078125 10.210938 5.261719 L 10.871094 5.898438 C 11.121094 6.089844 11.328125 6.171875 11.511719 6.148438 C 11.71875 6.148438 11.898438 6.058594 12.058594 5.890625 C 12.21875 5.71875 12.300781 5.511719 12.300781 5.269531 C 12.300781 5.03125 12.210938 4.828125 12.039063 4.679688 L 11.449219 4.019531 C 11.269531 3.859375 11.070313 3.78125 10.839844 3.78125 C 10.601563 3.78125 10.390625 3.859375 10.21875 4.03125 C 10.050781 4.191406 9.96875 4.390625 9.96875 4.628906 Z M 15.308594 9.058594 C 16 8.390625 16.820313 8.058594 17.761719 8.058594 C 18.75 8.058594 19.589844 8.398438 20.28125 9.089844 C 20.96875 9.78125 21.320313 10.609375 21.320313 11.601563 C 21.320313 12.21875 21.148438 12.839844 20.808594 13.441406 C 19.839844 12.480469 18.679688 12 17.320313 12 L 17 12 C 16.75 10.910156 16.191406 9.929688 15.308594 9.058594 Z M 16.941406 3.78125 C 16.941406 4.039063 17.019531 4.238281 17.171875 4.398438 C 17.320313 4.558594 17.519531 4.628906 17.761719 4.628906 C 18.019531 4.628906 18.21875 4.550781 18.378906 4.398438 C 18.539063 4.238281 18.609375 4.039063 18.609375 3.78125 L 18.609375 1.730469 C 18.609375 1.488281 18.53125 1.300781 18.371094 1.140625 C 18.210938 0.980469 18.011719 0.910156 17.761719 0.910156 C 17.519531 0.910156 17.328125 0.988281 17.171875 1.140625 C 17.011719 1.289063 16.941406 1.488281 16.941406 1.730469 Z M 22.460938 6.070313 C 22.460938 6.328125 22.53125 6.53125 22.679688 6.691406 C 22.890625 6.851563 23.101563 6.929688 23.300781 6.929688 C 23.480469 6.929688 23.679688 6.851563 23.890625 6.691406 L 25.320313 5.261719 C 25.480469 5.078125 25.558594 4.871094 25.558594 4.621094 C 25.558594 4.378906 25.480469 4.179688 25.320313 4.019531 C 25.160156 3.859375 24.960938 3.78125 24.730469 3.78125 C 24.488281 3.78125 24.300781 3.859375 24.148438 4.019531 L 22.679688 5.449219 C 22.53125 5.640625 22.460938 5.839844 22.460938 6.070313 Z M 23.25 17.910156 C 23.25 18.148438 23.328125 18.359375 23.5 18.539063 L 24.148438 19.171875 C 24.300781 19.328125 24.488281 19.410156 24.730469 19.410156 C 24.96875 19.410156 25.171875 19.328125 25.328125 19.160156 C 25.488281 18.988281 25.570313 18.789063 25.570313 18.539063 C 25.570313 18.320313 25.488281 18.121094 25.328125 17.960938 L 24.679688 17.308594 C 24.519531 17.148438 24.328125 17.070313 24.109375 17.070313 C 23.871094 17.070313 23.671875 17.148438 23.511719 17.308594 C 23.339844 17.46875 23.25 17.671875 23.25 17.910156 Z M 24.71875 11.601563 C 24.71875 11.828125 24.808594 12.019531 24.980469 12.179688 C 25.140625 12.339844 25.351563 12.421875 25.589844 12.421875 L 27.628906 12.421875 C 27.859375 12.421875 28.050781 12.339844 28.210938 12.191406 C 28.371094 12.039063 28.441406 11.839844 28.441406 11.601563 C 28.441406 11.359375 28.359375 11.160156 28.210938 11 C 28.058594 10.839844 27.859375 10.75 27.628906 10.75 L 25.589844 10.75 C 25.351563 10.75 25.148438 10.828125 24.980469 11 C 24.800781 11.171875 24.71875 11.371094 24.71875 11.601563 Z M 24.71875 11.601563 "/>
</g>
</svg>
