<?xml version="1.0" encoding="UTF-8"?>
<svg xmlns="http://www.w3.org/2000/svg" xmlns:xlink="http://www.w3.org/1999/xlink" width="30pt" height="30pt" viewBox="0 0 30 30" version="1.1">
<g id="surface136">
<path style=" stroke:none;fill-rule:nonzero;fill:rgb(0%,0%,0%);fill-opacity:1;" d="M 1.578125 16.929688 C 1.578125 17.789063 1.789063 18.601563 2.21875 19.339844 C 2.640625 20.078125 3.21875 20.679688 3.960938 21.128906 C 4.691406 21.578125 5.5 21.820313 6.359375 21.839844 C 6.46875 21.839844 6.53125 21.78125 6.53125 21.671875 L 6.53125 20.339844 C 6.53125 20.21875 6.46875 20.148438 6.359375 20.148438 C 5.511719 20.109375 4.78125 19.769531 4.179688 19.128906 C 3.578125 18.488281 3.28125 17.761719 3.28125 16.921875 C 3.28125 16.101563 3.558594 15.378906 4.128906 14.761719 C 4.699219 14.148438 5.390625 13.789063 6.230469 13.691406 L 6.761719 13.628906 C 6.878906 13.628906 6.941406 13.570313 6.941406 13.441406 L 7.019531 12.929688 C 7.128906 11.839844 7.578125 10.929688 8.378906 10.199219 C 9.179688 9.46875 10.128906 9.109375 11.230469 9.109375 C 12.320313 9.109375 13.269531 9.46875 14.078125 10.199219 C 14.898438 10.929688 15.359375 11.828125 15.460938 12.898438 L 15.53125 13.480469 C 15.53125 13.589844 15.589844 13.648438 15.699219 13.648438 L 17.308594 13.648438 C 18.210938 13.648438 18.980469 13.96875 19.621094 14.609375 C 20.261719 15.25 20.578125 16.011719 20.578125 16.898438 C 20.578125 17.738281 20.28125 18.46875 19.679688 19.109375 C 19.078125 19.738281 18.351563 20.078125 17.511719 20.128906 C 17.390625 20.128906 17.320313 20.191406 17.320313 20.320313 L 17.320313 21.648438 C 17.320313 21.761719 17.378906 21.820313 17.511719 21.820313 C 18.839844 21.78125 19.960938 21.28125 20.890625 20.320313 C 21.820313 19.359375 22.28125 18.230469 22.28125 16.910156 C 22.28125 16.148438 22.140625 15.480469 21.851563 14.878906 C 22.601563 13.949219 23 12.851563 23 11.601563 C 23 10.660156 22.769531 9.789063 22.300781 8.988281 C 21.828125 8.191406 21.191406 7.550781 20.390625 7.078125 C 19.589844 6.609375 18.710938 6.378906 17.769531 6.378906 C 16.230469 6.378906 14.941406 6.960938 13.898438 8.109375 C 13.089844 7.671875 12.191406 7.449219 11.210938 7.449219 C 9.800781 7.449219 8.558594 7.890625 7.46875 8.761719 C 6.378906 9.628906 5.691406 10.75 5.378906 12.101563 C 4.261719 12.378906 3.351563 12.960938 2.640625 13.851563 C 1.929688 14.75 1.578125 15.769531 1.578125 16.929688 Z M 7.058594 24.609375 C 7.058594 24.820313 7.140625 25.011719 7.300781 25.179688 C 7.480469 25.339844 7.671875 25.421875 7.878906 25.421875 C 8.121094 25.421875 8.308594 25.339844 8.46875 25.191406 C 8.628906 25.03125 8.699219 24.839844 8.699219 24.609375 C 8.699219 24.371094 8.621094 24.179688 8.460938 24.019531 C 8.300781 23.859375 8.109375 23.789063 7.871094 23.789063 C 7.628906 23.789063 7.441406 23.871094 7.28125 24.019531 C 7.140625 24.171875 7.058594 24.371094 7.058594 24.609375 Z M 7.921875 20.980469 C 7.921875 21.21875 8 21.421875 8.160156 21.589844 C 8.320313 21.761719 8.511719 21.839844 8.75 21.839844 C 8.980469 21.839844 9.179688 21.761719 9.339844 21.589844 C 9.5 21.421875 9.578125 21.21875 9.578125 20.980469 C 9.578125 20.75 9.5 20.558594 9.339844 20.398438 C 9.179688 20.238281 8.988281 20.160156 8.75 20.160156 C 8.519531 20.160156 8.320313 20.238281 8.160156 20.398438 C 8 20.558594 7.921875 20.761719 7.921875 20.980469 Z M 9.820313 26.558594 C 9.820313 26.78125 9.898438 26.96875 10.058594 27.128906 C 10.230469 27.300781 10.421875 27.378906 10.640625 27.378906 C 10.878906 27.378906 11.078125 27.300781 11.238281 27.148438 C 11.410156 26.988281 11.488281 26.800781 11.488281 26.558594 C 11.488281 26.320313 11.410156 26.121094 11.238281 25.960938 C 11.070313 25.789063 10.871094 25.710938 10.640625 25.710938 C 10.421875 25.710938 10.230469 25.789063 10.058594 25.960938 C 9.898438 26.128906 9.820313 26.328125 9.820313 26.558594 Z M 9.96875 4.679688 C 9.96875 4.921875 10.050781 5.121094 10.210938 5.269531 L 10.871094 5.929688 C 11.03125 6.089844 11.210938 6.179688 11.398438 6.179688 C 11.609375 6.210938 11.808594 6.140625 12.011719 5.960938 C 12.210938 5.78125 12.308594 5.570313 12.308594 5.328125 C 12.308594 5.089844 12.230469 4.871094 12.070313 4.691406 L 11.429688 4.078125 C 11.28125 3.910156 11.089844 3.828125 10.851563 3.828125 C 10.601563 3.828125 10.390625 3.910156 10.21875 4.078125 C 10.050781 4.238281 9.96875 4.441406 9.96875 4.679688 Z M 10.671875 22.898438 C 10.671875 23.121094 10.75 23.320313 10.921875 23.5 C 11.078125 23.660156 11.269531 23.738281 11.488281 23.738281 C 11.730469 23.738281 11.929688 23.660156 12.101563 23.5 C 12.269531 23.339844 12.351563 23.140625 12.351563 22.898438 C 12.351563 22.671875 12.269531 22.46875 12.101563 22.300781 C 11.929688 22.128906 11.730469 22.050781 11.488281 22.050781 C 11.269531 22.050781 11.070313 22.128906 10.910156 22.300781 C 10.75 22.46875 10.671875 22.671875 10.671875 22.898438 Z M 11.101563 19.300781 C 11.101563 19.53125 11.179688 19.71875 11.339844 19.878906 C 11.5 20.039063 11.699219 20.121094 11.921875 20.121094 C 12.160156 20.121094 12.359375 20.039063 12.519531 19.878906 C 12.691406 19.71875 12.769531 19.53125 12.769531 19.289063 C 12.769531 19.058594 12.691406 18.859375 12.519531 18.699219 C 12.351563 18.539063 12.148438 18.460938 11.921875 18.460938 C 11.691406 18.460938 11.5 18.539063 11.339844 18.699219 C 11.179688 18.859375 11.101563 19.070313 11.101563 19.300781 Z M 13.46875 24.609375 C 13.46875 24.820313 13.550781 25.011719 13.699219 25.179688 C 13.871094 25.339844 14.078125 25.421875 14.300781 25.421875 C 14.539063 25.421875 14.730469 25.339844 14.890625 25.191406 C 15.050781 25.03125 15.121094 24.839844 15.121094 24.609375 C 15.121094 24.371094 15.039063 24.179688 14.890625 24.019531 C 14.730469 23.859375 14.539063 23.789063 14.300781 23.789063 C 14.058594 23.789063 13.859375 23.871094 13.699219 24.03125 C 13.539063 24.191406 13.46875 24.378906 13.46875 24.609375 Z M 14.320313 20.980469 C 14.320313 21.21875 14.398438 21.421875 14.558594 21.589844 C 14.71875 21.761719 14.921875 21.839844 15.148438 21.839844 C 15.378906 21.839844 15.578125 21.761719 15.738281 21.589844 C 15.898438 21.421875 15.980469 21.21875 15.980469 20.980469 C 15.980469 20.75 15.898438 20.558594 15.738281 20.398438 C 15.578125 20.238281 15.390625 20.160156 15.148438 20.160156 C 14.910156 20.160156 14.71875 20.238281 14.558594 20.398438 C 14.398438 20.558594 14.320313 20.761719 14.320313 20.980469 Z M 15.300781 9.058594 C 15.988281 8.398438 16.808594 8.070313 17.769531 8.070313 C 18.738281 8.070313 19.570313 8.421875 20.25 9.109375 C 20.941406 9.800781 21.28125 10.640625 21.28125 11.601563 C 21.28125 12.21875 21.109375 12.839844 20.769531 13.441406 C 19.820313 12.480469 18.660156 12 17.300781 12 L 16.980469 12 C 16.679688 10.828125 16.121094 9.851563 15.300781 9.058594 Z M 16.898438 3.839844 C 16.898438 4.070313 16.980469 4.269531 17.148438 4.421875 C 17.320313 4.570313 17.519531 4.648438 17.761719 4.648438 C 18 4.648438 18.191406 4.570313 18.351563 4.421875 C 18.511719 4.261719 18.578125 4.070313 18.578125 3.839844 L 18.578125 1.800781 C 18.578125 1.558594 18.5 1.359375 18.339844 1.191406 C 18.179688 1.019531 18 0.941406 17.769531 0.941406 C 17.539063 0.941406 17.339844 1.03125 17.171875 1.199219 C 17 1.371094 16.910156 1.570313 16.910156 1.800781 L 16.910156 3.839844 Z M 22.421875 6.109375 C 22.421875 6.339844 22.5 6.539063 22.671875 6.699219 C 22.820313 6.859375 23.011719 6.941406 23.230469 6.960938 C 23.449219 6.980469 23.660156 6.890625 23.851563 6.699219 L 25.28125 5.269531 C 25.460938 5.089844 25.539063 4.890625 25.539063 4.660156 C 25.539063 4.421875 25.449219 4.21875 25.28125 4.050781 C 25.109375 3.878906 24.910156 3.800781 24.679688 3.800781 C 24.460938 3.800781 24.269531 3.878906 24.101563 4.050781 L 22.671875 5.511719 C 22.5 5.671875 22.421875 5.871094 22.421875 6.109375 Z M 23.21875 17.910156 C 23.21875 18.160156 23.300781 18.371094 23.460938 18.53125 L 24.101563 19.160156 C 24.339844 19.320313 24.558594 19.398438 24.738281 19.398438 C 24.949219 19.398438 25.128906 19.308594 25.300781 19.140625 C 25.46875 18.96875 25.550781 18.761719 25.550781 18.53125 C 25.550781 18.300781 25.460938 18.109375 25.289063 17.949219 L 24.671875 17.300781 C 24.488281 17.140625 24.289063 17.058594 24.058594 17.058594 C 23.828125 17.058594 23.628906 17.140625 23.46875 17.308594 C 23.300781 17.46875 23.21875 17.671875 23.21875 17.910156 Z M 24.671875 11.601563 C 24.671875 11.839844 24.761719 12.03125 24.929688 12.191406 C 25.101563 12.371094 25.308594 12.460938 25.550781 12.460938 L 27.570313 12.460938 C 27.800781 12.460938 28 12.378906 28.171875 12.210938 C 28.339844 12.039063 28.421875 11.839844 28.421875 11.601563 C 28.421875 11.359375 28.339844 11.160156 28.171875 11 C 28 10.839844 27.800781 10.75 27.570313 10.75 L 25.550781 10.75 C 25.308594 10.75 25.109375 10.828125 24.929688 11 C 24.75 11.171875 24.671875 11.371094 24.671875 11.601563 Z M 24.671875 11.601563 "/>
</g>
</svg>
