<?xml version="1.0" encoding="UTF-8"?>
<svg xmlns="http://www.w3.org/2000/svg" xmlns:xlink="http://www.w3.org/1999/xlink" width="30pt" height="30pt" viewBox="0 0 30 30" version="1.1">
<g id="surface131">
<path style=" stroke:none;fill-rule:nonzero;fill:rgb(0%,0%,0%);fill-opacity:1;" d="M 1.488281 16.878906 C 1.488281 18 1.820313 19 2.488281 19.878906 C 3.160156 20.761719 4.019531 21.351563 5.070313 21.640625 L 4.410156 23.339844 C 4.359375 23.480469 4.410156 23.558594 4.550781 23.558594 L 6.679688 23.558594 L 5.25 27.769531 L 5.539063 27.769531 L 9.898438 22.109375 C 9.941406 22.070313 9.941406 22.019531 9.921875 21.96875 C 9.898438 21.921875 9.851563 21.898438 9.78125 21.898438 L 7.589844 21.898438 L 10.078125 17.25 C 10.148438 17.109375 10.109375 17.03125 9.941406 17.03125 L 6.980469 17.03125 C 6.890625 17.03125 6.808594 17.078125 6.75 17.179688 L 5.679688 20.058594 C 4.960938 19.878906 4.359375 19.5 3.898438 18.898438 C 3.429688 18.308594 3.199219 17.640625 3.199219 16.878906 C 3.199219 16.039063 3.480469 15.308594 4.039063 14.699219 C 4.601563 14.089844 5.308594 13.730469 6.148438 13.628906 L 6.660156 13.601563 C 6.78125 13.601563 6.851563 13.550781 6.878906 13.460938 L 6.949219 12.871094 C 7.058594 11.789063 7.511719 10.878906 8.320313 10.148438 C 9.128906 9.421875 10.078125 9.050781 11.179688 9.050781 C 12.269531 9.050781 13.21875 9.421875 14.039063 10.148438 C 14.859375 10.878906 15.328125 11.789063 15.441406 12.871094 L 15.519531 13.460938 C 15.519531 13.570313 15.578125 13.628906 15.699219 13.628906 L 17.308594 13.628906 C 18.199219 13.628906 18.96875 13.949219 19.621094 14.589844 C 20.269531 15.230469 20.589844 15.988281 20.589844 16.878906 C 20.589844 17.75 20.289063 18.5 19.691406 19.140625 C 19.089844 19.78125 18.371094 20.121094 17.511719 20.171875 C 17.378906 20.171875 17.308594 20.230469 17.308594 20.351563 L 17.308594 21.691406 C 17.308594 21.800781 17.378906 21.859375 17.511719 21.859375 C 18.390625 21.839844 19.199219 21.601563 19.929688 21.140625 C 20.660156 20.691406 21.238281 20.078125 21.671875 19.328125 C 22.101563 18.578125 22.308594 17.761719 22.308594 16.878906 C 22.308594 16.148438 22.171875 15.480469 21.878906 14.859375 C 22.640625 13.898438 23.019531 12.800781 23.019531 11.570313 C 23.019531 10.621094 22.78125 9.738281 22.308594 8.929688 C 21.839844 8.121094 21.199219 7.480469 20.390625 7.011719 C 19.578125 6.539063 18.699219 6.300781 17.75 6.300781 C 17.03125 6.300781 16.328125 6.449219 15.648438 6.75 C 14.96875 7.050781 14.390625 7.46875 13.890625 8 C 13.078125 7.570313 12.179688 7.351563 11.171875 7.351563 C 9.75 7.351563 8.488281 7.789063 7.398438 8.671875 C 6.308594 9.550781 5.601563 10.671875 5.300781 12.039063 C 4.191406 12.300781 3.28125 12.878906 2.558594 13.78125 C 1.851563 14.699219 1.488281 15.730469 1.488281 16.878906 Z M 9.898438 4.589844 C 9.898438 4.820313 9.980469 5.019531 10.148438 5.191406 L 10.800781 5.851563 C 10.960938 6.011719 11.140625 6.089844 11.351563 6.109375 C 11.558594 6.140625 11.761719 6.070313 11.960938 5.878906 C 12.160156 5.699219 12.261719 5.488281 12.261719 5.238281 C 12.261719 5.011719 12.179688 4.808594 12.011719 4.640625 L 11.378906 3.980469 C 11.21875 3.820313 11.019531 3.738281 10.78125 3.738281 C 10.53125 3.738281 10.320313 3.820313 10.148438 3.980469 C 9.988281 4.160156 9.898438 4.359375 9.898438 4.589844 Z M 11.078125 22.960938 C 11.078125 23.199219 11.160156 23.398438 11.320313 23.550781 C 11.480469 23.710938 11.679688 23.789063 11.898438 23.789063 C 12.140625 23.789063 12.339844 23.710938 12.511719 23.550781 C 12.679688 23.390625 12.761719 23.191406 12.761719 22.960938 C 12.761719 22.71875 12.679688 22.519531 12.511719 22.351563 C 12.339844 22.179688 12.140625 22.089844 11.898438 22.089844 C 11.679688 22.089844 11.488281 22.179688 11.320313 22.351563 C 11.148438 22.519531 11.078125 22.71875 11.078125 22.960938 Z M 11.078125 19.320313 C 11.078125 19.558594 11.160156 19.75 11.320313 19.898438 C 11.480469 20.058594 11.679688 20.140625 11.898438 20.140625 C 12.140625 20.140625 12.351563 20.058594 12.511719 19.910156 C 12.671875 19.761719 12.761719 19.558594 12.761719 19.320313 C 12.761719 19.089844 12.679688 18.890625 12.511719 18.71875 C 12.339844 18.550781 12.140625 18.46875 11.898438 18.46875 C 11.671875 18.46875 11.480469 18.550781 11.320313 18.71875 C 11.160156 18.890625 11.078125 19.089844 11.078125 19.320313 Z M 11.078125 26.628906 C 11.078125 26.851563 11.160156 27.039063 11.320313 27.199219 C 11.488281 27.371094 11.679688 27.449219 11.898438 27.449219 C 12.140625 27.449219 12.339844 27.371094 12.511719 27.210938 C 12.679688 27.050781 12.761719 26.859375 12.761719 26.621094 C 12.761719 26.378906 12.679688 26.179688 12.511719 26.011719 C 12.339844 25.839844 12.140625 25.75 11.898438 25.75 C 11.679688 25.75 11.488281 25.839844 11.320313 26.011719 C 11.160156 26.191406 11.078125 26.398438 11.078125 26.628906 Z M 14.308594 21.019531 C 14.308594 21.261719 14.390625 21.460938 14.558594 21.621094 C 14.730469 21.78125 14.921875 21.871094 15.160156 21.871094 C 15.390625 21.871094 15.589844 21.789063 15.75 21.621094 C 15.910156 21.449219 15.988281 21.25 15.988281 21.019531 C 15.988281 20.800781 15.910156 20.601563 15.75 20.441406 C 15.589844 20.28125 15.398438 20.199219 15.160156 20.199219 C 14.929688 20.199219 14.730469 20.28125 14.558594 20.441406 C 14.390625 20.601563 14.308594 20.789063 14.308594 21.019531 Z M 14.308594 24.660156 C 14.308594 24.890625 14.390625 25.078125 14.550781 25.238281 C 14.710938 25.398438 14.910156 25.480469 15.148438 25.480469 C 15.390625 25.480469 15.578125 25.398438 15.738281 25.238281 C 15.898438 25.078125 15.96875 24.890625 15.96875 24.648438 C 15.96875 24.410156 15.890625 24.21875 15.738281 24.058594 C 15.578125 23.898438 15.390625 23.828125 15.148438 23.828125 C 14.910156 23.828125 14.710938 23.910156 14.550781 24.058594 C 14.390625 24.21875 14.308594 24.421875 14.308594 24.660156 Z M 15.308594 9.019531 C 15.980469 8.378906 16.789063 8.050781 17.761719 8.050781 C 18.738281 8.050781 19.578125 8.390625 20.269531 9.078125 C 20.960938 9.761719 21.308594 10.601563 21.308594 11.578125 C 21.308594 12.238281 21.148438 12.839844 20.839844 13.390625 C 19.878906 12.429688 18.710938 11.949219 17.320313 11.949219 L 17.011719 11.949219 C 16.71875 10.761719 16.148438 9.78125 15.308594 9.019531 Z M 16.910156 3.75 C 16.910156 3.988281 16.988281 4.191406 17.160156 4.359375 C 17.328125 4.53125 17.53125 4.609375 17.761719 4.609375 C 18 4.609375 18.199219 4.53125 18.359375 4.359375 C 18.519531 4.191406 18.601563 3.988281 18.601563 3.75 L 18.601563 1.691406 C 18.601563 1.449219 18.519531 1.238281 18.359375 1.078125 C 18.199219 0.910156 18 0.820313 17.761719 0.820313 C 17.519531 0.820313 17.320313 0.898438 17.160156 1.070313 C 17 1.238281 16.910156 1.441406 16.910156 1.679688 Z M 22.488281 6.039063 C 22.488281 6.28125 22.570313 6.480469 22.71875 6.640625 C 22.859375 6.800781 23.039063 6.878906 23.269531 6.898438 C 23.5 6.921875 23.710938 6.828125 23.898438 6.640625 L 25.339844 5.199219 C 25.519531 5.039063 25.601563 4.839844 25.601563 4.601563 C 25.601563 4.359375 25.511719 4.160156 25.339844 4 C 25.179688 3.820313 24.980469 3.738281 24.738281 3.738281 C 24.511719 3.738281 24.320313 3.828125 24.160156 4 L 22.71875 5.441406 C 22.558594 5.589844 22.488281 5.789063 22.488281 6.039063 Z M 23.261719 17.949219 C 23.261719 18.179688 23.339844 18.378906 23.511719 18.550781 L 24.160156 19.179688 C 24.339844 19.351563 24.550781 19.429688 24.78125 19.429688 L 24.800781 19.449219 C 25.019531 19.449219 25.199219 19.359375 25.339844 19.179688 C 25.519531 19.019531 25.601563 18.820313 25.601563 18.578125 C 25.601563 18.351563 25.511719 18.148438 25.339844 17.96875 L 24.71875 17.351563 C 24.539063 17.171875 24.339844 17.078125 24.109375 17.078125 C 23.871094 17.078125 23.671875 17.171875 23.511719 17.339844 C 23.351563 17.511719 23.261719 17.71875 23.261719 17.949219 Z M 24.730469 11.578125 C 24.730469 11.820313 24.820313 12.019531 24.988281 12.171875 C 25.148438 12.351563 25.351563 12.429688 25.589844 12.429688 L 27.648438 12.429688 C 27.890625 12.429688 28.089844 12.351563 28.261719 12.179688 C 28.429688 12.011719 28.511719 11.808594 28.511719 11.578125 C 28.511719 11.351563 28.429688 11.140625 28.261719 10.980469 C 28.089844 10.820313 27.890625 10.738281 27.648438 10.738281 L 25.589844 10.738281 C 25.351563 10.738281 25.140625 10.820313 24.980469 10.980469 C 24.808594 11.140625 24.730469 11.339844 24.730469 11.578125 Z M 24.730469 11.578125 "/>
</g>
</svg>
