<?xml version="1.0" encoding="UTF-8"?>
<svg xmlns="http://www.w3.org/2000/svg" xmlns:xlink="http://www.w3.org/1999/xlink" width="30pt" height="30pt" viewBox="0 0 30 30" version="1.1">
<g id="surface226">
<path style=" stroke:none;fill-rule:nonzero;fill:rgb(0%,0%,0%);fill-opacity:1;" d="M 5.25 15.300781 C 5.25 15.460938 5.308594 15.589844 5.421875 15.699219 C 5.53125 15.808594 5.671875 15.859375 5.820313 15.859375 L 8.800781 15.859375 C 8.941406 15.859375 9.070313 15.820313 9.179688 15.730469 C 9.289063 15.640625 9.351563 15.53125 9.378906 15.390625 L 10.28125 10.121094 L 11.898438 23.300781 C 11.921875 23.441406 11.988281 23.558594 12.089844 23.660156 C 12.191406 23.75 12.308594 23.800781 12.449219 23.800781 C 12.601563 23.800781 12.730469 23.75 12.828125 23.660156 C 12.929688 23.570313 13 23.449219 13.03125 23.300781 L 14.28125 13.628906 L 15.320313 16.429688 C 15.359375 16.539063 15.421875 16.628906 15.519531 16.699219 C 15.621094 16.769531 15.71875 16.800781 15.839844 16.800781 L 15.890625 16.800781 C 16.011719 16.789063 16.121094 16.75 16.210938 16.671875 C 16.308594 16.589844 16.371094 16.488281 16.398438 16.359375 L 17.929688 9.5 L 18.640625 22.679688 C 18.648438 22.820313 18.699219 22.949219 18.789063 23.050781 C 18.878906 23.148438 19 23.210938 19.148438 23.21875 C 19.289063 23.230469 19.421875 23.199219 19.53125 23.121094 C 19.640625 23.039063 19.710938 22.929688 19.75 22.789063 L 21.398438 15.851563 L 24.171875 15.851563 C 24.328125 15.851563 24.460938 15.800781 24.570313 15.691406 C 24.679688 15.578125 24.738281 15.449219 24.738281 15.289063 C 24.738281 15.128906 24.679688 15 24.570313 14.890625 C 24.460938 14.78125 24.320313 14.71875 24.171875 14.71875 L 20.941406 14.71875 C 20.808594 14.71875 20.691406 14.761719 20.589844 14.839844 C 20.488281 14.921875 20.421875 15.019531 20.390625 15.148438 L 19.558594 18.691406 L 18.839844 5.328125 C 18.828125 5.191406 18.78125 5.058594 18.679688 4.960938 C 18.578125 4.859375 18.460938 4.800781 18.320313 4.800781 C 18.179688 4.789063 18.050781 4.820313 17.929688 4.910156 C 17.808594 5 17.738281 5.109375 17.710938 5.25 L 15.710938 14.21875 L 14.550781 11.058594 C 14.511719 10.941406 14.429688 10.851563 14.308594 10.78125 C 14.191406 10.710938 14.070313 10.679688 13.949219 10.699219 C 13.820313 10.710938 13.710938 10.769531 13.621094 10.859375 C 13.53125 10.949219 13.46875 11.070313 13.449219 11.199219 L 12.46875 18.710938 L 10.941406 6.148438 C 10.910156 6.011719 10.851563 5.890625 10.75 5.800781 C 10.648438 5.710938 10.53125 5.660156 10.390625 5.648438 C 10.25 5.640625 10.121094 5.679688 10.011719 5.769531 C 9.898438 5.859375 9.828125 5.96875 9.808594 6.121094 L 8.328125 14.730469 L 5.820313 14.730469 C 5.660156 14.730469 5.53125 14.789063 5.421875 14.898438 C 5.308594 15.011719 5.25 15.140625 5.25 15.300781 Z M 5.25 15.300781 "/>
</g>
</svg>
