<?xml version="1.0" encoding="UTF-8"?>
<svg xmlns="http://www.w3.org/2000/svg" xmlns:xlink="http://www.w3.org/1999/xlink" width="30pt" height="30pt" viewBox="0 0 30 30" version="1.1">
<g id="surface266">
<path style=" stroke:none;fill-rule:nonzero;fill:rgb(0%,0%,0%);fill-opacity:1;" d="M 4.929688 20.96875 C 4.929688 20.710938 5.019531 20.5 5.210938 20.351563 C 5.351563 20.191406 5.558594 20.121094 5.839844 20.121094 L 24.179688 20.121094 C 24.429688 20.121094 24.640625 20.199219 24.820313 20.359375 C 25 20.519531 25.078125 20.730469 25.078125 20.96875 C 25.078125 21.210938 24.988281 21.421875 24.808594 21.589844 C 24.628906 21.761719 24.421875 21.859375 24.179688 21.859375 L 5.839844 21.859375 C 5.589844 21.859375 5.378906 21.769531 5.199219 21.589844 C 5.019531 21.421875 4.929688 21.210938 4.929688 20.96875 Z M 6.898438 12.679688 C 6.898438 12.421875 6.980469 12.210938 7.128906 12.050781 C 7.300781 11.871094 7.511719 11.789063 7.78125 11.789063 C 8.011719 11.789063 8.210938 11.878906 8.378906 12.050781 L 9.878906 13.550781 C 10.058594 13.730469 10.148438 13.941406 10.148438 14.179688 C 10.148438 14.410156 10.058594 14.621094 9.878906 14.800781 C 9.730469 14.980469 9.53125 15.070313 9.28125 15.070313 C 9.03125 15.070313 8.808594 14.980469 8.640625 14.800781 L 7.140625 13.300781 C 6.980469 13.148438 6.898438 12.949219 6.898438 12.679688 Z M 9.828125 18.269531 C 9.789063 18.429688 9.839844 18.5 9.980469 18.5 L 11.46875 18.5 C 11.539063 18.5 11.609375 18.441406 11.691406 18.328125 C 11.988281 17.691406 12.429688 17.191406 13.019531 16.808594 C 13.609375 16.429688 14.261719 16.25 14.980469 16.25 C 15.710938 16.25 16.371094 16.441406 16.96875 16.808594 C 17.570313 17.179688 18.019531 17.691406 18.320313 18.328125 C 18.398438 18.441406 18.480469 18.5 18.550781 18.5 L 20.03125 18.5 C 20.160156 18.5 20.210938 18.421875 20.179688 18.269531 C 19.839844 17.140625 19.191406 16.21875 18.230469 15.511719 C 17.269531 14.800781 16.191406 14.449219 14.980469 14.449219 C 13.78125 14.449219 12.699219 14.800781 11.75 15.511719 C 10.820313 16.21875 10.171875 17.140625 9.828125 18.269531 Z M 14.140625 11.808594 L 14.140625 9.679688 C 14.140625 9.429688 14.21875 9.21875 14.378906 9.039063 C 14.539063 8.859375 14.75 8.78125 14.988281 8.78125 C 15.238281 8.78125 15.449219 8.871094 15.621094 9.039063 C 15.789063 9.210938 15.871094 9.429688 15.871094 9.679688 L 15.871094 11.820313 C 15.871094 12.078125 15.789063 12.289063 15.621094 12.460938 C 15.449219 12.628906 15.238281 12.710938 14.988281 12.710938 C 14.75 12.710938 14.539063 12.621094 14.378906 12.449219 C 14.21875 12.28125 14.140625 12.058594 14.140625 11.808594 Z M 19.859375 14.179688 C 19.859375 13.941406 19.941406 13.730469 20.109375 13.550781 L 21.648438 12.050781 C 21.808594 11.871094 22.011719 11.789063 22.269531 11.789063 C 22.511719 11.789063 22.710938 11.871094 22.871094 12.039063 C 23.03125 12.210938 23.101563 12.421875 23.101563 12.679688 C 23.101563 12.941406 23.019531 13.148438 22.871094 13.300781 L 21.390625 14.800781 C 21.21875 14.96875 21.03125 15.058594 20.828125 15.078125 C 20.601563 15.101563 20.390625 15.019531 20.179688 14.839844 C 19.96875 14.660156 19.859375 14.429688 19.859375 14.179688 Z M 19.859375 14.179688 "/>
</g>
</svg>
