<?xml version="1.0" encoding="UTF-8"?>
<svg xmlns="http://www.w3.org/2000/svg" xmlns:xlink="http://www.w3.org/1999/xlink" width="30pt" height="30pt" viewBox="0 0 30 30" version="1.1">
<g id="surface256">
<path style=" stroke:none;fill-rule:nonzero;fill:rgb(0%,0%,0%);fill-opacity:1;" d="M 4.640625 16.898438 C 4.640625 18.230469 5.101563 19.371094 6.03125 20.328125 C 6.960938 21.289063 8.089844 21.800781 9.429688 21.859375 C 9.539063 21.859375 9.601563 21.800781 9.601563 21.691406 L 9.601563 20.351563 C 9.601563 20.238281 9.539063 20.179688 9.429688 20.179688 C 8.570313 20.140625 7.851563 19.800781 7.25 19.160156 C 6.648438 18.519531 6.351563 17.769531 6.351563 16.898438 C 6.351563 16.070313 6.628906 15.359375 7.191406 14.738281 C 7.75 14.128906 8.449219 13.769531 9.28125 13.671875 L 9.808594 13.640625 C 9.941406 13.640625 10.011719 13.578125 10.011719 13.449219 L 10.070313 12.921875 C 10.179688 11.839844 10.628906 10.929688 11.441406 10.210938 C 12.25 9.480469 13.199219 9.121094 14.289063 9.121094 C 15.378906 9.121094 16.328125 9.480469 17.140625 10.210938 C 17.949219 10.941406 18.410156 11.839844 18.53125 12.921875 L 18.609375 13.5 C 18.609375 13.609375 18.671875 13.671875 18.789063 13.671875 L 20.398438 13.671875 C 21.289063 13.671875 22.058594 13.988281 22.710938 14.628906 C 23.359375 15.269531 23.691406 16.019531 23.691406 16.898438 C 23.691406 17.769531 23.390625 18.519531 22.789063 19.160156 C 22.191406 19.800781 21.460938 20.140625 20.609375 20.179688 C 20.480469 20.179688 20.410156 20.238281 20.410156 20.351563 L 20.410156 21.691406 C 20.410156 21.800781 20.480469 21.859375 20.609375 21.859375 C 21.480469 21.839844 22.28125 21.601563 23.011719 21.148438 C 23.738281 20.699219 24.320313 20.101563 24.738281 19.351563 C 25.160156 18.601563 25.371094 17.78125 25.371094 16.910156 C 25.371094 16.019531 25.148438 15.191406 24.699219 14.441406 C 24.261719 13.691406 23.648438 13.089844 22.890625 12.660156 C 22.128906 12.230469 21.289063 12 20.398438 12 L 20.078125 12 C 19.761719 10.660156 19.050781 9.570313 17.980469 8.71875 C 16.910156 7.871094 15.679688 7.441406 14.300781 7.441406 C 12.890625 7.441406 11.640625 7.878906 10.550781 8.75 C 9.460938 9.621094 8.761719 10.738281 8.449219 12.101563 C 7.339844 12.359375 6.429688 12.929688 5.71875 13.828125 C 5.011719 14.730469 4.640625 15.75 4.640625 16.898438 Z M 10.089844 24.101563 C 10.179688 24.308594 10.339844 24.46875 10.550781 24.558594 C 10.75 24.660156 10.960938 24.671875 11.171875 24.578125 C 11.390625 24.488281 11.53125 24.339844 11.621094 24.128906 C 11.71875 23.910156 11.730469 23.699219 11.640625 23.488281 C 11.558594 23.28125 11.398438 23.140625 11.191406 23.050781 C 10.988281 22.941406 10.789063 22.929688 10.578125 23.019531 C 10.371094 23.109375 10.21875 23.261719 10.121094 23.488281 C 10.011719 23.660156 10.011719 23.859375 10.089844 24.101563 Z M 10.71875 21.28125 C 10.71875 21.441406 10.769531 21.589844 10.871094 21.730469 C 10.96875 21.878906 11.128906 21.980469 11.328125 22.050781 C 11.519531 22.160156 11.730469 22.171875 11.949219 22.058594 C 12.171875 21.960938 12.320313 21.761719 12.390625 21.460938 L 13.289063 18.078125 C 13.351563 17.828125 13.328125 17.609375 13.210938 17.410156 C 13.089844 17.210938 12.921875 17.089844 12.679688 17.050781 C 12.601563 17.03125 12.519531 17.019531 12.441406 17.019531 C 12.28125 17.019531 12.121094 17.070313 11.96875 17.171875 C 11.820313 17.269531 11.710938 17.421875 11.648438 17.609375 L 10.769531 21 C 10.730469 21.160156 10.71875 21.25 10.71875 21.28125 Z M 12.578125 26.871094 C 12.578125 26.988281 12.601563 27.089844 12.640625 27.160156 C 12.730469 27.378906 12.878906 27.53125 13.089844 27.609375 C 13.179688 27.660156 13.289063 27.691406 13.421875 27.691406 C 13.480469 27.691406 13.578125 27.671875 13.71875 27.628906 C 13.941406 27.550781 14.101563 27.398438 14.191406 27.179688 C 14.289063 26.960938 14.289063 26.738281 14.191406 26.519531 C 14.089844 26.300781 13.941406 26.148438 13.738281 26.058594 C 13.539063 25.96875 13.339844 25.96875 13.121094 26.058594 C 12.929688 26.140625 12.800781 26.261719 12.710938 26.421875 C 12.621094 26.578125 12.578125 26.730469 12.578125 26.871094 Z M 13.308594 24.261719 C 13.308594 24.628906 13.519531 24.871094 13.941406 24.988281 C 14.050781 25.019531 14.128906 25.03125 14.179688 25.03125 C 14.328125 25.03125 14.460938 25 14.558594 24.949219 C 14.769531 24.871094 14.910156 24.679688 14.980469 24.378906 L 16.648438 18.089844 C 16.710938 17.851563 16.691406 17.640625 16.589844 17.441406 C 16.488281 17.25 16.320313 17.121094 16.101563 17.058594 C 16.019531 17.039063 15.929688 17.03125 15.828125 17.03125 C 15.671875 17.03125 15.511719 17.078125 15.351563 17.179688 C 15.191406 17.28125 15.089844 17.429688 15.050781 17.621094 L 13.339844 23.960938 C 13.320313 24.101563 13.308594 24.199219 13.308594 24.261719 Z M 16.738281 23.800781 C 16.738281 23.921875 16.761719 24.03125 16.820313 24.121094 C 16.898438 24.308594 17.050781 24.460938 17.261719 24.558594 C 17.371094 24.601563 17.488281 24.628906 17.609375 24.628906 C 17.671875 24.628906 17.769531 24.609375 17.910156 24.570313 C 18.121094 24.488281 18.28125 24.339844 18.371094 24.128906 C 18.441406 23.910156 18.441406 23.699219 18.359375 23.5 C 18.28125 23.300781 18.140625 23.148438 17.941406 23.050781 C 17.710938 22.941406 17.5 22.929688 17.289063 23.019531 C 17.078125 23.109375 16.929688 23.261719 16.828125 23.488281 C 16.769531 23.589844 16.738281 23.691406 16.738281 23.800781 Z M 17.46875 21.230469 C 17.46875 21.371094 17.519531 21.519531 17.628906 21.679688 C 17.738281 21.839844 17.890625 21.949219 18.078125 22.011719 C 18.238281 22.039063 18.328125 22.058594 18.351563 22.058594 C 18.441406 22.058594 18.570313 22.03125 18.71875 21.960938 C 18.921875 21.871094 19.050781 21.691406 19.121094 21.441406 L 20.019531 18.101563 C 20.039063 17.929688 20.050781 17.839844 20.050781 17.839844 C 20.050781 17.679688 20 17.53125 19.898438 17.378906 C 19.800781 17.230469 19.648438 17.128906 19.449219 17.070313 C 19.359375 17.050781 19.269531 17.039063 19.191406 17.039063 C 19.03125 17.039063 18.871094 17.089844 18.71875 17.191406 C 18.570313 17.289063 18.46875 17.441406 18.410156 17.640625 L 17.511719 21 Z M 17.46875 21.230469 "/>
</g>
</svg>
