<?xml version="1.0" encoding="UTF-8"?>
<svg xmlns="http://www.w3.org/2000/svg" xmlns:xlink="http://www.w3.org/1999/xlink" width="30pt" height="30pt" viewBox="0 0 30 30" version="1.1">
<g id="surface291">
<path style=" stroke:none;fill-rule:nonzero;fill:rgb(0%,0%,0%);fill-opacity:1;" d="M 7.960938 24.511719 L 8.351563 24.511719 L 15.230469 14.328125 C 15.320313 14.148438 15.269531 14.058594 15.078125 14.058594 L 12.238281 14.058594 L 15.230469 8.609375 C 15.320313 8.429688 15.25 8.339844 15.03125 8.339844 L 11.21875 8.339844 C 11.109375 8.339844 11.019531 8.398438 10.929688 8.519531 L 8.148438 15.921875 C 8.128906 16.101563 8.191406 16.191406 8.339844 16.191406 L 11.089844 16.191406 Z M 16.460938 18.179688 L 16.730469 18.179688 L 21.949219 10.511719 C 22 10.429688 22.011719 10.359375 21.988281 10.308594 C 21.96875 10.261719 21.910156 10.238281 21.820313 10.238281 L 19.71875 10.238281 L 21.898438 6.210938 C 22.019531 6.011719 21.960938 5.910156 21.71875 5.910156 L 18.980469 5.910156 C 18.851563 5.910156 18.75 5.96875 18.679688 6.101563 L 16.601563 11.578125 C 16.570313 11.671875 16.570313 11.738281 16.609375 11.789063 C 16.648438 11.839844 16.710938 11.859375 16.800781 11.859375 L 18.839844 11.859375 Z M 16.460938 18.179688 "/>
</g>
</svg>
