<?xml version="1.0" encoding="UTF-8"?>
<svg xmlns="http://www.w3.org/2000/svg" xmlns:xlink="http://www.w3.org/1999/xlink" width="30pt" height="30pt" viewBox="0 0 30 30" version="1.1">
<g id="surface496">
<path style=" stroke:none;fill-rule:nonzero;fill:rgb(0%,0%,0%);fill-opacity:1;" d="M 3.738281 14.488281 C 3.738281 15.710938 3.929688 16.890625 4.300781 18.03125 C 4.671875 19.171875 5.210938 20.199219 5.898438 21.121094 C 6.589844 22.039063 7.398438 22.839844 8.320313 23.539063 C 9.238281 24.238281 10.269531 24.769531 11.410156 25.140625 C 12.550781 25.511719 13.730469 25.699219 14.949219 25.699219 C 19.980469 24.300781 22.488281 20.558594 22.488281 14.480469 C 22.488281 13.300781 22.351563 12.179688 22.070313 11.109375 C 21.789063 10.039063 21.421875 9.101563 20.941406 8.28125 C 20.460938 7.460938 19.898438 6.710938 19.261719 6.039063 C 18.621094 5.371094 17.921875 4.800781 17.199219 4.359375 C 16.480469 3.921875 15.730469 3.550781 14.941406 3.289063 C 13.421875 3.289063 11.960938 3.589844 10.570313 4.179688 C 9.179688 4.769531 8.019531 5.570313 7.019531 6.570313 C 6.019531 7.570313 5.21875 8.761719 4.628906 10.140625 C 4.039063 11.519531 3.738281 12.96875 3.738281 14.488281 Z M 3.738281 14.488281 "/>
</g>
</svg>
