<?xml version="1.0" encoding="UTF-8"?>
<svg xmlns="http://www.w3.org/2000/svg" xmlns:xlink="http://www.w3.org/1999/xlink" width="30pt" height="30pt" viewBox="0 0 30 30" version="1.1">
<g id="surface441">
<path style=" stroke:none;fill-rule:nonzero;fill:rgb(0%,0%,0%);fill-opacity:1;" d="M 3.738281 14.441406 C 3.738281 12.910156 4.039063 11.441406 4.628906 10.050781 C 5.21875 8.660156 6.03125 7.460938 7.03125 6.449219 C 8.03125 5.441406 9.230469 4.640625 10.628906 4.050781 C 12.03125 3.460938 13.480469 3.160156 15 3.160156 C 16.53125 3.160156 18 3.460938 19.390625 4.050781 C 20.78125 4.640625 21.980469 5.449219 22.988281 6.449219 C 24 7.449219 24.800781 8.648438 25.390625 10.050781 C 25.980469 11.449219 26.28125 12.898438 26.28125 14.441406 C 26.28125 15.960938 25.980469 17.421875 25.390625 18.808594 C 24.800781 20.199219 23.988281 21.398438 22.988281 22.410156 C 21.988281 23.421875 20.789063 24.21875 19.390625 24.808594 C 17.988281 25.398438 16.539063 25.699219 15 25.699219 C 13.480469 25.699219 12.019531 25.398438 10.628906 24.808594 C 9.238281 24.21875 8.039063 23.410156 7.03125 22.410156 C 6.019531 21.410156 5.21875 20.210938 4.628906 18.808594 C 4.039063 17.410156 3.738281 15.96875 3.738281 14.441406 Z M 6.421875 14.441406 C 6.421875 15.21875 6.46875 15.941406 6.570313 16.589844 C 6.671875 17.238281 6.859375 17.941406 7.140625 18.679688 C 7.421875 19.421875 7.800781 20.089844 8.269531 20.710938 C 8.738281 21.328125 9.359375 21.949219 10.148438 22.570313 C 10.941406 23.191406 11.851563 23.769531 12.921875 24.28125 C 13.589844 24.429688 14.289063 24.5 15.011719 24.5 C 16.378906 24.5 17.679688 24.230469 18.921875 23.699219 C 20.160156 23.171875 21.230469 22.449219 22.140625 21.550781 C 23.050781 20.648438 23.761719 19.578125 24.289063 18.328125 C 24.820313 17.078125 25.089844 15.78125 25.089844 14.429688 C 25.089844 12.609375 24.640625 10.929688 23.738281 9.378906 C 22.839844 7.828125 21.609375 6.609375 20.058594 5.699219 C 18.511719 4.789063 16.828125 4.351563 15.011719 4.351563 C 14.160156 4.351563 13.390625 4.441406 12.699219 4.609375 C 11.808594 5.050781 11.03125 5.511719 10.351563 6 C 9.671875 6.488281 9.101563 7.011719 8.660156 7.539063 C 8.21875 8.070313 7.839844 8.621094 7.53125 9.160156 C 7.21875 9.699219 6.988281 10.28125 6.839844 10.898438 C 6.691406 11.519531 6.578125 12.101563 6.519531 12.648438 C 6.460938 13.199219 6.421875 13.800781 6.421875 14.441406 Z M 6.421875 14.441406 "/>
</g>
</svg>
