<?xml version="1.0" encoding="UTF-8"?>
<svg xmlns="http://www.w3.org/2000/svg" xmlns:xlink="http://www.w3.org/1999/xlink" width="30pt" height="30pt" viewBox="0 0 30 30" version="1.1">
<g id="surface396">
<path style=" stroke:none;fill-rule:nonzero;fill:rgb(0%,0%,0%);fill-opacity:1;" d="M 3.738281 14.441406 C 3.738281 12.921875 4.039063 11.460938 4.628906 10.070313 C 5.21875 8.679688 6.03125 7.488281 7.03125 6.480469 C 8.03125 5.46875 9.230469 4.671875 10.621094 4.078125 C 12.011719 3.488281 13.460938 3.191406 14.988281 3.191406 C 16.519531 3.191406 17.96875 3.488281 19.359375 4.078125 C 20.75 4.671875 21.949219 5.480469 22.960938 6.480469 C 23.96875 7.480469 24.769531 8.679688 25.359375 10.070313 C 25.949219 11.460938 26.25 12.910156 26.25 14.441406 C 26.25 15.96875 25.949219 17.421875 25.359375 18.808594 C 24.769531 20.199219 23.960938 21.398438 22.960938 22.410156 C 21.960938 23.421875 20.761719 24.21875 19.359375 24.808594 C 17.960938 25.398438 16.511719 25.699219 14.988281 25.699219 C 13.46875 25.699219 12.011719 25.398438 10.621094 24.808594 C 9.230469 24.21875 8.039063 23.410156 7.03125 22.410156 C 6.019531 21.410156 5.21875 20.210938 4.628906 18.808594 C 4.039063 17.410156 3.738281 15.96875 3.738281 14.441406 Z M 15.578125 4.410156 C 16.859375 5.511719 17.898438 6.921875 18.710938 8.628906 C 19.519531 10.339844 19.929688 12.28125 19.929688 14.449219 C 19.929688 19.089844 18.539063 22.441406 15.769531 24.5 C 17.050781 24.398438 18.261719 24.070313 19.398438 23.5 C 20.539063 22.929688 21.53125 22.210938 22.359375 21.320313 C 23.191406 20.429688 23.851563 19.390625 24.328125 18.191406 C 24.808594 16.988281 25.058594 15.75 25.058594 14.449219 C 25.058594 12.699219 24.640625 11.070313 23.800781 9.558594 C 22.960938 8.050781 21.808594 6.839844 20.359375 5.921875 C 18.910156 5 17.308594 4.5 15.578125 4.410156 Z M 15.578125 4.410156 "/>
</g>
</svg>
