<?xml version="1.0" encoding="UTF-8"?>
<svg xmlns="http://www.w3.org/2000/svg" xmlns:xlink="http://www.w3.org/1999/xlink" width="30pt" height="30pt" viewBox="0 0 30 30" version="1.1">
<g id="surface541">
<path style=" stroke:none;fill-rule:nonzero;fill:rgb(0%,0%,0%);fill-opacity:1;" d="M 15.011719 25.710938 C 17.050781 25.710938 18.929688 25.210938 20.660156 24.199219 C 22.390625 23.191406 23.75 21.828125 24.75 20.101563 C 25.75 18.371094 26.261719 16.488281 26.261719 14.449219 C 26.261719 12.410156 25.761719 10.53125 24.75 8.800781 C 23.738281 7.070313 22.378906 5.710938 20.660156 4.710938 C 18.941406 3.710938 17.050781 3.199219 15.011719 3.199219 C 16.300781 4.589844 17.25 6.269531 17.851563 8.25 C 18.449219 10.230469 18.761719 12.300781 18.761719 14.449219 C 18.761719 15.328125 18.730469 16.140625 18.679688 16.890625 C 18.628906 17.640625 18.519531 18.441406 18.359375 19.300781 C 18.199219 20.160156 17.980469 20.949219 17.71875 21.671875 C 17.460938 22.390625 17.089844 23.101563 16.628906 23.820313 C 16.171875 24.539063 15.621094 25.148438 15.011719 25.710938 Z M 15.011719 25.710938 "/>
</g>
</svg>
