<?xml version="1.0" encoding="UTF-8"?>
<svg xmlns="http://www.w3.org/2000/svg" xmlns:xlink="http://www.w3.org/1999/xlink" width="30pt" height="30pt" viewBox="0 0 30 30" version="1.1">
<g id="surface511">
<path style=" stroke:none;fill-rule:nonzero;fill:rgb(0%,0%,0%);fill-opacity:1;" d="M 3.738281 14.46875 C 3.738281 15.988281 4.039063 17.449219 4.628906 18.839844 C 5.21875 20.230469 6.019531 21.421875 7.03125 22.429688 C 8.039063 23.441406 9.230469 24.230469 10.621094 24.828125 C 12.011719 25.429688 13.460938 25.71875 14.988281 25.71875 C 17.878906 23.328125 19.328125 19.578125 19.328125 14.480469 C 19.328125 12.140625 18.921875 10.011719 18.109375 8.121094 C 17.300781 6.230469 16.261719 4.601563 15 3.25 C 12.96875 3.25 11.089844 3.75 9.359375 4.761719 C 7.628906 5.769531 6.25 7.121094 5.238281 8.839844 C 4.230469 10.558594 3.738281 12.441406 3.738281 14.46875 Z M 3.738281 14.46875 "/>
</g>
</svg>
