<?xml version="1.0" encoding="UTF-8"?>
<svg xmlns="http://www.w3.org/2000/svg" xmlns:xlink="http://www.w3.org/1999/xlink" width="30pt" height="30pt" viewBox="0 0 30 30" version="1.1">
<g id="surface571">
<path style=" stroke:none;fill-rule:nonzero;fill:rgb(0%,0%,0%);fill-opacity:1;" d="M 10.730469 14.429688 C 10.730469 15.621094 10.800781 16.71875 10.929688 17.730469 C 11.058594 18.738281 11.28125 19.730469 11.601563 20.71875 C 11.921875 21.710938 12.359375 22.621094 12.929688 23.46875 C 13.5 24.320313 14.199219 25.058594 15.019531 25.71875 C 16.550781 25.71875 18.011719 25.421875 19.398438 24.828125 C 20.789063 24.238281 21.980469 23.429688 22.988281 22.429688 C 24 21.429688 24.800781 20.230469 25.390625 18.828125 C 25.980469 17.429688 26.28125 15.980469 26.28125 14.441406 C 26.28125 12.398438 25.78125 10.511719 24.769531 8.789063 C 23.761719 7.070313 22.398438 5.691406 20.671875 4.691406 C 18.941406 3.691406 17.058594 3.179688 15.019531 3.179688 C 13.671875 4.480469 12.621094 6.121094 11.859375 8.109375 C 11.101563 10.101563 10.730469 12.191406 10.730469 14.429688 Z M 10.730469 14.429688 "/>
</g>
</svg>
