<?xml version="1.0" encoding="UTF-8"?>
<svg xmlns="http://www.w3.org/2000/svg" xmlns:xlink="http://www.w3.org/1999/xlink" width="30pt" height="30pt" viewBox="0 0 30 30" version="1.1">
<g id="surface356">
<path style=" stroke:none;fill-rule:nonzero;fill:rgb(0%,0%,0%);fill-opacity:1;" d="M 3.738281 14.429688 C 3.738281 12.390625 4.25 10.511719 5.261719 8.78125 C 6.269531 7.050781 7.640625 5.699219 9.371094 4.691406 C 11.101563 3.679688 12.980469 3.191406 15.019531 3.191406 C 17.058594 3.191406 18.941406 3.691406 20.671875 4.691406 C 22.398438 5.691406 23.761719 7.050781 24.761719 8.78125 C 25.761719 10.511719 26.261719 12.390625 26.261719 14.429688 C 26.261719 16.46875 25.761719 18.359375 24.761719 20.078125 C 23.761719 21.800781 22.398438 23.179688 20.671875 24.191406 C 18.941406 25.199219 17.058594 25.710938 15.019531 25.710938 C 12.980469 25.710938 11.089844 25.199219 9.371094 24.191406 C 7.648438 23.179688 6.269531 21.808594 5.261719 20.078125 C 4.25 18.351563 3.738281 16.46875 3.738281 14.429688 Z M 4.941406 14.429688 C 4.941406 15.789063 5.210938 17.089844 5.75 18.328125 C 6.289063 19.570313 7 20.648438 7.898438 21.550781 C 8.800781 22.449219 9.871094 23.171875 11.121094 23.699219 C 12.371094 24.230469 13.671875 24.511719 15.019531 24.511719 C 15.878906 24.511719 16.640625 24.421875 17.308594 24.230469 C 18.140625 23.789063 18.859375 23.269531 19.480469 22.660156 C 20.101563 22.050781 20.578125 21.441406 20.941406 20.808594 C 21.300781 20.179688 21.578125 19.480469 21.800781 18.71875 C 22.019531 17.960938 22.160156 17.238281 22.230469 16.578125 C 22.300781 15.921875 22.328125 15.210938 22.328125 14.429688 C 22.328125 13.5 22.230469 12.589844 22.03125 11.691406 C 21.828125 10.789063 21.519531 9.898438 21.101563 9.019531 C 20.679688 8.140625 20.109375 7.300781 19.378906 6.519531 C 18.648438 5.738281 17.808594 5.070313 16.839844 4.53125 C 16.441406 4.441406 15.828125 4.398438 15.019531 4.398438 C 13.660156 4.398438 12.359375 4.660156 11.121094 5.191406 C 9.878906 5.71875 8.800781 6.429688 7.898438 7.320313 C 7 8.210938 6.28125 9.289063 5.75 10.519531 C 5.21875 11.75 4.941406 13.058594 4.941406 14.429688 Z M 4.941406 14.429688 "/>
</g>
</svg>
