<?xml version="1.0" encoding="UTF-8"?>
<svg xmlns="http://www.w3.org/2000/svg" xmlns:xlink="http://www.w3.org/1999/xlink" width="30pt" height="30pt" viewBox="0 0 30 30" version="1.1">
<g id="surface491">
<path style=" stroke:none;fill-rule:nonzero;fill:rgb(0%,0%,0%);fill-opacity:1;" d="M 3.738281 14.441406 C 3.738281 16.480469 4.238281 18.371094 5.25 20.089844 C 6.261719 21.808594 7.621094 23.191406 9.339844 24.191406 C 11.058594 25.191406 12.949219 25.699219 14.988281 25.699219 C 13.53125 25.140625 12.269531 24.519531 11.199219 23.820313 C 10.128906 23.121094 9.269531 22.429688 8.628906 21.71875 C 7.988281 21.011719 7.480469 20.230469 7.101563 19.378906 C 6.71875 18.53125 6.460938 17.71875 6.328125 16.960938 C 6.199219 16.199219 6.128906 15.359375 6.128906 14.441406 C 6.128906 13.789063 6.160156 13.179688 6.210938 12.628906 C 6.261719 12.078125 6.371094 11.488281 6.53125 10.859375 C 6.691406 10.230469 6.910156 9.648438 7.171875 9.109375 C 7.429688 8.570313 7.800781 8.019531 8.25 7.449219 C 8.699219 6.878906 9.230469 6.351563 9.839844 5.878906 C 10.449219 5.410156 11.179688 4.929688 12.050781 4.460938 C 12.921875 3.988281 13.898438 3.570313 14.980469 3.191406 C 12.941406 3.191406 11.058594 3.691406 9.328125 4.699219 C 7.601563 5.710938 6.261719 7.070313 5.25 8.800781 C 4.238281 10.53125 3.738281 12.398438 3.738281 14.441406 Z M 3.738281 14.441406 "/>
</g>
</svg>
