<?xml version="1.0" encoding="UTF-8"?>
<svg xmlns="http://www.w3.org/2000/svg" xmlns:xlink="http://www.w3.org/1999/xlink" width="30pt" height="30pt" viewBox="0 0 30 30" version="1.1">
<g id="surface336">
<path style=" stroke:none;fill-rule:nonzero;fill:rgb(0%,0%,0%);fill-opacity:1;" d="M 3.738281 14.441406 C 3.738281 12.921875 4.039063 11.460938 4.628906 10.070313 C 5.21875 8.679688 6.03125 7.488281 7.03125 6.480469 C 8.03125 5.46875 9.230469 4.671875 10.621094 4.078125 C 12.011719 3.488281 13.460938 3.191406 14.988281 3.191406 C 16.519531 3.191406 17.96875 3.488281 19.359375 4.078125 C 20.75 4.671875 21.949219 5.480469 22.960938 6.480469 C 23.96875 7.480469 24.769531 8.679688 25.359375 10.070313 C 25.949219 11.460938 26.25 12.910156 26.25 14.441406 C 26.25 15.96875 25.949219 17.421875 25.359375 18.808594 C 24.769531 20.199219 23.960938 21.398438 22.960938 22.410156 C 21.960938 23.421875 20.761719 24.21875 19.359375 24.808594 C 17.960938 25.398438 16.511719 25.699219 14.988281 25.699219 C 13.46875 25.699219 12.011719 25.398438 10.621094 24.808594 C 9.230469 24.21875 8.039063 23.410156 7.03125 22.410156 C 6.019531 21.410156 5.21875 20.210938 4.628906 18.808594 C 4.039063 17.410156 3.738281 15.96875 3.738281 14.441406 Z M 4.941406 14.441406 C 4.941406 15.78125 5.199219 17.058594 5.710938 18.289063 C 6.21875 19.519531 6.921875 20.578125 7.789063 21.480469 C 8.660156 22.378906 9.710938 23.101563 10.921875 23.640625 C 12.128906 24.179688 13.398438 24.46875 14.730469 24.511719 C 13.019531 22.191406 12.171875 18.828125 12.171875 14.449219 C 12.171875 12.578125 12.398438 10.78125 12.859375 9.039063 C 13.320313 7.300781 13.96875 5.75 14.808594 4.398438 C 13.011719 4.429688 11.359375 4.898438 9.851563 5.808594 C 8.339844 6.71875 7.148438 7.941406 6.269531 9.460938 C 5.390625 10.980469 4.941406 12.648438 4.941406 14.441406 Z M 4.941406 14.441406 "/>
</g>
</svg>
