<?xml version="1.0" encoding="UTF-8"?>
<svg xmlns="http://www.w3.org/2000/svg" xmlns:xlink="http://www.w3.org/1999/xlink" width="30pt" height="30pt" viewBox="0 0 30 30" version="1.1">
<g id="surface521">
<path style=" stroke:none;fill-rule:nonzero;fill:rgb(0%,0%,0%);fill-opacity:1;" d="M 3.738281 14.460938 C 3.738281 16.5 4.238281 18.378906 5.25 20.109375 C 6.261719 21.839844 7.621094 23.199219 9.339844 24.199219 C 11.058594 25.199219 12.949219 25.710938 14.988281 25.710938 C 16.429688 22.628906 17.140625 18.878906 17.140625 14.460938 C 17.140625 11 16.421875 7.261719 14.988281 3.21875 C 13.46875 3.21875 12.011719 3.519531 10.621094 4.109375 C 9.230469 4.699219 8.03125 5.5 7.03125 6.5 C 6.03125 7.5 5.230469 8.699219 4.628906 10.089844 C 4.03125 11.480469 3.738281 12.929688 3.738281 14.460938 Z M 3.738281 14.460938 "/>
</g>
</svg>
