<?xml version="1.0" encoding="UTF-8"?>
<svg xmlns="http://www.w3.org/2000/svg" xmlns:xlink="http://www.w3.org/1999/xlink" width="30pt" height="30pt" viewBox="0 0 30 30" version="1.1">
<g id="surface666">
<path style=" stroke:none;fill-rule:nonzero;fill:rgb(0%,0%,0%);fill-opacity:1;" d="M 4.089844 16.890625 C 4.089844 18 4.421875 18.988281 5.078125 19.859375 C 5.738281 20.730469 6.601563 21.328125 7.660156 21.648438 L 7.011719 23.351563 C 6.96875 23.488281 7.011719 23.558594 7.148438 23.558594 L 9.269531 23.558594 L 7.980469 27.738281 L 8.261719 27.738281 L 12.488281 22.121094 C 12.53125 22.078125 12.53125 22.03125 12.511719 21.980469 C 12.480469 21.929688 12.441406 21.910156 12.371094 21.910156 L 10.191406 21.910156 L 12.660156 17.269531 C 12.730469 17.128906 12.691406 17.050781 12.53125 17.050781 L 9.570313 17.050781 C 9.480469 17.050781 9.410156 17.101563 9.351563 17.199219 L 8.28125 20.078125 C 7.570313 19.898438 6.980469 19.511719 6.5 18.910156 C 6.019531 18.308594 5.789063 17.640625 5.789063 16.898438 C 5.789063 16.070313 6.070313 15.351563 6.640625 14.730469 C 7.210938 14.121094 7.910156 13.761719 8.738281 13.660156 L 9.269531 13.589844 C 9.398438 13.589844 9.46875 13.53125 9.46875 13.410156 L 9.539063 12.898438 C 9.648438 11.820313 10.101563 10.910156 10.910156 10.179688 C 11.71875 9.449219 12.671875 9.078125 13.761719 9.078125 C 14.851563 9.078125 15.800781 9.449219 16.621094 10.179688 C 17.441406 10.910156 17.898438 11.820313 18.019531 12.890625 L 18.089844 13.460938 C 18.089844 13.578125 18.148438 13.648438 18.261719 13.648438 L 19.878906 13.648438 C 20.789063 13.648438 21.558594 13.96875 22.210938 14.601563 C 22.859375 15.230469 23.179688 16 23.179688 16.878906 C 23.179688 17.730469 22.878906 18.46875 22.28125 19.089844 C 21.679688 19.710938 20.949219 20.058594 20.078125 20.121094 C 19.960938 20.121094 19.890625 20.179688 19.890625 20.308594 L 19.890625 21.671875 C 19.890625 21.789063 19.949219 21.851563 20.078125 21.851563 C 21.410156 21.808594 22.539063 21.300781 23.46875 20.339844 C 24.398438 19.371094 24.859375 18.21875 24.859375 16.890625 C 24.859375 16.019531 24.640625 15.210938 24.199219 14.441406 C 24.960938 13.699219 25.46875 12.828125 25.710938 11.820313 L 25.898438 11.140625 C 25.910156 11.128906 25.910156 11.109375 25.910156 11.070313 C 25.910156 10.988281 25.859375 10.941406 25.761719 10.910156 L 25.140625 10.738281 C 24.570313 10.570313 24.078125 10.289063 23.679688 9.898438 C 23.28125 9.511719 23 9.101563 22.828125 8.679688 C 22.660156 8.261719 22.578125 7.839844 22.589844 7.421875 C 22.589844 7.140625 22.621094 6.859375 22.691406 6.570313 L 22.800781 5.960938 C 22.820313 5.859375 22.78125 5.78125 22.660156 5.730469 L 21.859375 5.488281 C 21.390625 5.398438 20.980469 5.351563 20.621094 5.351563 C 20.25 5.339844 19.871094 5.378906 19.488281 5.46875 C 19.109375 5.550781 18.710938 5.691406 18.300781 5.871094 C 17.890625 6.050781 17.5 6.320313 17.121094 6.660156 C 16.738281 7 16.410156 7.398438 16.128906 7.859375 C 15.300781 7.550781 14.511719 7.398438 13.769531 7.398438 C 12.359375 7.398438 11.101563 7.839844 10.011719 8.71875 C 8.921875 9.601563 8.210938 10.71875 7.898438 12.078125 C 6.789063 12.339844 5.878906 12.921875 5.160156 13.820313 C 4.449219 14.710938 4.089844 15.738281 4.089844 16.890625 Z M 13.679688 22.960938 C 13.679688 23.199219 13.761719 23.398438 13.921875 23.550781 C 14.078125 23.710938 14.28125 23.789063 14.5 23.789063 C 14.738281 23.789063 14.941406 23.710938 15.109375 23.550781 C 15.28125 23.390625 15.359375 23.191406 15.359375 22.960938 C 15.359375 22.71875 15.28125 22.519531 15.109375 22.351563 C 14.941406 22.179688 14.738281 22.089844 14.5 22.089844 C 14.28125 22.089844 14.089844 22.179688 13.921875 22.351563 C 13.75 22.519531 13.679688 22.71875 13.679688 22.960938 Z M 13.679688 19.320313 C 13.679688 19.558594 13.761719 19.75 13.921875 19.898438 C 14.078125 20.058594 14.28125 20.140625 14.5 20.140625 C 14.738281 20.140625 14.949219 20.058594 15.109375 19.910156 C 15.269531 19.761719 15.359375 19.558594 15.359375 19.320313 C 15.359375 19.089844 15.28125 18.890625 15.109375 18.71875 C 14.941406 18.550781 14.738281 18.46875 14.5 18.46875 C 14.269531 18.46875 14.078125 18.550781 13.921875 18.71875 C 13.761719 18.890625 13.679688 19.089844 13.679688 19.320313 Z M 13.679688 26.628906 C 13.679688 26.851563 13.761719 27.039063 13.921875 27.199219 C 14.089844 27.371094 14.28125 27.449219 14.5 27.449219 C 14.738281 27.449219 14.941406 27.371094 15.109375 27.210938 C 15.28125 27.050781 15.359375 26.859375 15.359375 26.621094 C 15.359375 26.378906 15.28125 26.179688 15.109375 26.011719 C 14.941406 25.839844 14.738281 25.75 14.5 25.75 C 14.28125 25.75 14.089844 25.839844 13.921875 26.011719 C 13.761719 26.191406 13.679688 26.398438 13.679688 26.628906 Z M 16.910156 21.019531 C 16.910156 21.261719 16.988281 21.460938 17.160156 21.621094 C 17.328125 21.78125 17.519531 21.871094 17.761719 21.871094 C 17.988281 21.871094 18.191406 21.789063 18.351563 21.621094 C 18.511719 21.449219 18.589844 21.25 18.589844 21.019531 C 18.589844 20.800781 18.511719 20.601563 18.351563 20.441406 C 18.191406 20.28125 18 20.199219 17.761719 20.199219 C 17.53125 20.199219 17.328125 20.28125 17.160156 20.441406 C 16.988281 20.601563 16.910156 20.789063 16.910156 21.019531 Z M 16.910156 24.660156 C 16.910156 24.890625 16.988281 25.078125 17.148438 25.238281 C 17.308594 25.398438 17.511719 25.480469 17.75 25.480469 C 17.988281 25.480469 18.179688 25.398438 18.339844 25.238281 C 18.5 25.078125 18.570313 24.890625 18.570313 24.648438 C 18.570313 24.410156 18.488281 24.21875 18.339844 24.058594 C 18.179688 23.898438 17.988281 23.828125 17.75 23.828125 C 17.511719 23.828125 17.308594 23.910156 17.148438 24.058594 C 16.988281 24.21875 16.910156 24.421875 16.910156 24.660156 Z M 17.589844 8.769531 C 17.921875 8.210938 18.371094 7.78125 18.929688 7.480469 C 19.488281 7.179688 20.078125 7.03125 20.691406 7.03125 L 20.910156 7.03125 L 20.910156 7.351563 C 20.910156 7.988281 21.019531 8.609375 21.25 9.210938 C 21.480469 9.808594 21.808594 10.359375 22.269531 10.871094 C 22.71875 11.378906 23.261719 11.78125 23.878906 12.078125 C 23.710938 12.460938 23.460938 12.800781 23.121094 13.109375 C 22.210938 12.328125 21.140625 11.941406 19.898438 11.941406 L 19.570313 11.941406 C 19.28125 10.679688 18.621094 9.621094 17.589844 8.769531 Z M 17.589844 8.769531 "/>
</g>
</svg>
