<?xml version="1.0" encoding="UTF-8"?>
<svg xmlns="http://www.w3.org/2000/svg" xmlns:xlink="http://www.w3.org/1999/xlink" width="30pt" height="30pt" viewBox="0 0 30 30" version="1.1">
<g id="surface716">
<path style=" stroke:none;fill-rule:nonzero;fill:rgb(0%,0%,0%);fill-opacity:1;" d="M 4.300781 16.890625 C 4.300781 17.78125 4.519531 18.609375 4.960938 19.371094 C 5.398438 20.128906 5.988281 20.730469 6.75 21.171875 C 7.511719 21.609375 8.328125 21.839844 9.230469 21.839844 L 20.039063 21.839844 C 20.929688 21.839844 21.761719 21.621094 22.519531 21.171875 C 23.28125 20.71875 23.878906 20.121094 24.320313 19.371094 C 24.761719 18.609375 24.988281 17.78125 24.988281 16.890625 C 24.988281 16.25 24.851563 15.589844 24.570313 14.890625 C 25.328125 13.960938 25.699219 12.859375 25.699219 11.589844 C 25.699219 10.640625 25.46875 9.761719 25.011719 8.960938 C 24.550781 8.160156 23.910156 7.519531 23.109375 7.050781 C 22.308594 6.578125 21.429688 6.351563 20.480469 6.351563 C 18.988281 6.351563 17.699219 6.929688 16.609375 8.089844 C 15.851563 7.660156 14.949219 7.441406 13.921875 7.441406 C 12.511719 7.441406 11.269531 7.871094 10.191406 8.738281 C 9.109375 9.609375 8.421875 10.71875 8.109375 12.089844 C 6.988281 12.339844 6.078125 12.910156 5.371094 13.808594 C 4.660156 14.710938 4.300781 15.738281 4.300781 16.890625 Z M 6.011719 16.890625 C 6.011719 16.058594 6.289063 15.339844 6.839844 14.730469 C 7.398438 14.121094 8.101563 13.769531 8.941406 13.671875 L 9.621094 13.640625 L 9.691406 12.921875 C 9.828125 11.839844 10.300781 10.929688 11.101563 10.210938 C 11.898438 9.480469 12.839844 9.121094 13.910156 9.121094 C 15 9.121094 15.960938 9.488281 16.769531 10.21875 C 17.578125 10.949219 18.039063 11.851563 18.148438 12.929688 L 18.25 13.679688 L 20.03125 13.679688 C 20.910156 13.679688 21.671875 14 22.308594 14.628906 C 22.949219 15.261719 23.269531 16.019531 23.269531 16.890625 C 23.269531 17.789063 22.949219 18.558594 22.320313 19.210938 C 21.691406 19.859375 20.921875 20.179688 20.039063 20.179688 L 9.230469 20.179688 C 8.359375 20.179688 7.609375 19.859375 6.96875 19.210938 C 6.328125 18.550781 6.011719 17.78125 6.011719 16.890625 Z M 18.039063 9.058594 C 18.730469 8.398438 19.539063 8.070313 20.480469 8.070313 C 21.46875 8.070313 22.308594 8.410156 23 9.101563 C 23.691406 9.78125 24.039063 10.621094 24.039063 11.609375 C 24.039063 12.230469 23.871094 12.839844 23.519531 13.449219 C 22.558594 12.480469 21.398438 12 20.03125 12 L 19.71875 12 C 19.449219 10.890625 18.890625 9.910156 18.039063 9.058594 Z M 18.039063 9.058594 "/>
</g>
</svg>
