<?xml version="1.0" encoding="UTF-8"?>
<svg xmlns="http://www.w3.org/2000/svg" xmlns:xlink="http://www.w3.org/1999/xlink" width="30pt" height="30pt" viewBox="0 0 30 30" version="1.1">
<g id="surface671">
<path style=" stroke:none;fill-rule:nonzero;fill:rgb(0%,0%,0%);fill-opacity:1;" d="M 4.070313 16.929688 C 4.070313 18.261719 4.539063 19.398438 5.46875 20.359375 C 6.398438 21.320313 7.539063 21.828125 8.871094 21.871094 C 8.988281 21.871094 9.050781 21.808594 9.050781 21.699219 L 9.050781 20.359375 C 9.050781 20.25 8.988281 20.191406 8.871094 20.191406 C 8.019531 20.148438 7.289063 19.800781 6.691406 19.160156 C 6.078125 18.519531 5.78125 17.769531 5.78125 16.921875 C 5.78125 16.070313 6.058594 15.339844 6.628906 14.71875 C 7.199219 14.101563 7.898438 13.761719 8.730469 13.691406 L 9.261719 13.621094 C 9.390625 13.621094 9.460938 13.558594 9.460938 13.449219 L 9.53125 12.929688 C 9.640625 11.839844 10.089844 10.921875 10.898438 10.179688 C 11.710938 9.441406 12.660156 9.070313 13.761719 9.070313 C 14.851563 9.070313 15.800781 9.441406 16.621094 10.171875 C 17.441406 10.898438 17.898438 11.808594 18.019531 12.890625 L 18.101563 13.460938 C 18.101563 13.578125 18.160156 13.640625 18.269531 13.640625 L 19.890625 13.640625 C 20.800781 13.640625 21.570313 13.960938 22.21875 14.609375 C 22.871094 15.25 23.191406 16.019531 23.191406 16.921875 C 23.191406 17.769531 22.890625 18.519531 22.28125 19.160156 C 21.671875 19.800781 20.949219 20.140625 20.101563 20.191406 C 19.960938 20.191406 19.890625 20.25 19.890625 20.359375 L 19.890625 21.699219 C 19.890625 21.808594 19.960938 21.871094 20.101563 21.871094 C 20.980469 21.851563 21.78125 21.609375 22.511719 21.160156 C 23.238281 20.710938 23.820313 20.109375 24.238281 19.359375 C 24.660156 18.609375 24.871094 17.800781 24.871094 16.929688 C 24.871094 16.019531 24.648438 15.191406 24.21875 14.449219 C 24.960938 13.789063 25.460938 12.929688 25.738281 11.871094 L 25.910156 11.148438 C 25.921875 11.140625 25.929688 11.109375 25.929688 11.070313 C 25.929688 11 25.878906 10.941406 25.769531 10.910156 L 25.160156 10.738281 C 24.71875 10.609375 24.328125 10.421875 23.988281 10.171875 C 23.648438 9.921875 23.378906 9.640625 23.179688 9.328125 C 22.980469 9.019531 22.839844 8.710938 22.738281 8.378906 C 22.640625 8.058594 22.589844 7.738281 22.589844 7.429688 C 22.589844 7.160156 22.621094 6.871094 22.691406 6.570313 L 22.800781 5.949219 C 22.820313 5.859375 22.78125 5.78125 22.660156 5.730469 L 21.859375 5.488281 C 21.421875 5.378906 21.011719 5.328125 20.609375 5.328125 C 20.238281 5.328125 19.871094 5.371094 19.488281 5.460938 C 19.109375 5.550781 18.71875 5.679688 18.308594 5.871094 C 17.898438 6.058594 17.511719 6.320313 17.128906 6.671875 C 16.75 7.019531 16.421875 7.421875 16.140625 7.890625 C 15.328125 7.558594 14.539063 7.390625 13.761719 7.390625 C 12.351563 7.390625 11.089844 7.828125 10 8.710938 C 8.910156 9.589844 8.199219 10.710938 7.890625 12.078125 C 6.769531 12.359375 5.851563 12.949219 5.140625 13.839844 C 4.429688 14.738281 4.070313 15.769531 4.070313 16.929688 Z M 9.601563 24.660156 C 9.601563 24.890625 9.679688 25.078125 9.839844 25.238281 C 10 25.398438 10.199219 25.480469 10.421875 25.480469 C 10.660156 25.480469 10.859375 25.398438 11.019531 25.25 C 11.179688 25.089844 11.261719 24.898438 11.261719 24.660156 C 11.261719 24.421875 11.179688 24.230469 11.019531 24.070313 C 10.859375 23.910156 10.660156 23.839844 10.421875 23.839844 C 10.179688 23.839844 10 23.910156 9.839844 24.070313 C 9.679688 24.21875 9.601563 24.421875 9.601563 24.660156 Z M 10.03125 21.019531 C 10.03125 21.261719 10.109375 21.460938 10.269531 21.621094 C 10.429688 21.78125 10.621094 21.871094 10.859375 21.871094 C 11.101563 21.871094 11.300781 21.789063 11.460938 21.621094 C 11.621094 21.449219 11.699219 21.25 11.699219 21.019531 C 11.699219 20.800781 11.621094 20.601563 11.460938 20.441406 C 11.300781 20.28125 11.101563 20.199219 10.859375 20.199219 C 10.628906 20.199219 10.429688 20.28125 10.269531 20.441406 C 10.109375 20.601563 10.03125 20.789063 10.03125 21.019531 Z M 12.378906 26.628906 C 12.378906 26.851563 12.460938 27.039063 12.621094 27.199219 C 12.789063 27.371094 12.980469 27.449219 13.199219 27.449219 C 13.441406 27.449219 13.640625 27.371094 13.808594 27.210938 C 13.980469 27.050781 14.058594 26.859375 14.058594 26.621094 C 14.058594 26.378906 13.980469 26.179688 13.808594 26.011719 C 13.640625 25.839844 13.441406 25.75 13.199219 25.75 C 12.980469 25.75 12.789063 25.839844 12.621094 26.011719 C 12.460938 26.191406 12.378906 26.398438 12.378906 26.628906 Z M 13.019531 22.960938 C 13.019531 23.199219 13.101563 23.390625 13.269531 23.550781 C 13.429688 23.710938 13.621094 23.789063 13.839844 23.789063 C 14.078125 23.789063 14.28125 23.710938 14.449219 23.550781 C 14.621094 23.390625 14.710938 23.191406 14.710938 22.960938 C 14.710938 22.71875 14.621094 22.519531 14.449219 22.351563 C 14.28125 22.179688 14.070313 22.089844 13.839844 22.089844 C 13.621094 22.089844 13.429688 22.179688 13.261719 22.351563 C 13.089844 22.519531 13.019531 22.71875 13.019531 22.960938 Z M 13.660156 19.320313 C 13.660156 19.558594 13.738281 19.75 13.898438 19.898438 C 14.058594 20.058594 14.261719 20.140625 14.480469 20.140625 C 14.71875 20.140625 14.929688 20.058594 15.089844 19.910156 C 15.25 19.761719 15.339844 19.558594 15.339844 19.320313 C 15.339844 19.089844 15.261719 18.890625 15.089844 18.71875 C 14.921875 18.550781 14.71875 18.46875 14.480469 18.46875 C 14.261719 18.46875 14.058594 18.550781 13.898438 18.71875 C 13.738281 18.890625 13.660156 19.089844 13.660156 19.320313 Z M 16.050781 24.660156 C 16.050781 24.890625 16.128906 25.078125 16.289063 25.238281 C 16.449219 25.398438 16.648438 25.480469 16.890625 25.480469 C 17.121094 25.480469 17.320313 25.398438 17.480469 25.238281 C 17.640625 25.078125 17.71875 24.890625 17.71875 24.648438 C 17.71875 24.410156 17.640625 24.21875 17.488281 24.058594 C 17.328125 23.898438 17.140625 23.828125 16.898438 23.828125 C 16.660156 23.828125 16.460938 23.910156 16.300781 24.058594 C 16.128906 24.21875 16.050781 24.421875 16.050781 24.660156 Z M 16.46875 21.019531 C 16.46875 21.25 16.550781 21.449219 16.71875 21.621094 C 16.890625 21.789063 17.089844 21.871094 17.320313 21.871094 C 17.550781 21.871094 17.75 21.789063 17.910156 21.621094 C 18.070313 21.449219 18.148438 21.25 18.148438 21.019531 C 18.148438 20.800781 18.070313 20.601563 17.910156 20.441406 C 17.75 20.28125 17.558594 20.199219 17.320313 20.199219 C 17.078125 20.199219 16.890625 20.28125 16.71875 20.449219 C 16.550781 20.609375 16.46875 20.800781 16.46875 21.019531 Z M 17.578125 8.769531 C 17.890625 8.230469 18.328125 7.808594 18.878906 7.511719 C 19.429688 7.210938 20 7.058594 20.589844 7.050781 C 20.738281 7.050781 20.851563 7.058594 20.921875 7.070313 L 20.921875 7.378906 C 20.921875 8.351563 21.179688 9.261719 21.699219 10.121094 C 22.21875 10.980469 22.949219 11.628906 23.871094 12.078125 C 23.710938 12.441406 23.460938 12.800781 23.109375 13.148438 C 22.21875 12.359375 21.148438 11.96875 19.878906 11.96875 L 19.570313 11.96875 C 19.300781 10.738281 18.640625 9.679688 17.578125 8.769531 Z M 17.578125 8.769531 "/>
</g>
</svg>
