<?xml version="1.0" encoding="UTF-8"?>
<svg xmlns="http://www.w3.org/2000/svg" xmlns:xlink="http://www.w3.org/1999/xlink" width="30pt" height="30pt" viewBox="0 0 30 30" version="1.1">
<g id="surface596">
<path style=" stroke:none;fill-rule:nonzero;fill:rgb(0%,0%,0%);fill-opacity:1;" d="M 6.871094 18.230469 L 8.808594 18.230469 L 8.808594 14.589844 L 8.828125 14.589844 L 10.878906 18.230469 L 12.871094 18.230469 L 12.871094 11.570313 L 10.929688 11.570313 L 10.929688 15.121094 L 10.910156 15.121094 L 8.96875 11.570313 L 6.871094 11.570313 Z M 13.390625 18.378906 L 14.820313 18.378906 L 17.429688 11.410156 L 16.011719 11.410156 Z M 16.261719 18.230469 L 18.328125 18.230469 L 18.621094 17.28125 L 20.738281 17.28125 L 21.019531 18.230469 L 23.148438 18.230469 L 20.71875 11.570313 L 18.710938 11.570313 Z M 19.070313 15.839844 L 19.710938 13.800781 L 19.738281 13.800781 L 20.339844 15.839844 Z M 19.070313 15.839844 "/>
</g>
</svg>
