<?xml version="1.0" encoding="UTF-8"?>
<svg xmlns="http://www.w3.org/2000/svg" xmlns:xlink="http://www.w3.org/1999/xlink" width="30pt" height="30pt" viewBox="0 0 30 30" version="1.1">
<g id="surface691">
<path style=" stroke:none;fill-rule:nonzero;fill:rgb(0%,0%,0%);fill-opacity:1;" d="M 4.078125 16.878906 C 4.078125 17.988281 4.410156 18.980469 5.070313 19.859375 C 5.730469 20.738281 6.589844 21.328125 7.648438 21.648438 L 6.988281 23.339844 C 6.960938 23.480469 7.011719 23.550781 7.140625 23.550781 L 9.261719 23.550781 L 8.289063 27.058594 L 8.578125 27.058594 L 12.488281 22.121094 C 12.53125 22.070313 12.53125 22.019531 12.5 21.96875 C 12.46875 21.921875 12.421875 21.898438 12.351563 21.898438 L 10.171875 21.898438 L 12.648438 17.269531 C 12.71875 17.128906 12.679688 17.050781 12.519531 17.050781 L 9.558594 17.050781 C 9.46875 17.050781 9.398438 17.101563 9.328125 17.191406 L 8.261719 20.070313 C 7.539063 19.890625 6.949219 19.5 6.480469 18.898438 C 6.011719 18.300781 5.78125 17.628906 5.78125 16.890625 C 5.78125 16.058594 6.058594 15.339844 6.628906 14.71875 C 7.199219 14.101563 7.898438 13.75 8.730469 13.648438 L 9.25 13.570313 C 9.378906 13.570313 9.449219 13.511719 9.449219 13.398438 L 9.519531 12.878906 C 9.628906 11.800781 10.078125 10.890625 10.890625 10.160156 C 11.699219 9.429688 12.648438 9.058594 13.738281 9.058594 C 14.820313 9.058594 15.769531 9.429688 16.589844 10.160156 C 17.410156 10.890625 17.878906 11.800781 18 12.871094 L 18.070313 13.460938 C 18.070313 13.570313 18.128906 13.628906 18.25 13.628906 L 19.871094 13.628906 C 20.78125 13.628906 21.550781 13.949219 22.199219 14.578125 C 22.851563 15.210938 23.171875 15.980469 23.171875 16.871094 C 23.171875 17.71875 22.871094 18.460938 22.269531 19.078125 C 21.671875 19.699219 20.941406 20.050781 20.070313 20.121094 C 19.949219 20.121094 19.878906 20.179688 19.878906 20.289063 L 19.878906 21.671875 C 19.878906 21.789063 19.941406 21.851563 20.070313 21.851563 C 20.949219 21.820313 21.75 21.578125 22.480469 21.128906 C 23.210938 20.679688 23.789063 20.078125 24.210938 19.328125 C 24.628906 18.578125 24.839844 17.761719 24.839844 16.878906 C 24.839844 16.011719 24.621094 15.199219 24.179688 14.429688 C 24.96875 13.671875 25.488281 12.800781 25.738281 11.808594 L 25.878906 11.089844 C 25.890625 11.078125 25.898438 11.050781 25.898438 11.019531 C 25.898438 10.949219 25.851563 10.898438 25.738281 10.871094 L 25.179688 10.691406 C 24.609375 10.53125 24.121094 10.25 23.71875 9.871094 C 23.308594 9.488281 23.019531 9.070313 22.851563 8.640625 C 22.679688 8.199219 22.589844 7.761719 22.589844 7.320313 C 22.589844 7.058594 22.621094 6.789063 22.671875 6.519531 L 22.808594 5.910156 C 22.851563 5.808594 22.808594 5.730469 22.671875 5.679688 C 22.460938 5.589844 22.160156 5.511719 21.769531 5.421875 C 21.378906 5.328125 21 5.289063 20.621094 5.289063 C 20.261719 5.289063 19.890625 5.328125 19.5 5.421875 C 19.121094 5.511719 18.71875 5.640625 18.308594 5.828125 C 17.898438 6.011719 17.5 6.28125 17.109375 6.628906 C 16.71875 6.980469 16.390625 7.378906 16.109375 7.851563 C 15.289063 7.550781 14.488281 7.398438 13.730469 7.398438 C 12.320313 7.398438 11.058594 7.839844 9.96875 8.710938 C 8.878906 9.578125 8.171875 10.699219 7.859375 12.070313 C 6.75 12.328125 5.839844 12.910156 5.121094 13.808594 C 4.441406 14.691406 4.078125 15.71875 4.078125 16.878906 Z M 12.179688 26.699219 C 12.179688 26.859375 12.230469 27.019531 12.328125 27.160156 C 12.429688 27.308594 12.578125 27.410156 12.78125 27.460938 C 12.890625 27.480469 12.988281 27.488281 13.078125 27.488281 C 13.488281 27.488281 13.738281 27.28125 13.839844 26.859375 L 16.160156 18.070313 C 16.21875 17.828125 16.199219 17.621094 16.089844 17.421875 C 15.980469 17.21875 15.808594 17.089844 15.589844 17.03125 C 15.359375 16.960938 15.140625 16.980469 14.941406 17.089844 C 14.738281 17.199219 14.601563 17.359375 14.539063 17.578125 L 12.21875 26.421875 C 12.191406 26.519531 12.179688 26.609375 12.179688 26.699219 Z M 16.351563 23.679688 C 16.351563 23.839844 16.398438 24 16.5 24.140625 C 16.601563 24.28125 16.75 24.390625 16.960938 24.449219 C 16.988281 24.449219 17.039063 24.449219 17.109375 24.460938 C 17.179688 24.46875 17.238281 24.46875 17.269531 24.46875 C 17.648438 24.46875 17.890625 24.261719 17.988281 23.839844 L 19.488281 18.070313 C 19.550781 17.828125 19.53125 17.609375 19.410156 17.410156 C 19.300781 17.21875 19.128906 17.089844 18.898438 17.03125 C 18.671875 16.960938 18.449219 16.980469 18.25 17.089844 C 18.050781 17.199219 17.921875 17.359375 17.859375 17.589844 L 16.359375 23.410156 C 16.359375 23.511719 16.351563 23.601563 16.351563 23.679688 Z M 17.589844 8.75 C 17.921875 8.179688 18.359375 7.75 18.921875 7.449219 C 19.46875 7.148438 20.058594 7 20.679688 7 C 20.800781 7 20.898438 7 20.949219 7.011719 L 20.949219 7.328125 C 20.949219 8.289063 21.210938 9.199219 21.730469 10.058594 C 22.25 10.921875 22.980469 11.570313 23.898438 12.03125 C 23.71875 12.449219 23.460938 12.800781 23.109375 13.101563 C 22.191406 12.308594 21.121094 11.921875 19.890625 11.921875 L 19.570313 11.921875 C 19.289063 10.660156 18.628906 9.609375 17.589844 8.75 Z M 17.589844 8.75 "/>
</g>
</svg>
