<?xml version="1.0" encoding="UTF-8"?>
<svg xmlns="http://www.w3.org/2000/svg" xmlns:xlink="http://www.w3.org/1999/xlink" width="30pt" height="30pt" viewBox="0 0 30 30" version="1.1">
<g id="surface751">
<path style=" stroke:none;fill-rule:nonzero;fill:rgb(0%,0%,0%);fill-opacity:1;" d="M 4.261719 16.929688 C 4.261719 17.589844 4.378906 18.210938 4.640625 18.808594 C 4.898438 19.410156 5.230469 19.921875 5.660156 20.359375 C 6.089844 20.789063 6.601563 21.148438 7.191406 21.410156 C 7.78125 21.671875 8.398438 21.828125 9.058594 21.859375 C 9.171875 21.859375 9.230469 21.800781 9.230469 21.691406 L 9.230469 20.351563 C 9.230469 20.238281 9.171875 20.179688 9.058594 20.179688 C 8.191406 20.121094 7.460938 19.769531 6.871094 19.148438 C 6.28125 18.53125 5.980469 17.78125 5.980469 16.929688 C 5.980469 16.089844 6.261719 15.359375 6.828125 14.738281 C 7.398438 14.121094 8.089844 13.769531 8.929688 13.699219 L 9.460938 13.640625 C 9.589844 13.640625 9.660156 13.578125 9.660156 13.449219 L 9.71875 12.941406 C 9.828125 11.851563 10.28125 10.949219 11.089844 10.230469 C 11.898438 9.511719 12.851563 9.148438 13.949219 9.148438 C 15.039063 9.148438 16 9.511719 16.800781 10.21875 C 17.609375 10.941406 18.070313 11.828125 18.179688 12.910156 L 18.25 13.488281 C 18.25 13.609375 18.308594 13.671875 18.441406 13.671875 L 20.039063 13.671875 C 20.941406 13.671875 21.710938 13.988281 22.359375 14.628906 C 23.011719 15.269531 23.328125 16.03125 23.328125 16.921875 C 23.328125 17.78125 23.03125 18.519531 22.441406 19.140625 C 21.851563 19.761719 21.109375 20.109375 20.25 20.171875 C 20.121094 20.171875 20.050781 20.230469 20.050781 20.339844 L 20.050781 21.679688 C 20.050781 21.789063 20.121094 21.851563 20.25 21.851563 C 21.589844 21.789063 22.71875 21.28125 23.640625 20.339844 C 24.558594 19.390625 25.019531 18.25 25.019531 16.921875 C 25.019531 16.199219 24.878906 15.539063 24.601563 14.929688 C 25.378906 13.988281 25.769531 12.871094 25.769531 11.570313 C 25.769531 10.628906 25.539063 9.761719 25.070313 8.949219 C 24.601563 8.140625 23.960938 7.5 23.160156 7.03125 C 22.359375 6.558594 21.480469 6.320313 20.539063 6.320313 C 18.980469 6.320313 17.691406 6.898438 16.660156 8.050781 C 15.78125 7.621094 14.878906 7.398438 13.960938 7.398438 C 12.550781 7.398438 11.300781 7.839844 10.210938 8.71875 C 9.121094 9.601563 8.421875 10.71875 8.109375 12.101563 C 7.011719 12.359375 6.101563 12.929688 5.378906 13.828125 C 4.621094 14.761719 4.261719 15.78125 4.261719 16.929688 Z M 9.75 23.609375 C 9.75 24.011719 9.96875 24.269531 10.398438 24.390625 C 10.609375 24.460938 10.820313 24.441406 11.03125 24.328125 C 11.238281 24.21875 11.378906 24.050781 11.441406 23.828125 L 12.941406 18.101563 C 13 17.878906 12.96875 17.671875 12.851563 17.46875 C 12.730469 17.269531 12.550781 17.140625 12.308594 17.070313 C 12.089844 17 11.878906 17.019531 11.679688 17.140625 C 11.480469 17.261719 11.351563 17.429688 11.289063 17.660156 L 9.789063 23.359375 C 9.761719 23.46875 9.75 23.550781 9.75 23.609375 Z M 12.339844 26.660156 C 12.339844 26.78125 12.371094 26.898438 12.421875 27.03125 C 12.519531 27.238281 12.691406 27.378906 12.929688 27.460938 C 12.949219 27.460938 12.988281 27.460938 13.03125 27.46875 C 13.070313 27.480469 13.109375 27.480469 13.140625 27.480469 C 13.171875 27.480469 13.199219 27.480469 13.230469 27.480469 C 13.660156 27.480469 13.910156 27.261719 13.988281 26.820313 L 16.289063 18.078125 C 16.359375 17.859375 16.339844 17.648438 16.230469 17.449219 C 16.121094 17.25 15.949219 17.121094 15.730469 17.050781 C 15.488281 16.980469 15.261719 17 15.050781 17.121094 C 14.839844 17.238281 14.71875 17.410156 14.671875 17.640625 L 12.359375 26.390625 C 12.351563 26.488281 12.339844 26.578125 12.339844 26.660156 Z M 16.5 23.601563 C 16.5 23.761719 16.550781 23.910156 16.660156 24.070313 C 16.769531 24.230469 16.921875 24.328125 17.109375 24.390625 C 17.171875 24.410156 17.25 24.421875 17.339844 24.421875 C 17.511719 24.421875 17.671875 24.371094 17.828125 24.28125 C 17.988281 24.191406 18.089844 24.039063 18.148438 23.828125 L 19.648438 18.101563 C 19.730469 17.890625 19.699219 17.691406 19.578125 17.480469 C 19.460938 17.269531 19.289063 17.140625 19.058594 17.070313 C 18.820313 17 18.601563 17.019531 18.398438 17.140625 C 18.199219 17.261719 18.078125 17.429688 18.039063 17.660156 L 16.539063 23.359375 C 16.511719 23.46875 16.5 23.550781 16.5 23.601563 Z M 18.03125 9.078125 C 18.699219 8.410156 19.519531 8.078125 20.511719 8.078125 C 21.488281 8.078125 22.320313 8.421875 23 9.101563 C 23.691406 9.78125 24.03125 10.609375 24.03125 11.578125 C 24.03125 12.210938 23.859375 12.820313 23.511719 13.429688 C 22.558594 12.480469 21.398438 12 20.019531 12 L 19.710938 12 C 19.429688 10.828125 18.871094 9.859375 18.03125 9.078125 Z M 18.03125 9.078125 "/>
</g>
</svg>
