<?xml version="1.0" encoding="UTF-8"?>
<svg xmlns="http://www.w3.org/2000/svg" xmlns:xlink="http://www.w3.org/1999/xlink" width="30pt" height="30pt" viewBox="0 0 30 30" version="1.1">
<g id="surface611">
<path style=" stroke:none;fill-rule:nonzero;fill:rgb(0%,0%,0%);fill-opacity:1;" d="M 2.351563 21.050781 C 2.351563 21.289063 2.429688 21.480469 2.601563 21.640625 C 2.769531 21.800781 2.980469 21.871094 3.230469 21.871094 L 12.628906 21.871094 C 12.871094 21.871094 13.058594 21.789063 13.21875 21.640625 C 13.378906 21.480469 13.449219 21.289063 13.449219 21.050781 C 13.449219 20.800781 13.371094 20.601563 13.21875 20.441406 C 13.058594 20.28125 12.871094 20.199219 12.628906 20.199219 L 3.230469 20.199219 C 2.980469 20.199219 2.769531 20.28125 2.601563 20.441406 C 2.429688 20.601563 2.351563 20.800781 2.351563 21.050781 Z M 4.980469 18 C 4.980469 18.238281 5.070313 18.441406 5.238281 18.601563 C 5.398438 18.769531 5.601563 18.851563 5.839844 18.851563 L 15.261719 18.851563 C 15.488281 18.851563 15.691406 18.769531 15.851563 18.601563 C 16.011719 18.429688 16.089844 18.230469 16.089844 18 C 16.089844 17.769531 16.011719 17.570313 15.859375 17.410156 C 15.710938 17.25 15.511719 17.171875 15.269531 17.171875 L 5.851563 17.171875 C 5.609375 17.171875 5.410156 17.25 5.238281 17.410156 C 5.070313 17.570313 4.980469 17.769531 4.980469 18 Z M 6.019531 15.660156 C 6.019531 15.75 6.078125 15.800781 6.199219 15.800781 L 7.628906 15.800781 C 7.71875 15.800781 7.789063 15.75 7.851563 15.660156 C 8.078125 15.121094 8.421875 14.671875 8.890625 14.308594 C 9.359375 13.949219 9.878906 13.75 10.46875 13.710938 L 11.019531 13.640625 C 11.140625 13.640625 11.199219 13.578125 11.199219 13.46875 L 11.269531 12.949219 C 11.378906 11.859375 11.839844 10.949219 12.648438 10.230469 C 13.46875 9.5 14.421875 9.140625 15.519531 9.140625 C 16.609375 9.140625 17.558594 9.5 18.359375 10.21875 C 19.160156 10.941406 19.628906 11.839844 19.769531 12.929688 L 19.851563 13.511719 C 19.851563 13.621094 19.910156 13.679688 20.03125 13.679688 L 21.640625 13.679688 C 22.550781 13.679688 23.320313 14 23.960938 14.640625 C 24.601563 15.28125 24.921875 16.050781 24.921875 16.949219 C 24.921875 17.828125 24.601563 18.601563 23.949219 19.238281 C 23.300781 19.890625 22.539063 20.210938 21.648438 20.210938 L 14.738281 20.210938 C 14.628906 20.210938 14.570313 20.269531 14.570313 20.378906 L 14.570313 21.71875 C 14.570313 21.828125 14.628906 21.890625 14.738281 21.890625 L 21.648438 21.890625 C 22.550781 21.890625 23.378906 21.671875 24.140625 21.230469 C 24.898438 20.789063 25.511719 20.191406 25.949219 19.429688 C 26.390625 18.671875 26.621094 17.839844 26.621094 16.941406 C 26.621094 16.039063 26.398438 15.21875 25.96875 14.46875 C 26.691406 13.828125 27.191406 12.96875 27.480469 11.890625 L 27.660156 11.210938 C 27.671875 11.199219 27.671875 11.179688 27.671875 11.140625 C 27.671875 11.058594 27.621094 11.011719 27.519531 10.980469 L 26.898438 10.761719 C 26.460938 10.628906 26.070313 10.441406 25.738281 10.191406 C 25.398438 9.941406 25.140625 9.660156 24.941406 9.351563 C 24.738281 9.039063 24.601563 8.730469 24.5 8.410156 C 24.398438 8.089844 24.351563 7.78125 24.351563 7.460938 C 24.351563 7.21875 24.390625 6.929688 24.460938 6.589844 L 24.589844 5.980469 C 24.628906 5.890625 24.589844 5.808594 24.460938 5.75 L 23.621094 5.5 C 23.179688 5.390625 22.769531 5.339844 22.371094 5.339844 C 21.988281 5.339844 21.621094 5.378906 21.238281 5.46875 C 20.859375 5.558594 20.46875 5.691406 20.058594 5.878906 C 19.648438 6.058594 19.261719 6.328125 18.878906 6.679688 C 18.5 7.03125 18.171875 7.429688 17.890625 7.898438 C 17.121094 7.578125 16.320313 7.421875 15.519531 7.421875 C 14.109375 7.421875 12.859375 7.859375 11.769531 8.738281 C 10.679688 9.621094 9.988281 10.738281 9.691406 12.121094 C 8.820313 12.320313 8.058594 12.730469 7.410156 13.339844 C 6.761719 13.960938 6.300781 14.691406 6.050781 15.550781 L 6.050781 15.578125 C 6.03125 15.589844 6.019531 15.621094 6.019531 15.660156 Z M 6.75 24.148438 C 6.75 24.390625 6.828125 24.589844 7 24.75 C 7.160156 24.921875 7.359375 25 7.601563 25 L 17.03125 25 C 17.269531 25 17.46875 24.921875 17.640625 24.75 C 17.808594 24.578125 17.890625 24.378906 17.890625 24.148438 C 17.890625 23.921875 17.808594 23.71875 17.640625 23.558594 C 17.46875 23.398438 17.269531 23.320313 17.03125 23.320313 L 7.601563 23.320313 C 7.359375 23.320313 7.160156 23.398438 7 23.558594 C 6.828125 23.71875 6.75 23.921875 6.75 24.148438 Z M 19.328125 8.78125 C 19.671875 8.230469 20.121094 7.800781 20.679688 7.5 C 21.230469 7.199219 21.800781 7.050781 22.378906 7.058594 C 22.488281 7.058594 22.578125 7.058594 22.628906 7.070313 L 22.628906 7.308594 C 22.628906 8.28125 22.890625 9.210938 23.421875 10.101563 C 23.949219 10.980469 24.671875 11.648438 25.589844 12.078125 C 25.421875 12.480469 25.160156 12.839844 24.828125 13.148438 C 23.949219 12.359375 22.878906 11.96875 21.628906 11.96875 L 21.308594 11.96875 C 21.058594 10.769531 20.398438 9.710938 19.328125 8.78125 Z M 19.328125 8.78125 "/>
</g>
</svg>
