<?xml version="1.0" encoding="UTF-8"?>
<svg xmlns="http://www.w3.org/2000/svg" xmlns:xlink="http://www.w3.org/1999/xlink" width="30pt" height="30pt" viewBox="0 0 30 30" version="1.1">
<g id="surface711">
<path style=" stroke:none;fill-rule:nonzero;fill:rgb(0%,0%,0%);fill-opacity:1;" d="M 2.429688 21 C 2.429688 21.25 2.519531 21.449219 2.699219 21.601563 C 2.871094 21.769531 3.070313 21.859375 3.308594 21.859375 L 12.851563 21.859375 C 13.078125 21.859375 13.28125 21.78125 13.441406 21.609375 C 13.601563 21.441406 13.679688 21.238281 13.679688 21 C 13.679688 20.761719 13.601563 20.558594 13.441406 20.390625 C 13.28125 20.21875 13.089844 20.140625 12.851563 20.140625 L 3.308594 20.140625 C 3.070313 20.140625 2.871094 20.230469 2.691406 20.398438 C 2.519531 20.570313 2.429688 20.769531 2.429688 21 Z M 5.070313 17.96875 C 5.070313 18.199219 5.160156 18.390625 5.339844 18.550781 C 5.5 18.710938 5.699219 18.789063 5.941406 18.789063 L 15.488281 18.789063 C 15.730469 18.789063 15.921875 18.710938 16.078125 18.558594 C 16.238281 18.398438 16.308594 18.210938 16.308594 17.96875 C 16.308594 17.730469 16.230469 17.53125 16.070313 17.371094 C 15.910156 17.199219 15.71875 17.121094 15.480469 17.121094 L 5.941406 17.121094 C 5.699219 17.121094 5.5 17.199219 5.328125 17.371094 C 5.148438 17.539063 5.070313 17.738281 5.070313 17.96875 Z M 6.210938 15.640625 C 6.210938 15.710938 6.28125 15.75 6.410156 15.75 L 7.828125 15.75 C 7.921875 15.75 7.988281 15.699219 8.058594 15.609375 C 8.28125 15.070313 8.628906 14.621094 9.109375 14.261719 C 9.578125 13.898438 10.109375 13.699219 10.691406 13.660156 L 11.230469 13.589844 C 11.351563 13.589844 11.410156 13.53125 11.410156 13.410156 L 11.480469 12.898438 C 11.589844 11.820313 12.050781 10.910156 12.859375 10.179688 C 13.671875 9.449219 14.628906 9.078125 15.730469 9.078125 C 16.828125 9.078125 17.789063 9.441406 18.601563 10.171875 C 19.410156 10.890625 19.878906 11.800781 19.988281 12.898438 L 20.070313 13.46875 C 20.070313 13.589844 20.128906 13.660156 20.238281 13.660156 L 21.859375 13.660156 C 22.769531 13.660156 23.550781 13.980469 24.191406 14.609375 C 24.828125 15.238281 25.148438 16 25.148438 16.898438 C 25.148438 17.789063 24.828125 18.550781 24.191406 19.191406 C 23.550781 19.828125 22.769531 20.148438 21.859375 20.148438 L 14.949219 20.148438 C 14.839844 20.148438 14.78125 20.210938 14.78125 20.320313 L 14.78125 21.699219 C 14.78125 21.820313 14.839844 21.878906 14.949219 21.878906 L 21.859375 21.878906 C 22.769531 21.878906 23.601563 21.660156 24.371094 21.210938 C 25.140625 20.769531 25.738281 20.160156 26.191406 19.398438 C 26.640625 18.640625 26.859375 17.808594 26.859375 16.910156 C 26.859375 16.199219 26.710938 15.539063 26.421875 14.898438 C 27.191406 13.890625 27.570313 12.800781 27.570313 11.609375 C 27.570313 10.660156 27.328125 9.78125 26.859375 8.96875 C 26.390625 8.160156 25.75 7.519531 24.941406 7.050781 C 24.128906 6.578125 23.25 6.351563 22.300781 6.351563 C 20.78125 6.351563 19.488281 6.910156 18.460938 8.019531 C 17.601563 7.601563 16.699219 7.398438 15.738281 7.398438 C 14.808594 7.398438 13.929688 7.601563 13.109375 7.988281 C 12.289063 8.378906 11.601563 8.941406 11.039063 9.648438 C 10.480469 10.359375 10.101563 11.171875 9.910156 12.078125 C 9.03125 12.28125 8.269531 12.679688 7.621094 13.28125 C 6.96875 13.878906 6.511719 14.609375 6.261719 15.449219 Z M 6.828125 24.089844 C 6.828125 24.320313 6.921875 24.519531 7.089844 24.671875 C 7.25 24.828125 7.449219 24.910156 7.691406 24.910156 L 17.25 24.910156 C 17.488281 24.910156 17.691406 24.828125 17.851563 24.679688 C 18.011719 24.53125 18.101563 24.328125 18.101563 24.089844 C 18.101563 23.851563 18.019531 23.648438 17.851563 23.480469 C 17.679688 23.308594 17.480469 23.230469 17.25 23.230469 L 7.691406 23.230469 C 7.460938 23.230469 7.261719 23.320313 7.089844 23.488281 C 6.921875 23.660156 6.828125 23.859375 6.828125 24.089844 Z M 19.828125 9.019531 C 20.5 8.371094 21.328125 8.039063 22.300781 8.039063 C 23.289063 8.039063 24.128906 8.390625 24.820313 9.078125 C 25.511719 9.769531 25.859375 10.609375 25.859375 11.601563 C 25.859375 12.230469 25.699219 12.820313 25.371094 13.371094 C 24.390625 12.410156 23.21875 11.941406 21.851563 11.941406 L 21.53125 11.941406 C 21.300781 10.839844 20.730469 9.871094 19.828125 9.019531 Z M 19.828125 9.019531 "/>
</g>
</svg>
