<?xml version="1.0" encoding="UTF-8"?>
<svg xmlns="http://www.w3.org/2000/svg" xmlns:xlink="http://www.w3.org/1999/xlink" width="30pt" height="30pt" viewBox="0 0 30 30" version="1.1">
<g id="surface796">
<path style=" stroke:none;fill-rule:nonzero;fill:rgb(0%,0%,0%);fill-opacity:1;" d="M 4.28125 16.890625 C 4.28125 18 4.609375 19 5.269531 19.871094 C 5.929688 20.738281 6.789063 21.328125 7.828125 21.621094 L 7.191406 23.300781 C 7.140625 23.441406 7.191406 23.519531 7.328125 23.519531 L 9.449219 23.519531 L 8.410156 27.710938 L 8.691406 27.710938 L 12.660156 22.089844 C 12.699219 22.050781 12.699219 22 12.671875 21.949219 C 12.640625 21.898438 12.589844 21.878906 12.519531 21.878906 L 10.351563 21.878906 L 12.820313 17.269531 C 12.890625 17.128906 12.839844 17.050781 12.679688 17.050781 L 9.738281 17.050781 C 9.648438 17.050781 9.578125 17.101563 9.511719 17.191406 L 8.441406 20.058594 C 7.730469 19.890625 7.140625 19.5 6.671875 18.921875 C 6.199219 18.339844 5.96875 17.660156 5.96875 16.898438 C 5.96875 16.070313 6.25 15.351563 6.808594 14.738281 C 7.371094 14.128906 8.070313 13.78125 8.910156 13.679688 L 9.441406 13.640625 C 9.558594 13.640625 9.621094 13.578125 9.621094 13.460938 L 9.691406 12.929688 C 9.761719 12.21875 9.988281 11.578125 10.378906 10.988281 C 10.769531 10.410156 11.28125 9.949219 11.898438 9.621094 C 12.519531 9.289063 13.191406 9.121094 13.910156 9.121094 C 14.988281 9.121094 15.941406 9.488281 16.75 10.21875 C 17.558594 10.949219 18.019531 11.851563 18.140625 12.929688 L 18.21875 13.488281 C 18.21875 13.609375 18.28125 13.679688 18.390625 13.679688 L 20.011719 13.679688 C 20.898438 13.679688 21.660156 14 22.308594 14.640625 C 22.960938 15.28125 23.28125 16.03125 23.28125 16.910156 C 23.28125 17.769531 22.980469 18.519531 22.378906 19.160156 C 21.78125 19.800781 21.050781 20.128906 20.199219 20.179688 C 20.070313 20.179688 20 20.238281 20 20.359375 L 20 21.699219 C 20 21.808594 20.070313 21.871094 20.199219 21.871094 C 21.070313 21.851563 21.871094 21.609375 22.601563 21.148438 C 23.328125 20.699219 23.910156 20.101563 24.320313 19.351563 C 24.730469 18.601563 24.949219 17.789063 24.949219 16.921875 C 24.949219 16.191406 24.808594 15.519531 24.53125 14.910156 C 25.308594 13.980469 25.699219 12.878906 25.699219 11.601563 C 25.699219 10.890625 25.558594 10.21875 25.28125 9.578125 C 25 8.941406 24.628906 8.378906 24.160156 7.910156 C 23.691406 7.441406 23.140625 7.070313 22.488281 6.789063 C 21.851563 6.511719 21.171875 6.371094 20.46875 6.371094 C 18.929688 6.371094 17.640625 6.949219 16.609375 8.101563 C 15.800781 7.671875 14.898438 7.449219 13.910156 7.449219 C 12.5 7.449219 11.25 7.890625 10.160156 8.761719 C 9.070313 9.628906 8.371094 10.75 8.058594 12.109375 C 6.960938 12.371094 6.050781 12.941406 5.328125 13.839844 C 4.609375 14.738281 4.28125 15.738281 4.28125 16.890625 Z M 12.210938 26.769531 C 12.210938 26.929688 12.261719 27.089844 12.359375 27.230469 C 12.460938 27.371094 12.609375 27.480469 12.808594 27.539063 L 13.058594 27.570313 C 13.480469 27.570313 13.738281 27.371094 13.859375 26.96875 L 16.289063 18.078125 C 16.351563 17.851563 16.328125 17.628906 16.21875 17.441406 C 16.109375 17.238281 15.949219 17.109375 15.730469 17.039063 C 15.5 16.96875 15.28125 16.988281 15.078125 17.101563 C 14.878906 17.210938 14.738281 17.378906 14.679688 17.601563 L 12.230469 26.5 C 12.21875 26.671875 12.210938 26.761719 12.210938 26.769531 Z M 16.351563 23.738281 C 16.351563 24.140625 16.558594 24.410156 16.96875 24.539063 C 17.140625 24.558594 17.230469 24.570313 17.230469 24.570313 C 17.339844 24.570313 17.460938 24.550781 17.578125 24.488281 C 17.78125 24.398438 17.921875 24.21875 18 23.941406 L 19.640625 18.089844 C 19.699219 17.859375 19.679688 17.640625 19.558594 17.449219 C 19.449219 17.25 19.28125 17.121094 19.050781 17.050781 C 18.820313 16.980469 18.601563 17 18.398438 17.109375 C 18.199219 17.21875 18.070313 17.390625 18.011719 17.609375 L 16.390625 23.5 C 16.371094 23.640625 16.351563 23.71875 16.351563 23.738281 Z M 18.019531 9.039063 C 18.699219 8.398438 19.519531 8.078125 20.5 8.078125 C 21.46875 8.078125 22.300781 8.421875 22.980469 9.101563 C 23.671875 9.78125 24.011719 10.609375 24.011719 11.578125 C 24.011719 12.210938 23.839844 12.828125 23.5 13.429688 C 22.539063 12.46875 21.378906 11.988281 20.019531 11.988281 L 19.699219 11.988281 C 19.421875 10.839844 18.859375 9.859375 18.019531 9.039063 Z M 18.019531 9.039063 "/>
</g>
</svg>
