<?xml version="1.0" encoding="UTF-8"?>
<svg xmlns="http://www.w3.org/2000/svg" xmlns:xlink="http://www.w3.org/1999/xlink" width="30pt" height="30pt" viewBox="0 0 30 30" version="1.1">
<g id="surface696">
<path style=" stroke:none;fill-rule:nonzero;fill:rgb(0%,0%,0%);fill-opacity:1;" d="M 7.910156 14.480469 C 7.910156 13.519531 8.101563 12.609375 8.46875 11.730469 C 8.839844 10.851563 9.351563 10.101563 9.980469 9.46875 C 10.609375 8.839844 11.371094 8.328125 12.25 7.949219 C 13.128906 7.570313 14.050781 7.378906 15 7.378906 L 16.140625 7.378906 C 16.300781 7.421875 16.371094 7.519531 16.371094 7.660156 L 16.421875 8.539063 C 16.460938 9.808594 16.910156 10.890625 17.789063 11.78125 C 18.671875 12.671875 19.730469 13.148438 20.980469 13.199219 L 21.800781 13.269531 C 21.960938 13.269531 22.039063 13.351563 22.039063 13.5 L 22.039063 14.480469 C 22.050781 15.761719 21.738281 16.949219 21.109375 18.039063 C 20.480469 19.128906 19.628906 19.988281 18.539063 20.628906 C 17.460938 21.261719 16.269531 21.578125 14.988281 21.578125 C 14.019531 21.578125 13.089844 21.390625 12.210938 21.019531 C 11.328125 20.648438 10.578125 20.140625 9.949219 19.511719 C 9.320313 18.878906 8.820313 18.121094 8.449219 17.25 C 8.101563 16.371094 7.910156 15.449219 7.910156 14.480469 Z M 9.738281 14.480469 C 9.738281 15.238281 9.890625 15.960938 10.191406 16.640625 C 10.488281 17.308594 10.890625 17.878906 11.378906 18.339844 C 11.871094 18.800781 12.429688 19.160156 13.070313 19.421875 C 13.699219 19.691406 14.351563 19.820313 15.011719 19.820313 C 15.589844 19.820313 16.179688 19.710938 16.769531 19.480469 C 17.359375 19.25 17.910156 18.929688 18.421875 18.519531 C 18.929688 18.109375 19.359375 17.589844 19.730469 16.949219 C 20.101563 16.308594 20.328125 15.621094 20.441406 14.859375 C 18.808594 14.519531 17.5 13.820313 16.519531 12.761719 C 15.539063 11.699219 14.96875 10.460938 14.820313 9.019531 C 13.859375 9.078125 13 9.371094 12.210938 9.898438 C 11.429688 10.429688 10.820313 11.101563 10.390625 11.921875 C 9.960938 12.738281 9.738281 13.589844 9.738281 14.480469 Z M 9.738281 14.480469 "/>
</g>
</svg>
