<?xml version="1.0" encoding="UTF-8"?>
<svg xmlns="http://www.w3.org/2000/svg" xmlns:xlink="http://www.w3.org/1999/xlink" width="30pt" height="30pt" viewBox="0 0 30 30" version="1.1">
<g id="surface761">
<path style=" stroke:none;fill-rule:nonzero;fill:rgb(0%,0%,0%);fill-opacity:1;" d="M 4.191406 16.878906 C 4.191406 18 4.519531 19 5.191406 19.878906 C 5.859375 20.761719 6.71875 21.351563 7.769531 21.640625 L 7.109375 23.339844 C 7.058594 23.480469 7.109375 23.558594 7.25 23.558594 L 9.378906 23.558594 L 7.949219 27.769531 L 8.238281 27.769531 L 12.601563 22.109375 C 12.640625 22.070313 12.640625 22.019531 12.621094 21.96875 C 12.601563 21.921875 12.550781 21.898438 12.480469 21.898438 L 10.289063 21.898438 L 12.78125 17.25 C 12.851563 17.109375 12.808594 17.03125 12.640625 17.03125 L 9.679688 17.03125 C 9.589844 17.03125 9.511719 17.078125 9.449219 17.179688 L 8.378906 20.058594 C 7.660156 19.878906 7.070313 19.5 6.601563 18.898438 C 6.128906 18.308594 5.898438 17.640625 5.898438 16.878906 C 5.898438 16.039063 6.179688 15.308594 6.738281 14.699219 C 7.300781 14.089844 8 13.730469 8.851563 13.628906 L 9.359375 13.601563 C 9.480469 13.601563 9.550781 13.550781 9.578125 13.460938 L 9.648438 12.871094 C 9.761719 11.789063 10.210938 10.878906 11.019531 10.148438 C 11.828125 9.421875 12.78125 9.050781 13.878906 9.050781 C 14.96875 9.050781 15.921875 9.421875 16.738281 10.148438 C 17.558594 10.878906 18.03125 11.789063 18.140625 12.871094 L 18.21875 13.460938 C 18.21875 13.570313 18.28125 13.628906 18.398438 13.628906 L 20.011719 13.628906 C 20.898438 13.628906 21.671875 13.949219 22.320313 14.589844 C 22.96875 15.230469 23.289063 15.988281 23.289063 16.878906 C 23.289063 17.75 22.988281 18.5 22.390625 19.140625 C 21.789063 19.78125 21.070313 20.121094 20.210938 20.171875 C 20.078125 20.171875 20.011719 20.230469 20.011719 20.351563 L 20.011719 21.691406 C 20.011719 21.800781 20.078125 21.859375 20.210938 21.859375 C 21.089844 21.839844 21.898438 21.601563 22.628906 21.140625 C 23.359375 20.691406 23.941406 20.078125 24.371094 19.328125 C 24.800781 18.578125 25.011719 17.761719 25.011719 16.878906 C 25.011719 16.148438 24.871094 15.480469 24.578125 14.859375 C 25.339844 13.898438 25.71875 12.800781 25.71875 11.570313 C 25.71875 10.621094 25.480469 9.738281 25.011719 8.929688 C 24.539063 8.121094 23.898438 7.480469 23.089844 7.011719 C 22.28125 6.539063 21.398438 6.300781 20.449219 6.300781 C 19.730469 6.300781 19.03125 6.449219 18.351563 6.75 C 17.671875 7.050781 17.089844 7.46875 16.589844 8 C 15.78125 7.570313 14.878906 7.351563 13.871094 7.351563 C 12.449219 7.351563 11.191406 7.789063 10.101563 8.671875 C 9.011719 9.550781 8.300781 10.671875 8 12.039063 C 6.890625 12.300781 5.980469 12.878906 5.261719 13.78125 C 4.550781 14.699219 4.191406 15.730469 4.191406 16.878906 Z M 12.070313 27.101563 C 12.070313 27.269531 12.121094 27.429688 12.230469 27.589844 C 12.339844 27.75 12.5 27.859375 12.71875 27.921875 C 12.808594 27.941406 12.890625 27.949219 12.960938 27.949219 C 13.390625 27.949219 13.660156 27.75 13.761719 27.339844 L 13.890625 26.75 C 13.949219 26.488281 13.921875 26.269531 13.808594 26.070313 C 13.691406 25.871094 13.519531 25.75 13.28125 25.699219 C 13.070313 25.628906 12.859375 25.648438 12.648438 25.769531 C 12.441406 25.890625 12.308594 26.058594 12.238281 26.28125 L 12.109375 26.871094 C 12.078125 26.988281 12.070313 27.070313 12.070313 27.101563 Z M 12.859375 24.199219 C 12.859375 24.429688 12.941406 24.621094 13.101563 24.78125 C 13.261719 24.941406 13.460938 25.019531 13.679688 25.019531 C 13.921875 25.019531 14.109375 24.941406 14.269531 24.789063 C 14.429688 24.628906 14.5 24.441406 14.5 24.199219 C 14.5 23.96875 14.421875 23.78125 14.269531 23.621094 C 14.109375 23.460938 13.921875 23.390625 13.679688 23.390625 C 13.441406 23.390625 13.25 23.46875 13.089844 23.621094 C 12.929688 23.769531 12.859375 23.96875 12.859375 24.199219 Z M 13.480469 21.929688 C 13.46875 22.078125 13.511719 22.238281 13.621094 22.398438 C 13.71875 22.558594 13.871094 22.660156 14.070313 22.699219 C 14.300781 22.761719 14.511719 22.738281 14.710938 22.640625 C 14.910156 22.539063 15.039063 22.351563 15.121094 22.078125 L 15.378906 21.179688 C 15.449219 20.960938 15.429688 20.75 15.308594 20.550781 C 15.191406 20.351563 15.019531 20.21875 14.78125 20.148438 C 14.558594 20.078125 14.351563 20.109375 14.140625 20.230469 C 13.929688 20.351563 13.800781 20.53125 13.730469 20.761719 L 13.511719 21.660156 C 13.488281 21.738281 13.480469 21.828125 13.480469 21.929688 Z M 16.238281 24.078125 C 16.238281 24.25 16.289063 24.410156 16.390625 24.558594 C 16.488281 24.710938 16.640625 24.820313 16.851563 24.878906 C 16.878906 24.878906 16.929688 24.890625 16.988281 24.898438 C 17.050781 24.910156 17.101563 24.921875 17.128906 24.921875 C 17.539063 24.921875 17.789063 24.699219 17.890625 24.261719 L 18.03125 23.660156 C 18.101563 23.449219 18.078125 23.238281 17.960938 23.03125 C 17.839844 22.820313 17.671875 22.691406 17.449219 22.621094 C 17.199219 22.558594 16.96875 22.578125 16.769531 22.699219 C 16.570313 22.820313 16.429688 22.988281 16.359375 23.230469 L 16.269531 23.820313 C 16.269531 23.828125 16.269531 23.871094 16.261719 23.929688 C 16.25 24 16.238281 24.039063 16.238281 24.078125 Z M 16.980469 21.121094 C 16.980469 21.351563 17.058594 21.539063 17.21875 21.691406 C 17.371094 21.851563 17.558594 21.929688 17.800781 21.929688 C 18.039063 21.929688 18.230469 21.851563 18.390625 21.699219 C 18.550781 21.539063 18.621094 21.351563 18.621094 21.121094 C 18.621094 20.878906 18.539063 20.691406 18.390625 20.53125 C 18.230469 20.371094 18.039063 20.300781 17.800781 20.300781 C 17.558594 20.300781 17.371094 20.378906 17.210938 20.53125 C 17.050781 20.679688 16.980469 20.878906 16.980469 21.121094 Z M 18.019531 9.019531 C 18.691406 8.378906 19.5 8.050781 20.46875 8.050781 C 21.449219 8.050781 22.289063 8.390625 22.980469 9.078125 C 23.671875 9.761719 24.019531 10.601563 24.019531 11.578125 C 24.019531 12.238281 23.859375 12.839844 23.550781 13.390625 C 22.589844 12.429688 21.421875 11.949219 20.03125 11.949219 L 19.71875 11.949219 C 19.421875 10.761719 18.851563 9.78125 18.019531 9.019531 Z M 18.019531 9.019531 "/>
</g>
</svg>
