<?xml version="1.0" encoding="UTF-8"?>
<svg xmlns="http://www.w3.org/2000/svg" xmlns:xlink="http://www.w3.org/1999/xlink" width="30pt" height="30pt" viewBox="0 0 30 30" version="1.1">
<g id="surface816">
<path style=" stroke:none;fill-rule:nonzero;fill:rgb(0%,0%,0%);fill-opacity:1;" d="M 9.808594 15.25 C 9.808594 16.171875 10.039063 17.03125 10.511719 17.820313 C 10.980469 18.609375 11.609375 19.25 12.410156 19.71875 C 13.210938 20.191406 14.070313 20.429688 15 20.429688 C 15.929688 20.429688 16.800781 20.191406 17.609375 19.71875 C 18.421875 19.25 19.058594 18.609375 19.53125 17.820313 C 20 17.019531 20.238281 16.171875 20.238281 15.25 C 20.238281 14.648438 20.070313 13.941406 19.71875 13.109375 C 19.371094 12.28125 18.949219 11.511719 18.460938 10.808594 C 18.019531 10.238281 17.5 9.609375 16.898438 8.929688 C 16.300781 8.25 15.25 7.199219 15.011719 6.960938 L 13.730469 8.25 C 13.109375 8.851563 12.511719 9.539063 11.941406 10.328125 C 11.371094 11.121094 10.871094 11.96875 10.449219 12.878906 C 10.011719 13.789063 9.808594 14.578125 9.808594 15.25 Z M 9.808594 15.25 "/>
</g>
</svg>
