<?xml version="1.0" encoding="UTF-8"?>
<svg xmlns="http://www.w3.org/2000/svg" xmlns:xlink="http://www.w3.org/1999/xlink" width="30pt" height="30pt" viewBox="0 0 30 30" version="1.1">
<g id="surface881">
<path style=" stroke:none;fill-rule:nonzero;fill:rgb(0%,0%,0%);fill-opacity:1;" d="M 4.371094 14.621094 C 4.371094 14.378906 4.449219 14.171875 4.621094 14 C 4.789063 13.839844 5 13.761719 5.21875 13.761719 L 7.261719 13.761719 C 7.488281 13.761719 7.679688 13.839844 7.839844 14.011719 C 7.988281 14.179688 8.070313 14.378906 8.070313 14.621094 C 8.070313 14.859375 8 15.058594 7.851563 15.230469 C 7.699219 15.398438 7.5 15.480469 7.269531 15.480469 L 5.230469 15.480469 C 5 15.480469 4.800781 15.398438 4.628906 15.230469 C 4.460938 15.058594 4.371094 14.859375 4.371094 14.621094 Z M 7.230469 21.550781 C 7.230469 21.320313 7.308594 21.121094 7.460938 20.941406 L 8.929688 19.511719 C 9.078125 19.351563 9.28125 19.28125 9.519531 19.28125 C 9.761719 19.28125 9.960938 19.359375 10.121094 19.511719 C 10.28125 19.660156 10.359375 19.851563 10.359375 20.078125 C 10.359375 20.320313 10.28125 20.539063 10.121094 20.71875 L 8.699219 22.140625 C 8.289063 22.460938 7.878906 22.460938 7.46875 22.140625 C 7.308594 21.980469 7.230469 21.78125 7.230469 21.550781 Z M 7.230469 7.710938 C 7.230469 7.480469 7.308594 7.28125 7.460938 7.101563 C 7.660156 6.929688 7.871094 6.851563 8.101563 6.851563 C 8.320313 6.851563 8.519531 6.929688 8.691406 7.089844 L 10.121094 8.558594 C 10.28125 8.710938 10.359375 8.910156 10.359375 9.148438 C 10.359375 9.390625 10.28125 9.589844 10.121094 9.75 C 9.960938 9.910156 9.761719 9.988281 9.519531 9.988281 C 9.28125 9.988281 9.078125 9.910156 8.929688 9.75 L 7.46875 8.320313 C 7.308594 8.160156 7.230469 7.949219 7.230469 7.710938 Z M 9.78125 14.621094 C 9.78125 13.691406 10.011719 12.820313 10.480469 12.019531 C 10.949219 11.21875 11.578125 10.578125 12.390625 10.109375 C 13.199219 9.640625 14.058594 9.410156 14.988281 9.410156 C 15.691406 9.410156 16.359375 9.550781 17.011719 9.828125 C 17.648438 10.109375 18.210938 10.480469 18.671875 10.949219 C 19.140625 11.421875 19.511719 11.96875 19.78125 12.609375 C 20.050781 13.25 20.191406 13.929688 20.191406 14.628906 C 20.191406 15.570313 19.960938 16.441406 19.488281 17.238281 C 19.019531 18.039063 18.390625 18.671875 17.589844 19.140625 C 16.789063 19.609375 15.921875 19.839844 14.980469 19.839844 C 14.039063 19.839844 13.171875 19.609375 12.371094 19.140625 C 11.570313 18.671875 10.941406 18.039063 10.46875 17.238281 C 10.019531 16.429688 9.78125 15.558594 9.78125 14.621094 Z M 14.140625 22.398438 C 14.140625 22.160156 14.21875 21.960938 14.390625 21.800781 C 14.558594 21.640625 14.761719 21.558594 14.988281 21.558594 C 15.230469 21.558594 15.441406 21.640625 15.601563 21.800781 C 15.761719 21.960938 15.839844 22.160156 15.839844 22.398438 L 15.839844 24.390625 C 15.839844 24.628906 15.761719 24.839844 15.589844 25.011719 C 15.421875 25.179688 15.21875 25.261719 14.988281 25.261719 C 14.761719 25.261719 14.550781 25.179688 14.390625 25.011719 C 14.21875 24.839844 14.140625 24.628906 14.140625 24.390625 Z M 14.140625 6.898438 L 14.140625 4.859375 C 14.140625 4.628906 14.21875 4.429688 14.390625 4.261719 C 14.558594 4.089844 14.761719 4 15 4 C 15.238281 4 15.429688 4.078125 15.601563 4.25 C 15.769531 4.421875 15.851563 4.621094 15.851563 4.851563 L 15.851563 6.898438 C 15.851563 7.128906 15.769531 7.320313 15.601563 7.480469 C 15.429688 7.640625 15.230469 7.710938 15 7.710938 C 14.769531 7.710938 14.558594 7.628906 14.398438 7.480469 C 14.238281 7.328125 14.140625 7.128906 14.140625 6.898438 Z M 14.25 11.21875 C 15.121094 11.328125 15.851563 11.710938 16.441406 12.371094 C 17.03125 13.03125 17.328125 13.808594 17.328125 14.699219 C 17.328125 15.53125 17.070313 16.261719 16.550781 16.898438 C 16.03125 17.53125 15.371094 17.941406 14.570313 18.109375 C 14.769531 18.128906 14.921875 18.148438 15.011719 18.148438 C 15.980469 18.148438 16.820313 17.800781 17.511719 17.109375 C 18.199219 16.421875 18.550781 15.589844 18.550781 14.609375 C 18.550781 13.648438 18.199219 12.828125 17.511719 12.140625 C 16.820313 11.460938 15.988281 11.121094 15.011719 11.121094 C 14.738281 11.140625 14.488281 11.171875 14.25 11.21875 Z M 19.660156 20.078125 C 19.660156 19.851563 19.738281 19.660156 19.890625 19.519531 C 20.039063 19.359375 20.230469 19.289063 20.449219 19.289063 C 20.691406 19.289063 20.890625 19.371094 21.050781 19.519531 L 22.511719 20.949219 C 22.671875 21.121094 22.75 21.328125 22.75 21.558594 C 22.75 21.789063 22.671875 21.988281 22.511719 22.148438 C 22.109375 22.460938 21.710938 22.460938 21.308594 22.148438 L 19.890625 20.730469 C 19.738281 20.550781 19.660156 20.339844 19.660156 20.078125 Z M 19.660156 9.160156 C 19.660156 8.910156 19.738281 8.710938 19.890625 8.570313 L 21.308594 7.101563 C 21.480469 6.941406 21.679688 6.859375 21.898438 6.859375 C 22.140625 6.859375 22.339844 6.941406 22.5 7.109375 C 22.671875 7.28125 22.75 7.480469 22.75 7.710938 C 22.75 7.960938 22.671875 8.171875 22.511719 8.328125 L 21.050781 9.761719 C 20.871094 9.921875 20.671875 10 20.449219 10 C 20.21875 10 20.039063 9.921875 19.890625 9.761719 C 19.738281 9.601563 19.660156 9.398438 19.660156 9.160156 Z M 21.921875 14.621094 C 21.921875 14.378906 22 14.179688 22.160156 14 C 22.320313 13.839844 22.511719 13.761719 22.730469 13.761719 L 24.75 13.761719 C 24.980469 13.761719 25.179688 13.851563 25.351563 14.019531 C 25.519531 14.191406 25.609375 14.390625 25.609375 14.621094 C 25.609375 14.851563 25.519531 15.050781 25.351563 15.21875 C 25.179688 15.390625 24.980469 15.46875 24.75 15.46875 L 22.730469 15.46875 C 22.5 15.46875 22.300781 15.390625 22.148438 15.21875 C 22 15.050781 21.921875 14.859375 21.921875 14.621094 Z M 21.921875 14.621094 "/>
</g>
</svg>
