<?xml version="1.0" encoding="UTF-8"?>
<svg xmlns="http://www.w3.org/2000/svg" xmlns:xlink="http://www.w3.org/1999/xlink" width="30pt" height="30pt" viewBox="0 0 30 30" version="1.1">
<g id="surface896">
<path style=" stroke:none;fill-rule:nonzero;fill:rgb(0%,0%,0%);fill-opacity:1;" d="M 4.628906 16.910156 C 4.628906 18.019531 4.960938 19.011719 5.621094 19.878906 C 6.28125 20.75 7.128906 21.351563 8.179688 21.671875 L 7.53125 23.351563 C 7.5 23.488281 7.550781 23.570313 7.671875 23.570313 L 9.800781 23.570313 L 8.761719 27.351563 L 9.039063 27.351563 L 13.011719 22.128906 C 13.050781 22.089844 13.050781 22.039063 13.03125 21.988281 C 13.011719 21.941406 12.960938 21.921875 12.890625 21.921875 L 10.710938 21.921875 L 13.191406 17.28125 C 13.25 17.140625 13.210938 17.070313 13.050781 17.070313 L 10.109375 17.070313 C 10.019531 17.070313 9.941406 17.121094 9.890625 17.210938 L 8.800781 20.078125 C 8.089844 19.898438 7.5 19.511719 7.03125 18.921875 C 6.558594 18.328125 6.328125 17.660156 6.328125 16.910156 C 6.328125 16.078125 6.609375 15.359375 7.171875 14.75 C 7.730469 14.140625 8.429688 13.789063 9.269531 13.691406 L 9.789063 13.621094 C 9.921875 13.621094 9.988281 13.558594 9.988281 13.449219 L 10.058594 12.929688 C 10.160156 11.851563 10.609375 10.941406 11.421875 10.210938 C 12.230469 9.480469 13.179688 9.109375 14.269531 9.109375 C 15.359375 9.109375 16.308594 9.480469 17.121094 10.210938 C 17.941406 10.941406 18.398438 11.851563 18.519531 12.929688 L 18.578125 13.511719 C 18.578125 13.628906 18.640625 13.691406 18.769531 13.691406 L 20.378906 13.691406 C 21.289063 13.691406 22.058594 14.011719 22.699219 14.640625 C 23.339844 15.269531 23.660156 16.03125 23.660156 16.921875 C 23.660156 17.769531 23.359375 18.511719 22.769531 19.128906 C 22.179688 19.75 21.449219 20.089844 20.578125 20.160156 C 20.449219 20.160156 20.378906 20.21875 20.378906 20.351563 L 20.378906 21.71875 C 20.378906 21.828125 20.449219 21.890625 20.578125 21.890625 C 21.230469 21.871094 21.851563 21.71875 22.441406 21.449219 C 23.03125 21.179688 23.539063 20.820313 23.960938 20.378906 C 24.378906 19.941406 24.71875 19.421875 24.96875 18.808594 C 25.21875 18.210938 25.351563 17.578125 25.351563 16.929688 C 25.351563 16.03125 25.128906 15.199219 24.679688 14.441406 C 24.230469 13.679688 23.628906 13.078125 22.871094 12.640625 C 22.109375 12.199219 21.28125 11.980469 20.390625 11.980469 L 20.070313 11.980469 C 19.738281 10.648438 19.039063 9.558594 17.960938 8.71875 C 16.878906 7.878906 15.660156 7.449219 14.28125 7.449219 C 12.871094 7.449219 11.609375 7.890625 10.519531 8.761719 C 9.429688 9.628906 8.730469 10.75 8.421875 12.121094 C 7.320313 12.378906 6.410156 12.949219 5.691406 13.851563 C 4.96875 14.75 4.628906 15.761719 4.628906 16.910156 Z M 12.789063 26.769531 C 12.789063 26.929688 12.839844 27.078125 12.941406 27.230469 C 13.039063 27.378906 13.199219 27.488281 13.398438 27.550781 C 13.539063 27.578125 13.621094 27.601563 13.648438 27.601563 C 13.738281 27.601563 13.859375 27.570313 14.03125 27.5 C 14.238281 27.410156 14.378906 27.230469 14.449219 26.980469 L 14.730469 25.929688 C 14.789063 25.710938 14.769531 25.5 14.648438 25.300781 C 14.53125 25.101563 14.359375 24.96875 14.121094 24.898438 C 13.898438 24.839844 13.691406 24.859375 13.488281 24.980469 C 13.289063 25.101563 13.148438 25.269531 13.078125 25.511719 L 12.808594 26.511719 C 12.800781 26.679688 12.789063 26.769531 12.789063 26.769531 Z M 14.128906 22 C 14.128906 22.140625 14.179688 22.289063 14.28125 22.441406 C 14.378906 22.589844 14.53125 22.699219 14.730469 22.769531 C 14.949219 22.839844 15.171875 22.828125 15.371094 22.71875 C 15.570313 22.609375 15.699219 22.441406 15.769531 22.199219 L 16.070313 21.160156 C 16.128906 20.941406 16.101563 20.730469 15.988281 20.53125 C 15.871094 20.328125 15.691406 20.191406 15.460938 20.121094 C 15.230469 20.058594 15.019531 20.078125 14.808594 20.199219 C 14.601563 20.320313 14.46875 20.488281 14.398438 20.71875 L 14.160156 21.730469 C 14.140625 21.898438 14.128906 21.988281 14.128906 22 Z M 16.949219 23.648438 C 16.949219 23.820313 17 23.988281 17.109375 24.160156 C 17.21875 24.328125 17.378906 24.441406 17.578125 24.511719 C 17.601563 24.511719 17.640625 24.519531 17.699219 24.53125 C 17.75 24.539063 17.789063 24.550781 17.820313 24.550781 C 17.949219 24.550781 18.078125 24.53125 18.199219 24.46875 C 18.390625 24.398438 18.53125 24.210938 18.609375 23.898438 L 18.859375 22.890625 C 18.929688 22.660156 18.910156 22.441406 18.800781 22.230469 C 18.691406 22.019531 18.519531 21.878906 18.300781 21.808594 C 18.050781 21.75 17.820313 21.78125 17.621094 21.890625 C 17.421875 22.011719 17.289063 22.191406 17.25 22.421875 L 16.980469 23.449219 C 16.960938 23.511719 16.949219 23.578125 16.949219 23.648438 Z M 18.308594 18.859375 C 18.300781 19.019531 18.351563 19.171875 18.460938 19.328125 C 18.570313 19.488281 18.730469 19.609375 18.949219 19.710938 C 19.03125 19.75 19.109375 19.769531 19.210938 19.769531 C 19.320313 19.769531 19.429688 19.738281 19.550781 19.691406 C 19.761719 19.589844 19.898438 19.398438 19.988281 19.121094 L 20.28125 18.089844 C 20.300781 17.960938 20.308594 17.890625 20.308594 17.871094 C 20.308594 17.699219 20.261719 17.539063 20.148438 17.378906 C 20.039063 17.21875 19.878906 17.109375 19.660156 17.050781 C 19.640625 17.050781 19.601563 17.039063 19.550781 17.03125 C 19.488281 17 19.449219 17 19.421875 17 C 19.25 17 19.089844 17.050781 18.929688 17.148438 C 18.769531 17.25 18.660156 17.410156 18.601563 17.628906 L 18.328125 18.640625 C 18.320313 18.71875 18.308594 18.789063 18.308594 18.859375 Z M 18.308594 18.859375 "/>
</g>
</svg>
