<?xml version="1.0" encoding="UTF-8"?>
<svg xmlns="http://www.w3.org/2000/svg" xmlns:xlink="http://www.w3.org/1999/xlink" width="30pt" height="30pt" viewBox="0 0 30 30" version="1.1">
<g id="surface841">
<path style=" stroke:none;fill-rule:nonzero;fill:rgb(0%,0%,0%);fill-opacity:1;" d="M 4.601563 16.929688 C 4.601563 15.769531 4.960938 14.75 5.691406 13.851563 C 6.410156 12.949219 7.339844 12.371094 8.46875 12.121094 C 8.761719 10.738281 9.449219 9.621094 10.539063 8.730469 C 11.628906 7.839844 12.878906 7.398438 14.300781 7.398438 C 15.691406 7.398438 16.929688 7.828125 18.019531 8.679688 C 19.101563 9.53125 19.808594 10.628906 20.140625 11.980469 L 20.480469 11.980469 C 21.378906 11.980469 22.210938 12.199219 22.960938 12.640625 C 23.71875 13.078125 24.308594 13.679688 24.75 14.441406 C 25.179688 15.199219 25.398438 16.03125 25.398438 16.929688 C 25.398438 18.269531 24.941406 19.410156 24.03125 20.371094 C 23.109375 21.328125 21.988281 21.828125 20.660156 21.871094 C 20.539063 21.871094 20.480469 21.808594 20.480469 21.699219 L 20.480469 20.359375 C 20.480469 20.25 20.539063 20.191406 20.660156 20.191406 C 21.5 20.121094 22.230469 19.769531 22.828125 19.140625 C 23.429688 18.511719 23.730469 17.769531 23.730469 16.921875 C 23.730469 16.03125 23.410156 15.261719 22.769531 14.609375 C 22.128906 13.96875 21.371094 13.640625 20.480469 13.640625 L 18.851563 13.640625 C 18.730469 13.640625 18.660156 13.578125 18.628906 13.460938 L 18.558594 12.890625 C 18.488281 12.179688 18.261719 11.53125 17.859375 10.949219 C 17.460938 10.371094 16.949219 9.921875 16.328125 9.589844 C 15.710938 9.261719 15.03125 9.101563 14.308594 9.101563 C 13.210938 9.101563 12.261719 9.460938 11.449219 10.191406 C 10.640625 10.921875 10.179688 11.828125 10.078125 12.910156 L 10.011719 13.449219 C 10.011719 13.539063 9.960938 13.589844 9.851563 13.589844 L 9.308594 13.699219 C 8.46875 13.769531 7.761719 14.109375 7.199219 14.730469 C 6.628906 15.351563 6.351563 16.078125 6.351563 16.929688 C 6.351563 17.800781 6.648438 18.550781 7.238281 19.179688 C 7.828125 19.808594 8.550781 20.148438 9.410156 20.199219 C 9.53125 20.199219 9.589844 20.261719 9.589844 20.371094 L 9.589844 21.710938 C 9.589844 21.820313 9.53125 21.878906 9.410156 21.878906 C 8.75 21.851563 8.128906 21.699219 7.53125 21.429688 C 6.929688 21.160156 6.421875 20.800781 6 20.359375 C 5.570313 19.921875 5.230469 19.410156 4.980469 18.808594 C 4.730469 18.210938 4.601563 17.589844 4.601563 16.929688 Z M 10.019531 23.699219 C 10.019531 23.671875 10.03125 23.621094 10.039063 23.570313 C 10.050781 23.519531 10.058594 23.480469 10.058594 23.460938 L 10.328125 22.429688 C 10.398438 22.210938 10.53125 22.03125 10.730469 21.921875 C 10.929688 21.800781 11.140625 21.78125 11.371094 21.851563 C 11.601563 21.921875 11.769531 22.050781 11.890625 22.25 C 12.011719 22.449219 12.03125 22.660156 11.960938 22.890625 L 11.71875 23.898438 C 11.589844 24.339844 11.339844 24.558594 10.960938 24.558594 C 10.929688 24.558594 10.910156 24.558594 10.871094 24.558594 C 10.839844 24.558594 10.800781 24.550781 10.761719 24.550781 C 10.71875 24.539063 10.691406 24.539063 10.660156 24.539063 C 10.449219 24.480469 10.289063 24.359375 10.179688 24.199219 C 10.070313 24.039063 10.019531 23.859375 10.019531 23.699219 Z M 11.339844 18.878906 C 11.339844 18.859375 11.339844 18.820313 11.351563 18.769531 C 11.359375 18.71875 11.359375 18.691406 11.359375 18.679688 L 11.660156 17.628906 C 11.71875 17.441406 11.828125 17.289063 11.980469 17.179688 C 12.128906 17.078125 12.289063 17.03125 12.449219 17.03125 C 12.46875 17.03125 12.5 17.03125 12.53125 17.03125 C 12.558594 17.03125 12.589844 17.039063 12.621094 17.039063 C 12.648438 17.050781 12.679688 17.050781 12.699219 17.050781 C 12.929688 17.121094 13.101563 17.25 13.210938 17.449219 C 13.328125 17.648438 13.351563 17.859375 13.28125 18.089844 L 13.039063 19.089844 C 12.96875 19.371094 12.839844 19.558594 12.640625 19.679688 C 12.441406 19.800781 12.21875 19.800781 11.988281 19.699219 C 11.769531 19.640625 11.609375 19.53125 11.5 19.359375 C 11.390625 19.191406 11.339844 19.039063 11.339844 18.878906 Z M 12.570313 26.828125 C 12.570313 26.800781 12.578125 26.761719 12.589844 26.699219 C 12.601563 26.640625 12.609375 26.609375 12.609375 26.578125 L 12.898438 25.589844 C 12.960938 25.351563 13.101563 25.171875 13.300781 25.050781 C 13.5 24.929688 13.71875 24.898438 13.949219 24.96875 C 14.179688 25.039063 14.339844 25.171875 14.460938 25.378906 C 14.578125 25.589844 14.589844 25.800781 14.53125 26.03125 L 14.28125 27.070313 C 14.171875 27.480469 13.910156 27.679688 13.480469 27.679688 C 13.429688 27.679688 13.351563 27.671875 13.238281 27.640625 C 13.019531 27.601563 12.859375 27.5 12.75 27.339844 C 12.628906 27.179688 12.570313 27.011719 12.570313 26.828125 Z M 13.910156 22.058594 C 13.910156 22 13.921875 21.921875 13.949219 21.808594 L 14.21875 20.78125 C 14.289063 20.550781 14.421875 20.378906 14.628906 20.269531 C 14.828125 20.148438 15.050781 20.128906 15.28125 20.199219 C 15.511719 20.261719 15.671875 20.390625 15.789063 20.589844 C 15.898438 20.789063 15.921875 21 15.851563 21.238281 L 15.609375 22.230469 C 15.480469 22.679688 15.238281 22.910156 14.890625 22.910156 C 14.851563 22.910156 14.738281 22.890625 14.578125 22.851563 C 14.359375 22.808594 14.199219 22.710938 14.089844 22.550781 C 13.96875 22.398438 13.910156 22.230469 13.910156 22.058594 Z M 16.730469 23.738281 C 16.730469 23.671875 16.738281 23.589844 16.761719 23.5 L 17.039063 22.511719 C 17.109375 22.269531 17.238281 22.089844 17.449219 21.96875 C 17.660156 21.851563 17.859375 21.820313 18.078125 21.878906 C 18.308594 21.949219 18.488281 22.078125 18.609375 22.289063 C 18.730469 22.488281 18.761719 22.699219 18.699219 22.921875 L 18.410156 23.980469 C 18.308594 24.390625 18.050781 24.589844 17.621094 24.589844 C 17.53125 24.589844 17.441406 24.578125 17.359375 24.558594 C 17.160156 24.519531 17.011719 24.421875 16.898438 24.261719 C 16.800781 24.078125 16.738281 23.910156 16.730469 23.738281 Z M 18.109375 18.980469 C 18.109375 18.949219 18.128906 18.859375 18.160156 18.71875 L 18.460938 17.691406 C 18.5 17.480469 18.589844 17.320313 18.75 17.21875 C 18.910156 17.121094 19.070313 17.070313 19.238281 17.078125 C 19.28125 17.070313 19.371094 17.078125 19.480469 17.109375 C 19.699219 17.160156 19.871094 17.289063 20 17.488281 C 20.121094 17.660156 20.140625 17.871094 20.070313 18.140625 L 19.828125 19.171875 C 19.699219 19.601563 19.449219 19.820313 19.070313 19.820313 C 19.011719 19.820313 18.898438 19.800781 18.730469 19.761719 C 18.519531 19.699219 18.371094 19.589844 18.269531 19.449219 C 18.160156 19.289063 18.109375 19.140625 18.109375 18.980469 Z M 18.109375 18.980469 "/>
</g>
</svg>
