<?xml version="1.0" encoding="UTF-8"?>
<svg xmlns="http://www.w3.org/2000/svg" xmlns:xlink="http://www.w3.org/1999/xlink" width="30pt" height="30pt" viewBox="0 0 30 30" version="1.1">
<g id="surface861">
<path style=" stroke:none;fill-rule:nonzero;fill:rgb(0%,0%,0%);fill-opacity:1;" d="M 6.339844 12.480469 C 6.339844 11.539063 6.640625 10.699219 7.230469 9.960938 C 7.820313 9.21875 8.570313 8.75 9.480469 8.550781 C 9.730469 7.429688 10.300781 6.5 11.199219 5.78125 C 12.101563 5.058594 13.121094 4.699219 14.28125 4.699219 C 15.398438 4.699219 16.410156 5.050781 17.300781 5.75 C 18.191406 6.449219 18.761719 7.351563 19.03125 8.441406 L 19.300781 8.441406 C 20.421875 8.441406 21.378906 8.828125 22.179688 9.621094 C 22.96875 10.398438 23.371094 11.359375 23.371094 12.46875 C 23.371094 13.070313 23.25 13.640625 23 14.171875 C 22.75 14.699219 22.410156 15.160156 21.96875 15.539063 L 21.96875 15.570313 C 21.96875 16.160156 21.78125 16.691406 21.410156 17.160156 C 21.039063 17.628906 20.570313 17.921875 20.011719 18.050781 C 19.871094 18.671875 19.558594 19.199219 19.101563 19.628906 C 18.640625 20.058594 18.089844 20.328125 17.46875 20.429688 C 17.761719 20.769531 17.898438 21.148438 17.898438 21.558594 C 17.898438 22.039063 17.730469 22.449219 17.390625 22.800781 C 17.050781 23.140625 16.640625 23.320313 16.160156 23.320313 C 15.679688 23.320313 15.269531 23.148438 14.929688 22.800781 C 14.589844 22.460938 14.421875 22.039063 14.421875 21.558594 C 14.421875 21.371094 14.449219 21.179688 14.519531 20.988281 L 14.421875 20.988281 C 13.839844 20.988281 13.339844 20.78125 12.921875 20.359375 C 12.5 19.941406 12.289063 19.441406 12.289063 18.859375 C 12.289063 18.460938 12.390625 18.101563 12.589844 17.789063 C 12.070313 17.5 11.699219 17.089844 11.46875 16.539063 L 10.191406 16.539063 L 10.191406 16.53125 C 9.121094 16.460938 8.210938 16.039063 7.460938 15.261719 C 6.710938 14.480469 6.339844 13.558594 6.339844 12.480469 Z M 7.738281 12.230469 C 7.738281 13.03125 8.019531 13.710938 8.578125 14.269531 C 9.140625 14.828125 9.820313 15.109375 10.609375 15.109375 C 11.101563 15.109375 11.558594 15 11.980469 14.769531 C 12.101563 15.511719 12.449219 16.128906 13.019531 16.628906 C 13.589844 17.128906 14.269531 17.371094 15.039063 17.371094 C 15.910156 17.371094 16.648438 17.058594 17.261719 16.449219 C 17.671875 16.929688 18.179688 17.160156 18.800781 17.160156 C 19.371094 17.160156 19.851563 16.960938 20.261719 16.558594 C 20.660156 16.160156 20.859375 15.671875 20.859375 15.101563 C 21.261719 14.828125 21.578125 14.488281 21.808594 14.058594 C 22.039063 13.640625 22.160156 13.179688 22.160156 12.691406 C 22.160156 11.898438 21.878906 11.21875 21.308594 10.671875 C 20.738281 10.121094 20.058594 9.839844 19.261719 9.839844 C 18.699219 9.839844 18.191406 9.988281 17.730469 10.28125 C 17.789063 10.039063 17.808594 9.769531 17.808594 9.488281 C 17.808594 8.53125 17.46875 7.710938 16.78125 7.03125 C 16.089844 6.351563 15.261719 6.019531 14.289063 6.019531 C 13.351563 6.019531 12.539063 6.351563 11.859375 6.988281 C 11.179688 7.628906 10.820313 8.429688 10.789063 9.359375 C 10.769531 9.359375 10.738281 9.359375 10.710938 9.359375 C 10.671875 9.359375 10.640625 9.359375 10.621094 9.359375 C 9.828125 9.359375 9.160156 9.640625 8.589844 10.199219 C 8.019531 10.761719 7.738281 11.449219 7.738281 12.230469 Z M 7.738281 12.230469 "/>
</g>
</svg>
