<?xml version="1.0" encoding="UTF-8"?>
<svg xmlns="http://www.w3.org/2000/svg" xmlns:xlink="http://www.w3.org/1999/xlink" width="30pt" height="30pt" viewBox="0 0 30 30" version="1.1">
<g id="surface836">
<path style=" stroke:none;fill-rule:nonzero;fill:rgb(0%,0%,0%);fill-opacity:1;" d="M 3.101563 16.96875 C 3.101563 17.210938 3.191406 17.421875 3.378906 17.589844 C 3.539063 17.78125 3.75 17.871094 4.011719 17.871094 L 18.699219 17.871094 C 18.988281 17.871094 19.230469 17.96875 19.429688 18.171875 C 19.628906 18.371094 19.730469 18.621094 19.730469 18.910156 C 19.730469 19.199219 19.628906 19.441406 19.429688 19.628906 C 19.230469 19.820313 18.988281 19.921875 18.691406 19.921875 C 18.398438 19.921875 18.148438 19.820313 17.960938 19.628906 C 17.800781 19.449219 17.601563 19.371094 17.359375 19.371094 C 17.109375 19.371094 16.898438 19.460938 16.71875 19.628906 C 16.539063 19.800781 16.449219 20.011719 16.449219 20.238281 C 16.449219 20.488281 16.539063 20.699219 16.730469 20.871094 C 17.289063 21.421875 17.949219 21.699219 18.691406 21.699219 C 19.46875 21.699219 20.140625 21.429688 20.699219 20.890625 C 21.261719 20.351563 21.53125 19.699219 21.53125 18.921875 C 21.53125 18.140625 21.25 17.480469 20.691406 16.921875 C 20.128906 16.359375 19.460938 16.078125 18.691406 16.078125 L 4.011719 16.078125 C 3.761719 16.078125 3.550781 16.171875 3.371094 16.339844 C 3.191406 16.511719 3.101563 16.71875 3.101563 16.96875 Z M 3.101563 13.691406 C 3.101563 13.921875 3.191406 14.121094 3.378906 14.300781 C 3.550781 14.480469 3.761719 14.558594 4.011719 14.558594 L 24.050781 14.558594 C 24.828125 14.558594 25.5 14.289063 26.058594 13.738281 C 26.621094 13.199219 26.898438 12.539063 26.898438 11.769531 C 26.898438 11 26.621094 10.328125 26.058594 9.78125 C 25.5 9.230469 24.828125 8.949219 24.050781 8.949219 C 23.28125 8.949219 22.628906 9.21875 22.101563 9.75 C 21.921875 9.910156 21.828125 10.128906 21.828125 10.421875 C 21.828125 10.679688 21.921875 10.890625 22.089844 11.050781 C 22.261719 11.210938 22.46875 11.289063 22.71875 11.289063 C 22.960938 11.289063 23.171875 11.210938 23.351563 11.050781 C 23.539063 10.839844 23.769531 10.738281 24.050781 10.738281 C 24.339844 10.738281 24.578125 10.839844 24.78125 11.039063 C 24.980469 11.238281 25.078125 11.480469 25.078125 11.769531 C 25.078125 12.058594 24.980469 12.300781 24.78125 12.488281 C 24.578125 12.679688 24.339844 12.78125 24.050781 12.78125 L 4.011719 12.78125 C 3.761719 12.78125 3.550781 12.871094 3.371094 13.039063 C 3.191406 13.230469 3.101563 13.441406 3.101563 13.691406 Z M 4.671875 20.609375 C 4.671875 20.851563 4.75 21.039063 4.910156 21.191406 C 5.070313 21.351563 5.269531 21.429688 5.488281 21.429688 C 5.730469 21.429688 5.941406 21.351563 6.109375 21.199219 C 6.28125 21.050781 6.359375 20.851563 6.359375 20.609375 C 6.359375 20.378906 6.269531 20.179688 6.101563 20.011719 C 5.929688 19.839844 5.71875 19.761719 5.488281 19.761719 C 5.269531 19.761719 5.070313 19.839844 4.910156 20.011719 C 4.75 20.179688 4.671875 20.378906 4.671875 20.609375 Z M 5.621094 10.679688 C 5.621094 10.921875 5.699219 11.109375 5.859375 11.261719 C 6.019531 11.421875 6.21875 11.5 6.441406 11.5 C 6.679688 11.5 6.890625 11.421875 7.050781 11.269531 C 7.21875 11.109375 7.300781 10.921875 7.300781 10.679688 C 7.300781 10.449219 7.21875 10.25 7.050781 10.078125 C 6.890625 9.921875 6.679688 9.828125 6.449219 9.828125 C 6.230469 9.828125 6.03125 9.910156 5.871094 10.078125 C 5.699219 10.25 5.621094 10.449219 5.621094 10.679688 Z M 8.648438 8.371094 C 8.648438 8.609375 8.730469 8.800781 8.890625 8.949219 C 9.050781 9.121094 9.25 9.199219 9.46875 9.199219 C 9.710938 9.199219 9.921875 9.121094 10.089844 8.96875 C 10.261719 8.808594 10.339844 8.621094 10.339844 8.378906 C 10.339844 8.148438 10.25 7.949219 10.078125 7.78125 C 9.921875 7.609375 9.710938 7.53125 9.46875 7.53125 C 9.25 7.53125 9.050781 7.609375 8.890625 7.78125 C 8.730469 7.941406 8.648438 8.140625 8.648438 8.371094 Z M 8.738281 19.96875 C 8.738281 20.199219 8.820313 20.398438 8.988281 20.550781 C 9.148438 20.710938 9.339844 20.789063 9.558594 20.789063 C 9.800781 20.789063 10.011719 20.710938 10.179688 20.558594 C 10.351563 20.398438 10.429688 20.210938 10.429688 19.96875 C 10.429688 19.738281 10.339844 19.539063 10.171875 19.371094 C 10 19.199219 9.789063 19.121094 9.558594 19.121094 C 9.339844 19.121094 9.140625 19.199219 8.980469 19.371094 C 8.820313 19.539063 8.738281 19.738281 8.738281 19.96875 Z M 12.921875 10.140625 C 12.921875 10.378906 13 10.570313 13.160156 10.71875 C 13.320313 10.878906 13.519531 10.960938 13.738281 10.960938 C 13.980469 10.960938 14.191406 10.878906 14.359375 10.730469 C 14.53125 10.578125 14.609375 10.378906 14.609375 10.140625 C 14.609375 9.910156 14.519531 9.710938 14.351563 9.539063 C 14.179688 9.371094 13.96875 9.289063 13.738281 9.289063 C 13.511719 9.289063 13.320313 9.371094 13.160156 9.539063 C 13 9.710938 12.921875 9.910156 12.921875 10.140625 Z M 13.238281 21.128906 C 13.238281 21.359375 13.320313 21.550781 13.488281 21.710938 C 13.648438 21.871094 13.839844 21.949219 14.058594 21.949219 C 14.300781 21.949219 14.511719 21.871094 14.679688 21.71875 C 14.851563 21.558594 14.929688 21.371094 14.929688 21.128906 C 14.929688 20.898438 14.839844 20.699219 14.671875 20.53125 C 14.5 20.359375 14.289063 20.28125 14.058594 20.28125 C 13.839844 20.28125 13.640625 20.359375 13.480469 20.53125 C 13.320313 20.699219 13.238281 20.898438 13.238281 21.128906 Z M 17.71875 9.980469 C 17.71875 10.210938 17.800781 10.398438 17.960938 10.550781 C 18.128906 10.71875 18.320313 10.800781 18.539063 10.800781 C 18.78125 10.800781 18.988281 10.71875 19.160156 10.570313 C 19.328125 10.410156 19.410156 10.21875 19.410156 9.980469 C 19.410156 9.75 19.320313 9.550781 19.148438 9.378906 C 18.980469 9.210938 18.769531 9.128906 18.539063 9.128906 C 18.320313 9.128906 18.128906 9.210938 17.960938 9.378906 C 17.808594 9.550781 17.71875 9.75 17.71875 9.980469 Z M 22.808594 17.039063 C 22.808594 17.28125 22.890625 17.46875 23.050781 17.621094 C 23.210938 17.78125 23.410156 17.859375 23.628906 17.859375 C 23.871094 17.859375 24.078125 17.78125 24.238281 17.628906 C 24.410156 17.46875 24.488281 17.28125 24.488281 17.039063 C 24.488281 16.808594 24.410156 16.609375 24.238281 16.441406 C 24.070313 16.269531 23.871094 16.191406 23.628906 16.191406 C 23.398438 16.191406 23.210938 16.269531 23.050781 16.441406 C 22.898438 16.609375 22.808594 16.808594 22.808594 17.039063 Z M 22.808594 17.039063 "/>
</g>
</svg>
