<?xml version="1.0" encoding="UTF-8"?>
<svg xmlns="http://www.w3.org/2000/svg" xmlns:xlink="http://www.w3.org/1999/xlink" width="30pt" height="30pt" viewBox="0 0 30 30" version="1.1">
<g id="surface866">
<path style=" stroke:none;fill-rule:nonzero;fill:rgb(0%,0%,0%);fill-opacity:1;" d="M 4.640625 16.949219 C 4.640625 15.789063 4.988281 14.769531 5.699219 13.871094 C 6.410156 12.96875 7.320313 12.390625 8.441406 12.109375 C 8.75 10.75 9.449219 9.628906 10.539063 8.75 C 11.628906 7.871094 12.878906 7.441406 14.289063 7.441406 C 15.671875 7.441406 16.890625 7.871094 17.96875 8.71875 C 19.050781 9.570313 19.75 10.671875 20.070313 12.011719 L 20.390625 12.011719 C 21.28125 12.011719 22.109375 12.230469 22.871094 12.671875 C 23.628906 13.109375 24.238281 13.710938 24.679688 14.46875 C 25.121094 15.230469 25.351563 16.058594 25.351563 16.949219 C 25.351563 18.269531 24.890625 19.421875 23.960938 20.371094 C 23.039063 21.328125 21.910156 21.828125 20.578125 21.871094 C 20.449219 21.871094 20.378906 21.808594 20.378906 21.699219 L 20.378906 20.371094 C 20.378906 20.25 20.449219 20.191406 20.578125 20.191406 C 21.429688 20.148438 22.160156 19.808594 22.761719 19.171875 C 23.359375 18.53125 23.660156 17.789063 23.660156 16.941406 C 23.660156 16.050781 23.339844 15.289063 22.691406 14.640625 C 22.039063 13.988281 21.269531 13.671875 20.371094 13.671875 L 18.761719 13.671875 C 18.640625 13.671875 18.578125 13.609375 18.578125 13.5 L 18.5 12.921875 C 18.390625 11.839844 17.921875 10.929688 17.109375 10.199219 C 16.289063 9.46875 15.351563 9.101563 14.261719 9.101563 C 13.160156 9.101563 12.210938 9.46875 11.398438 10.210938 C 10.589844 10.949219 10.128906 11.859375 10.03125 12.960938 L 9.96875 13.460938 C 9.96875 13.578125 9.898438 13.648438 9.769531 13.648438 L 9.238281 13.71875 C 8.410156 13.789063 7.710938 14.128906 7.140625 14.761719 C 6.570313 15.390625 6.289063 16.109375 6.289063 16.949219 C 6.289063 17.800781 6.589844 18.539063 7.191406 19.179688 C 7.789063 19.820313 8.519531 20.148438 9.371094 20.199219 C 9.480469 20.199219 9.539063 20.261719 9.539063 20.378906 L 9.539063 21.710938 C 9.539063 21.820313 9.480469 21.878906 9.371094 21.878906 C 8.03125 21.839844 6.898438 21.339844 5.96875 20.378906 C 5.101563 19.421875 4.640625 18.269531 4.640625 16.949219 Z M 10.140625 24.648438 C 10.140625 24.421875 10.21875 24.21875 10.390625 24.050781 C 10.550781 23.898438 10.738281 23.820313 10.960938 23.820313 C 11.191406 23.820313 11.390625 23.898438 11.550781 24.050781 C 11.710938 24.199219 11.789063 24.398438 11.789063 24.640625 C 11.789063 24.878906 11.710938 25.070313 11.550781 25.230469 C 11.390625 25.390625 11.199219 25.460938 10.960938 25.460938 C 10.730469 25.460938 10.53125 25.378906 10.371094 25.230469 C 10.21875 25.078125 10.140625 24.878906 10.140625 24.648438 Z M 11 21.019531 C 11 20.800781 11.078125 20.601563 11.238281 20.441406 C 11.398438 20.28125 11.589844 20.199219 11.828125 20.199219 C 12.058594 20.199219 12.261719 20.28125 12.421875 20.441406 C 12.578125 20.601563 12.660156 20.800781 12.660156 21.019531 C 12.660156 21.261719 12.578125 21.460938 12.421875 21.621094 C 12.261719 21.789063 12.070313 21.871094 11.828125 21.871094 C 11.601563 21.871094 11.398438 21.789063 11.238281 21.621094 C 11.078125 21.460938 11 21.261719 11 21.019531 Z M 12.898438 26.609375 C 12.898438 26.378906 12.980469 26.179688 13.148438 26 C 13.308594 25.839844 13.5 25.761719 13.71875 25.761719 C 13.960938 25.761719 14.160156 25.839844 14.328125 26.011719 C 14.5 26.179688 14.578125 26.378906 14.578125 26.609375 C 14.578125 26.839844 14.5 27.039063 14.328125 27.199219 C 14.160156 27.359375 13.960938 27.441406 13.71875 27.441406 C 13.488281 27.441406 13.300781 27.359375 13.140625 27.199219 C 12.988281 27.03125 12.898438 26.839844 12.898438 26.609375 Z M 13.769531 22.949219 C 13.769531 22.710938 13.851563 22.511719 14.011719 22.328125 C 14.171875 22.171875 14.371094 22.089844 14.589844 22.089844 C 14.820313 22.089844 15.019531 22.171875 15.191406 22.339844 C 15.359375 22.511719 15.441406 22.710938 15.441406 22.949219 C 15.441406 23.179688 15.359375 23.378906 15.191406 23.550781 C 15.019531 23.71875 14.820313 23.800781 14.589844 23.800781 C 14.359375 23.800781 14.171875 23.71875 14.011719 23.550781 C 13.851563 23.378906 13.769531 23.179688 13.769531 22.949219 Z M 14.191406 19.328125 C 14.191406 19.101563 14.269531 18.898438 14.441406 18.730469 C 14.621094 18.570313 14.808594 18.488281 15.011719 18.488281 C 15.25 18.488281 15.449219 18.570313 15.621094 18.738281 C 15.789063 18.910156 15.871094 19.101563 15.871094 19.339844 C 15.871094 19.570313 15.789063 19.769531 15.621094 19.929688 C 15.449219 20.089844 15.25 20.171875 15.011719 20.171875 C 14.78125 20.171875 14.589844 20.089844 14.429688 19.929688 C 14.269531 19.761719 14.191406 19.558594 14.191406 19.328125 Z M 16.558594 24.648438 C 16.558594 24.421875 16.640625 24.21875 16.800781 24.050781 C 16.960938 23.898438 17.160156 23.820313 17.398438 23.820313 C 17.640625 23.820313 17.828125 23.898438 17.988281 24.050781 C 18.148438 24.210938 18.21875 24.398438 18.21875 24.640625 C 18.21875 24.878906 18.140625 25.070313 17.988281 25.230469 C 17.828125 25.390625 17.640625 25.460938 17.398438 25.460938 C 17.160156 25.460938 16.960938 25.378906 16.800781 25.21875 C 16.640625 25.070313 16.558594 24.878906 16.558594 24.648438 Z M 17.410156 21.019531 C 17.410156 20.800781 17.488281 20.609375 17.660156 20.441406 C 17.828125 20.269531 18.03125 20.191406 18.261719 20.191406 C 18.488281 20.191406 18.691406 20.269531 18.851563 20.429688 C 19.011719 20.589844 19.089844 20.789063 19.089844 21.011719 C 19.089844 21.25 19.011719 21.449219 18.851563 21.609375 C 18.691406 21.78125 18.5 21.859375 18.261719 21.859375 C 18.019531 21.859375 17.820313 21.78125 17.660156 21.609375 C 17.5 21.449219 17.410156 21.25 17.410156 21.019531 Z M 17.410156 21.019531 "/>
</g>
</svg>
