<?xml version="1.0" encoding="UTF-8"?>
<svg xmlns="http://www.w3.org/2000/svg" xmlns:xlink="http://www.w3.org/1999/xlink" width="30pt" height="30pt" viewBox="0 0 30 30" version="1.1">
<g id="surface1011">
<path style=" stroke:none;fill-rule:nonzero;fill:rgb(0%,0%,0%);fill-opacity:1;" d="M 5.070313 21.238281 C 5.070313 21.078125 5.128906 20.941406 5.238281 20.820313 C 5.359375 20.699219 5.488281 20.640625 5.648438 20.640625 L 6.050781 20.640625 C 5.839844 19.980469 5.660156 19.289063 5.519531 18.570313 C 5.308594 17.46875 5.199219 16.46875 5.199219 15.578125 C 5.199219 13.871094 5.5 12.261719 6.109375 10.769531 C 6.730469 9.308594 7.589844 8.058594 8.699219 7.011719 C 9.820313 5.949219 11.121094 5.140625 12.601563 4.589844 C 14.109375 4.019531 15.738281 3.730469 17.511719 3.730469 C 18.570313 3.730469 19.570313 3.820313 20.511719 4.011719 C 21.449219 4.230469 22.359375 4.570313 23.238281 5.039063 L 24.941406 5.949219 L 23.058594 6.339844 C 22.480469 6.46875 22.078125 6.730469 21.859375 7.121094 C 21.699219 7.441406 21.710938 7.808594 21.890625 8.230469 L 22.300781 9.179688 L 21.28125 9.230469 C 20.851563 9.261719 20.449219 9.351563 20.101563 9.5 C 19.769531 9.660156 19.578125 9.820313 19.519531 10 C 19.410156 10.230469 19.53125 10.558594 19.878906 11 L 20.691406 11.960938 L 19.429688 12.140625 C 17.878906 12.371094 16.609375 12.691406 15.621094 13.101563 C 14.628906 13.511719 13.851563 14.039063 13.269531 14.691406 C 12.710938 15.308594 12.289063 16.109375 12.019531 17.058594 C 11.75 18.019531 11.601563 19.210938 11.570313 20.648438 L 16.828125 20.648438 L 16.828125 17.871094 L 16.449219 18.101563 C 16.308594 18.191406 16.160156 18.210938 16 18.171875 C 15.828125 18.128906 15.710938 18.039063 15.628906 17.890625 C 15.539063 17.75 15.519531 17.601563 15.550781 17.441406 C 15.578125 17.28125 15.671875 17.148438 15.820313 17.058594 L 19.640625 14.679688 L 19.660156 14.660156 C 19.671875 14.660156 19.671875 14.660156 19.671875 14.648438 L 19.691406 14.648438 C 19.699219 14.648438 19.710938 14.648438 19.71875 14.640625 C 19.789063 14.621094 19.859375 14.589844 19.949219 14.570313 L 20.011719 14.570313 C 20.019531 14.578125 20.03125 14.589844 20.039063 14.589844 L 20.109375 14.589844 C 20.109375 14.601563 20.121094 14.601563 20.128906 14.601563 L 20.160156 14.601563 L 20.179688 14.609375 L 20.199219 14.609375 C 20.210938 14.621094 20.21875 14.628906 20.21875 14.640625 L 20.238281 14.640625 C 20.25 14.640625 20.25 14.640625 20.25 14.648438 C 20.269531 14.648438 20.28125 14.648438 20.28125 14.660156 C 20.289063 14.660156 20.300781 14.660156 20.308594 14.671875 L 20.328125 14.679688 L 24.148438 17.03125 C 24.289063 17.121094 24.378906 17.25 24.421875 17.410156 C 24.449219 17.578125 24.429688 17.730469 24.339844 17.871094 C 24.261719 18.011719 24.140625 18.101563 23.96875 18.128906 C 23.800781 18.160156 23.648438 18.140625 23.519531 18.050781 L 23.210938 17.859375 L 23.210938 20.628906 L 24.171875 20.628906 C 24.328125 20.628906 24.460938 20.691406 24.570313 20.808594 C 24.679688 20.929688 24.730469 21.070313 24.730469 21.230469 C 24.738281 21.398438 24.679688 21.539063 24.570313 21.660156 C 24.460938 21.78125 24.320313 21.839844 24.171875 21.839844 L 5.648438 21.839844 C 5.488281 21.839844 5.351563 21.78125 5.238281 21.671875 C 5.128906 21.558594 5.070313 21.421875 5.070313 21.238281 Z M 6.621094 15.578125 C 6.621094 16.289063 6.71875 17.199219 6.921875 18.308594 C 7.070313 19.121094 7.25 19.828125 7.460938 20.429688 L 10.148438 20.429688 C 10.199219 18.980469 10.351563 17.78125 10.601563 16.839844 C 10.949219 15.570313 11.480469 14.53125 12.199219 13.75 C 12.929688 12.929688 13.890625 12.28125 15.089844 11.789063 C 15.910156 11.449219 16.949219 11.160156 18.199219 10.921875 L 18.121094 10.671875 C 18.019531 10.210938 18.050781 9.800781 18.210938 9.441406 C 18.429688 8.929688 18.859375 8.519531 19.488281 8.230469 C 19.558594 8.199219 19.621094 8.171875 19.679688 8.160156 C 18.820313 7.960938 17.949219 7.910156 17.078125 8.019531 C 16.089844 8.140625 15.160156 8.429688 14.300781 8.871094 C 13.191406 9.449219 12.191406 10.28125 11.289063 11.351563 C 11.191406 11.46875 11.058594 11.53125 10.910156 11.53125 C 10.789063 11.53125 10.691406 11.5 10.601563 11.429688 C 10.5 11.339844 10.441406 11.230469 10.429688 11.089844 C 10.421875 10.949219 10.449219 10.828125 10.539063 10.71875 C 11.539063 9.53125 12.648438 8.621094 13.878906 7.988281 C 14.859375 7.5 15.910156 7.179688 17.019531 7.039063 C 17.589844 6.96875 18.140625 6.960938 18.691406 7.019531 C 19.230469 7.078125 19.609375 7.140625 19.828125 7.191406 C 20.050781 7.238281 20.199219 7.28125 20.28125 7.308594 L 20.359375 7.339844 C 20.410156 7.03125 20.488281 6.75 20.601563 6.5 C 20.761719 6.210938 20.96875 5.941406 21.238281 5.699219 C 20.941406 5.609375 20.589844 5.511719 20.199219 5.421875 C 19.398438 5.238281 18.5 5.160156 17.511719 5.160156 C 15.929688 5.160156 14.460938 5.421875 13.089844 5.929688 C 11.75 6.441406 10.609375 7.148438 9.671875 8.070313 C 8.691406 8.980469 7.941406 10.070313 7.441406 11.328125 C 6.890625 12.648438 6.621094 14.070313 6.621094 15.578125 Z M 18.050781 20.640625 L 21.929688 20.640625 L 21.929688 17.121094 L 19.949219 15.910156 L 18.050781 17.101563 Z M 18.050781 20.640625 "/>
</g>
</svg>
