<?xml version="1.0" encoding="UTF-8"?>
<svg xmlns="http://www.w3.org/2000/svg" xmlns:xlink="http://www.w3.org/1999/xlink" width="30pt" height="30pt" viewBox="0 0 30 30" version="1.1">
<g id="surface991">
<path style=" stroke:none;fill-rule:nonzero;fill:rgb(0%,0%,0%);fill-opacity:1;" d="M 3.738281 14.46875 C 3.738281 12.429688 4.25 10.539063 5.261719 8.808594 C 6.269531 7.078125 7.640625 5.710938 9.371094 4.699219 C 11.101563 3.691406 12.980469 3.191406 15.011719 3.191406 C 16.53125 3.191406 17.988281 3.488281 19.378906 4.078125 C 20.769531 4.671875 21.960938 5.480469 22.96875 6.480469 C 23.980469 7.480469 24.78125 8.679688 25.371094 10.078125 C 25.960938 11.480469 26.261719 12.929688 26.261719 14.46875 C 26.261719 15.988281 25.960938 17.449219 25.371094 18.839844 C 24.78125 20.230469 23.96875 21.429688 22.96875 22.429688 C 21.96875 23.429688 20.769531 24.230469 19.378906 24.820313 C 17.988281 25.410156 16.539063 25.710938 15.011719 25.710938 C 13.480469 25.710938 12.011719 25.410156 10.621094 24.820313 C 9.230469 24.230469 8.03125 23.421875 7.019531 22.421875 C 6.011719 21.421875 5.21875 20.21875 4.621094 18.839844 C 4.019531 17.460938 3.738281 16 3.738281 14.46875 Z M 6.21875 14.46875 C 6.21875 16.839844 7.078125 18.898438 8.808594 20.648438 C 10.539063 22.378906 12.601563 23.238281 15.011719 23.238281 C 16.589844 23.238281 18.058594 22.851563 19.398438 22.058594 C 20.738281 21.269531 21.820313 20.210938 22.609375 18.859375 C 23.398438 17.511719 23.800781 16.050781 23.800781 14.46875 C 23.800781 12.890625 23.398438 11.421875 22.609375 10.070313 C 21.820313 8.71875 20.75 7.648438 19.398438 6.859375 C 18.050781 6.070313 16.589844 5.679688 15.011719 5.679688 C 13.429688 5.679688 11.960938 6.070313 10.621094 6.859375 C 9.28125 7.648438 8.199219 8.71875 7.398438 10.070313 C 6.601563 11.421875 6.21875 12.890625 6.21875 14.46875 Z M 10.171875 16.558594 C 10.230469 16.339844 10.359375 16.171875 10.550781 16.050781 L 14.140625 13.960938 L 14.140625 7.808594 C 14.140625 7.578125 14.21875 7.378906 14.378906 7.21875 C 14.539063 7.058594 14.738281 6.980469 14.96875 6.980469 C 15.199219 6.980469 15.398438 7.058594 15.558594 7.21875 C 15.71875 7.378906 15.800781 7.578125 15.800781 7.808594 L 15.800781 14.480469 C 15.800781 14.671875 15.738281 14.828125 15.628906 14.980469 C 15.519531 15.128906 15.378906 15.21875 15.210938 15.269531 L 11.371094 17.5 C 11.25 17.578125 11.121094 17.621094 10.960938 17.621094 C 10.640625 17.621094 10.398438 17.480469 10.238281 17.199219 C 10.140625 16.988281 10.109375 16.78125 10.171875 16.558594 Z M 10.171875 16.558594 "/>
</g>
</svg>
