<?xml version="1.0" encoding="UTF-8"?>
<svg xmlns="http://www.w3.org/2000/svg" xmlns:xlink="http://www.w3.org/1999/xlink" width="30pt" height="30pt" viewBox="0 0 30 30" version="1.1">
<g id="surface936">
<path style=" stroke:none;fill-rule:nonzero;fill:rgb(0%,0%,0%);fill-opacity:1;" d="M 4.628906 16.910156 C 4.628906 18.019531 4.960938 19.011719 5.621094 19.878906 C 6.28125 20.75 7.140625 21.351563 8.199219 21.671875 L 7.539063 23.351563 C 7.511719 23.488281 7.558594 23.570313 7.679688 23.570313 L 9.808594 23.570313 L 8.828125 27.871094 L 9.109375 27.871094 L 13.03125 22.121094 C 13.070313 22.078125 13.070313 22.03125 13.039063 21.980469 C 13.011719 21.929688 12.960938 21.910156 12.890625 21.910156 L 10.710938 21.910156 L 13.191406 17.269531 C 13.261719 17.128906 13.210938 17.050781 13.050781 17.050781 L 10.109375 17.050781 C 10.019531 17.050781 9.941406 17.101563 9.878906 17.199219 L 8.808594 20.070313 C 8.101563 19.890625 7.511719 19.5 7.039063 18.910156 C 6.570313 18.320313 6.339844 17.648438 6.339844 16.898438 C 6.339844 16.070313 6.621094 15.351563 7.191406 14.730469 C 7.761719 14.121094 8.460938 13.761719 9.289063 13.660156 L 9.820313 13.589844 C 9.949219 13.589844 10.019531 13.53125 10.019531 13.410156 L 10.089844 12.898438 C 10.199219 11.820313 10.648438 10.910156 11.460938 10.179688 C 12.269531 9.449219 13.21875 9.078125 14.308594 9.078125 C 15.398438 9.078125 16.351563 9.449219 17.160156 10.179688 C 17.980469 10.910156 18.441406 11.820313 18.558594 12.898438 L 18.628906 13.480469 C 18.628906 13.589844 18.691406 13.648438 18.808594 13.648438 L 20.410156 13.648438 C 21.320313 13.648438 22.089844 13.96875 22.730469 14.601563 C 23.371094 15.230469 23.699219 16 23.699219 16.878906 C 23.699219 17.730469 23.398438 18.46875 22.808594 19.089844 C 22.21875 19.710938 21.480469 20.058594 20.609375 20.128906 C 20.480469 20.128906 20.410156 20.191406 20.410156 20.308594 L 20.410156 21.679688 C 20.410156 21.789063 20.480469 21.851563 20.609375 21.851563 C 21.941406 21.808594 23.070313 21.300781 24 20.339844 C 24.929688 19.378906 25.390625 18.230469 25.390625 16.890625 C 25.390625 15.988281 25.171875 15.160156 24.71875 14.398438 C 24.28125 13.640625 23.671875 13.039063 22.910156 12.601563 C 22.140625 12.160156 21.308594 11.941406 20.410156 11.941406 L 20.101563 11.941406 C 19.769531 10.609375 19.058594 9.519531 17.988281 8.679688 C 16.921875 7.839844 15.691406 7.410156 14.308594 7.410156 C 12.898438 7.410156 11.640625 7.851563 10.550781 8.71875 C 9.460938 9.589844 8.761719 10.710938 8.449219 12.078125 C 7.339844 12.339844 6.429688 12.910156 5.710938 13.808594 C 4.988281 14.710938 4.628906 15.761719 4.628906 16.910156 Z M 12.769531 26.621094 C 12.769531 27.011719 12.960938 27.269531 13.351563 27.390625 C 13.359375 27.390625 13.398438 27.390625 13.460938 27.398438 C 13.519531 27.410156 13.570313 27.410156 13.601563 27.410156 C 13.769531 27.410156 13.929688 27.359375 14.089844 27.261719 C 14.25 27.160156 14.359375 27 14.410156 26.78125 L 16.660156 18.089844 C 16.71875 17.851563 16.699219 17.640625 16.589844 17.441406 C 16.480469 17.25 16.320313 17.121094 16.089844 17.050781 C 15.921875 17.03125 15.828125 17.019531 15.828125 17.019531 C 15.671875 17.019531 15.511719 17.070313 15.359375 17.171875 C 15.210938 17.269531 15.101563 17.421875 15.050781 17.621094 L 12.789063 26.339844 C 12.78125 26.441406 12.769531 26.53125 12.769531 26.621094 Z M 16.929688 23.558594 C 16.929688 23.691406 16.960938 23.820313 17.03125 23.941406 C 17.171875 24.160156 17.339844 24.308594 17.539063 24.378906 C 17.648438 24.410156 17.75 24.429688 17.839844 24.429688 C 17.929688 24.429688 18.039063 24.410156 18.160156 24.351563 C 18.371094 24.261719 18.511719 24.070313 18.578125 23.78125 L 20.019531 18.109375 C 20.050781 17.96875 20.070313 17.878906 20.070313 17.839844 C 20.070313 17.691406 20.019531 17.539063 19.910156 17.390625 C 19.800781 17.238281 19.648438 17.128906 19.449219 17.070313 C 19.28125 17.050781 19.191406 17.039063 19.191406 17.039063 C 19.019531 17.039063 18.859375 17.089844 18.71875 17.191406 C 18.578125 17.289063 18.480469 17.441406 18.421875 17.640625 L 16.960938 23.339844 C 16.960938 23.359375 16.960938 23.390625 16.949219 23.449219 C 16.929688 23.5 16.929688 23.53125 16.929688 23.558594 Z M 16.929688 23.558594 "/>
</g>
</svg>
