<?xml version="1.0" encoding="UTF-8"?>
<svg xmlns="http://www.w3.org/2000/svg" xmlns:xlink="http://www.w3.org/1999/xlink" width="30pt" height="30pt" viewBox="0 0 30 30" version="1.1">
<g id="surface1016">
<path style=" stroke:none;fill-rule:nonzero;fill:rgb(0%,0%,0%);fill-opacity:1;" d="M 4.640625 14.648438 C 4.648438 14.308594 4.820313 13.789063 5.140625 13.070313 C 5.460938 12.351563 5.898438 11.589844 6.46875 10.769531 C 8.328125 8.160156 10.960938 6.789063 14.351563 6.640625 L 14.351563 6.210938 C 14.351563 6 14.421875 5.839844 14.558594 5.710938 C 14.699219 5.578125 14.859375 5.519531 15.039063 5.519531 C 15.230469 5.519531 15.390625 5.578125 15.539063 5.710938 C 15.679688 5.839844 15.761719 6.011719 15.761719 6.210938 L 15.761719 6.648438 C 16.738281 6.691406 17.660156 6.839844 18.511719 7.101563 C 19.359375 7.359375 20.101563 7.691406 20.730469 8.101563 C 21.359375 8.511719 21.898438 8.929688 22.339844 9.371094 C 22.789063 9.800781 23.191406 10.269531 23.539063 10.78125 C 23.949219 11.371094 24.308594 12.011719 24.601563 12.679688 C 24.890625 13.351563 25.101563 13.890625 25.210938 14.289063 C 25.320313 14.691406 25.378906 14.890625 25.390625 14.898438 L 25.390625 15.089844 C 25.390625 15.269531 25.320313 15.410156 25.179688 15.53125 C 25.039063 15.648438 24.878906 15.699219 24.691406 15.699219 C 24.378906 15.699219 24.179688 15.609375 24.089844 15.441406 C 23.308594 14.558594 22.460938 14.128906 21.539063 14.128906 C 21.199219 14.148438 20.851563 14.230469 20.511719 14.359375 C 20.171875 14.488281 19.890625 14.628906 19.691406 14.78125 C 19.480469 14.921875 19.289063 15.070313 19.109375 15.21875 C 18.929688 15.371094 18.839844 15.441406 18.828125 15.449219 C 18.640625 15.621094 18.460938 15.710938 18.300781 15.710938 C 18.070313 15.710938 17.898438 15.648438 17.78125 15.53125 C 17.050781 14.800781 16.390625 14.359375 15.769531 14.210938 L 15.769531 21.949219 L 15.761719 22.160156 L 15.71875 22.390625 L 15.660156 22.640625 L 15.570313 22.898438 L 15.441406 23.171875 L 15.269531 23.429688 L 15.058594 23.679688 C 14.550781 24.269531 13.828125 24.558594 12.878906 24.558594 C 11.871094 24.558594 11.109375 24.269531 10.601563 23.679688 C 10.480469 23.558594 10.378906 23.429688 10.289063 23.300781 C 10.199219 23.160156 10.128906 23.03125 10.078125 22.890625 C 10.03125 22.761719 9.988281 22.628906 9.960938 22.511719 C 9.929688 22.390625 9.910156 22.269531 9.898438 22.148438 C 9.878906 22 9.871094 21.898438 9.871094 21.820313 C 9.871094 21.738281 9.871094 21.660156 9.871094 21.589844 C 9.871094 21.519531 9.878906 21.46875 9.878906 21.460938 C 9.878906 21.28125 9.960938 21.121094 10.109375 20.988281 C 10.269531 20.859375 10.449219 20.808594 10.660156 20.851563 C 10.839844 20.851563 10.980469 20.929688 11.101563 21.078125 C 11.21875 21.230469 11.28125 21.421875 11.28125 21.640625 C 11.21875 22.050781 11.300781 22.398438 11.53125 22.691406 C 11.738281 22.980469 12.179688 23.128906 12.851563 23.128906 C 13.371094 23.128906 13.75 23.011719 13.980469 22.769531 C 14.109375 22.640625 14.210938 22.480469 14.269531 22.289063 C 14.328125 22.101563 14.359375 21.949219 14.351563 21.820313 L 14.339844 21.628906 L 14.339844 14.269531 C 13.609375 14.449219 12.960938 14.828125 12.410156 15.410156 C 12.371094 15.488281 12.289063 15.570313 12.179688 15.640625 C 12.070313 15.710938 11.96875 15.75 11.878906 15.75 C 11.699219 15.75 11.5 15.640625 11.28125 15.410156 C 10.480469 14.519531 9.628906 14.078125 8.730469 14.101563 C 8.328125 14.109375 7.949219 14.171875 7.609375 14.300781 C 7.261719 14.429688 7 14.558594 6.820313 14.691406 C 6.648438 14.820313 6.460938 14.96875 6.28125 15.140625 C 6.101563 15.308594 5.988281 15.410156 5.960938 15.429688 C 5.75 15.570313 5.578125 15.648438 5.449219 15.648438 C 5.320313 15.648438 5.148438 15.589844 4.96875 15.480469 C 4.808594 15.378906 4.710938 15.269531 4.671875 15.160156 C 4.640625 15.039063 4.628906 14.871094 4.640625 14.648438 Z M 6.730469 13.230469 C 7.410156 12.871094 8.050781 12.699219 8.648438 12.699219 L 8.730469 12.699219 C 9.878906 12.699219 10.929688 13.140625 11.878906 14.03125 C 12.261719 13.699219 12.71875 13.410156 13.269531 13.148438 C 13.808594 12.890625 14.398438 12.738281 15.039063 12.699219 L 15.121094 12.699219 C 16.269531 12.699219 17.320313 13.140625 18.269531 14.03125 C 18.648438 13.699219 19.109375 13.410156 19.660156 13.148438 C 20.199219 12.890625 20.789063 12.738281 21.429688 12.699219 L 21.519531 12.699219 C 22.078125 12.699219 22.671875 12.851563 23.269531 13.140625 C 22.828125 12.28125 22.53125 11.730469 22.390625 11.480469 C 20.601563 9.140625 18.121094 7.96875 14.960938 7.96875 C 13.378906 7.96875 11.96875 8.269531 10.71875 8.871094 C 9.480469 9.46875 8.460938 10.339844 7.671875 11.480469 C 7.441406 11.820313 7.121094 12.410156 6.730469 13.230469 Z M 6.730469 13.230469 "/>
</g>
</svg>
