<?xml version="1.0" encoding="UTF-8"?>
<svg xmlns="http://www.w3.org/2000/svg" xmlns:xlink="http://www.w3.org/1999/xlink" width="30pt" height="30pt" viewBox="0 0 30 30" version="1.1">
<g id="surface1086">
<path style=" stroke:none;fill-rule:nonzero;fill:rgb(0%,0%,0%);fill-opacity:1;" d="M 5.089844 13.5 C 5.089844 13.679688 5.148438 13.808594 5.261719 13.898438 C 5.378906 14.011719 5.519531 14.070313 5.679688 14.070313 L 16.078125 14.070313 C 16.261719 14.070313 16.410156 14.128906 16.539063 14.261719 C 16.671875 14.378906 16.738281 14.539063 16.738281 14.71875 C 16.738281 14.898438 16.671875 15.058594 16.539063 15.191406 C 16.410156 15.320313 16.261719 15.390625 16.078125 15.390625 C 15.898438 15.390625 15.738281 15.320313 15.609375 15.179688 C 15.480469 15.070313 15.351563 15.019531 15.210938 15.019531 C 15.050781 15.019531 14.910156 15.070313 14.800781 15.179688 C 14.691406 15.289063 14.640625 15.421875 14.640625 15.570313 C 14.640625 15.730469 14.699219 15.871094 14.808594 15.980469 C 15.171875 16.339844 15.589844 16.511719 16.078125 16.511719 C 16.570313 16.511719 16.988281 16.339844 17.339844 15.988281 C 17.691406 15.640625 17.859375 15.21875 17.859375 14.71875 C 17.859375 14.230469 17.691406 13.800781 17.339844 13.449219 C 16.988281 13.101563 16.570313 12.921875 16.078125 12.921875 L 5.679688 12.921875 C 5.519531 12.921875 5.378906 12.980469 5.261719 13.089844 C 5.140625 13.210938 5.089844 13.339844 5.089844 13.5 Z M 5.089844 11.480469 C 5.089844 11.648438 5.148438 11.78125 5.261719 11.871094 C 5.378906 11.980469 5.519531 12.03125 5.679688 12.03125 L 19.488281 12.03125 C 19.980469 12.03125 20.410156 11.851563 20.761719 11.511719 C 21.109375 11.160156 21.28125 10.738281 21.28125 10.238281 C 21.28125 9.75 21.109375 9.328125 20.761719 8.980469 C 20.410156 8.628906 19.988281 8.460938 19.488281 8.460938 C 19 8.460938 18.578125 8.628906 18.21875 8.96875 C 18.109375 9.089844 18.058594 9.238281 18.058594 9.390625 C 18.058594 9.550781 18.109375 9.691406 18.21875 9.789063 C 18.328125 9.890625 18.460938 9.941406 18.621094 9.941406 C 18.769531 9.941406 18.910156 9.890625 19.03125 9.78125 C 19.148438 9.660156 19.300781 9.601563 19.480469 9.601563 C 19.648438 9.601563 19.808594 9.660156 19.941406 9.78125 C 20.070313 9.898438 20.140625 10.050781 20.140625 10.230469 C 20.140625 10.410156 20.070313 10.570313 19.941406 10.699219 C 19.808594 10.828125 19.660156 10.898438 19.480469 10.898438 L 5.679688 10.898438 C 5.519531 10.898438 5.378906 10.960938 5.261719 11.070313 C 5.140625 11.179688 5.089844 11.320313 5.089844 11.480469 Z M 18.179688 19.761719 C 18.199219 20.148438 18.289063 20.488281 18.460938 20.78125 C 18.628906 21.070313 18.851563 21.289063 19.128906 21.449219 C 19.410156 21.609375 19.710938 21.71875 20.03125 21.789063 C 20.351563 21.859375 20.699219 21.898438 21.070313 21.898438 C 21.640625 21.898438 22.160156 21.789063 22.621094 21.578125 C 23.089844 21.371094 23.460938 21.101563 23.75 20.769531 C 24.039063 20.441406 24.28125 20.070313 24.480469 19.640625 C 24.679688 19.210938 24.808594 18.800781 24.890625 18.410156 C 24.96875 18.019531 25.011719 17.628906 25.011719 17.261719 C 25.011719 16.199219 24.738281 15.390625 24.199219 14.828125 C 23.660156 14.261719 22.941406 13.980469 22.03125 13.980469 C 21.101563 13.980469 20.308594 14.261719 19.671875 14.828125 C 19.03125 15.398438 18.699219 16.148438 18.699219 17.070313 C 18.699219 17.730469 18.910156 18.269531 19.328125 18.691406 C 19.75 19.109375 20.289063 19.320313 20.960938 19.320313 C 21.320313 19.320313 21.660156 19.25 22.011719 19.101563 C 22.351563 18.960938 22.589844 18.769531 22.730469 18.558594 L 22.761719 18.558594 C 22.640625 19.039063 22.449219 19.441406 22.179688 19.78125 C 21.910156 20.121094 21.558594 20.289063 21.121094 20.289063 C 20.828125 20.289063 20.640625 20.261719 20.53125 20.191406 C 20.410156 20.078125 20.320313 19.941406 20.289063 19.769531 L 18.179688 19.769531 Z M 20.75 16.878906 C 20.75 16.570313 20.851563 16.300781 21.039063 16.070313 C 21.230469 15.839844 21.519531 15.730469 21.898438 15.730469 C 22.238281 15.730469 22.5 15.820313 22.671875 15.988281 C 22.851563 16.160156 22.941406 16.421875 22.941406 16.75 C 22.941406 16.839844 22.921875 16.949219 22.878906 17.058594 C 22.839844 17.171875 22.78125 17.289063 22.699219 17.421875 C 22.621094 17.539063 22.5 17.648438 22.328125 17.730469 C 22.160156 17.808594 21.980469 17.851563 21.769531 17.851563 C 21.558594 17.851563 21.378906 17.808594 21.230469 17.738281 C 21.078125 17.671875 20.980469 17.570313 20.910156 17.449219 C 20.839844 17.328125 20.800781 17.230469 20.769531 17.140625 C 20.738281 17.050781 20.75 16.960938 20.75 16.878906 Z M 20.75 16.878906 "/>
</g>
</svg>
