<?xml version="1.0" encoding="UTF-8"?>
<svg xmlns="http://www.w3.org/2000/svg" xmlns:xlink="http://www.w3.org/1999/xlink" width="30pt" height="30pt" viewBox="0 0 30 30" version="1.1">
<g id="surface1036">
<path style=" stroke:none;fill-rule:nonzero;fill:rgb(0%,0%,0%);fill-opacity:1;" d="M 3.148438 13.5 C 3.148438 13.679688 3.210938 13.808594 3.320313 13.898438 C 3.441406 14.011719 3.578125 14.070313 3.738281 14.070313 L 14.140625 14.070313 C 14.320313 14.070313 14.46875 14.128906 14.601563 14.261719 C 14.730469 14.378906 14.800781 14.539063 14.800781 14.71875 C 14.800781 14.898438 14.730469 15.058594 14.601563 15.191406 C 14.46875 15.320313 14.320313 15.390625 14.140625 15.390625 C 13.960938 15.390625 13.800781 15.320313 13.671875 15.179688 C 13.550781 15.070313 13.410156 15.019531 13.269531 15.019531 C 13.109375 15.019531 12.96875 15.070313 12.859375 15.179688 C 12.75 15.289063 12.699219 15.421875 12.699219 15.570313 C 12.699219 15.730469 12.761719 15.871094 12.871094 15.980469 C 13.230469 16.339844 13.648438 16.511719 14.140625 16.511719 C 14.628906 16.511719 15.050781 16.339844 15.398438 15.988281 C 15.75 15.640625 15.921875 15.21875 15.921875 14.71875 C 15.921875 14.230469 15.75 13.800781 15.398438 13.449219 C 15.050781 13.101563 14.628906 12.921875 14.140625 12.921875 L 3.75 12.921875 C 3.589844 12.921875 3.449219 12.980469 3.328125 13.089844 C 3.210938 13.210938 3.148438 13.339844 3.148438 13.5 Z M 3.148438 11.480469 C 3.148438 11.648438 3.210938 11.78125 3.320313 11.871094 C 3.441406 11.980469 3.578125 12.03125 3.738281 12.03125 L 17.550781 12.03125 C 18.039063 12.03125 18.46875 11.851563 18.820313 11.511719 C 19.171875 11.160156 19.339844 10.738281 19.339844 10.238281 C 19.339844 9.75 19.171875 9.328125 18.820313 8.980469 C 18.46875 8.628906 18.050781 8.460938 17.550781 8.460938 C 17.058594 8.460938 16.640625 8.628906 16.28125 8.96875 C 16.171875 9.089844 16.121094 9.238281 16.121094 9.390625 C 16.121094 9.550781 16.171875 9.691406 16.28125 9.789063 C 16.390625 9.890625 16.519531 9.941406 16.679688 9.941406 C 16.828125 9.941406 16.96875 9.890625 17.089844 9.78125 C 17.210938 9.660156 17.359375 9.601563 17.539063 9.601563 C 17.710938 9.601563 17.871094 9.660156 18 9.78125 C 18.128906 9.898438 18.199219 10.050781 18.199219 10.230469 C 18.199219 10.410156 18.128906 10.570313 18 10.699219 C 17.871094 10.828125 17.71875 10.898438 17.539063 10.898438 L 3.75 10.898438 C 3.589844 10.898438 3.449219 10.960938 3.328125 11.070313 C 3.210938 11.179688 3.148438 11.320313 3.148438 11.480469 Z M 15.96875 21.800781 L 18.429688 21.800781 L 20.070313 13.859375 L 17.621094 13.859375 Z M 20.160156 18.878906 C 20.160156 19.398438 20.238281 19.859375 20.398438 20.261719 C 20.558594 20.660156 20.78125 20.980469 21.058594 21.210938 C 21.328125 21.441406 21.640625 21.609375 21.960938 21.730469 C 22.28125 21.851563 22.640625 21.898438 23.011719 21.898438 C 23.621094 21.898438 24.171875 21.78125 24.648438 21.519531 C 25.128906 21.269531 25.511719 20.960938 25.78125 20.589844 C 26.050781 20.21875 26.28125 19.800781 26.460938 19.339844 C 26.640625 18.871094 26.761719 18.449219 26.828125 18.070313 C 26.890625 17.691406 26.921875 17.339844 26.921875 17.019531 C 26.921875 16.050781 26.648438 15.300781 26.121094 14.769531 C 25.589844 14.238281 24.878906 13.96875 23.988281 13.96875 C 22.960938 13.96875 22.058594 14.429688 21.289063 15.339844 C 20.539063 16.261719 20.160156 17.441406 20.160156 18.878906 Z M 22.210938 18.980469 C 22.210938 18.820313 22.21875 18.628906 22.25 18.390625 C 22.28125 18.160156 22.328125 17.878906 22.410156 17.550781 C 22.488281 17.230469 22.589844 16.929688 22.710938 16.648438 C 22.828125 16.378906 23 16.148438 23.230469 15.960938 C 23.449219 15.769531 23.699219 15.671875 23.980469 15.671875 C 24.25 15.671875 24.460938 15.761719 24.628906 15.941406 C 24.789063 16.121094 24.871094 16.378906 24.871094 16.730469 C 24.871094 17.691406 24.699219 18.511719 24.371094 19.179688 C 24.039063 19.851563 23.621094 20.191406 23.140625 20.191406 C 22.519531 20.191406 22.210938 19.789063 22.210938 18.980469 Z M 22.210938 18.980469 "/>
</g>
</svg>
