<?xml version="1.0" encoding="UTF-8"?>
<svg xmlns="http://www.w3.org/2000/svg" xmlns:xlink="http://www.w3.org/1999/xlink" width="30pt" height="30pt" viewBox="0 0 30 30" version="1.1">
<g id="surface1066">
<path style=" stroke:none;fill-rule:nonzero;fill:rgb(0%,0%,0%);fill-opacity:1;" d="M 4.96875 13.5 C 4.96875 13.679688 5.03125 13.808594 5.140625 13.898438 C 5.261719 14.011719 5.398438 14.070313 5.558594 14.070313 L 15.960938 14.070313 C 16.140625 14.070313 16.289063 14.128906 16.421875 14.261719 C 16.550781 14.378906 16.621094 14.539063 16.621094 14.71875 C 16.621094 14.898438 16.550781 15.058594 16.421875 15.191406 C 16.289063 15.320313 16.140625 15.390625 15.960938 15.390625 C 15.78125 15.390625 15.621094 15.320313 15.488281 15.179688 C 15.359375 15.070313 15.230469 15.019531 15.089844 15.019531 C 14.929688 15.019531 14.789063 15.070313 14.679688 15.179688 C 14.570313 15.289063 14.519531 15.421875 14.519531 15.570313 C 14.519531 15.730469 14.578125 15.871094 14.691406 15.980469 C 15.050781 16.339844 15.46875 16.511719 15.96875 16.511719 C 16.460938 16.511719 16.878906 16.339844 17.230469 15.988281 C 17.578125 15.640625 17.75 15.21875 17.75 14.71875 C 17.75 14.230469 17.578125 13.800781 17.230469 13.449219 C 16.878906 13.101563 16.460938 12.921875 15.96875 12.921875 L 5.558594 12.921875 C 5.398438 12.921875 5.261719 12.980469 5.140625 13.089844 C 5.03125 13.210938 4.96875 13.339844 4.96875 13.5 Z M 4.96875 11.480469 C 4.96875 11.648438 5.03125 11.78125 5.140625 11.871094 C 5.261719 11.980469 5.398438 12.03125 5.558594 12.03125 L 19.371094 12.03125 C 19.859375 12.03125 20.289063 11.851563 20.640625 11.511719 C 20.988281 11.160156 21.160156 10.738281 21.160156 10.238281 C 21.160156 9.75 20.988281 9.328125 20.640625 8.980469 C 20.289063 8.628906 19.871094 8.460938 19.371094 8.460938 C 18.878906 8.460938 18.460938 8.628906 18.101563 8.96875 C 18 9.089844 17.941406 9.230469 17.941406 9.378906 C 17.941406 9.539063 17.988281 9.679688 18.101563 9.78125 C 18.210938 9.878906 18.339844 9.929688 18.5 9.929688 C 18.648438 9.929688 18.789063 9.878906 18.910156 9.769531 C 19.03125 9.648438 19.179688 9.589844 19.359375 9.589844 C 19.53125 9.589844 19.691406 9.648438 19.820313 9.769531 C 19.949219 9.890625 20.019531 10.039063 20.019531 10.21875 C 20.019531 10.398438 19.949219 10.558594 19.820313 10.691406 C 19.691406 10.820313 19.539063 10.890625 19.359375 10.890625 L 5.558594 10.890625 C 5.398438 10.890625 5.261719 10.949219 5.140625 11.058594 C 5.03125 11.179688 4.96875 11.320313 4.96875 11.480469 Z M 18.039063 19.378906 C 18.019531 19.699219 18.050781 20 18.160156 20.289063 C 18.261719 20.578125 18.429688 20.851563 18.660156 21.101563 C 18.890625 21.351563 19.210938 21.539063 19.640625 21.691406 C 20.058594 21.839844 20.558594 21.910156 21.128906 21.910156 C 21.710938 21.910156 22.21875 21.828125 22.660156 21.679688 C 23.101563 21.53125 23.460938 21.339844 23.710938 21.109375 C 23.960938 20.890625 24.160156 20.621094 24.320313 20.320313 C 24.480469 20.019531 24.589844 19.75 24.640625 19.5 C 24.691406 19.25 24.71875 19.011719 24.71875 18.761719 C 24.71875 18.089844 24.511719 17.550781 24.078125 17.148438 C 23.648438 16.75 23.101563 16.539063 22.429688 16.539063 C 21.738281 16.539063 21.25 16.679688 20.980469 16.96875 L 20.960938 16.96875 L 21.308594 15.949219 L 24.761719 15.949219 L 25.148438 14.070313 L 19.910156 14.070313 L 18.460938 18.53125 L 20.460938 18.53125 C 20.621094 18.191406 20.988281 18.019531 21.570313 18.019531 C 21.890625 18.019531 22.148438 18.101563 22.339844 18.269531 C 22.53125 18.441406 22.628906 18.679688 22.628906 19.019531 C 22.628906 19.359375 22.511719 19.628906 22.28125 19.839844 C 22.050781 20.050781 21.710938 20.148438 21.28125 20.148438 C 20.96875 20.148438 20.71875 20.089844 20.550781 19.980469 C 20.339844 19.871094 20.21875 19.671875 20.191406 19.378906 Z M 18.039063 19.378906 "/>
</g>
</svg>
