<?xml version="1.0" encoding="UTF-8"?>
<svg xmlns="http://www.w3.org/2000/svg" xmlns:xlink="http://www.w3.org/1999/xlink" width="30pt" height="30pt" viewBox="0 0 30 30" version="1.1">
<g id="surface1076">
<path style=" stroke:none;fill-rule:nonzero;fill:rgb(0%,0%,0%);fill-opacity:1;" d="M 4.828125 13.5 C 4.828125 13.679688 4.890625 13.808594 5 13.898438 C 5.121094 14.011719 5.261719 14.070313 5.421875 14.070313 L 15.820313 14.070313 C 15.988281 14.070313 16.148438 14.128906 16.28125 14.261719 C 16.410156 14.378906 16.480469 14.539063 16.480469 14.71875 C 16.480469 14.898438 16.410156 15.058594 16.28125 15.191406 C 16.148438 15.320313 16 15.390625 15.820313 15.390625 C 15.640625 15.390625 15.480469 15.320313 15.351563 15.179688 C 15.230469 15.070313 15.089844 15.019531 14.949219 15.019531 C 14.789063 15.019531 14.648438 15.070313 14.539063 15.179688 C 14.429688 15.289063 14.378906 15.421875 14.378906 15.570313 C 14.378906 15.730469 14.441406 15.871094 14.550781 15.980469 C 14.910156 16.339844 15.328125 16.511719 15.820313 16.511719 C 16.308594 16.511719 16.730469 16.339844 17.078125 15.988281 C 17.429688 15.640625 17.601563 15.21875 17.601563 14.71875 C 17.601563 14.230469 17.429688 13.800781 17.078125 13.449219 C 16.730469 13.101563 16.308594 12.921875 15.820313 12.921875 L 5.421875 12.921875 C 5.261719 12.921875 5.121094 12.980469 5 13.089844 C 4.890625 13.210938 4.828125 13.339844 4.828125 13.5 Z M 4.828125 11.480469 C 4.828125 11.648438 4.890625 11.78125 5 11.871094 C 5.121094 11.980469 5.261719 12.03125 5.421875 12.03125 L 19.230469 12.03125 C 19.71875 12.03125 20.148438 11.851563 20.5 11.511719 C 20.851563 11.160156 21.019531 10.738281 21.019531 10.238281 C 21.019531 9.75 20.851563 9.328125 20.5 8.980469 C 20.148438 8.628906 19.730469 8.460938 19.230469 8.460938 C 18.738281 8.460938 18.320313 8.628906 17.960938 8.96875 C 17.851563 9.089844 17.800781 9.238281 17.800781 9.390625 C 17.800781 9.550781 17.851563 9.691406 17.960938 9.789063 C 18.070313 9.890625 18.199219 9.941406 18.359375 9.941406 C 18.511719 9.941406 18.648438 9.890625 18.769531 9.78125 C 18.890625 9.660156 19.039063 9.601563 19.21875 9.601563 C 19.390625 9.601563 19.550781 9.660156 19.679688 9.78125 C 19.808594 9.898438 19.878906 10.050781 19.878906 10.230469 C 19.878906 10.410156 19.808594 10.570313 19.679688 10.699219 C 19.550781 10.828125 19.398438 10.898438 19.21875 10.898438 L 5.421875 10.898438 C 5.261719 10.898438 5.121094 10.960938 5 11.070313 C 4.890625 11.179688 4.828125 11.320313 4.828125 11.480469 Z M 18.851563 21.898438 L 21.320313 21.898438 C 21.578125 20.609375 22.050781 19.449219 22.710938 18.429688 C 23.378906 17.410156 24.101563 16.589844 24.871094 15.988281 L 25.25 14.121094 L 19.289063 14.121094 L 18.878906 16.011719 L 22.371094 16.011719 C 20.390625 18 19.21875 19.960938 18.851563 21.898438 Z M 18.851563 21.898438 "/>
</g>
</svg>
