<?xml version="1.0" encoding="UTF-8"?>
<svg xmlns="http://www.w3.org/2000/svg" xmlns:xlink="http://www.w3.org/1999/xlink" width="30pt" height="30pt" viewBox="0 0 30 30" version="1.1">
<g id="surface1031">
<path style=" stroke:none;fill-rule:nonzero;fill:rgb(0%,0%,0%);fill-opacity:1;" d="M 5.761719 13.5 C 5.761719 13.679688 5.820313 13.808594 5.929688 13.898438 C 6.050781 14.011719 6.191406 14.070313 6.351563 14.070313 L 16.75 14.070313 C 16.921875 14.070313 17.078125 14.128906 17.210938 14.261719 C 17.339844 14.378906 17.410156 14.539063 17.410156 14.71875 C 17.410156 14.898438 17.339844 15.058594 17.210938 15.191406 C 17.078125 15.320313 16.929688 15.390625 16.75 15.390625 C 16.570313 15.390625 16.410156 15.320313 16.28125 15.179688 C 16.160156 15.070313 16.019531 15.019531 15.878906 15.019531 C 15.71875 15.019531 15.578125 15.070313 15.46875 15.179688 C 15.359375 15.289063 15.308594 15.421875 15.308594 15.570313 C 15.308594 15.730469 15.371094 15.871094 15.480469 15.980469 C 15.839844 16.339844 16.261719 16.511719 16.75 16.511719 C 17.238281 16.511719 17.660156 16.339844 18.011719 15.988281 C 18.359375 15.640625 18.53125 15.21875 18.53125 14.71875 C 18.53125 14.230469 18.359375 13.800781 18.011719 13.449219 C 17.660156 13.101563 17.238281 12.921875 16.75 12.921875 L 6.351563 12.921875 C 6.191406 12.921875 6.050781 12.980469 5.929688 13.089844 C 5.808594 13.210938 5.761719 13.339844 5.761719 13.5 Z M 5.761719 11.480469 C 5.761719 11.648438 5.820313 11.78125 5.929688 11.871094 C 6.050781 11.980469 6.191406 12.03125 6.351563 12.03125 L 20.160156 12.03125 C 20.648438 12.03125 21.078125 11.851563 21.429688 11.511719 C 21.78125 11.160156 21.949219 10.738281 21.949219 10.238281 C 21.949219 9.75 21.78125 9.328125 21.429688 8.980469 C 21.078125 8.628906 20.660156 8.460938 20.160156 8.460938 C 19.671875 8.460938 19.25 8.628906 18.890625 8.96875 C 18.78125 9.089844 18.730469 9.238281 18.730469 9.390625 C 18.730469 9.550781 18.78125 9.691406 18.890625 9.789063 C 19 9.890625 19.128906 9.941406 19.289063 9.941406 C 19.441406 9.941406 19.578125 9.890625 19.699219 9.78125 C 19.820313 9.660156 19.96875 9.601563 20.148438 9.601563 C 20.320313 9.601563 20.480469 9.660156 20.609375 9.78125 C 20.738281 9.898438 20.808594 10.050781 20.808594 10.230469 C 20.808594 10.410156 20.738281 10.570313 20.609375 10.699219 C 20.480469 10.828125 20.328125 10.898438 20.148438 10.898438 L 6.351563 10.898438 C 6.191406 10.898438 6.050781 10.960938 5.929688 11.070313 C 5.808594 11.179688 5.761719 11.320313 5.761719 11.480469 Z M 18.648438 21.851563 L 21.121094 21.851563 L 22.769531 13.871094 L 20.300781 13.871094 Z M 18.648438 21.851563 "/>
</g>
</svg>
