<?xml version="1.0" encoding="UTF-8"?>
<svg xmlns="http://www.w3.org/2000/svg" xmlns:xlink="http://www.w3.org/1999/xlink" width="30pt" height="30pt" viewBox="0 0 30 30" version="1.1">
<g id="surface1081">
<path style=" stroke:none;fill-rule:nonzero;fill:rgb(0%,0%,0%);fill-opacity:1;" d="M 4.988281 13.5 C 4.988281 13.679688 5.050781 13.808594 5.160156 13.898438 C 5.28125 14.011719 5.421875 14.070313 5.578125 14.070313 L 15.980469 14.070313 C 16.160156 14.070313 16.308594 14.128906 16.441406 14.261719 C 16.570313 14.378906 16.640625 14.539063 16.640625 14.71875 C 16.640625 14.898438 16.570313 15.058594 16.441406 15.191406 C 16.308594 15.320313 16.160156 15.390625 15.980469 15.390625 C 15.800781 15.390625 15.640625 15.320313 15.511719 15.179688 C 15.378906 15.070313 15.25 15.019531 15.109375 15.019531 C 14.949219 15.019531 14.808594 15.070313 14.699219 15.179688 C 14.589844 15.289063 14.539063 15.421875 14.539063 15.570313 C 14.539063 15.730469 14.601563 15.871094 14.710938 15.980469 C 15.070313 16.339844 15.488281 16.511719 15.988281 16.511719 C 16.480469 16.511719 16.898438 16.339844 17.25 15.988281 C 17.601563 15.640625 17.769531 15.21875 17.769531 14.71875 C 17.769531 14.230469 17.601563 13.800781 17.25 13.449219 C 16.898438 13.101563 16.480469 12.921875 15.988281 12.921875 L 5.578125 12.921875 C 5.421875 12.921875 5.28125 12.980469 5.160156 13.089844 C 5.050781 13.210938 4.988281 13.339844 4.988281 13.5 Z M 4.988281 11.480469 C 4.988281 11.648438 5.050781 11.78125 5.160156 11.871094 C 5.28125 11.980469 5.421875 12.03125 5.578125 12.03125 L 19.390625 12.03125 C 19.878906 12.03125 20.308594 11.851563 20.660156 11.511719 C 21.011719 11.160156 21.179688 10.738281 21.179688 10.238281 C 21.179688 9.75 21.011719 9.328125 20.660156 8.980469 C 20.308594 8.628906 19.890625 8.460938 19.390625 8.460938 C 18.898438 8.460938 18.480469 8.628906 18.121094 8.96875 C 18.011719 9.089844 17.960938 9.238281 17.960938 9.390625 C 17.960938 9.550781 18.011719 9.691406 18.121094 9.789063 C 18.230469 9.890625 18.359375 9.941406 18.519531 9.941406 C 18.671875 9.941406 18.808594 9.890625 18.929688 9.78125 C 19.050781 9.660156 19.199219 9.601563 19.378906 9.601563 C 19.550781 9.601563 19.710938 9.660156 19.839844 9.78125 C 19.96875 9.898438 20.039063 10.050781 20.039063 10.230469 C 20.039063 10.410156 19.96875 10.570313 19.839844 10.699219 C 19.710938 10.828125 19.558594 10.898438 19.378906 10.898438 L 5.578125 10.898438 C 5.421875 10.898438 5.28125 10.960938 5.160156 11.070313 C 5.050781 11.179688 4.988281 11.320313 4.988281 11.480469 Z M 17.988281 19.671875 C 17.988281 20.398438 18.28125 20.960938 18.851563 21.328125 C 19.421875 21.710938 20.191406 21.898438 21.160156 21.898438 C 21.75 21.898438 22.28125 21.839844 22.730469 21.71875 C 23.191406 21.601563 23.539063 21.449219 23.800781 21.28125 C 24.058594 21.109375 24.261719 20.898438 24.421875 20.660156 C 24.578125 20.421875 24.679688 20.199219 24.730469 20 C 24.78125 19.800781 24.808594 19.601563 24.808594 19.390625 C 24.808594 18.980469 24.691406 18.621094 24.449219 18.328125 C 24.210938 18.03125 23.898438 17.839844 23.511719 17.761719 L 23.53125 17.730469 L 23.53125 17.738281 C 23.980469 17.679688 24.351563 17.480469 24.648438 17.140625 C 24.941406 16.808594 25.089844 16.410156 25.089844 15.949219 C 25.089844 15.570313 25 15.238281 24.828125 14.96875 C 24.660156 14.699219 24.421875 14.488281 24.121094 14.359375 C 23.820313 14.21875 23.511719 14.121094 23.199219 14.058594 C 22.890625 14 22.550781 13.96875 22.191406 13.96875 C 21.710938 13.96875 21.289063 14.019531 20.910156 14.109375 C 20.53125 14.199219 20.21875 14.328125 19.980469 14.480469 C 19.738281 14.628906 19.550781 14.808594 19.390625 15.011719 C 19.230469 15.210938 19.121094 15.410156 19.058594 15.609375 C 19 15.808594 18.96875 16.019531 18.96875 16.230469 C 18.96875 16.570313 19.058594 16.871094 19.238281 17.128906 C 19.421875 17.390625 19.671875 17.558594 19.988281 17.660156 L 19.988281 17.691406 C 19.429688 17.75 18.949219 17.960938 18.570313 18.300781 C 18.179688 18.671875 17.988281 19.121094 17.988281 19.671875 Z M 20.101563 19.441406 C 20.101563 19.089844 20.238281 18.828125 20.519531 18.671875 C 20.800781 18.511719 21.140625 18.429688 21.53125 18.429688 C 21.941406 18.429688 22.230469 18.519531 22.421875 18.710938 C 22.601563 18.890625 22.699219 19.089844 22.699219 19.308594 L 22.699219 19.441406 C 22.699219 19.71875 22.570313 19.929688 22.320313 20.078125 C 22.070313 20.21875 21.738281 20.300781 21.351563 20.300781 L 21.378906 20.289063 C 21.238281 20.289063 21.109375 20.28125 20.980469 20.261719 C 20.851563 20.238281 20.710938 20.199219 20.570313 20.148438 C 20.429688 20.089844 20.320313 20.011719 20.230469 19.890625 C 20.148438 19.761719 20.101563 19.609375 20.101563 19.441406 Z M 20.859375 16.371094 C 20.859375 16.050781 20.980469 15.820313 21.230469 15.679688 C 21.480469 15.539063 21.78125 15.460938 22.128906 15.460938 C 22.429688 15.460938 22.679688 15.53125 22.890625 15.660156 C 23.101563 15.789063 23.199219 16.011719 23.199219 16.289063 C 23.199219 16.359375 23.179688 16.441406 23.148438 16.519531 C 23.121094 16.601563 23.058594 16.691406 22.980469 16.789063 C 22.898438 16.890625 22.769531 16.96875 22.589844 17.03125 C 22.410156 17.089844 22.191406 17.121094 21.929688 17.121094 C 21.53125 17.121094 21.25 17.039063 21.089844 16.890625 C 20.941406 16.75 20.859375 16.570313 20.859375 16.371094 Z M 20.859375 16.371094 "/>
</g>
</svg>
