<?xml version="1.0" encoding="UTF-8"?>
<svg xmlns="http://www.w3.org/2000/svg" xmlns:xlink="http://www.w3.org/1999/xlink" width="30pt" height="30pt" viewBox="0 0 30 30" version="1.1">
<g id="surface1061">
<path style=" stroke:none;fill-rule:nonzero;fill:rgb(0%,0%,0%);fill-opacity:1;" d="M 4.980469 13.5 C 4.980469 13.679688 5.039063 13.808594 5.148438 13.898438 C 5.269531 14.011719 5.410156 14.070313 5.570313 14.070313 L 15.96875 14.070313 C 16.140625 14.070313 16.300781 14.128906 16.429688 14.261719 C 16.558594 14.378906 16.628906 14.539063 16.628906 14.71875 C 16.628906 14.898438 16.558594 15.058594 16.429688 15.191406 C 16.300781 15.320313 16.148438 15.390625 15.96875 15.390625 C 15.789063 15.390625 15.628906 15.320313 15.5 15.179688 C 15.378906 15.070313 15.238281 15.019531 15.101563 15.019531 C 14.941406 15.019531 14.800781 15.070313 14.691406 15.179688 C 14.578125 15.289063 14.53125 15.421875 14.53125 15.570313 C 14.53125 15.730469 14.589844 15.871094 14.699219 15.980469 C 15.058594 16.339844 15.480469 16.511719 15.96875 16.511719 C 16.460938 16.511719 16.878906 16.339844 17.230469 15.988281 C 17.578125 15.640625 17.75 15.21875 17.75 14.71875 C 17.75 14.230469 17.578125 13.800781 17.230469 13.449219 C 16.878906 13.101563 16.460938 12.921875 15.96875 12.921875 L 5.570313 12.921875 C 5.410156 12.921875 5.269531 12.980469 5.148438 13.089844 C 5.039063 13.210938 4.980469 13.339844 4.980469 13.5 Z M 4.980469 11.480469 C 4.980469 11.648438 5.039063 11.78125 5.148438 11.871094 C 5.269531 11.980469 5.410156 12.03125 5.570313 12.03125 L 19.378906 12.03125 C 19.871094 12.03125 20.300781 11.851563 20.648438 11.511719 C 21 11.160156 21.171875 10.738281 21.171875 10.238281 C 21.171875 9.75 21 9.328125 20.648438 8.980469 C 20.300781 8.628906 19.878906 8.460938 19.378906 8.460938 C 18.890625 8.460938 18.46875 8.628906 18.109375 8.96875 C 18 9.089844 17.949219 9.238281 17.949219 9.390625 C 17.949219 9.550781 18 9.691406 18.109375 9.789063 C 18.21875 9.890625 18.351563 9.941406 18.511719 9.941406 C 18.660156 9.941406 18.800781 9.890625 18.921875 9.78125 C 19.039063 9.660156 19.191406 9.601563 19.371094 9.601563 C 19.539063 9.601563 19.699219 9.660156 19.828125 9.78125 C 19.960938 9.898438 20.03125 10.050781 20.03125 10.230469 C 20.03125 10.410156 19.960938 10.570313 19.828125 10.699219 C 19.699219 10.828125 19.550781 10.898438 19.371094 10.898438 L 5.570313 10.898438 C 5.410156 10.898438 5.269531 10.960938 5.148438 11.070313 C 5.039063 11.179688 4.980469 11.320313 4.980469 11.480469 Z M 17.980469 20.351563 L 21.550781 20.351563 L 21.230469 21.898438 L 23.429688 21.898438 L 23.789063 20.351563 L 24.800781 20.351563 L 25.160156 18.449219 L 24.160156 18.449219 L 25.058594 14.109375 L 22.839844 14.109375 L 18.410156 18.269531 Z M 20.230469 18.449219 L 22.46875 16.238281 L 22.5 16.238281 L 22.011719 18.449219 Z M 20.230469 18.449219 "/>
</g>
</svg>
