<?xml version="1.0" encoding="UTF-8"?>
<svg xmlns="http://www.w3.org/2000/svg" xmlns:xlink="http://www.w3.org/1999/xlink" width="30pt" height="30pt" viewBox="0 0 30 30" version="1.1">
<g id="surface1046">
<path style=" stroke:none;fill-rule:nonzero;fill:rgb(0%,0%,0%);fill-opacity:1;" d="M 3.070313 13.5 C 3.070313 13.679688 3.128906 13.808594 3.238281 13.898438 C 3.359375 14.011719 3.5 14.070313 3.660156 14.070313 L 14.058594 14.070313 C 14.230469 14.070313 14.390625 14.128906 14.519531 14.261719 C 14.648438 14.378906 14.71875 14.539063 14.71875 14.71875 C 14.71875 14.898438 14.648438 15.058594 14.519531 15.191406 C 14.390625 15.320313 14.238281 15.390625 14.058594 15.390625 C 13.878906 15.390625 13.71875 15.320313 13.589844 15.179688 C 13.460938 15.070313 13.328125 15.019531 13.191406 15.019531 C 13.03125 15.019531 12.890625 15.070313 12.78125 15.179688 C 12.671875 15.289063 12.621094 15.421875 12.621094 15.570313 C 12.621094 15.730469 12.679688 15.871094 12.789063 15.980469 C 13.148438 16.339844 13.570313 16.511719 14.070313 16.511719 C 14.570313 16.511719 14.980469 16.339844 15.328125 15.988281 C 15.679688 15.640625 15.851563 15.21875 15.851563 14.71875 C 15.851563 14.230469 15.679688 13.800781 15.328125 13.449219 C 14.980469 13.101563 14.558594 12.921875 14.070313 12.921875 L 3.660156 12.921875 C 3.5 12.921875 3.359375 12.980469 3.238281 13.089844 C 3.128906 13.210938 3.070313 13.339844 3.070313 13.5 Z M 3.070313 11.480469 C 3.070313 11.648438 3.128906 11.78125 3.238281 11.871094 C 3.359375 11.980469 3.5 12.03125 3.660156 12.03125 L 17.46875 12.03125 C 17.960938 12.03125 18.390625 11.851563 18.738281 11.511719 C 19.089844 11.160156 19.261719 10.738281 19.261719 10.238281 C 19.261719 9.75 19.089844 9.328125 18.738281 8.980469 C 18.390625 8.628906 17.96875 8.460938 17.46875 8.460938 C 16.980469 8.460938 16.558594 8.628906 16.199219 8.96875 C 16.089844 9.089844 16.039063 9.238281 16.039063 9.390625 C 16.039063 9.550781 16.089844 9.691406 16.199219 9.789063 C 16.308594 9.890625 16.441406 9.941406 16.601563 9.941406 C 16.75 9.941406 16.890625 9.890625 17.011719 9.78125 C 17.128906 9.660156 17.28125 9.601563 17.460938 9.601563 C 17.628906 9.601563 17.789063 9.660156 17.921875 9.78125 C 18.050781 9.898438 18.121094 10.050781 18.121094 10.230469 C 18.121094 10.410156 18.050781 10.570313 17.921875 10.699219 C 17.789063 10.828125 17.640625 10.898438 17.460938 10.898438 L 3.660156 10.898438 C 3.5 10.898438 3.359375 10.960938 3.238281 11.070313 C 3.128906 11.179688 3.070313 11.320313 3.070313 11.480469 Z M 15.960938 21.898438 L 18.429688 21.898438 L 20.078125 13.910156 L 17.609375 13.910156 Z M 19.511719 21.898438 L 26.128906 21.898438 L 26.53125 20 L 22.859375 20 L 22.859375 19.980469 C 23.058594 19.890625 23.351563 19.761719 23.71875 19.609375 C 24.101563 19.460938 24.410156 19.328125 24.671875 19.230469 C 24.929688 19.128906 25.210938 18.980469 25.53125 18.789063 C 25.851563 18.601563 26.109375 18.410156 26.300781 18.210938 C 26.488281 18.011719 26.660156 17.761719 26.800781 17.460938 C 26.941406 17.160156 27.011719 16.820313 27.011719 16.460938 C 27.011719 15.898438 26.871094 15.441406 26.578125 15.058594 C 26.289063 14.679688 25.929688 14.421875 25.5 14.261719 C 25.070313 14.101563 24.578125 14.03125 24.050781 14.03125 C 23.078125 14.03125 22.289063 14.289063 21.679688 14.808594 C 21.070313 15.328125 20.699219 16.101563 20.578125 17.121094 L 22.648438 17.121094 C 22.648438 16.738281 22.761719 16.429688 22.980469 16.171875 C 23.199219 15.910156 23.511719 15.789063 23.910156 15.789063 C 24.210938 15.789063 24.429688 15.871094 24.578125 16.03125 C 24.730469 16.191406 24.800781 16.371094 24.800781 16.578125 C 24.800781 16.898438 24.691406 17.160156 24.46875 17.339844 C 24.25 17.519531 23.839844 17.761719 23.21875 18.058594 C 23.179688 18.070313 23.148438 18.078125 23.140625 18.101563 C 22.25 18.53125 21.699219 18.800781 21.488281 18.929688 C 20.699219 19.398438 20.148438 19.988281 19.839844 20.671875 C 19.679688 21.03125 19.570313 21.441406 19.511719 21.898438 Z M 19.511719 21.898438 "/>
</g>
</svg>
